<?xml version="1.0" encoding="UTF-8" standalone="no"?>
<!-- Created with Inkscape (http://www.inkscape.org/) -->

<svg
   xmlns:dc="http://purl.org/dc/elements/1.1/"
   xmlns:cc="http://creativecommons.org/ns#"
   xmlns:rdf="http://www.w3.org/1999/02/22-rdf-syntax-ns#"
   xmlns:svg="http://www.w3.org/2000/svg"
   xmlns="http://www.w3.org/2000/svg"
   xmlns:sodipodi="http://sodipodi.sourceforge.net/DTD/sodipodi-0.dtd"
   xmlns:inkscape="http://www.inkscape.org/namespaces/inkscape"
   width="64"
   height="64"
   viewBox="0 0 16.933333 16.933334"
   version="1.1"
   id="svg8"
   inkscape:version="0.92.3 (2405546, 2018-03-11)"
   sodipodi:docname="Aluprof_cmd.svg">
  <defs
     id="defs2" />
  <sodipodi:namedview
     id="base"
     pagecolor="#ffffff"
     bordercolor="#666666"
     borderopacity="1.0"
     inkscape:pageopacity="0.0"
     inkscape:pageshadow="2"
     inkscape:zoom="8"
     inkscape:cx="89.729238"
     inkscape:cy="10.401922"
     inkscape:document-units="mm"
     inkscape:current-layer="layer1"
     showgrid="false"
     units="px"
     inkscape:window-width="1920"
     inkscape:window-height="1027"
     inkscape:window-x="1072"
     inkscape:window-y="-8"
     inkscape:window-maximized="1" />
  <metadata
     id="metadata5">
    <rdf:RDF>
      <cc:Work
         rdf:about="">
        <dc:format>image/svg+xml</dc:format>
        <dc:type
           rdf:resource="http://purl.org/dc/dcmitype/StillImage" />
        <dc:title></dc:title>
      </cc:Work>
    </rdf:RDF>
  </metadata>
  <g
     inkscape:label="Capa 1"
     inkscape:groupmode="layer"
     id="layer1"
     transform="translate(0,-280.06665)">
    <path
       style="fill:none;stroke:#000000;stroke-width:0.30042729;stroke-linecap:butt;stroke-linejoin:miter;stroke-miterlimit:4;stroke-dasharray:none;stroke-opacity:1"
       d="m 8.1105578,293.94023 0.0502,2.85922 2.4601332,-1.37944 v -0.85275 l -1.2300682,0.72734 1.3869652,-2.47047 1.819996,-1.02832 1.399515,0.79004 -1.236342,0.74617 -0.0063,0.80883 2.472686,-1.40451 0.01261,-2.87179 -0.696619,0.39503 0.0063,1.49863 -1.443445,-0.82771 0.01261,-2.17579 1.405788,-2.40148 -0.01261,1.39827 0.696621,-0.39504 v -2.78401 l -2.46641,1.3481 0.01261,0.80263 1.242619,-0.696 -1.374412,2.4642 -1.863929,1.07221 -1.4120652,-0.86528 1.2363422,-0.66466 0.0063,-0.859 -2.4601342,1.4233 -0.0063,2.89062 0.709174,-0.40757 0.0063,-1.4735 1.4183422,0.79631 v 2.16322 l -1.4246182,2.42661 0.0063,-1.44843 z"
       id="path1168"
       inkscape:connector-curvature="0" />
    <path
       style="fill:none;stroke:#000000;stroke-width:0.30042729;stroke-linecap:butt;stroke-linejoin:miter;stroke-miterlimit:4;stroke-dasharray:none;stroke-opacity:1"
       d="m 10.695111,294.42629 -0.565595,-0.33177"
       id="path1179"
       inkscape:connector-curvature="0" />
    <path
       style="fill:none;stroke:#000000;stroke-width:0.30042729;stroke-linecap:butt;stroke-linejoin:miter;stroke-miterlimit:4;stroke-dasharray:none;stroke-opacity:1"
       d="m 12.67867,294.26771 -2.00195,-1.17126"
       id="path1235"
       inkscape:connector-curvature="0"
       sodipodi:nodetypes="cc" />
    <path
       style="fill:none;stroke:#000000;stroke-width:0.30042729;stroke-linecap:butt;stroke-linejoin:miter;stroke-miterlimit:4;stroke-dasharray:none;stroke-opacity:1"
       d="M 12.76095,293.33202 11.358938,292.557"
       id="path1237"
       inkscape:connector-curvature="0" />
    <path
       style="fill:none;stroke:#000000;stroke-width:0.30042729;stroke-linecap:butt;stroke-linejoin:miter;stroke-miterlimit:4;stroke-dasharray:none;stroke-opacity:1"
       d="m 15.317607,289.73114 -2.001949,-1.17127"
       id="path1235-1"
       inkscape:connector-curvature="0"
       sodipodi:nodetypes="cc" />
    <path
       style="fill:none;stroke:#000000;stroke-width:0.30042729;stroke-linecap:butt;stroke-linejoin:miter;stroke-miterlimit:4;stroke-dasharray:none;stroke-opacity:1"
       d="m 14.543328,290.25958 -1.457206,-0.86405"
       id="path1235-1-7"
       inkscape:connector-curvature="0"
       sodipodi:nodetypes="cc" />
    <path
       style="fill:none;stroke:#000000;stroke-width:0.30042729;stroke-linecap:butt;stroke-linejoin:miter;stroke-miterlimit:4;stroke-dasharray:none;stroke-opacity:1"
       d="M 14.442225,287.87523 13.89985,287.527"
       id="path1235-1-8"
       inkscape:connector-curvature="0"
       sodipodi:nodetypes="cc" />
    <path
       style="fill:none;stroke:#000000;stroke-width:0.30042729;stroke-linecap:butt;stroke-linejoin:miter;stroke-miterlimit:4;stroke-dasharray:none;stroke-opacity:1"
       d="m 12.037163,291.40187 -0.07145,0.0774 -0.118033,0.11143 -0.09008,0.0774 -0.139794,0.0931 -0.118033,0.0495 -0.170839,0.0211 -0.08077,-0.009 -0.111836,-0.0309 -0.118034,-0.0774 -0.04037,-0.0465 -0.05596,-0.0634 v 0 l -0.0525,-0.10224 c -0.01351,-0.0307 -0.01471,-0.061 -0.02825,-0.0916 v -0.13326 l 0.0063,-0.2391 0.02164,-0.17049 0.0559,-0.19557 0.08077,-0.20769 0.06522,-0.13356 0.06213,-0.0962 0.07767,-0.0995 0.06834,-0.0807 0.08388,-0.0867 0.09939,-0.0962 0.108713,-0.0931 0.118033,-0.0931 0.118034,-0.0774 0.09008,-0.034 0.102516,-0.0181 0.105623,-0.003 0.08077,0.003 0.06213,0.0181 0.04972,0.0309 0.03726,0.0307 0.04972,0.0465 0.02796,0.0307 0.03726,0.053 0.02795,0.056 0.01864,0.056 0.01563,0.0714 0.0063,0.0682 0.0063,0.0774 0.003,0.0807 v 0.056 0.0995 l -0.0063,0.0867 -0.0093,0.0807 -0.01864,0.11173 -0.03105,0.0932 -0.0404,0.0995 -0.0528,0.10556 -0.05281,0.0962 -0.05903,0.10254 -0.05281,0.0717 -0.04972,0.0679 -0.06213,0.0774 z"
       id="path2406"
       inkscape:connector-curvature="0"
       sodipodi:nodetypes="ccccccccccccccccccccccccccccccccccccccccccccccccccccccccccc" />
    <path
       style="fill:none;stroke:#000000;stroke-width:0.30352512;stroke-linecap:butt;stroke-linejoin:miter;stroke-miterlimit:4;stroke-dasharray:none;stroke-opacity:1"
       d="M 8.0885468,296.92231 1.466211,293.03386"
       id="path1237-3"
       inkscape:connector-curvature="0"
       sodipodi:nodetypes="cc" />
    <path
       style="fill:none;stroke:#000000;stroke-width:0.30042729;stroke-linecap:butt;stroke-linejoin:miter;stroke-miterlimit:4;stroke-dasharray:none;stroke-opacity:1"
       d="M 8.1105578,293.94023 1.5643684,290.08645"
       id="path1237-3-0"
       inkscape:connector-curvature="0"
       sodipodi:nodetypes="cc" />
    <path
       style="fill:none;stroke:#000000;stroke-width:0.30042729;stroke-linecap:butt;stroke-linejoin:miter;stroke-miterlimit:4;stroke-dasharray:none;stroke-opacity:1"
       d="M 8.9178358,293.42672 2.3716434,289.5729"
       id="path1237-3-4"
       inkscape:connector-curvature="0"
       sodipodi:nodetypes="cc" />
    <path
       style="fill:none;stroke:#000000;stroke-width:0.30042729;stroke-linecap:butt;stroke-linejoin:miter;stroke-miterlimit:4;stroke-dasharray:none;stroke-opacity:1"
       d="M 8.0548978,291.6189 1.5087057,287.76511"
       id="path1237-3-4-6"
       inkscape:connector-curvature="0"
       sodipodi:nodetypes="cc" />
    <path
       style="fill:none;stroke:#000000;stroke-width:0.30042729;stroke-linecap:butt;stroke-linejoin:miter;stroke-miterlimit:4;stroke-dasharray:none;stroke-opacity:1"
       d="m 8.1295508,288.59795 -6.546193,-3.85381"
       id="path1237-3-4-1"
       inkscape:connector-curvature="0"
       sodipodi:nodetypes="cc" />
    <path
       style="fill:none;stroke:#000000;stroke-width:0.30042729;stroke-linecap:butt;stroke-linejoin:miter;stroke-miterlimit:4;stroke-dasharray:none;stroke-opacity:1"
       d="M 10.664238,287.04425 4.1180463,283.19047"
       id="path1237-3-4-8"
       inkscape:connector-curvature="0"
       sodipodi:nodetypes="cc" />
    <path
       style="fill:none;stroke:#000000;stroke-width:0.30042729;stroke-linecap:butt;stroke-linejoin:miter;stroke-miterlimit:4;stroke-dasharray:none;stroke-opacity:1"
       d="M 12.742192,285.92055 6.1960006,282.06677"
       id="path1237-3-4-8-6"
       inkscape:connector-curvature="0"
       sodipodi:nodetypes="cc" />
    <path
       style="fill:none;stroke:#000000;stroke-width:0.30042729;stroke-linecap:butt;stroke-linejoin:miter;stroke-miterlimit:4;stroke-dasharray:none;stroke-opacity:1"
       d="M 15.280048,284.45143 8.7338528,280.59762"
       id="path1237-3-4-8-2"
       inkscape:connector-curvature="0"
       sodipodi:nodetypes="cc" />
    <path
       style="fill:none;stroke:#000000;stroke-width:0.30042729;stroke-linecap:butt;stroke-linejoin:miter;stroke-miterlimit:4;stroke-dasharray:none;stroke-opacity:1"
       d="M 12.688479,286.84845 6.1422832,282.99466"
       id="path1237-3-4-8-2-9"
       inkscape:connector-curvature="0"
       sodipodi:nodetypes="cc" />
    <path
       style="fill:none;stroke:#000000;stroke-width:0.30042729;stroke-linecap:butt;stroke-linejoin:miter;stroke-miterlimit:4;stroke-dasharray:none;stroke-opacity:1"
       d="m 12.623023,288.49138 -2.033339,-1.31673"
       id="path1237-3-4-8-2-9-7"
       inkscape:connector-curvature="0"
       sodipodi:nodetypes="cc" />
    <path
       style="fill:none;stroke:#000000;stroke-width:0.30042729;stroke-linecap:butt;stroke-linejoin:miter;stroke-miterlimit:4;stroke-dasharray:none;stroke-opacity:1"
       d="M 10.257067,292.56703 8.1232388,291.48857"
       id="path1237-3-4-8-2-9-8"
       inkscape:connector-curvature="0"
       sodipodi:nodetypes="cc" />
    <path
       style="fill:none;stroke:#000000;stroke-width:0.30785868;stroke-linecap:butt;stroke-linejoin:miter;stroke-miterlimit:4;stroke-dasharray:none;stroke-opacity:1"
       d="m 1.5408041,293.16834 0.098076,-3.09758"
       id="path3821"
       inkscape:connector-curvature="0" />
    <path
       style="fill:none;stroke:#000000;stroke-width:0.30042729;stroke-linecap:butt;stroke-linejoin:miter;stroke-miterlimit:4;stroke-dasharray:none;stroke-opacity:1"
       d="m 2.5269641,289.56983 -0.9595313,0.61579"
       id="path4147"
       inkscape:connector-curvature="0"
       sodipodi:nodetypes="cc" />
    <path
       style="fill:none;stroke:#000000;stroke-width:0.30785868;stroke-linecap:butt;stroke-linejoin:miter;stroke-miterlimit:4;stroke-dasharray:none;stroke-opacity:1"
       d="m 1.5784736,287.89444 0.085651,-3.20306"
       id="path3821-3"
       inkscape:connector-curvature="0"
       sodipodi:nodetypes="cc" />
    <path
       style="fill:none;stroke:#000000;stroke-width:0.30042729;stroke-linecap:butt;stroke-linejoin:miter;stroke-miterlimit:4;stroke-dasharray:none;stroke-opacity:1"
       d="m 4.273364,283.19047 -2.6874688,1.62615"
       id="path4147-0"
       inkscape:connector-curvature="0"
       sodipodi:nodetypes="cc" />
    <path
       style="fill:none;stroke:#000000;stroke-width:0.30042729;stroke-linecap:butt;stroke-linejoin:miter;stroke-miterlimit:4;stroke-dasharray:none;stroke-opacity:1"
       d="m 6.2037881,283.11315 0.0099,-1.18243"
       id="path5430"
       inkscape:connector-curvature="0"
       sodipodi:nodetypes="cc" />
    <path
       style="fill:none;stroke:#000000;stroke-width:0.30042729;stroke-linecap:butt;stroke-linejoin:miter;stroke-miterlimit:4;stroke-dasharray:none;stroke-opacity:1"
       d="m 6.1338714,282.06366 2.7521934,-1.45982"
       id="path5432"
       inkscape:connector-curvature="0"
       sodipodi:nodetypes="cc" />
    <path
       style="fill:none;stroke:#000000;stroke-width:0.3;stroke-linecap:butt;stroke-linejoin:miter;stroke-opacity:1;stroke-miterlimit:4;stroke-dasharray:none"
       d="m 2.9827635,289.94098 0.5436362,-0.97772"
       id="path5811"
       inkscape:connector-curvature="0" />
    <path
       style="fill:none;stroke:#000000;stroke-width:0.3;stroke-linecap:butt;stroke-linejoin:miter;stroke-opacity:1;stroke-miterlimit:4;stroke-dasharray:none"
       d="m 6.1846353,284.43227 0.611849,-1.04179"
       id="path5822"
       inkscape:connector-curvature="0" />
    <path
       style="fill:#fce94f;fill-opacity:1;stroke-width:0.28346458;stroke-linecap:round;stroke-linejoin:miter;stroke-miterlimit:4;stroke-dasharray:none;paint-order:markers fill stroke"
       d="m 18.232435,55.676708 -11.625,-6.857389 0.091473,-4.682807 c 0.05031,-2.575544 0.1272655,-4.722262 0.1710114,-4.770485 0.081176,-0.08948 22.6084306,13.114871 22.8950976,13.419966 0.210172,0.223682 0.457643,9.798986 0.252513,9.770408 -0.08805,-0.01227 -5.391345,-3.108129 -11.785095,-6.879693 z"
       id="path5826"
       inkscape:connector-curvature="0"
       transform="matrix(0.26458333,0,0,0.26458333,0,280.06665)" />
    <path
       style="fill:#fce94f;fill-opacity:1;stroke-width:0.05010993;stroke-linecap:round;stroke-linejoin:miter;stroke-miterlimit:4;stroke-dasharray:none;paint-order:markers fill stroke"
       d="M 18.983745,44.889813 C 12.598218,41.130412 7.3734505,38.044596 7.3731505,38.032442 c -3e-4,-0.01215 0.42728,-0.295324 0.9501778,-0.629268 l 0.9507233,-0.607171 11.7277634,6.904188 c 6.45027,3.797303 11.719974,6.91679 11.710454,6.932194 -0.0321,0.05194 -2.002327,1.100288 -2.060681,1.096476 -0.03179,-0.0021 -5.282317,-3.079648 -11.667843,-6.839048 z"
       id="path5846"
       inkscape:connector-curvature="0"
       transform="matrix(0.26458333,0,0,0.26458333,0,280.06665)" />
    <path
       style="fill:#fce94f;fill-opacity:1;stroke-width:0.05010993;stroke-linecap:round;stroke-linejoin:miter;stroke-miterlimit:4;stroke-dasharray:none;paint-order:markers fill stroke"
       d="m 33.981968,52.105425 0.01478,-2.124181 -10.949107,-6.445758 C 17.02563,39.990319 12.098532,37.079767 12.098532,37.067594 c 0,-0.05799 1.472417,-2.655636 1.496772,-2.640616 0.01536,0.0095 3.745871,2.205915 8.290025,4.880982 l 8.262098,4.863759 0.134795,-0.0797 c 0.07414,-0.04384 0.204401,-0.119235 0.289474,-0.167551 l 0.15468,-0.08785 3.591991,1.815641 c 2.643567,1.336241 3.58748,1.833144 3.574908,1.881932 -0.01554,0.06029 -3.854814,6.621823 -3.904684,6.67332 -0.01177,0.01215 -0.01475,-0.933785 -0.0066,-2.102085 z"
       id="path5848"
       inkscape:connector-curvature="0"
       transform="matrix(0.26458333,0,0,0.26458333,0,280.06665)" />
    <path
       style="fill:#fce94f;fill-opacity:1;stroke-width:0.05010993;stroke-linecap:round;stroke-linejoin:miter;stroke-miterlimit:4;stroke-dasharray:none;paint-order:markers fill stroke"
       d="m 31.409333,61.913427 c -0.0011,-0.191173 -0.03854,-2.316438 -0.08313,-4.72281 -0.0446,-2.406373 -0.06853,-4.388551 -0.05319,-4.404841 0.03505,-0.03721 1.495932,-0.832169 1.529275,-0.832169 0.01349,0 0.01177,1.486581 -0.0038,3.303514 -0.01966,2.291684 -0.01422,3.289979 0.01774,3.259321 0.02534,-0.02431 1.509583,-2.537764 3.298317,-5.585461 l 3.252244,-5.541268 -0.01126,-4.336107 -0.01126,-4.336108 -3.248272,-1.823758 -3.248272,-1.823759 -0.02682,2.464551 c -0.01475,1.355503 -0.02967,2.756554 -0.03315,3.113446 l -0.0063,0.648895 -0.738257,0.421126 c -0.406042,0.231619 -0.745421,0.413962 -0.754176,0.405208 -0.0088,-0.0088 -0.0016,-2.161342 0.01591,-4.783527 l 0.03183,-4.767608 3.77895,-2.186416 c 2.078422,-1.20253 3.89503,-2.252203 4.036906,-2.332608 l 0.257957,-0.14619 v 0.926042 0.926042 l -2.607456,1.40168 c -1.434101,0.770923 -2.607456,1.415094 -2.607456,1.431489 0,0.0164 1.453359,0.920301 3.229688,2.008678 l 3.229688,1.978867 3.745005,-2.153739 3.745004,-2.153739 3.120397,-5.594101 c 1.716218,-3.076755 3.105007,-5.599722 3.086197,-5.606593 -0.01881,-0.0069 -1.275211,0.683156 -2.792002,1.533393 l -2.757803,1.545887 -0.02701,-0.826287 c -0.01486,-0.454458 -0.01486,-0.838903 0,-0.854323 0.01486,-0.01542 1.76716,-0.977664 3.894004,-2.13832 2.126845,-1.160656 3.951512,-2.159214 4.054816,-2.219017 l 0.187825,-0.108734 v 4.596721 4.596721 l -0.707814,0.40142 c -0.389298,0.220781 -0.719942,0.40142 -0.734765,0.40142 -0.01482,0 -0.01256,-1.436863 0.005,-3.193029 0.02169,-2.166329 0.01751,-3.178819 -0.01302,-3.148835 -0.02475,0.02431 -1.483439,2.500285 -3.241539,5.502174 l -3.196546,5.457981 -0.02751,1.701476 c -0.01513,0.935811 -0.02969,2.914605 -0.03237,4.39732 l -0.0049,2.695845 3.276803,1.878252 c 1.802242,1.033039 3.29661,1.885936 3.320819,1.895328 0.02912,0.0113 0.03528,-1.054054 0.0182,-3.148164 l -0.02582,-3.165241 0.701691,-0.398418 c 0.385931,-0.21913 0.712581,-0.398418 0.72589,-0.398418 0.03371,0 0.03029,4.806726 -0.0052,7.362117 l -0.02944,2.117534 -4.028224,2.287048 c -2.215524,1.257877 -4.041857,2.287049 -4.058518,2.287049 -0.01666,0 -0.03029,-0.374349 -0.03029,-0.831886 v -0.831886 l 2.585177,-1.558525 c 1.421848,-0.857189 2.595002,-1.574421 2.607008,-1.593849 0.01808,-0.02925 -6.235701,-3.594187 -6.375338,-3.634229 -0.02457,-0.007 -1.684635,0.911953 -3.689037,2.042219 l -3.644368,2.05503 -3.171577,5.647937 c -1.744366,3.106365 -3.161311,5.658201 -3.148767,5.670746 0.01709,0.01709 4.875862,-2.825561 5.456689,-3.19247 l 0.09944,-0.06282 v 0.923812 0.92381 l -3.966427,2.222543 c -2.181535,1.222399 -4.011174,2.251265 -4.065864,2.286368 l -0.09944,0.06383 z M 43.215252,45.012893 c 0.717414,-0.08962 1.362082,-0.454952 2.171557,-1.230623 0.464081,-0.4447 0.567474,-0.565848 1.173151,-1.374605 0.352316,-0.470444 0.839807,-1.351072 1.049977,-1.896726 0.254762,-0.661429 0.306667,-1.028234 0.303822,-2.14704 -0.0028,-1.085697 -0.04741,-1.374211 -0.290679,-1.878253 -0.165133,-0.342151 -0.701284,-0.896835 -1.015101,-1.050189 -0.439333,-0.21469 -1.421868,-0.209327 -2.007105,0.01096 -0.726663,0.273515 -2.117019,1.475719 -2.883963,2.493686 -0.644979,0.856081 -1.186124,2.287826 -1.287683,3.406906 -0.07814,0.861082 -0.06105,1.575508 0.04556,1.904099 0.335007,1.032558 1.234216,1.744778 2.276426,1.803046 0.05083,0.0028 0.259643,-0.01573 0.464039,-0.04126 z"
       id="path5850"
       inkscape:connector-curvature="0"
       transform="matrix(0.26458333,0,0,0.26458333,0,280.06665)" />
    <path
       style="fill:#fce94f;fill-opacity:1;stroke-width:0.05010993;stroke-linecap:round;stroke-linejoin:miter;stroke-miterlimit:4;stroke-dasharray:none;paint-order:markers fill stroke"
       d="m 42.493696,43.824996 c -0.337096,-0.109663 -0.722771,-0.477855 -0.850282,-0.811738 -0.06913,-0.181025 -0.07612,-0.310216 -0.05601,-1.035971 0.02593,-0.936006 0.09964,-1.300541 0.432773,-2.140343 0.237824,-0.599536 0.421209,-0.922666 0.763805,-1.345855 0.572301,-0.70693 1.724267,-1.721532 2.189616,-1.928519 0.206653,-0.09192 0.798943,-0.153374 0.997612,-0.103511 0.156153,0.03919 0.49691,0.357236 0.60068,0.560642 0.04556,0.08931 0.103397,0.289075 0.128523,0.443928 0.06516,0.401592 0.05467,1.631843 -0.01737,2.035798 -0.240215,1.347063 -1.955874,3.641033 -3.15163,4.213975 -0.254898,0.122133 -0.818886,0.182783 -1.037718,0.111594 z"
       id="path5852"
       inkscape:connector-curvature="0"
       transform="matrix(0.26458333,0,0,0.26458333,0,280.06665)" />
    <path
       style="fill:#fce94f;fill-opacity:1;stroke-width:0.05010993;stroke-linecap:round;stroke-linejoin:miter;stroke-miterlimit:4;stroke-dasharray:none;paint-order:markers fill stroke"
       d="M 35.433056,44.898891 C 33.962494,44.155264 32.5755,43.454486 32.350846,43.341608 l -0.408461,-0.205233 1.005083,-0.576565 1.005083,-0.576565 0.0221,-2.4576 0.0221,-2.457599 2.088175,1.171976 2.088174,1.171975 v 3.420281 c 0,1.881154 -0.01492,3.419917 -0.03314,3.419472 -0.01823,-4.47e-4 -1.236332,-0.609231 -2.706893,-1.352859 z"
       id="path5854"
       inkscape:connector-curvature="0"
       transform="matrix(0.26458333,0,0,0.26458333,0,280.06665)" />
    <path
       style="fill:#fce94f;fill-opacity:1;stroke-width:0.05010993;stroke-linecap:round;stroke-linejoin:miter;stroke-miterlimit:4;stroke-dasharray:none;paint-order:markers fill stroke"
       d="m 38.599008,33.936163 c -1.627937,-0.997772 -2.055609,-1.278339 -2.004538,-1.315043 0.03571,-0.02566 0.952109,-0.52276 2.036449,-1.104663 l 1.971527,-1.058004 0.01171,-1.250819 0.01171,-1.250818 2.938913,1.902687 c 1.616401,1.046477 2.952414,1.916405 2.968917,1.933172 0.02166,0.02201 -5.63629,3.317879 -5.837674,3.400558 -0.01516,0.0062 -0.958816,-0.559458 -2.097019,-1.25707 z"
       id="path5856"
       inkscape:connector-curvature="0"
       transform="matrix(0.26458333,0,0,0.26458333,0,280.06665)" />
    <path
       style="fill:#fce94f;fill-opacity:1;stroke-width:0.05010993;stroke-linecap:round;stroke-linejoin:miter;stroke-miterlimit:4;stroke-dasharray:none;paint-order:markers fill stroke"
       d="M 18.32991,35.847058 6.5963572,28.936278 6.607061,28.47937 c 0.06618,-2.825016 0.2469082,-9.564356 0.2567947,-9.575864 0.00707,-0.0082 5.2445383,3.064373 11.6388263,6.827999 l 11.625978,6.842957 5.48e-4,5.093378 c 3.09e-4,2.801358 -0.01437,5.092619 -0.0326,5.091689 -0.01823,-9.28e-4 -5.313245,-3.111541 -11.766699,-6.912471 z"
       id="path5858"
       inkscape:connector-curvature="0"
       transform="matrix(0.26458333,0,0,0.26458333,0,280.06665)" />
    <path
       style="fill:#fce94f;fill-opacity:1;stroke-width:0.05010993;stroke-linecap:round;stroke-linejoin:miter;stroke-miterlimit:4;stroke-dasharray:none;paint-order:markers fill stroke"
       d="M 19.081211,24.704 C 12.700677,20.946969 7.4552897,17.858822 7.424794,17.84145 7.3908923,17.822139 8.3691186,17.205262 9.9422994,16.253892 l 2.5729526,-1.555974 h 3.39917 3.39917 l 10.044359,5.910971 c 5.524397,3.251034 10.031293,5.924204 10.015324,5.940377 -0.05888,0.05964 -8.602019,4.986616 -8.645764,4.986167 -0.02493,-2.56e-4 -5.265766,-3.074401 -11.6463,-6.831433 z"
       id="path5860"
       inkscape:connector-curvature="0"
       transform="matrix(0.26458333,0,0,0.26458333,0,280.06665)" />
    <path
       style="fill:#fce94f;fill-opacity:1;stroke-width:0.10021986;stroke-linecap:round;stroke-linejoin:miter;stroke-miterlimit:4;stroke-dasharray:none;paint-order:markers fill stroke"
       d="m 44.029731,28.726022 -3.421263,-2.217058 v -0.33505 -0.33505 l -8.153825,-4.796219 c -4.484604,-2.63792 -8.164093,-4.804073 -8.176642,-4.813673 -0.04535,-0.03469 1.576363,-2.742063 1.659539,-2.770533 0.04694,-0.01607 4.954354,2.837117 10.90537,6.340408 l 10.820028,6.369618 1.740947,-0.976471 c 0.957522,-0.537059 1.758651,-0.958768 1.780288,-0.937131 0.03783,0.03783 -3.534931,6.48834 -3.668057,6.622561 -0.03582,0.03611 -1.60469,-0.93202 -3.486385,-2.151402 z"
       id="path5871"
       inkscape:connector-curvature="0"
       transform="matrix(0.26458333,0,0,0.26458333,0,280.06665)" />
    <path
       style="fill:#fce94f;fill-opacity:1;stroke-width:0.03543307;stroke-linecap:round;stroke-linejoin:miter;stroke-miterlimit:4;stroke-dasharray:none;paint-order:markers fill stroke"
       d="m 37.117441,55.87512 c 0,-0.01193 0.270608,-0.503495 0.60135,-1.092364 0.56795,-1.011203 0.604834,-1.068484 0.664063,-1.031291 0.03449,0.02166 0.312322,0.185753 0.6174,0.364654 0.305078,0.178901 0.554682,0.332822 0.554676,0.342046 -1.1e-5,0.01754 -2.391061,1.438648 -2.420567,1.438648 -0.0093,0 -0.01692,-0.0098 -0.01692,-0.02169 z"
       id="path5882"
       inkscape:connector-curvature="0"
       transform="matrix(0.26458333,0,0,0.26458333,0,280.06665)" />
    <path
       style="fill:#fce94f;fill-opacity:1;stroke-width:0.03543307;stroke-linecap:round;stroke-linejoin:miter;stroke-miterlimit:4;stroke-dasharray:none;paint-order:markers fill stroke"
       d="m 44.283304,50.872634 -3.287262,-1.926141 0.08414,-0.150601 c 0.08044,-0.14398 0.118368,-0.169941 0.862782,-0.590543 0.74792,-0.422583 0.782018,-0.438275 0.864122,-0.397677 0.04701,0.02325 1.155136,0.632891 2.462497,1.354766 l 2.37702,1.3125 10e-4,0.596553 c 0.0013,0.720906 -0.03299,1.732391 -0.05857,1.729428 -0.01018,-0.0012 -1.497773,-0.868907 -3.305767,-1.928285 z"
       id="path5886"
       inkscape:connector-curvature="0"
       transform="matrix(0.26458333,0,0,0.26458333,0,280.06665)" />
    <path
       style="fill:#fce94f;fill-opacity:1;stroke-width:0.03543307;stroke-linecap:round;stroke-linejoin:miter;stroke-miterlimit:4;stroke-dasharray:none;paint-order:markers fill stroke"
       d="m 46.064684,48.277846 c -1.823175,-1.007813 -2.123501,-1.18357 -2.079762,-1.21712 0.02812,-0.02157 0.850518,-0.490624 1.827558,-1.042351 1.057721,-0.597287 1.79801,-0.997201 1.829761,-0.988462 0.100526,0.02767 4.053325,2.274895 4.053325,2.304377 0,0.02646 -3.366043,2.077302 -3.460696,2.108507 -0.02162,0.0071 -0.998201,-0.517102 -2.170186,-1.164951 z"
       id="path5888"
       inkscape:connector-curvature="0"
       transform="matrix(0.26458333,0,0,0.26458333,0,280.06665)" />
    <path
       style="fill:#fce94f;fill-opacity:1;stroke-width:0.03543307;stroke-linecap:round;stroke-linejoin:miter;stroke-miterlimit:4;stroke-dasharray:none;paint-order:markers fill stroke"
       d="m 52.247239,41.945945 -2.135827,-1.221007 0.02146,-2.171875 c 0.0118,-1.194531 0.02599,-2.176499 0.03152,-2.18215 0.0097,-0.0099 4.071932,2.390515 4.18095,2.47062 0.05035,0.037 0.05342,0.183204 0.04584,2.182537 l -0.0081,2.142883 z"
       id="path5890"
       inkscape:connector-curvature="0"
       transform="matrix(0.26458333,0,0,0.26458333,0,280.06665)" />
    <path
       style="fill:#fce94f;fill-opacity:1;stroke-width:0.03543307;stroke-linecap:round;stroke-linejoin:miter;stroke-miterlimit:4;stroke-dasharray:none;paint-order:markers fill stroke"
       d="m 52.554941,36.416041 -2.390625,-1.417791 -0.0083,-0.979921 c -0.0081,-0.965783 -0.0072,-0.981848 0.0625,-1.113515 0.04466,-0.08431 0.08648,-0.127583 0.113359,-0.117299 0.03854,0.01474 6.407411,3.733256 6.60229,3.854795 l 0.08238,0.05138 -1.007916,0.570312 c -0.554353,0.313672 -1.020331,0.570204 -1.035506,0.570072 -0.01517,-1.25e-4 -1.103372,-0.638247 -2.418216,-1.418031 z"
       id="path5892"
       inkscape:connector-curvature="0"
       transform="matrix(0.26458333,0,0,0.26458333,0,280.06665)" />
    <path
       style="fill:#fce94f;fill-opacity:1;stroke-width:0.10021986;stroke-linecap:round;stroke-linejoin:miter;stroke-miterlimit:4;stroke-dasharray:none;paint-order:markers fill stroke"
       d="M 36.44338,14.521094 C 30.002079,10.727742 24.701203,7.5938879 24.663656,7.5569745 c -0.06754,-0.066397 8.464873,-4.6400683 8.639679,-4.6311708 0.06505,0.00331 18.958452,11.0968923 23.143874,13.5893173 l 0.337423,0.200935 -4.265002,2.331784 c -2.34575,1.282481 -4.287454,2.34044 -4.314897,2.351021 -0.02744,0.01058 -5.320052,-3.084415 -11.761353,-6.877767 z"
       id="path5905"
       inkscape:connector-curvature="0"
       transform="matrix(0.26458333,0,0,0.26458333,0,280.06665)" />
    <path
       style="fill:#fce94f;fill-opacity:1;stroke-width:0.10021986;stroke-linecap:round;stroke-linejoin:miter;stroke-miterlimit:4;stroke-dasharray:none;paint-order:markers fill stroke"
       d="M 35.803208,17.767679 24.070298,10.86141 24.069655,9.7786525 c -3.54e-4,-0.5955165 0.01597,-1.0827572 0.03627,-1.0827572 0.05208,0 23.326705,13.7011967 23.410934,13.7814367 0.03802,0.03622 0.05791,0.545278 0.04419,1.131237 l -0.02494,1.065379 z"
       id="path5907"
       inkscape:connector-curvature="0"
       transform="matrix(0.26458333,0,0,0.26458333,0,280.06665)" />
    <path
       style="fill:#fce94f;fill-opacity:1;stroke-width:0.10021986;stroke-linecap:round;stroke-linejoin:miter;stroke-miterlimit:4;stroke-dasharray:none;paint-order:markers fill stroke"
       d="m 12.715528,14.626775 c 0.04618,-0.04374 0.774577,-0.49636 1.618653,-1.005821 l 1.534683,-0.926293 1.647297,0.969517 c 0.906013,0.533234 1.66387,0.985854 1.684126,1.005821 0.02025,0.01997 -1.449422,0.0363 -3.26595,0.0363 -1.959835,0 -3.268635,-0.03234 -3.218809,-0.07953 z"
       id="path5909"
       inkscape:connector-curvature="0"
       transform="matrix(0.26458333,0,0,0.26458333,0,280.06665)" />
    <path
       style="fill:#fce94f;fill-opacity:1;stroke-width:0.05010993;stroke-linecap:round;stroke-linejoin:miter;stroke-miterlimit:4;stroke-dasharray:none;paint-order:markers fill stroke"
       d="m 53.722254,28.256368 c -0.297758,-0.193076 -0.541378,-0.362091 -0.541378,-0.37559 0,-0.0135 0.24362,-0.440088 0.541378,-0.947978 l 0.541379,-0.923436 0.01221,0.66302 c 0.0067,0.364662 0.0067,0.949223 0,1.299026 l -0.01221,0.636006 z"
       id="path5929"
       inkscape:connector-curvature="0"
       transform="matrix(0.26458333,0,0,0.26458333,0,280.06665)" />
    <path
       style="fill:#ffff00;fill-opacity:1;stroke-width:0.00885827;stroke-linecap:round;stroke-linejoin:miter;stroke-miterlimit:4;stroke-dasharray:none;paint-order:markers fill stroke"
       d="m 44.052114,28.792502 -3.453125,-2.236503 -5.44e-4,-0.103769 -5.44e-4,-0.103769 0.0044,0.08141 0.0044,0.08141 1.65625,1.073334 c 2.27161,1.472119 2.647915,1.714489 3.367188,2.168733 1.05814,0.668248 1.82812,1.130275 1.883636,1.130275 0.03615,0 1.73622,-3.028037 2.904814,-5.173828 0.08384,-0.153945 0.08409,-0.154297 0.11068,-0.154297 0.01466,0 0.02665,0.0018 0.02665,0.0041 0,0.0046 -3.018058,5.418289 -3.038003,5.449446 l -0.01278,0.01996 z"
       id="path5949"
       inkscape:connector-curvature="0"
       transform="matrix(0.26458333,0,0,0.26458333,0,280.06665)" />
    <path
       style="fill:#ffff00;fill-opacity:1;stroke-width:0.00626374;stroke-linecap:round;stroke-linejoin:miter;stroke-miterlimit:4;stroke-dasharray:none;paint-order:markers fill stroke"
       d="m 45.487965,23.516752 -2.137309,-1.258213 0.03634,-0.0016 0.03634,-0.0016 0.764092,0.449739 c 0.42025,0.247356 1.345506,0.791967 2.056124,1.210246 0.710617,0.418279 1.292645,0.759802 1.293394,0.75894 0.003,-0.0035 0.0258,-1.032502 0.02868,-1.29701 0.0051,-0.468092 -0.01428,-0.857511 -0.04464,-0.897351 -0.0034,-0.0045 -0.08689,-0.05673 -0.185494,-0.116109 l -0.179288,-0.107967 h 0.05061 0.05062 l 0.164581,0.09705 c 0.09052,0.05338 0.166288,0.09875 0.168375,0.100818 0.0043,0.0043 0.03901,2.142878 0.03651,2.250823 l -0.0016,0.07049 z"
       id="path6473"
       inkscape:connector-curvature="0"
       transform="matrix(0.26458333,0,0,0.26458333,0,280.06665)" />
    <path
       style="fill:#ffff00;fill-opacity:1;stroke-width:0.00626374;stroke-linecap:round;stroke-linejoin:miter;stroke-miterlimit:4;stroke-dasharray:none;paint-order:markers fill stroke"
       d=""
       id="path6475"
       inkscape:connector-curvature="0"
       transform="matrix(0.26458333,0,0,0.26458333,0,280.06665)" />
    <path
       style="fill:#ffff00;fill-opacity:1;stroke-width:0.00626374;stroke-linecap:round;stroke-linejoin:miter;stroke-miterlimit:4;stroke-dasharray:none;paint-order:markers fill stroke"
       d="m 44.527482,24.320236 -3.136302,-1.84625 -2.3e-5,-0.02072 c -1.3e-5,-0.01139 0.0014,-0.02072 0.003,-0.02072 0.0053,0 6.247347,3.674987 6.253165,3.681531 0.0071,0.008 0.02407,0.0078 0.02919,-3.87e-4 0.0048,-0.0077 3.735406,-2.097719 3.738615,-2.094509 0.0013,0.0013 -0.1903,0.347582 -0.425686,0.769609 l -0.427974,0.767322 -0.02242,-0.0016 c -0.01278,-9.23e-4 -0.02631,0.0015 -0.03146,0.0057 -0.0079,0.0064 -0.0085,0.006 -0.0052,-0.0028 0.0021,-0.0056 0.03581,-0.06895 0.07495,-0.140869 0.350534,-0.644147 0.608336,-1.135193 0.608336,-1.158724 0,-0.01029 -3.81e-4,-0.01023 -0.04325,0.0068 -0.152854,0.06076 -0.757736,0.379816 -1.462112,0.771231 -0.193949,0.107775 -1.950255,1.092053 -1.994343,1.117679 l -0.02218,0.01289 z"
       id="path6477"
       inkscape:connector-curvature="0"
       transform="matrix(0.26458333,0,0,0.26458333,0,280.06665)" />
    <path
       style="fill:#ffff00;fill-opacity:1;stroke-width:0.00626374;stroke-linecap:round;stroke-linejoin:miter;stroke-miterlimit:4;stroke-dasharray:none;paint-order:markers fill stroke"
       d="m 47.536345,24.720171 c -0.04709,-0.02769 -0.842589,-0.495972 -1.767767,-1.040634 -0.925177,-0.544662 -1.845358,-1.086368 -2.044845,-1.203791 l -0.362705,-0.213497 0.03237,-0.0016 0.03237,-0.0016 1.38823,0.817051 c 1.985697,1.168693 2.611901,1.536784 2.631192,1.546647 0.0556,0.02843 -0.346366,-0.209113 -2.154466,-1.273175 -1.181918,-0.695556 -3.005964,-1.76911 -4.053435,-2.385675 L 39.332797,19.84287 v -0.161673 -0.161673 h 1.594122 1.594122 l 0.525817,0.310272 c 2.317265,1.367364 4.213816,2.490737 4.402266,2.607569 0.06313,0.03914 0.07082,0.04561 0.07606,0.06407 0.0082,0.02886 0.02154,0.149503 0.02702,0.244265 0.0029,0.04981 0.0049,0.06548 0.0054,0.04143 0.0016,-0.07699 -0.01483,-0.248133 -0.02771,-0.289142 -0.0068,-0.02165 -0.01973,-0.03056 -0.221773,-0.1528 l -0.13696,-0.08286 0.04455,-0.0016 0.04455,-0.0016 0.162543,0.09682 0.162544,0.09682 0.0029,0.02356 c 0.0016,0.01296 0.0043,0.105594 0.0061,0.205859 0.02153,1.245898 0.03215,1.981546 0.02952,2.044102 l -0.0019,0.04432 z m 0.0077,-0.2054 c 0.0021,-0.08735 0.0061,-0.254531 0.0089,-0.371508 0.0028,-0.116976 0.0061,-0.31585 0.0072,-0.441941 0.0012,-0.126092 0.0013,-0.195698 2.15e-4,-0.15468 -0.008,0.310556 -0.02413,1.024017 -0.02412,1.068157 0,0.04694 -0.0012,0.054 -0.0086,0.05116 -0.0049,-0.0019 -0.0071,-9.6e-4 -0.0052,0.0022 0.0019,0.003 0.0066,0.0055 0.01054,0.0055 0.0056,0 0.008,-0.03431 0.01097,-0.158822 z m -0.03288,0.142984 c -0.0086,-0.0078 -0.05773,-0.03517 -0.05773,-0.0321 0,0.0028 0.05555,0.03653 0.06049,0.03677 0.0014,6.7e-5 1.27e-4,-0.002 -0.0028,-0.0047 z m 0.05689,-1.529577 c -8.98e-4,-0.05697 -0.0016,-0.01036 -0.0016,0.10358 0,0.113939 7.34e-4,0.16055 0.0016,0.103581 8.98e-4,-0.05697 8.98e-4,-0.150192 0,-0.207161 z m -0.0055,-0.248592 c -0.001,-0.02659 -0.0018,-0.0048 -0.0018,0.04834 0,0.05317 8.28e-4,0.07492 0.0018,0.04834 10e-4,-0.02659 10e-4,-0.07009 0,-0.09668 z"
       id="path6704"
       inkscape:connector-curvature="0"
       transform="matrix(0.26458333,0,0,0.26458333,0,280.06665)" />
    <path
       style="fill:#fce94f;fill-opacity:1;stroke-width:0.00626374;stroke-linecap:round;stroke-linejoin:miter;stroke-miterlimit:4;stroke-dasharray:none;paint-order:markers fill stroke"
       d="m 45.490932,23.517248 -2.131038,-1.254999 0.03365,-0.0017 c 0.02667,-0.0013 0.03786,8.35e-4 0.05391,0.01035 0.126515,0.07498 2.890696,1.701357 2.898404,1.705352 0.0037,0.0019 0.0037,9.65e-4 0,-0.0028 -0.003,-0.0031 -0.308807,-0.184123 -0.679486,-0.402208 -0.824931,-0.48534 -2.013517,-1.184889 -4.46223,-2.62627 L 39.332795,19.843447 V 19.68144 19.519433 h 1.594745 1.594746 l 0.436805,0.257846 c 2.309577,1.363346 3.971889,2.347455 4.383898,2.595322 0.115341,0.06939 0.124193,0.07442 0.108843,0.06188 -0.0055,-0.0045 -0.07109,-0.04504 -0.14585,-0.09018 l -0.135921,-0.08206 0.04507,-0.0016 0.04507,-0.0016 0.160646,0.09505 c 0.10534,0.06233 0.1622,0.09914 0.165161,0.106929 0.0076,0.01999 0.0455,2.312883 0.03821,2.311621 -0.0012,-2.15e-4 -0.961228,-0.565141 -2.1333,-1.255391 z m 2.04952,1.003047 c -0.001,-0.02355 -0.0019,-0.0043 -0.0019,0.04281 0,0.04709 8.47e-4,0.06636 0.0019,0.04281 10e-4,-0.02355 10e-4,-0.06208 0,-0.08563 z m -0.225078,0.02367 c 0,-0.0014 -0.0056,-0.0053 -0.01243,-0.0086 -0.01194,-0.0058 -0.012,-0.0057 -0.0017,0.0026 0.01127,0.009 0.01414,0.01025 0.01414,0.006 z m -0.02762,-0.01657 c 0,-0.0014 -0.0056,-0.0053 -0.01243,-0.0086 -0.01194,-0.0058 -0.012,-0.0057 -0.0017,0.0026 0.01127,0.009 0.01414,0.01025 0.01414,0.006 z m -0.06629,-0.03867 c 0,-0.0014 -0.0056,-0.0053 -0.01243,-0.0086 -0.01194,-0.0058 -0.012,-0.0057 -0.0017,0.0026 0.01127,0.009 0.01414,0.01025 0.01414,0.006 z m -0.02762,-0.01657 c 0,-0.0014 -0.0056,-0.0053 -0.01243,-0.0086 -0.01194,-0.0058 -0.012,-0.0057 -0.0017,0.0026 0.01127,0.009 0.01414,0.01025 0.01414,0.006 z m 0.357295,-0.367559 -2.87e-4,-0.107723 -0.0037,0.135345 c -0.0021,0.07444 -0.0036,0.182577 -0.0035,0.240306 l 2.7e-4,0.104961 0.0037,-0.132583 c 0.0021,-0.07292 0.0036,-0.181058 0.0035,-0.240306 z m -0.395964,0.345462 c 0,-0.0014 -0.0056,-0.0053 -0.01243,-0.0086 -0.01194,-0.0058 -0.012,-0.0057 -0.0017,0.0026 0.01127,0.009 0.01414,0.01025 0.01414,0.006 z m -0.02762,-0.01657 c 0,-0.0014 -0.0056,-0.0053 -0.01243,-0.0086 -0.01194,-0.0058 -0.012,-0.0057 -0.0017,0.0026 0.01127,0.009 0.01414,0.01025 0.01414,0.006 z m -0.02762,-0.01657 c 0,-0.0014 -0.0056,-0.0053 -0.01243,-0.0086 -0.01193,-0.0058 -0.012,-0.0057 -0.0017,0.0026 0.01127,0.009 0.01414,0.01025 0.01414,0.006 z m -0.03066,-0.0188 c -0.0086,-0.0078 -0.05773,-0.03517 -0.05773,-0.0321 0,0.0028 0.05555,0.03652 0.06049,0.03677 0.0014,6.7e-5 1.27e-4,-0.002 -0.0028,-0.0047 z m -0.06325,-0.03645 c 0,-0.0014 -0.0056,-0.0053 -0.01243,-0.0086 -0.01194,-0.0058 -0.012,-0.0057 -0.0017,0.0026 0.01127,0.009 0.01414,0.01025 0.01414,0.006 z m -0.03066,-0.01879 c -0.0086,-0.0078 -0.05773,-0.03517 -0.05773,-0.0321 0,0.0028 0.05555,0.03652 0.06049,0.03677 0.0014,6.7e-5 1.27e-4,-0.002 -0.0028,-0.0047 z m -0.06325,-0.03645 c 0,-0.0014 -0.0056,-0.0053 -0.01243,-0.0086 -0.01194,-0.0058 -0.012,-0.0057 -0.0017,0.0026 0.01127,0.009 0.01414,0.01025 0.01414,0.006 z m -0.03066,-0.0188 c -0.0086,-0.0078 -0.05773,-0.03517 -0.05773,-0.0321 0,0.0028 0.05555,0.03653 0.06049,0.03677 0.0014,6.7e-5 1.27e-4,-0.002 -0.0028,-0.0047 z m -0.06325,-0.03601 c 0,-0.0018 -0.06654,-0.04219 -0.08563,-0.05203 -0.01933,-0.01 0.0096,0.01047 0.04292,0.03028 0.04138,0.02462 0.0427,0.0253 0.0427,0.02176 z m -0.09391,-0.05524 c 0,-0.0018 -0.06654,-0.04219 -0.08563,-0.05203 -0.01933,-0.01 0.0096,0.01047 0.04292,0.03027 0.04138,0.02462 0.0427,0.0253 0.0427,0.02176 z m -0.09391,-0.05524 c 0,-0.0018 -0.06654,-0.04219 -0.08563,-0.05203 -0.01933,-0.01 0.0096,0.01047 0.04292,0.03027 0.04138,0.02463 0.0427,0.0253 0.0427,0.02176 z m -0.09391,-0.05524 c 0,-0.0018 -0.06654,-0.04219 -0.08563,-0.05203 -0.01933,-0.01 0.0096,0.01047 0.04292,0.03028 0.04138,0.02462 0.0427,0.0253 0.0427,0.02176 z m -0.09391,-0.05524 c 0,-0.0018 -0.06654,-0.04219 -0.08563,-0.05203 -0.01933,-0.01 0.0096,0.01047 0.04292,0.03028 0.04138,0.02462 0.0427,0.0253 0.0427,0.02176 z m 1.114499,-0.209171 c -9.85e-4,-0.03114 -0.0018,-0.0057 -0.0018,0.05662 0,0.06229 8.06e-4,0.08777 0.0018,0.05662 9.84e-4,-0.03114 9.84e-4,-0.0821 0,-0.113248 z m 0.0054,-0.196035 c -0.0013,-0.0084 -0.0023,-0.0028 -0.0024,0.01235 -5.5e-5,0.01519 9.98e-4,0.02206 0.0023,0.01527 0.0013,-0.0068 0.0013,-0.01922 7.7e-5,-0.02762 z m 0.0055,-0.414397 c -0.0013,-0.0084 -0.0023,-0.0015 -0.0023,0.01519 0,0.01671 0.001,0.02355 0.0023,0.01519 0.0013,-0.0084 0.0013,-0.02203 0,-0.03038 z m -0.0055,-0.306597 c -0.0012,-0.0099 -0.0022,-0.0018 -0.0022,0.01795 0,0.01975 0.001,0.02783 0.0022,0.01795 0.0012,-0.0099 0.0012,-0.02603 0,-0.03591 z m -0.0055,-0.165728 c -0.0012,-0.0099 -0.0022,-0.0018 -0.0022,0.01795 0,0.01975 0.001,0.02783 0.0022,0.01795 0.0012,-0.0099 0.0012,-0.02603 0,-0.03591 z m -0.0055,-0.07724 c -0.0012,-0.0099 -0.0023,-0.0031 -0.0023,0.01509 -5.5e-5,0.01823 9.75e-4,0.02635 0.0022,0.01805 0.0013,-0.0083 0.0013,-0.02322 5.5e-5,-0.03315 z m -0.0056,-0.06355 c -0.0013,-0.0084 -0.0023,-0.0028 -0.0024,0.01235 -5.6e-5,0.01519 9.97e-4,0.02206 0.0023,0.01527 0.0013,-0.0068 0.0013,-0.01922 7.7e-5,-0.02762 z m -0.0057,-0.04427 c -0.0014,-0.0053 -0.0025,-9.67e-4 -0.0025,0.0097 0,0.01063 0.0011,0.01498 0.0025,0.0097 0.0014,-0.0053 0.0014,-0.01402 0,-0.01933 z m -0.0094,-0.05124 c -0.0087,-0.03241 -0.01105,-0.02519 -0.0035,0.01102 0.0034,0.01662 0.007,0.02613 0.008,0.02113 9.61e-4,-0.005 -10e-4,-0.01946 -0.0045,-0.03215 z m -0.03587,-0.04187 c -0.01415,-0.01091 -0.03038,-0.01984 -0.03038,-0.01673 0,0.0028 0.03457,0.02545 0.03867,0.02533 0.0015,-4.4e-5 -0.0022,-0.0039 -0.0083,-0.0086 z"
       id="path6706"
       inkscape:connector-curvature="0"
       transform="matrix(0.26458333,0,0,0.26458333,0,280.06665)" />
    <path
       style="fill:#ffff00;fill-opacity:1;stroke-width:0.00626374;stroke-linecap:round;stroke-linejoin:miter;stroke-miterlimit:4;stroke-dasharray:none;paint-order:markers fill stroke"
       d=""
       id="path6708"
       inkscape:connector-curvature="0"
       transform="matrix(0.26458333,0,0,0.26458333,0,280.06665)" />
    <path
       style="fill:#fce94f;fill-opacity:1;stroke-width:0.00626374;stroke-linecap:round;stroke-linejoin:miter;stroke-miterlimit:4;stroke-dasharray:none;paint-order:markers fill stroke"
       d="m 46.881521,22.0931 c -0.661522,-0.393409 -2.363575,-1.400087 -3.875329,-2.292058 l -0.472577,-0.278832 0.03738,-0.0016 0.03738,-0.0016 2.305167,1.356942 c 1.267842,0.746318 2.312624,1.361649 2.32174,1.367403 l 0.01657,0.01046 -0.04992,9.3e-5 -0.04992,9.3e-5 -0.270491,-0.160862 z"
       id="path6710"
       inkscape:connector-curvature="0"
       transform="matrix(0.26458333,0,0,0.26458333,0,280.06665)" />
  </g>
</svg>
