<?xml version="1.0" encoding="UTF-8" standalone="no"?>
<!-- Created with Inkscape (http://www.inkscape.org/) -->

<svg
   xmlns:dc="http://purl.org/dc/elements/1.1/"
   xmlns:cc="http://creativecommons.org/ns#"
   xmlns:rdf="http://www.w3.org/1999/02/22-rdf-syntax-ns#"
   xmlns:svg="http://www.w3.org/2000/svg"
   xmlns="http://www.w3.org/2000/svg"
   xmlns:sodipodi="http://sodipodi.sourceforge.net/DTD/sodipodi-0.dtd"
   xmlns:inkscape="http://www.inkscape.org/namespaces/inkscape"
   width="16.933331mm"
   height="16.933332mm"
   viewBox="0 0 16.933331 16.933334"
   version="1.1"
   id="svg8"
   inkscape:version="0.92.3 (2405546, 2018-03-11)"
   sodipodi:docname="Bracket.svg">
  <defs
     id="defs2" />
  <sodipodi:namedview
     id="base"
     pagecolor="#ffffff"
     bordercolor="#666666"
     borderopacity="1.0"
     inkscape:pageopacity="0.0"
     inkscape:pageshadow="2"
     inkscape:zoom="7.9195959"
     inkscape:cx="37.097825"
     inkscape:cy="50.690708"
     inkscape:document-units="px"
     inkscape:current-layer="layer1"
     showgrid="false"
     units="mm"
     inkscape:window-width="1920"
     inkscape:window-height="1027"
     inkscape:window-x="-8"
     inkscape:window-y="-8"
     inkscape:window-maximized="1" />
  <metadata
     id="metadata5">
    <rdf:RDF>
      <cc:Work
         rdf:about="">
        <dc:format>image/svg+xml</dc:format>
        <dc:type
           rdf:resource="http://purl.org/dc/dcmitype/StillImage" />
        <dc:title></dc:title>
      </cc:Work>
    </rdf:RDF>
  </metadata>
  <g
     inkscape:label="Capa 1"
     inkscape:groupmode="layer"
     id="layer1"
     transform="translate(0,-280.06665)">
    <path
       style="fill:none;stroke:#000000;stroke-width:0.26458335px;stroke-linecap:butt;stroke-linejoin:miter;stroke-opacity:1"
       d="m 9.655112,296.19818 -8.1183122,-1.40317 -0.1670434,-10.22306 6.8821905,-3.24064 1.5367998,0.30068 v 6.24742 l 2.2049733,2.23838 3.975635,0.7684 -0.100226,1.70385 z"
       id="path1186"
       inkscape:connector-curvature="0" />
    <path
       style="fill:none;stroke:#000000;stroke-width:0.26458335px;stroke-linecap:butt;stroke-linejoin:miter;stroke-opacity:1"
       d="m 9.7887464,281.63199 -6.7151468,3.27405 0.066817,6.51469 2.2383825,2.50565 4.2429039,0.86863 6.347652,-3.90882"
       id="path1188"
       inkscape:connector-curvature="0" />
    <path
       style="fill:none;stroke:#000000;stroke-width:0.26458335px;stroke-linecap:butt;stroke-linejoin:miter;stroke-opacity:1"
       d="m 1.3697564,284.57195 1.7038432,0.33409"
       id="path1190"
       inkscape:connector-curvature="0" />
    <path
       style="fill:none;stroke:#000000;stroke-width:0.26458335px;stroke-linecap:butt;stroke-linejoin:miter;stroke-opacity:1"
       d="m 9.6217028,294.79501 0.033409,1.40317"
       id="path1192"
       inkscape:connector-curvature="0" />
    <path
       style="fill:none;stroke:#000000;stroke-width:0.26458335px;stroke-linecap:butt;stroke-linejoin:miter;stroke-opacity:1"
       d="M 5.3787991,293.92638 11.99372,290.11779"
       id="path1194"
       inkscape:connector-curvature="0" />
    <path
       style="fill:none;stroke:#000000;stroke-width:0.26458335px;stroke-linecap:butt;stroke-linejoin:miter;stroke-opacity:1"
       d="m 3.1404167,291.42073 6.6483297,-3.54132"
       id="path1196"
       inkscape:connector-curvature="0" />
    <path
       style="fill:#999999;fill-opacity:1;stroke-width:0.12626907"
       d="m 12.402777,38.986103 c -0.04157,-1.614665 -0.108794,-6.85641 -0.149385,-11.648321 l -0.0738,-8.712566 11.152233,-5.421458 c 6.133725,-2.981803 11.5929,-5.6389768 12.131498,-5.9048318 l 0.979268,-0.4833728 -0.03225,11.2023956 -0.03225,11.202395 -11.923276,6.350758 c -6.557803,3.492916 -11.935242,6.350757 -11.949866,6.350757 -0.01462,0 -0.0606,-1.32109 -0.102172,-2.935756 z"
       id="path1198"
       inkscape:connector-curvature="0"
       transform="matrix(0.26458334,0,0,0.26458334,0,280.06665)" />
    <path
       style="fill:#999999;fill-opacity:1;stroke-width:0.12626907"
       d="m 16.619902,47.381532 c -3.726001,-4.173468 -3.797689,-4.263911 -3.524564,-4.446683 0.153337,-0.10261 5.568327,-3.004646 12.033312,-6.448966 l 11.754517,-6.262401 3.744474,3.797316 c 2.059461,2.088524 3.707273,3.835605 3.661803,3.882402 -0.08214,0.08454 -22.881431,13.227414 -23.528046,13.562973 l -0.338137,0.175474 z"
       id="path1200"
       inkscape:connector-curvature="0"
       transform="matrix(0.26458334,0,0,0.26458334,0,280.06665)" />
    <path
       style="fill:#999999;fill-opacity:1;stroke-width:0.12626907"
       d="m 29.054485,53.61311 c -3.750191,-0.779425 -6.881294,-1.441763 -6.958006,-1.471863 -0.14344,-0.05628 22.860833,-13.348377 23.300803,-13.463431 0.23028,-0.06022 12.712432,2.276165 13.158382,2.46296 0.145071,0.06076 -3.129696,2.139761 -10.976188,6.968268 -6.15062,3.784915 -11.300737,6.89056 -11.444703,6.901433 -0.143967,0.01087 -3.330097,-0.617944 -7.080288,-1.397367 z"
       id="path1202"
       inkscape:connector-curvature="0"
       transform="matrix(0.26458334,0,0,0.26458334,0,280.06665)" />
    <path
       style="fill:#999999;fill-opacity:1;stroke-width:0.12626907"
       d="M 32.084943,59.650345 C 30.348743,59.344816 23.885094,58.223244 17.721276,57.15796 11.55746,56.092677 6.4796886,55.186434 6.4373406,55.144086 6.3578643,55.064609 5.727234,19.326096 5.7872886,18.304923 l 0.033688,-0.572832 2.6054252,0.498884 2.6054252,0.498884 0.07779,6.103296 c 0.04279,3.356812 0.112885,8.855394 0.155776,12.219069 l 0.07798,6.115776 4.335786,4.854528 c 2.636181,2.951578 4.449367,4.881506 4.625539,4.923351 0.159364,0.03785 3.699018,0.763266 7.865898,1.61203 4.166879,0.848765 7.583077,1.54906 7.591551,1.556215 0.0085,0.0071 0.0555,0.936348 0.104512,2.064878 l 0.08911,2.051872 -0.357051,-0.01251 c -0.196377,-0.0069 -1.777577,-0.262488 -3.513776,-0.568016 z"
       id="path1204"
       inkscape:connector-curvature="0"
       transform="matrix(0.26458334,0,0,0.26458334,0,280.06665)" />
    <path
       style="fill:#999999;fill-opacity:1;stroke-width:0.12626907"
       d="m 37.027011,59.395508 c -0.04439,-0.323862 -0.08071,-1.227921 -0.08071,-2.009019 v -1.420177 l 11.317017,-6.964201 c 6.22436,-3.83031 11.347858,-6.933361 11.385551,-6.895667 0.06803,0.06803 -0.176849,4.868425 -0.25107,4.921766 -0.02131,0.01531 -4.925351,2.860235 -10.897878,6.32205 -5.972527,3.461815 -10.979079,6.370683 -11.125671,6.46415 -0.25465,0.162364 -0.270127,0.143693 -0.347239,-0.418902 z"
       id="path1206"
       inkscape:connector-curvature="0"
       transform="matrix(0.26458334,0,0,0.26458334,0,280.06665)" />
    <path
       style="fill:#999999;fill-opacity:1;stroke-width:0.12626907"
       d="M 9.2079161,17.25467 C 8.1539174,17.036199 7.2605361,16.825854 7.2226243,16.787238 7.1724162,16.736098 23.49047,8.9929703 30.849929,5.5757774 c 0.373792,-0.1735617 0.564366,-0.1597549 2.369587,0.171674 1.079706,0.1982284 1.919569,0.3999712 1.866359,0.4483173 -0.25483,0.2315394 -23.53071,11.4807293 -23.731264,11.4692763 -0.126684,-0.0072 -1.092696,-0.191903 -2.1466949,-0.410375 z"
       id="path1208"
       inkscape:connector-curvature="0"
       transform="matrix(0.26458334,0,0,0.26458334,0,280.06665)" />
  </g>
</svg>
