<?xml version="1.0" encoding="UTF-8" standalone="no"?>
<!-- Created with Inkscape (http://www.inkscape.org/) -->

<svg
   xmlns:dc="http://purl.org/dc/elements/1.1/"
   xmlns:cc="http://creativecommons.org/ns#"
   xmlns:rdf="http://www.w3.org/1999/02/22-rdf-syntax-ns#"
   xmlns:svg="http://www.w3.org/2000/svg"
   xmlns="http://www.w3.org/2000/svg"
   xmlns:sodipodi="http://sodipodi.sourceforge.net/DTD/sodipodi-0.dtd"
   xmlns:inkscape="http://www.inkscape.org/namespaces/inkscape"
   width="64"
   height="64"
   viewBox="0 0 16.933333 16.933333"
   version="1.1"
   id="svg8"
   inkscape:version="0.92.3 (2405546, 2018-03-11)"
   sodipodi:docname="Bolts_cmd.svg">
  <defs
     id="defs2" />
  <sodipodi:namedview
     id="base"
     pagecolor="#ffffff"
     bordercolor="#666666"
     borderopacity="1.0"
     inkscape:pageopacity="0.0"
     inkscape:pageshadow="2"
     inkscape:zoom="8"
     inkscape:cx="25.334693"
     inkscape:cy="32.341426"
     inkscape:document-units="mm"
     inkscape:current-layer="layer1"
     showgrid="false"
     units="px"
     inkscape:window-width="1920"
     inkscape:window-height="1027"
     inkscape:window-x="1072"
     inkscape:window-y="-8"
     inkscape:window-maximized="1" />
  <metadata
     id="metadata5">
    <rdf:RDF>
      <cc:Work
         rdf:about="">
        <dc:format>image/svg+xml</dc:format>
        <dc:type
           rdf:resource="http://purl.org/dc/dcmitype/StillImage" />
        <dc:title></dc:title>
      </cc:Work>
    </rdf:RDF>
  </metadata>
  <g
     inkscape:label="Capa 1"
     inkscape:groupmode="layer"
     id="layer1"
     transform="translate(0,-280.06667)">
    <path
       style="fill:none;stroke:#000000;stroke-width:0.22496402;stroke-linecap:butt;stroke-linejoin:miter;stroke-miterlimit:4;stroke-dasharray:none;stroke-opacity:1"
       d="m 10.527604,293.58866 0.744056,-1.59425 2.621914,-0.38971 1.913288,1.16912 0.03543,1.80681 -0.744058,1.5234 -2.657345,0.38972 -1.984151,-1.1337 z"
       id="path4988"
       inkscape:connector-curvature="0" />
    <path
       style="fill:none;stroke:#000000;stroke-width:0.22496402;stroke-linecap:butt;stroke-linejoin:miter;stroke-miterlimit:4;stroke-dasharray:none;stroke-opacity:1"
       d="m 10.527604,293.58866 1.984151,1.06284 2.515619,-0.28344 0.779488,-1.59424"
       id="path4990"
       inkscape:connector-curvature="0" />
    <path
       style="fill:none;stroke:#000000;stroke-width:0.22496402;stroke-linecap:butt;stroke-linejoin:miter;stroke-miterlimit:4;stroke-dasharray:none;stroke-opacity:1"
       d="m 12.511755,294.6515 -0.07086,1.84225"
       id="path4992"
       inkscape:connector-curvature="0" />
    <path
       style="fill:none;stroke:#000000;stroke-width:0.22496402;stroke-linecap:butt;stroke-linejoin:miter;stroke-miterlimit:4;stroke-dasharray:none;stroke-opacity:1"
       d="m 15.027374,294.36806 0.07086,1.73597"
       id="path4994"
       inkscape:connector-curvature="0" />
    <path
       style="fill:none;stroke:#000000;stroke-width:0.2249943;stroke-linecap:butt;stroke-linejoin:miter;stroke-miterlimit:4;stroke-dasharray:none;stroke-opacity:1"
       d="m 6.2336056,284.89731 0.118499,-0.0644 0.121815,-0.0818 0.09966,-0.0688 0.110729,-0.0864 0.130665,-0.12632 0.110728,-0.13725 0.161675,-0.23695 0.07751,-0.2104 0.01616,-0.26402 -0.01566,-0.20984 -0.04384,-0.17069 -0.08001,-0.16665 -0.114719,-0.17207 -0.0899,-0.11008 -0.117825,-0.11933 -0.148829,-0.12875 -0.141074,-0.1163 -0.137969,-0.0884 -0.151929,-0.0961 -0.173633,-0.09 -0.179832,-0.0852 -0.189133,-0.0791 -0.223242,-0.0744 -0.2682,-0.0527 -0.257347,-0.034 -0.27595,-0.0232 -0.111621,-0.005 -0.196885,-0.005 -0.195336,-0.002 -0.21549,0.005 -0.2604472,0.006 -0.2108387,0.0185 -0.189135,0.0232 -0.234093,0.0465 -0.186034,0.0419 -0.1550285,0.0419 -0.1844835,0.0589 -0.1348747,0.0464 -0.1550285,0.0544 -0.1720816,0.0697 -0.1612296,0.0821 -0.1410756,0.0821 -0.1565788,0.10552 -0.1891346,0.16741 -0.1178214,0.13027 -0.1131713,0.16897 -0.091467,0.13482 -0.063562,0.15656 -0.041858,0.14104 -0.015502,0.13649 v 0.13649 l 0.00804,0.15274 0.039463,0.15785 0.057003,0.14681 0.076735,0.12723 0.08989,0.12283 0.1008519,0.12935 0.1161984,0.10309 0.098659,0.079 0.1468927,0.12055 0.1623255,0.0978 0.1751822,0.0931 0.1596793,0.0666 0.1999865,0.0852 0.1488277,0.0559 0.1937854,0.0512 0.2139395,0.0527 0.186034,0.0372 0.2154892,0.0325 0.199987,0.0264 0.2123887,0.008 h 0.15968 0.199987 l 0.193785,0.002 0.195336,-0.006 0.161229,-0.0121 0.190685,-0.0217 0.193786,-0.0357 0.195335,-0.0325 0.223241,-0.0589 0.165881,-0.048 0.14883,-0.0496 0.176732,-0.0651 0.210839,-0.0944 z"
       id="path6273"
       inkscape:connector-curvature="0" />
    <path
       style="fill:none;stroke:#000000;stroke-width:0.2249943;stroke-linecap:butt;stroke-linejoin:miter;stroke-miterlimit:4;stroke-dasharray:none;stroke-opacity:1"
       d="m 5.0027826,284.14669 0.0552,-0.0293 0.05673,-0.0371 0.04641,-0.0313 0.05157,-0.0393 0.06086,-0.0572 0.05157,-0.0622 0.0753,-0.10719 0.0361,-0.0952 0.0075,-0.11934 -0.0074,-0.0949 -0.02042,-0.0774 -0.03726,-0.0754 -0.05343,-0.078 -0.04188,-0.0498 -0.05487,-0.0541 -0.06932,-0.0582 -0.06571,-0.0525 -0.06425,-0.0401 -0.07076,-0.0434 -0.08087,-0.0408 -0.08376,-0.0387 -0.08809,-0.0358 -0.103975,-0.0337 -0.124912,-0.0238 -0.119858,-0.0155 -0.12852,-0.0106 -0.05199,-0.003 -0.09169,-0.003 -0.09098,-6.7e-4 -0.100368,0.003 -0.1212999,0.003 -0.098203,0.009 -0.088088,0.0106 -0.1090253,0.021 -0.086645,0.019 -0.072204,0.019 -0.085924,0.0269 -0.062823,0.0211 -0.072202,0.0246 -0.08014,0.0316 -0.075089,0.0374 -0.065708,0.0371 -0.072925,0.0478 -0.088087,0.0758 -0.054875,0.0589 -0.052708,0.0765 -0.0426,0.061 -0.029604,0.0709 -0.019495,0.0639 -0.00721,0.0619 v 0.0618 l 0.00375,0.0691 0.018379,0.0717 0.026548,0.0665 0.035739,0.0574 0.041867,0.0557 0.046971,0.0584 0.054121,0.0468 0.045947,0.0357 0.068415,0.0548 0.075598,0.0442 0.081595,0.0421 0.074368,0.0301 0.09314,0.0387 0.069316,0.0252 0.090253,0.0232 0.099634,0.0238 0.086646,0.0169 0.1003554,0.0153 0.09314,0.0122 0.098912,0.005 h 0.074369 0.09314 l 0.09025,6.7e-4 0.09098,-0.003 0.07509,-0.006 0.08881,-0.0106 0.09025,-0.0162 0.09098,-0.0153 0.103974,-0.0267 0.07726,-0.0219 0.06932,-0.0225 0.08231,-0.0298 0.09819,-0.0427 z"
       id="path6273-2"
       inkscape:connector-curvature="0" />
    <path
       style="fill:none;stroke:#000000;stroke-width:0.22496402;stroke-linecap:butt;stroke-linejoin:miter;stroke-miterlimit:4;stroke-dasharray:none;stroke-opacity:1"
       d="m 14.120829,293.77352 0.05202,-0.0285 0.05347,-0.0359 0.04375,-0.0303 0.04861,-0.0382 0.05736,-0.0558 0.04861,-0.0606 0.07097,-0.10429 0.03402,-0.0926 0.0071,-0.11627 -0.0069,-0.0923 -0.01924,-0.0753 -0.03512,-0.0735 -0.05036,-0.0759 -0.03948,-0.0485 -0.05172,-0.0525 -0.06533,-0.0567 -0.06193,-0.0511 -0.06056,-0.039 -0.06669,-0.0423 -0.07622,-0.0397 -0.07894,-0.0376 -0.08302,-0.035 -0.09799,-0.0329 -0.117726,-0.0232 -0.112963,-0.0152 -0.121128,-0.0106 -0.049,-0.003 -0.08642,-0.003 -0.08574,-6.6e-4 -0.09459,0.003 -0.114321,0.003 -0.09255,0.009 -0.08302,0.0106 -0.102754,0.0205 -0.08166,0.0185 -0.06805,0.0185 -0.08098,0.0261 -0.05921,0.0206 -0.06805,0.024 -0.07553,0.0308 -0.07077,0.0364 -0.06193,0.0359 -0.06873,0.0467 -0.08302,0.0737 -0.05172,0.0574 -0.04968,0.0746 -0.04015,0.0594 -0.0279,0.069 -0.01838,0.0623 -0.0068,0.0603 v 0.0602 l 0.0035,0.0673 0.01732,0.0697 0.02502,0.0646 0.03368,0.0559 0.03946,0.0541 0.04427,0.057 0.05101,0.0456 0.0433,0.0349 0.06448,0.0532 0.07125,0.043 0.0769,0.0409 0.07009,0.0294 0.08778,0.0376 0.06533,0.0244 0.08506,0.0226 0.0939,0.0232 0.08166,0.0164 0.09458,0.0152 0.08778,0.0121 0.09322,0.005 h 0.07009 0.08778 l 0.08506,6.7e-4 0.08574,-0.003 0.07077,-0.006 0.0837,-0.0106 0.08506,-0.0158 0.08574,-0.0152 0.09799,-0.0259 0.07281,-0.0212 0.06533,-0.0218 0.07758,-0.029 0.09254,-0.0415 z"
       id="path6273-2-4"
       inkscape:connector-curvature="0" />
    <path
       style="fill:none;stroke:#000000;stroke-width:0.2249943;stroke-linecap:butt;stroke-linejoin:miter;stroke-miterlimit:4;stroke-dasharray:none;stroke-opacity:1"
       d="m 6.3087736,285.282 0.123358,-0.0739 0.126794,-0.0935 0.103741,-0.0785 0.115258,-0.0988 0.136019,-0.14423 0.11526,-0.15705 0.168296,-0.27034 0.08069,-0.24035 0.01695,-0.30118 -0.01638,-0.23954 -0.04563,-0.19521 -0.08328,-0.19017 -0.119414,-0.19673 -0.09361,-0.12572 -0.122638,-0.13649 -0.154914,-0.14666 -0.146848,-0.13239 -0.143595,-0.10096 -0.158138,-0.10962 -0.180746,-0.10294 -0.187194,-0.0978 -0.19687,-0.0906 -0.232375,-0.085 -0.279167,-0.0601 -0.26787,-0.0389 -0.287232,-0.027 -0.11619,-0.009 -0.204938,-0.009 -0.203324,-0.002 -0.224313,0.009 -0.2710944,0.009 -0.2194736,0.0231 -0.1968713,0.027 -0.2436627,0.0531 -0.1936437,0.0478 -0.1613672,0.0478 -0.1920318,0.0677 -0.1404021,0.0531 -0.1613653,0.0621 -0.1791075,0.0797 -0.1678204,0.0943 -0.1468521,0.0935 -0.1629799,0.12055 -0.1968643,0.19104 -0.1226408,0.14864 -0.1177989,0.19301 -0.095206,0.15398 -0.066161,0.17899 -0.043571,0.16142 -0.016126,0.15639 v 0.15594 l 0.00839,0.17459 0.041075,0.18096 0.059334,0.16756 0.07987,0.14469 0.093569,0.14059 0.1049755,0.14758 0.1209548,0.11827 0.1026909,0.0902 0.1529013,0.13816 0.1689563,0.11159 0.1823556,0.10582 0.1662062,0.0759 0.2081612,0.0978 0.1549147,0.0636 0.2017065,0.0584 0.2226744,0.0601 0.193644,0.0424 0.2242851,0.0386 0.2081612,0.0307 0.2210614,0.0106 h 0.1662059 0.208161 l 0.201706,10e-4 0.203319,-0.009 0.167821,-0.0153 0.198483,-0.027 0.201707,-0.0408 0.203319,-0.0386 0.232376,-0.0674 0.172653,-0.0551 0.154914,-0.0565 0.183969,-0.075 0.219446,-0.10795 z"
       id="path6273-2-43"
       inkscape:connector-curvature="0" />
    <path
       style="fill:none;stroke:#000000;stroke-width:0.2249943;stroke-linecap:butt;stroke-linejoin:miter;stroke-miterlimit:4;stroke-dasharray:none;stroke-opacity:1"
       d="m 2.5576688,283.78798 0.076215,-0.0929 0.052618,-0.0613 0.076735,-0.0659 0.050427,-0.0527 0.08989,-0.0571 0.06358,-0.0395 0.1096209,-0.0569 0.070158,-0.0351 0.078928,-0.0308 0.094275,-0.0285 0.1315462,-0.0483 0.1293532,-0.0106 0.1556627,-0.0176 0.1819728,-0.009 h 0.105235 l 0.12497,-10e-4 0.149085,0.0176 0.131546,0.0263 0.120585,0.0241 0.09646,0.0372 0.114006,0.0395 0.17101,0.0723 0.06577,0.0241 0.07235,0.0437 0.07674,0.0395 0.06358,0.0636 0.05043,0.0569 0.05701,0.0613 0.08301,0.0964"
       id="path7399"
       inkscape:connector-curvature="0"
       sodipodi:nodetypes="cccccccccccccccccccccccccccccc" />
    <path
       style="fill:none;stroke:#000000;stroke-width:0.18749899;stroke-linecap:butt;stroke-linejoin:miter;stroke-miterlimit:4;stroke-dasharray:none;stroke-opacity:1"
       d="m 13.087747,283.11765 0.045,0.002 0.04914,-10e-4 0.04058,-0.002 0.04706,-0.005 0.06022,-0.0134 0.05679,-0.0202 0.08987,-0.0399 0.06165,-0.0475 0.05503,-0.0741 0.03589,-0.0641 0.02064,-0.0577 0.01,-0.0631 0.0014,-0.071 -0.0037,-0.0483 -0.0096,-0.056 -0.01633,-0.0643 -0.0166,-0.0593 -0.02102,-0.0507 -0.02342,-0.0553 -0.03049,-0.0577 -0.03308,-0.0573 -0.0368,-0.0573 -0.04716,-0.062 -0.0637,-0.0637 -0.06394,-0.0568 -0.07112,-0.0571 -0.02933,-0.0223 -0.05279,-0.0377 -0.05345,-0.0357 -0.06066,-0.0368 -0.07301,-0.0448 -0.06212,-0.0318 -0.05682,-0.0269 -0.07325,-0.0288 -0.0592,-0.0214 -0.05067,-0.0158 -0.06206,-0.016 -0.04602,-0.0113 -0.05308,-0.0125 -0.0607,-0.0113 -0.06013,-0.005 -0.05445,-0.001 -0.06338,0.002 -0.08405,0.0147 -0.05737,0.0168 -0.06357,0.029 -0.05094,0.0228 -0.04745,0.0343 -0.03854,0.0337 -0.03048,0.0372 -0.02612,0.0398 -0.02709,0.0461 -0.01944,0.0532 -0.01243,0.0531 -0.0032,0.051 0.0012,0.0521 0.003,0.0558 0.01215,0.0512 0.01199,0.0408 0.01731,0.0617 0.02594,0.0578 0.03037,0.0587 0.03117,0.0482 0.03863,0.0611 0.03032,0.0431 0.04344,0.0499 0.04877,0.054 0.04405,0.0444 0.05242,0.0493 0.04953,0.0444 0.05636,0.0416 0.04393,0.0289 0.05502,0.0362 0.05302,0.0353 0.05512,0.0332 0.04709,0.0249 0.05726,0.0272 0.06015,0.0245 0.06059,0.0249 0.07273,0.023 0.0549,0.0159 0.05049,0.0125 0.06117,0.0128 0.07603,0.01 z"
       id="path6273-2-4-9"
       inkscape:connector-curvature="0" />
    <path
       style="fill:none;stroke:#000000;stroke-width:0.18749899;stroke-linecap:butt;stroke-linejoin:miter;stroke-miterlimit:4;stroke-dasharray:none;stroke-opacity:1"
       d="M 11.827408,281.83204 5.0454545,292.05196"
       id="path7551"
       inkscape:connector-curvature="0" />
    <path
       style="fill:none;stroke:#000000;stroke-width:0.18749899;stroke-linecap:butt;stroke-linejoin:miter;stroke-miterlimit:4;stroke-dasharray:none;stroke-opacity:1"
       d="M 13.476423,283.03731 6.6944699,293.25723"
       id="path7551-4"
       inkscape:connector-curvature="0" />
    <path
       style="fill:none;stroke:#000000;stroke-width:0.18749899;stroke-linecap:butt;stroke-linejoin:miter;stroke-miterlimit:4;stroke-dasharray:none;stroke-opacity:1"
       d="m 5.5683135,291.21501 -0.1593523,-0.0265 -0.1642801,-0.0275 -0.1490205,0.001 -0.1347549,-0.001 -0.1127227,0.0188 -0.1195664,0.0174 -0.1189977,0.0423 -0.098649,0.0327 -0.071023,0.0399 -0.1025604,0.0856 -0.077554,0.0711 -0.075122,0.11455 -0.050005,0.11869 -0.01443,0.0833 -0.011475,0.0976 0.00275,0.0806 0.0098,0.10992 0.018953,0.0913 0.022982,0.1063 0.027923,0.0894 0.050743,0.12282 0.045171,0.096 0.060321,0.11068 0.050434,0.0809 0.074951,0.1048 0.088989,0.11393 0.074485,0.0938 0.097494,0.10103 0.08803,0.0778 0.1089104,0.0978 0.084752,0.071 0.088385,0.0655 0.1116515,0.0747 0.1044842,0.0715 0.1604482,0.0993 0.1029054,0.0645 0.117994,0.0603 0.1385171,0.0739 0.1434193,0.0616 0.1393887,0.0466 0.1967547,0.0581 0.234249,0.0411 0.2287427,0.0235 0.1476113,-0.004 0.1256828,-0.01 0.090499,-0.0225 0.090473,-0.0273 0.091121,-0.0329 0.1152526,-0.0602 0.092677,-0.0611 0.075497,-0.068 0.0505,-0.0581 0.045718,-0.072 0.038158,-0.0722 0.022775,-0.0654 0.00455,-0.0587 0.00705,-0.11443 0.00148,-0.0918 -0.00739,-0.12536 -0.022335,-0.11192 -0.013551,-0.0876 -0.029219,-0.0779 -0.035441,-0.0897 -0.056365,-0.1143 -0.049782,-0.096 -0.056262,-0.10028 -0.077364,-0.0894 -0.093602,-0.10467"
       id="path7901"
       inkscape:connector-curvature="0" />
    <path
       style="fill:none;stroke:#000000;stroke-width:0.18923855;stroke-linecap:butt;stroke-linejoin:miter;stroke-miterlimit:4;stroke-dasharray:none;stroke-opacity:1"
       d="m 5.0460052,292.05324 -0.063536,0.1153 -0.016219,0.068 -0.00525,0.0488 0.00672,0.0475 0.014782,0.0543 0.017145,0.0652 0.020026,0.0608 0.028436,0.0649 0.031247,0.0606 0.042604,0.0648 0.039634,0.0597 0.039908,0.057 0.036447,0.0502 0.039601,0.0431 0.037042,0.0397 0.037785,0.0338 0.028278,0.029 0.047566,0.0357 0.051554,0.0368 0.058591,0.0428 0.063541,0.0403 0.068099,0.0476 0.06463,0.0409 0.066693,0.0378 0.086393,0.0462 0.06682,0.0304 0.063632,0.0233 0.05248,0.021 0.054047,0.0138 0.051086,0.0135 0.049761,0.004 0.055338,0.008 0.044392,0.005 0.037776,1.3e-4 0.044575,-0.008 0.040097,-0.01 0.044417,-0.0125 0.030933,-0.0135 0.029756,-0.0189 0.03043,-0.0248 0.031047,-0.0305 0.036807,-0.0346 0.025972,-0.0323 0.032708,-0.0354"
       id="path7981"
       inkscape:connector-curvature="0" />
    <path
       style="fill:none;stroke:#000000;stroke-width:0.19078822;stroke-linecap:butt;stroke-linejoin:miter;stroke-miterlimit:4;stroke-dasharray:none;stroke-opacity:1"
       d="m 3.2691754,292.90873 -0.1364792,0.24523 -0.036764,0.14368 -0.013182,0.10291 0.011499,0.0994 0.027641,0.11368 0.031988,0.13625 0.038229,0.12675 0.055371,0.1347 0.061406,0.1255 0.084312,0.1344 0.0786,0.12357 0.079385,0.11756 0.072539,0.10366 0.079286,0.0885 0.074232,0.0816 0.076009,0.0691 0.05657,0.0598 0.096374,0.0722 0.1044392,0.0745 0.1187013,0.0869 0.129339,0.0804 0.1379367,0.0965 0.1315713,0.0819 0.1356865,0.0756 0.1756652,0.0925 0.1361855,0.0602 0.1298172,0.0456 0.1072292,0.0409 0.1104352,0.0264 0.1046117,0.0257 0.1020893,0.005 0.1134464,0.0125 0.091128,0.008 0.07772,-0.001 0.092182,-0.0188 0.083051,-0.0243 0.092018,-0.0283 0.064309,-0.0299 0.062008,-0.0411 0.063865,-0.0535 0.065299,-0.0654 0.077441,-0.0741 0.05496,-0.0691 0.069012,-0.0761"
       id="path7981-0"
       inkscape:connector-curvature="0" />
    <path
       style="fill:none;stroke:#000000;stroke-width:0.18749899;stroke-linecap:butt;stroke-linejoin:miter;stroke-miterlimit:4;stroke-dasharray:none;stroke-opacity:1"
       d="m 3.2691754,292.90873 0.9155462,-1.32611"
       id="path8106"
       inkscape:connector-curvature="0" />
    <path
       style="fill:none;stroke:#000000;stroke-width:0.18749899;stroke-linecap:butt;stroke-linejoin:miter;stroke-miterlimit:4;stroke-dasharray:none;stroke-opacity:1"
       d="m 6.6363296,295.31634 1.0711377,-1.56203"
       id="path8108"
       inkscape:connector-curvature="0" />
    <path
       style="fill:#fce94f;fill-opacity:1;stroke-width:0.07086614;stroke-linecap:round;stroke-linejoin:miter;stroke-miterlimit:4;stroke-dasharray:none;paint-order:markers fill stroke"
       d="m 23.275941,50.113611 c -1.065227,-0.253697 -2.849487,-1.496817 -3.416377,-2.380238 -0.525211,-0.81847 -0.75172,-1.47866 -0.623253,-1.816554 0.12495,-0.328645 24.856413,-37.6103831 24.974743,-37.6484733 0.04738,-0.015251 0.194978,0.2097494 0.328003,0.5 0.617581,1.3475183 2.711731,2.8116753 4.445636,3.1082373 0.446875,0.07643 0.829081,0.153042 0.849349,0.170244 0.09099,0.07723 -24.781792,37.419008 -25.165009,37.780497 -0.437171,0.412384 -0.6661,0.45943 -1.393092,0.286287 z"
       id="path8197"
       inkscape:connector-curvature="0"
       transform="matrix(0.26458333,0,0,0.26458333,0,280.06667)" />
    <path
       style="fill:#fce94f;fill-opacity:1;stroke-width:0.07086614;stroke-linecap:round;stroke-linejoin:miter;stroke-miterlimit:4;stroke-dasharray:none;paint-order:markers fill stroke"
       d="m 24.484693,52.77781 c -1.977511,-0.365676 -4.606764,-1.861345 -6.326247,-3.598729 -0.79475,-0.803023 -1.132294,-1.263491 -1.5625,-2.131518 -0.512905,-1.034887 -0.548753,-1.173781 -0.548753,-2.126159 0,-0.916414 0.03425,-1.063885 0.340351,-1.46559 0.52412,-0.68781 1.294477,-0.997783 2.656821,-1.069043 0.749753,-0.03922 1.184697,-0.01344 1.238368,0.0734 0.0455,0.07362 -0.374879,0.826188 -0.934172,1.672375 -1.002808,1.517207 -1.015987,1.547377 -0.951186,2.17761 0.124917,1.214895 1.030113,2.535707 2.353891,3.434667 2.008398,1.363877 3.417369,1.630812 4.424875,0.838308 0.189958,-0.149421 0.835509,-1.026071 1.434558,-1.948111 l 1.08918,-1.676435 0.271448,0.381213 c 0.591418,0.830572 0.915717,1.762499 0.978477,2.811829 0.05868,0.98103 0.04678,1.038834 -0.315836,1.534103 -0.577004,0.788094 -1.33953,1.10585 -2.711775,1.130035 -0.61875,0.01091 -1.265625,-0.0062 -1.4375,-0.03796 z"
       id="path8199"
       inkscape:connector-curvature="0"
       transform="matrix(0.26458333,0,0,0.26458333,0,280.06667)" />
    <path
       style="fill:#fce94f;fill-opacity:1;stroke-width:0.07086614;stroke-linecap:round;stroke-linejoin:miter;stroke-miterlimit:4;stroke-dasharray:none;paint-order:markers fill stroke"
       d="m 20.047193,58.686296 c -0.48125,-0.157351 -1.163747,-0.433705 -1.51666,-0.61412 -1.042201,-0.532791 -3.185776,-2.022486 -3.845871,-2.672721 -1.340106,-1.320088 -2.574969,-3.73087 -2.574969,-5.027026 0,-0.265766 0.135511,-0.731482 0.306314,-1.052718 0.442817,-0.832824 2.610046,-3.950329 2.705277,-3.891474 0.04431,0.02739 0.115268,0.26198 0.157675,0.521316 0.200395,1.225489 1.530114,3.27644 2.854607,4.40293 0.838776,0.713384 2.441488,1.792028 3.355694,2.258421 1.467855,0.748843 3.60281,1.209178 4.964183,1.070367 0.429687,-0.04381 0.78125,-0.04482 0.78125,-0.0022 0,0.04258 -0.585664,0.930083 -1.301474,1.972232 -1.428234,2.079362 -2.293538,3.019466 -2.953419,3.208717 -0.729751,0.209289 -1.989491,0.134683 -2.932607,-0.173681 z"
       id="path8201"
       inkscape:connector-curvature="0"
       transform="matrix(0.26458333,0,0,0.26458333,0,280.06667)" />
    <path
       style="fill:#fce94f;fill-opacity:1;stroke-width:0.07086614;stroke-linecap:round;stroke-linejoin:miter;stroke-miterlimit:4;stroke-dasharray:none;paint-order:markers fill stroke"
       d="m 48.420561,10.883728 c -1.816784,-0.628229 -3.435868,-2.2520061 -3.435868,-3.4458271 0,-1.4233062 1.605435,-1.7934283 3.583125,-0.8260649 1.84676,0.9033209 3.008139,2.6210776 2.53857,3.754716 -0.304799,0.73585 -1.427984,0.952128 -2.685827,0.517176 z"
       id="path8203"
       inkscape:connector-curvature="0"
       transform="matrix(0.26458333,0,0,0.26458333,0,280.06667)" />
    <path
       style="fill:#fce94f;fill-opacity:1;stroke-width:0.07086614;stroke-linecap:round;stroke-linejoin:miter;stroke-miterlimit:4;stroke-dasharray:none;paint-order:markers fill stroke"
       d="M 11.797193,19.426474 C 7.8562922,18.707936 4.7330098,16.782313 4.0031842,14.621171 3.7783534,13.955407 3.8280751,12.502774 4.0958756,11.913167 5.1266696,9.6437048 7.3916472,8.2312498 11.442459,7.3317896 c 1.066077,-0.2367167 1.60403,-0.2727692 4.042234,-0.2709029 2.377645,0.00182 2.999775,0.042547 4.023734,0.2634075 2.859487,0.6167711 5.90853,2.6650738 6.792022,4.5627808 0.238536,0.512369 0.307074,0.865769 0.308023,1.588283 0.0016,1.217658 -0.283067,1.807752 -1.427875,2.959885 -1.398283,1.407229 -3.801779,2.476674 -6.720568,2.990343 -1.296744,0.22821 -5.413053,0.228759 -6.662836,8.75e-4 z m 5.364055,-2.88029 c 1.613035,-0.341721 2.975764,-1.158042 3.588662,-2.149732 0.373067,-0.603634 0.370754,-1.725863 -0.0048,-2.333534 -0.658801,-1.065972 -2.35698,-2.0815966 -3.885405,-2.323736 -2.37027,-0.3755079 -5.166064,0.1231509 -6.53211,1.165069 -2.5111228,1.915297 -1.2563929,4.824338 2.42881,5.631099 1.060776,0.232224 3.333432,0.237814 4.404855,0.01083 z"
       id="path8205"
       inkscape:connector-curvature="0"
       transform="matrix(0.26458333,0,0,0.26458333,0,280.06667)" />
    <path
       style="fill:#ffff00;fill-opacity:1;stroke-width:0.07086614;stroke-linecap:round;stroke-linejoin:miter;stroke-miterlimit:4;stroke-dasharray:none;paint-order:markers fill stroke"
       d="m 14.332633,21.391273 c 0.363242,-0.02533 0.925742,-0.02506 1.25,5.92e-4 0.324258,0.02566 0.02706,0.04638 -0.66044,0.04605 -0.6875,-3.25e-4 -0.952802,-0.02132 -0.58956,-0.04665 z"
       id="path8207"
       inkscape:connector-curvature="0"
       transform="matrix(0.26458333,0,0,0.26458333,0,280.06667)" />
    <path
       style="fill:#ffff00;fill-opacity:1;stroke-width:0.07086614;stroke-linecap:round;stroke-linejoin:miter;stroke-miterlimit:4;stroke-dasharray:none;paint-order:markers fill stroke"
       d="m 13.828443,21.400789 c 0.08594,-0.03468 0.226562,-0.03468 0.3125,0 0.08594,0.03468 0.01563,0.06305 -0.15625,0.06305 -0.171875,0 -0.242188,-0.02837 -0.15625,-0.06305 z"
       id="path8209"
       inkscape:connector-curvature="0"
       transform="matrix(0.26458333,0,0,0.26458333,0,280.06667)" />
    <path
       style="fill:#fce94f;fill-opacity:1;stroke-width:0.07086614;stroke-linecap:round;stroke-linejoin:miter;stroke-miterlimit:4;stroke-dasharray:none;paint-order:markers fill stroke"
       d="m 11.547193,21.107928 c -2.7497813,-0.561136 -4.8353083,-1.536984 -6.3125,-2.95371 -0.515625,-0.494519 -0.902659,-0.93412 -0.8600756,-0.976892 0.042584,-0.04277 0.4082085,0.196546 0.8125,0.531818 1.3873253,1.150487 3.1085228,1.925339 5.4850756,2.469283 1.99111,0.455724 5.374131,0.569086 7.533346,0.252435 3.065966,-0.449627 5.9283,-1.608217 7.372904,-2.984338 0.223437,-0.212846 0.40625,-0.324974 0.40625,-0.249175 0,0.0758 -0.386604,0.495752 -0.85912,0.933229 -1.51009,1.398112 -4.164204,2.565844 -6.881658,3.027726 -1.669356,0.283738 -5.189185,0.25726 -6.696722,-0.05038 z"
       id="path8211"
       inkscape:connector-curvature="0"
       transform="matrix(0.26458333,0,0,0.26458333,0,280.06667)" />
    <path
       style="fill:#fce94f;fill-opacity:1;stroke-width:0.07086614;stroke-linecap:round;stroke-linejoin:miter;stroke-miterlimit:4;stroke-dasharray:none;paint-order:markers fill stroke"
       d="m 9.9846929,12.88844 c 0,-0.240574 0.7406451,-1.128473 1.1442981,-1.371806 0.230011,-0.138656 0.811952,-0.385631 1.293202,-0.548831 0.772833,-0.262083 1.10201,-0.296729 2.819215,-0.296729 h 1.944216 l 0.930784,0.460763 c 0.862998,0.427207 1.876498,1.26019 1.721669,1.415019 -0.03686,0.03687 -0.398645,-0.09551 -0.803955,-0.29416 -1.66448,-0.815802 -3.072766,-1.07345 -4.946535,-0.904976 -1.660773,0.149322 -2.790413,0.553697 -3.711203,1.328491 -0.21543,0.181272 -0.3916911,0.276776 -0.3916911,0.212229 z"
       id="path8213"
       inkscape:connector-curvature="0"
       transform="matrix(0.26458333,0,0,0.26458333,0,280.06667)" />
    <path
       style="fill:#fce94f;fill-opacity:1;stroke-width:0.07086614;stroke-linecap:round;stroke-linejoin:miter;stroke-miterlimit:4;stroke-dasharray:none;paint-order:markers fill stroke"
       d="m 43.888247,52.758651 c -1.87492,-1.010668 -3.39367,-1.903716 -3.375,-1.984553 0.01867,-0.08084 0.568321,-1.294808 1.221446,-2.697713 l 1.1875,-2.550736 4.741319,-0.706087 4.741319,-0.706087 2.696181,1.6445 c 1.4829,0.904476 2.98866,1.828987 3.346135,2.05447 l 0.649953,0.409968 -1.25918,2.599331 c -0.692548,1.429631 -1.297052,2.641354 -1.343341,2.692718 -0.07123,0.07904 -8.611458,1.105944 -9.047791,1.087939 -0.08228,-0.0034 -1.683621,-0.833083 -3.558541,-1.84375 z m 8.003835,0.107624 c 2.281235,-0.583442 3.485468,-1.681828 3.485468,-3.17911 0,-0.384422 -0.0885,-0.852604 -0.203017,-1.074065 -0.328415,-0.635086 -1.158866,-1.350674 -2.112468,-1.820284 -2.373952,-1.169076 -6.472997,-0.715951 -8.13629,0.899418 -1.97353,1.916669 -0.629257,4.499862 2.72053,5.227847 1.184531,0.257425 3.125025,0.232834 4.245777,-0.05381 z"
       id="path8215"
       inkscape:connector-curvature="0"
       transform="matrix(0.26458333,0,0,0.26458333,0,280.06667)" />
    <path
       style="fill:#fce94f;fill-opacity:1;stroke-width:0.07086614;stroke-linecap:round;stroke-linejoin:miter;stroke-miterlimit:4;stroke-dasharray:none;paint-order:markers fill stroke"
       d="m 43.313992,59.419991 c -1.709511,-0.984676 -3.15302,-1.837254 -3.207798,-1.894618 -0.09435,-0.09881 0.08883,-5.418796 0.19007,-5.520037 0.02634,-0.02634 1.485766,0.721915 3.243163,1.662795 l 3.195266,1.710691 -4.13e-4,0.958626 c -7.12e-4,1.631385 -0.159755,4.896749 -0.237907,4.884494 -0.0408,-0.0064 -1.472871,-0.817276 -3.182381,-1.801951 z"
       id="path8217"
       inkscape:connector-curvature="0"
       transform="matrix(0.26458333,0,0,0.26458333,0,280.06667)" />
    <path
       style="fill:#fce94f;fill-opacity:1;stroke-width:0.07086614;stroke-linecap:round;stroke-linejoin:miter;stroke-miterlimit:4;stroke-dasharray:none;paint-order:markers fill stroke"
       d="m 47.641027,51.922422 c -4.736491,-1.325893 -2.62118,-5.078977 2.695014,-4.781619 1.721114,0.09627 3.006861,0.652063 3.778858,1.633499 0.840474,1.068489 0.08308,2.282363 -1.864565,2.988355 -0.936419,0.339437 -3.633509,0.432922 -4.609307,0.159765 z"
       id="path8219"
       inkscape:connector-curvature="0"
       transform="matrix(0.26458333,0,0,0.26458333,0,280.06667)" />
    <path
       style="fill:#fce94f;fill-opacity:1;stroke-width:0.07086614;stroke-linecap:round;stroke-linejoin:miter;stroke-miterlimit:4;stroke-dasharray:none;paint-order:markers fill stroke"
       d="m 47.581486,60.014824 c 0.02771,-0.807813 0.08758,-2.141819 0.133044,-2.964459 l 0.08266,-1.495709 4.235008,-0.477616 c 2.329254,-0.262689 4.250166,-0.461495 4.268692,-0.441791 0.03113,0.03311 0.286223,5.512132 0.25863,5.554966 -0.01712,0.02657 -8.731095,1.29371 -8.895374,1.293516 -0.08936,-1.06e-4 -0.116503,-0.482374 -0.08266,-1.468907 z"
       id="path8221"
       inkscape:connector-curvature="0"
       transform="matrix(0.26458333,0,0,0.26458333,0,280.06667)" />
    <path
       style="fill:#fce94f;fill-opacity:1;stroke-width:0.07086614;stroke-linecap:round;stroke-linejoin:miter;stroke-miterlimit:4;stroke-dasharray:none;paint-order:markers fill stroke"
       d="m 57.441612,57.728396 c -0.04279,-0.444027 -0.08852,-1.454197 -0.101631,-2.244822 l -0.02384,-1.4375 1.015179,-2 1.015178,-2 4.1e-5,2.4375 4e-5,2.4375 -0.913588,1.807322 -0.913589,1.807323 z"
       id="path8223"
       inkscape:connector-curvature="0"
       transform="matrix(0.26458333,0,0,0.26458333,0,280.06667)" />
  </g>
</svg>
