<?xml version="1.0" encoding="UTF-8" standalone="no"?>
<!-- Created with Inkscape (http://www.inkscape.org/) -->

<svg
   xmlns:dc="http://purl.org/dc/elements/1.1/"
   xmlns:cc="http://creativecommons.org/ns#"
   xmlns:rdf="http://www.w3.org/1999/02/22-rdf-syntax-ns#"
   xmlns:svg="http://www.w3.org/2000/svg"
   xmlns="http://www.w3.org/2000/svg"
   xmlns:sodipodi="http://sodipodi.sourceforge.net/DTD/sodipodi-0.dtd"
   xmlns:inkscape="http://www.inkscape.org/namespaces/inkscape"
   width="64"
   height="64"
   viewBox="0 0 16.933333 16.933334"
   version="1.1"
   id="svg8"
   sodipodi:docname="Double_Belt_Clamp_cmd.svg"
   inkscape:version="0.92.3 (2405546, 2018-03-11)">
  <defs
     id="defs2" />
  <sodipodi:namedview
     id="base"
     pagecolor="#ffffff"
     bordercolor="#666666"
     borderopacity="1.0"
     inkscape:pageopacity="0.0"
     inkscape:pageshadow="2"
     inkscape:zoom="7.9195959"
     inkscape:cx="44.651175"
     inkscape:cy="26.066302"
     inkscape:document-units="mm"
     inkscape:current-layer="layer1"
     showgrid="false"
     units="px"
     inkscape:window-width="1920"
     inkscape:window-height="1027"
     inkscape:window-x="1072"
     inkscape:window-y="-8"
     inkscape:window-maximized="1" />
  <metadata
     id="metadata5">
    <rdf:RDF>
      <cc:Work
         rdf:about="">
        <dc:format>image/svg+xml</dc:format>
        <dc:type
           rdf:resource="http://purl.org/dc/dcmitype/StillImage" />
        <dc:title></dc:title>
      </cc:Work>
    </rdf:RDF>
  </metadata>
  <g
     inkscape:label="Capa 1"
     inkscape:groupmode="layer"
     id="layer1"
     transform="translate(0,-280.06665)">
    <path
       style="fill:none;stroke:#000000;stroke-width:0.26458332px;stroke-linecap:butt;stroke-linejoin:miter;stroke-opacity:1"
       d="m 16.687641,292.62344 -1.770661,1.06908 -0.23386,0.0501 -0.200453,-0.0668 -6.5146942,-3.75848 -0.7015827,0.41761 -0.2338607,0.0668 -0.2004523,-0.0668 -0.7516955,-0.45102 0.016703,-0.53454 0.4009043,-0.28397 -5.1282327,-2.95667 -1.06907809,-0.61806 -0.0167043,-0.58465 1.33634759,-0.78511 0.050113,-0.33408 0.7683999,-0.48443 2.3219039,1.36976 -0.7683997,0.43431 -2.3386084,-1.33635 0.033409,2.02123 -1.40316499,-0.81852"
       id="path1384"
       inkscape:connector-curvature="0" />
    <path
       style="fill:none;stroke:#000000;stroke-width:0.26458332px;stroke-linecap:butt;stroke-linejoin:miter;stroke-opacity:1"
       d="m 3.9923383,285.10649 0.016706,1.98782 0.8018087,-0.3842 -0.050113,-2.03793"
       id="path1386"
       inkscape:connector-curvature="0" />
    <path
       style="fill:none;stroke:#000000;stroke-width:0.26458332px;stroke-linecap:butt;stroke-linejoin:miter;stroke-opacity:1"
       d="m 4.0090441,287.09431 2.9399635,1.72054 -0.4510188,0.25057"
       id="path1388"
       inkscape:connector-curvature="0" />
    <path
       style="fill:none;stroke:#000000;stroke-width:0.26458332px;stroke-linecap:butt;stroke-linejoin:miter;stroke-opacity:1"
       d="m 6.0970845,289.34939 0.7349926,0.48443 h 0.3842001 l 0.7851042,-0.40091 2.8898516,1.70385 0.03341,-1.98782 2.355313,1.31964 -0.01671,1.98782 1.236121,0.71829 0.400905,0.0334 1.787365,-1.05238 -10e-7,0.46772"
       id="path1390"
       inkscape:connector-curvature="0" />
    <path
       style="fill:none;stroke:#000000;stroke-width:0.26458332px;stroke-linecap:butt;stroke-linejoin:miter;stroke-opacity:1"
       d="m 14.900272,293.20809 0.01671,0.48443"
       id="path1392"
       inkscape:connector-curvature="0" />
    <path
       style="fill:none;stroke:#000000;stroke-width:0.26458332px;stroke-linecap:butt;stroke-linejoin:miter;stroke-opacity:1"
       d="m 14.499367,293.17469 -0.0167,0.50113"
       id="path1394"
       inkscape:connector-curvature="0" />
    <path
       style="fill:none;stroke:#000000;stroke-width:0.26458332px;stroke-linecap:butt;stroke-linejoin:miter;stroke-opacity:1"
       d="m 6.8320771,289.83382 v 0.50113"
       id="path1396"
       inkscape:connector-curvature="0" />
    <path
       style="fill:none;stroke:#000000;stroke-width:0.26458332px;stroke-linecap:butt;stroke-linejoin:miter;stroke-opacity:1"
       d="m 7.2162772,289.83382 0.050113,0.50113"
       id="path1398"
       inkscape:connector-curvature="0" />
    <path
       style="fill:none;stroke:#000000;stroke-width:0.26458332px;stroke-linecap:butt;stroke-linejoin:miter;stroke-opacity:1"
       d="m 3.0067821,283.58639 -0.033409,-0.60135 0.8185129,-0.48443 2.2884953,1.40317 -0.7516956,0.45101 -2.3219039,-1.33634"
       id="path1400"
       inkscape:connector-curvature="0" />
    <path
       style="fill:none;stroke:#000000;stroke-width:0.26458332px;stroke-linecap:butt;stroke-linejoin:miter;stroke-opacity:1"
       d="m 5.3286855,284.35479 5e-7,2.03793 -0.4844258,-0.26727"
       id="path1402"
       inkscape:connector-curvature="0" />
    <path
       style="fill:none;stroke:#000000;stroke-width:0.26458332px;stroke-linecap:butt;stroke-linejoin:miter;stroke-opacity:1"
       d="m 5.328686,286.39272 0.4009044,-0.23386 v -0.95214 l -0.033409,2.28849 0.083522,0.33409 0.3842,0.26727 0.5178347,0.0668 0.6514695,-0.0334 0.3340869,-0.18375 0.2338608,-0.18375 0.050113,-0.23386 -0.016704,-2.3052 -0.2004521,-0.28397 -0.2505652,-0.18375 -0.434313,-0.0668 -0.5846521,0.0167 -0.3173826,0.11693 -0.2505651,0.15033 -0.1670436,0.23387 0.2004521,0.48442 0.3340869,0.16704 0.534539,0.11694 0.5345391,-0.0668 0.434313,-0.25057 0.2004521,-0.4009"
       id="path1404"
       inkscape:connector-curvature="0" />
    <path
       style="fill:none;stroke:#000000;stroke-width:0.26458332px;stroke-linecap:butt;stroke-linejoin:miter;stroke-opacity:1"
       d="m 9.0704595,289.54985 0.016706,-1.93771 0.2171565,-0.26727 0.2839738,-0.15034 0.4510172,-0.0668 0.517835,-0.0167 0.300678,0.11693 0.317382,0.16705 0.133635,0.25056 v 0.20045 l -0.11693,0.21716 -0.367496,0.18375 -0.601356,0.0835 -0.3507913,-0.0334 -0.4844262,-0.20045 -0.1837478,-0.21716 -0.100226,-0.26727"
       id="path1406"
       inkscape:connector-curvature="0" />
    <path
       style="fill:none;stroke:#000000;stroke-width:0.26458332px;stroke-linecap:butt;stroke-linejoin:miter;stroke-opacity:1"
       d="m 9.0704595,289.54985 v 0 l 0.1837478,0.30067 0.3173825,0.20046 0.5178352,0.0668 0.3842,0.0167 0.334087,-0.0668"
       id="path1408"
       inkscape:connector-curvature="0" />
    <path
       style="fill:none;stroke:#000000;stroke-width:0.26458332px;stroke-linecap:butt;stroke-linejoin:miter;stroke-opacity:1"
       d="m 11.308843,287.64557 0.03341,1.2194"
       id="path1410"
       inkscape:connector-curvature="0" />
    <path
       style="fill:none;stroke:#000000;stroke-width:0.26458332px;stroke-linecap:butt;stroke-linejoin:miter;stroke-opacity:1"
       d="m 10.924643,289.14894 0.751694,-0.51783 2.321904,1.35305 -0.718285,0.48442"
       id="path1412"
       inkscape:connector-curvature="0" />
    <path
       style="fill:none;stroke:#000000;stroke-width:0.26458332px;stroke-linecap:butt;stroke-linejoin:miter;stroke-opacity:1"
       d="m 13.998241,289.98416 0.05011,2.07134 -0.785108,0.4009"
       id="path1414"
       inkscape:connector-curvature="0" />
    <path
       style="fill:none;stroke:#000000;stroke-width:0.26458332px;stroke-linecap:butt;stroke-linejoin:miter;stroke-opacity:1"
       d="m 12.210877,288.93178 0.0167,-0.51783 0.818513,-0.53454 2.288495,1.35305 0.03341,2.03793 1.31964,0.88532"
       id="path1416"
       inkscape:connector-curvature="0" />
    <path
       style="fill:none;stroke:#000000;stroke-width:0.26458332px;stroke-linecap:butt;stroke-linejoin:miter;stroke-opacity:1"
       d="m 15.367995,291.27039 -0.801806,0.41761 v -2.03793 l 0.768396,-0.41761"
       id="path1418"
       inkscape:connector-curvature="0" />
    <path
       style="fill:none;stroke:#000000;stroke-width:0.26458332px;stroke-linecap:butt;stroke-linejoin:miter;stroke-opacity:1"
       d="m 12.227577,288.41395 2.338612,1.23612"
       id="path1420"
       inkscape:connector-curvature="0" />
    <path
       style="fill:none;stroke:#000000;stroke-width:0.26458332px;stroke-linecap:butt;stroke-linejoin:miter;stroke-opacity:1"
       d="m 14.14858,291.42073 0.417609,0.26727"
       id="path1422"
       inkscape:connector-curvature="0" />
    <path
       style="fill:none;stroke:#000000;stroke-width:0.26458332px;stroke-linecap:butt;stroke-linejoin:miter;stroke-opacity:1"
       d="m 8.0180856,286.96067 1.0690797,0.65147"
       id="path1424"
       inkscape:connector-curvature="0" />
    <path
       style="fill:none;stroke:#000000;stroke-width:0.26458332px;stroke-linecap:butt;stroke-linejoin:miter;stroke-opacity:1"
       d="m 6.0803813,283.90378 0.066818,0.91874"
       id="path1426"
       inkscape:connector-curvature="0" />
    <path
       style="fill:#fce94f;fill-opacity:1;stroke-width:0.02550635;stroke-linecap:round;stroke-linejoin:miter;stroke-miterlimit:4;stroke-dasharray:none;paint-order:markers fill stroke"
       d="M 13.208168,26.824532 C 7.0272967,23.25018 1.8940537,20.281077 1.8009608,20.226527 1.707868,20.171977 1.651047,20.004008 1.6746918,19.853264 1.7190931,19.570189 1.8797029,19.65332 6.4329325,22.316112 l 0.5483711,0.320695 -0.092954,-3.816821 c -0.061042,-2.50647 -0.050021,-3.8003 0.032103,-3.7687 0.068782,0.02647 1.809966,1.011423 3.8692984,2.188792 l 3.744242,2.140671 0.0017,3.730841 c 10e-4,2.051962 0.03563,3.85733 0.07707,4.011928 0.05735,0.213944 0.124852,0.254596 0.282581,0.170182 0.155749,-0.08335 1.448865,0.615357 5.205138,2.812504 4.21524,2.465608 4.966605,2.947498 4.798026,3.077231 -0.109935,0.0846 -0.256703,0.150692 -0.326151,0.14687 -0.06945,-0.0038 -5.183345,-2.93142 -11.364216,-6.505773 z"
       id="path2011"
       inkscape:connector-curvature="0"
       transform="matrix(0.26458333,0,0,0.26458333,0,280.06665)" />
    <path
       style="fill:#fce94f;fill-opacity:1;stroke-width:0.02550635;stroke-linecap:round;stroke-linejoin:miter;stroke-miterlimit:4;stroke-dasharray:none;paint-order:markers fill stroke"
       d="M 3.9273911,19.563764 C 2.9898432,19.008689 2.1804474,18.513271 2.1287337,18.462833 c -0.051714,-0.05044 0.7085039,-0.560073 1.6893724,-1.132525 0.9808683,-0.572451 1.8013047,-1.022913 1.823192,-1.001026 0.1036391,0.103639 0.2057377,4.261786 0.1044342,4.253269 -0.06254,-0.0053 -0.8807934,-0.463712 -1.8183412,-1.018787 z"
       id="path2013"
       inkscape:connector-curvature="0"
       transform="matrix(0.26458333,0,0,0.26458333,0,280.06665)" />
    <path
       style="fill:#fce94f;fill-opacity:1;stroke-width:0.02550635;stroke-linecap:round;stroke-linejoin:miter;stroke-miterlimit:4;stroke-dasharray:none;paint-order:markers fill stroke"
       d="M 11.37114,16.278393 C 9.3259997,15.109708 7.6359043,14.103116 7.6153728,14.041521 7.5948413,13.979926 7.949745,13.69478 8.4040478,13.407861 l 0.8260052,-0.521669 3.7875,2.237607 c 2.083125,1.230684 3.745285,2.278555 3.693689,2.328602 -0.05159,0.05005 -0.437577,0.284467 -0.857737,0.520934 l -0.763928,0.42994 z"
       id="path2015"
       inkscape:connector-curvature="0"
       transform="matrix(0.26458333,0,0,0.26458333,0,280.06665)" />
    <path
       style="fill:#fce94f;fill-opacity:1;stroke-width:0.02550635;stroke-linecap:round;stroke-linejoin:miter;stroke-miterlimit:4;stroke-dasharray:none;paint-order:markers fill stroke"
       d="m 16.192876,13.300324 c -4.338375,-2.511087 -4.074925,-2.19937 -2.561831,-3.031197 l 0.720186,-0.3959249 3.721617,2.2786499 c 2.046889,1.253257 3.74017,2.296185 3.762848,2.317616 0.04581,0.0433 -1.664666,1.078331 -1.753209,1.060892 -0.03068,-0.006 -1.781009,-1.00956 -3.889611,-2.230036 z"
       id="path2017"
       inkscape:connector-curvature="0"
       transform="matrix(0.26458333,0,0,0.26458333,0,280.06665)" />
    <path
       style="fill:#fce94f;fill-opacity:1;stroke-width:0.02550635;stroke-linecap:round;stroke-linejoin:miter;stroke-miterlimit:4;stroke-dasharray:none;paint-order:markers fill stroke"
       d="m 19.067453,22.676596 c -0.305285,-0.165954 -0.333587,-0.258382 -0.410375,-1.340168 -0.04536,-0.639056 -0.08247,-1.714472 -0.08247,-2.389812 0,-1.083564 0.02953,-1.248254 0.251246,-1.401129 0.231782,-0.159817 -0.02375,-0.334532 -3.298555,-2.255329 -1.952391,-1.145151 -3.575213,-2.148316 -3.606273,-2.229256 -0.03106,-0.08094 -0.03826,-0.321095 -0.01601,-0.533678 l 0.04046,-0.386514 3.788072,2.179968 3.788072,2.179968 0.03374,3.182154 c 0.01855,1.750185 -0.0099,3.179879 -0.06313,3.177099 -0.05328,-0.0028 -0.244425,-0.08527 -0.424769,-0.183303 z"
       id="path2019"
       inkscape:connector-curvature="0"
       transform="matrix(0.26458333,0,0,0.26458333,0,280.06665)" />
    <path
       style="fill:#fce94f;fill-opacity:1;stroke-width:0.02550635;stroke-linecap:round;stroke-linejoin:miter;stroke-miterlimit:4;stroke-dasharray:none;paint-order:markers fill stroke"
       d="m 20.723596,19.687183 0.0024,-3.198817 0.828396,-0.484488 c 0.455618,-0.266468 0.853413,-0.459471 0.883989,-0.428895 0.03058,0.03058 0.09113,0.516398 0.134559,1.079604 l 0.07897,1.024011 -0.371895,0.213439 c -0.204542,0.11739 -0.539523,0.44621 -0.744403,0.730709 -0.361954,0.502615 -0.374297,0.568857 -0.435643,2.33798 -0.045,1.297857 -0.10846,1.835724 -0.220971,1.872992 -0.123533,0.04092 -0.15731,-0.642929 -0.155417,-3.146535 z"
       id="path2021"
       inkscape:connector-curvature="0"
       transform="matrix(0.26458333,0,0,0.26458333,0,280.06665)" />
    <path
       style="fill:#fce94f;fill-opacity:1;stroke-width:0.02550635;stroke-linecap:round;stroke-linejoin:miter;stroke-miterlimit:4;stroke-dasharray:none;paint-order:markers fill stroke"
       d="m 24.509249,21.50683 c -1.214071,-0.328837 -1.644903,-0.625612 -1.935236,-1.333068 -0.343032,-0.835867 -0.17679,-1.108809 1.028411,-1.688488 l 0.936584,-0.450479 1.663047,0.0564 c 1.531821,0.05195 1.700963,0.08217 2.143554,0.382915 0.264279,0.179582 0.62049,0.532517 0.791582,0.7843 l 0.311074,0.457788 -0.291366,0.525307 c -0.198945,0.358678 -0.513975,0.655096 -0.993154,0.934476 -0.924705,0.539138 -2.394285,0.672181 -3.654496,0.330846 z"
       id="path2023"
       inkscape:connector-curvature="0"
       transform="matrix(0.26458333,0,0,0.26458333,0,280.06665)" />
    <path
       style="fill:#fce94f;fill-opacity:1;stroke-width:0.02550635;stroke-linecap:round;stroke-linejoin:miter;stroke-miterlimit:4;stroke-dasharray:none;paint-order:markers fill stroke"
       d="m 24.219277,29.91904 c -1.008012,-0.16907 -1.81305,-0.744221 -2.000608,-1.429312 -0.13852,-0.505974 -0.09039,-6.442623 0.0534,-6.586412 0.03602,-0.03602 0.341043,0.07196 0.677827,0.239964 0.336783,0.168001 1.099179,0.405817 1.694213,0.528479 1.497977,0.308797 2.982387,0.123901 4.055751,-0.505181 l 0.733881,-0.430116 v 3.444811 3.444811 l -0.34724,0.318634 c -0.804755,0.738461 -1.39867,0.955923 -2.809487,1.028695 -0.729204,0.03761 -1.655186,0.01314 -2.057739,-0.05437 z"
       id="path2025"
       inkscape:connector-curvature="0"
       transform="matrix(0.26458333,0,0,0.26458333,0,280.06665)" />
    <path
       style="fill:#fce94f;fill-opacity:1;stroke-width:0.02550635;stroke-linecap:round;stroke-linejoin:miter;stroke-miterlimit:4;stroke-dasharray:none;paint-order:markers fill stroke"
       d="m 18.890276,28.094723 c -1.250064,-0.73321 -2.315242,-1.374369 -2.367061,-1.424799 -0.05182,-0.05043 0.414678,-0.341131 1.036662,-0.646001 l 1.13088,-0.55431 0.03662,-0.845625 0.03663,-0.845625 0.863255,0.490313 c 0.474791,0.269673 0.915154,0.490314 0.978586,0.490314 0.06343,0 0.115329,-0.142053 0.115329,-0.315673 0,-0.173619 0.05682,-0.315672 0.126269,-0.315672 0.07897,0 0.126533,0.768606 0.126973,2.051872 3.92e-4,1.12853 0.06081,2.268339 0.134283,2.532908 0.07347,0.26457 0.115767,0.53377 0.094,0.598221 -0.02177,0.06445 -1.062361,-0.482714 -2.312424,-1.215923 z"
       id="path2027"
       inkscape:connector-curvature="0"
       transform="matrix(0.26458333,0,0,0.26458333,0,280.06665)" />
    <path
       style="fill:#fce94f;fill-opacity:1;stroke-width:0.02550635;stroke-linecap:round;stroke-linejoin:miter;stroke-miterlimit:4;stroke-dasharray:none;paint-order:markers fill stroke"
       d="m 15.670414,22.497014 v -3.145859 l 0.830283,-0.46432 c 0.456655,-0.255377 0.86,-0.434603 0.896323,-0.398281 0.03632,0.03632 0.0973,1.457063 0.135498,3.157202 l 0.06946,3.091161 -0.899495,0.452978 c -0.494722,0.249138 -0.929323,0.452979 -0.965781,0.452979 -0.03646,0 -0.06629,-1.415637 -0.06629,-3.14586 z"
       id="path2029"
       inkscape:connector-curvature="0"
       transform="matrix(0.26458333,0,0,0.26458333,0,280.06665)" />
    <path
       style="fill:#fce94f;fill-opacity:1;stroke-width:0.02550635;stroke-linecap:round;stroke-linejoin:miter;stroke-miterlimit:4;stroke-dasharray:none;paint-order:markers fill stroke"
       d="m 32.152276,35.879089 -1.890288,-1.118769 -1.611876,0.807712 c -2.064839,1.034693 -2.285426,1.044978 -3.586218,0.167213 -0.726138,-0.489993 -0.917631,-0.678513 -0.814923,-0.802269 0.07384,-0.08897 0.786263,-0.525217 1.58316,-0.969431 0.796897,-0.444214 1.450284,-0.84333 1.451971,-0.886925 0.0017,-0.04359 -0.707197,-0.488667 -1.575297,-0.989048 -0.868099,-0.50038 -1.578363,-0.922081 -1.578363,-0.937111 0,-0.01503 0.829897,-0.03799 1.844216,-0.05102 1.823099,-0.02342 1.852378,-0.02833 2.556949,-0.428027 0.937574,-0.531883 1.752248,-1.130949 1.858629,-1.366734 0.047,-0.104172 0.120917,-0.682357 0.164259,-1.284854 l 0.0788,-1.095451 1.515229,0.914473 1.515229,0.914473 0.03353,3.558675 c 0.02024,2.147919 0.08124,3.558675 0.153874,3.558675 0.06619,0 0.08864,0.0826 0.04991,0.183547 -0.03874,0.100951 0.01987,0.312468 0.130232,0.470038 0.21714,0.31001 0.256032,0.485535 0.105964,0.478221 -0.05209,-0.0025 -0.945332,-0.508062 -1.98499,-1.123385 z"
       id="path2031"
       inkscape:connector-curvature="0"
       transform="matrix(0.26458333,0,0,0.26458333,0,280.06665)" />
    <path
       style="fill:#fce94f;fill-opacity:1;stroke-width:0.02550635;stroke-linecap:round;stroke-linejoin:miter;stroke-miterlimit:4;stroke-dasharray:none;paint-order:markers fill stroke"
       d="m 24.401868,37.325302 c -0.873862,-0.542396 -0.944213,-0.620067 -0.844939,-0.932853 0.07879,-0.248245 0.123296,-0.234732 0.8938,0.271395 0.59518,0.390961 0.811579,0.608223 0.813507,0.816755 0.0033,0.360664 -0.04517,0.351929 -0.862368,-0.155297 z"
       id="path2033"
       inkscape:connector-curvature="0"
       transform="matrix(0.26458333,0,0,0.26458333,0,280.06665)" />
    <path
       style="fill:#fce94f;fill-opacity:1;stroke-width:0.00450893;stroke-linecap:round;stroke-linejoin:miter;stroke-miterlimit:4;stroke-dasharray:none;paint-order:markers fill stroke"
       d="m 26.429012,38.476463 -0.106027,-0.03527 v -0.509474 -0.509474 h 0.245536 c 0.135044,0 0.245535,0.008 0.245535,0.01771 0,0.0097 0.02009,0.212708 0.04464,0.45104 0.06169,0.59876 0.07002,0.54366 -0.08895,0.587858 -0.159144,0.04425 -0.201415,0.04395 -0.340739,-0.0024 z"
       id="path2037"
       inkscape:connector-curvature="0"
       transform="matrix(0.26458333,0,0,0.26458333,0,280.06665)" />
    <path
       style="fill:#fce94f;fill-opacity:1;stroke-width:0.00450893;stroke-linecap:round;stroke-linejoin:miter;stroke-miterlimit:4;stroke-dasharray:none;paint-order:markers fill stroke"
       d="M 42.18236,43.602434 C 35.565173,39.78369 30.141065,36.655166 30.128789,36.650157 c -0.01228,-0.005 -0.519532,0.286882 -1.127233,0.648647 -0.6077,0.361766 -1.106879,0.650538 -1.109286,0.641716 -0.0099,-0.03638 -0.07514,-0.725123 -0.06912,-0.730041 0.0036,-0.0029 0.542443,-0.279064 1.197442,-0.613611 1.009483,-0.515604 1.198312,-0.604895 1.239511,-0.586123 0.02673,0.01218 2.598327,1.525518 5.714655,3.362973 3.116328,1.837456 5.6701,3.33678 5.675049,3.33183 0.0049,-0.0049 0.03762,-1.693312 0.0726,-3.751918 0.03498,-2.058606 0.0674,-3.745885 0.07205,-3.749509 0.0046,-0.0036 1.776299,0.984513 3.937013,2.195859 l 3.928572,2.202449 v 1.136472 c 0,0.62506 -0.0088,2.317358 -0.01945,3.760663 l -0.01945,2.624191 2.323684,1.349023 2.323683,1.349024 4.47e-4,0.327416 c 4.24e-4,0.311321 -0.0086,0.399064 -0.041,0.397208 -0.0079,-4.53e-4 -5.42841,-3.12525 -12.045598,-6.943992 z"
       id="path2039"
       inkscape:connector-curvature="0"
       transform="matrix(0.26458333,0,0,0.26458333,0,280.06665)" />
    <path
       style="fill:#fce94f;fill-opacity:1;stroke-width:0.00450893;stroke-linecap:round;stroke-linejoin:miter;stroke-miterlimit:4;stroke-dasharray:none;paint-order:markers fill stroke"
       d="m 26.262936,36.401089 c 0.169539,-0.0038 0.440745,-0.0038 0.602678,2.2e-5 0.161934,0.0038 0.02322,0.0069 -0.308254,0.0069 -0.331473,-1.2e-5 -0.463964,-0.0031 -0.294424,-0.0069 z"
       id="path2041"
       inkscape:connector-curvature="0"
       transform="matrix(0.26458333,0,0,0.26458333,0,280.06665)" />
    <path
       style="fill:#fce94f;fill-opacity:1;stroke-width:0.00450893;stroke-linecap:round;stroke-linejoin:miter;stroke-miterlimit:4;stroke-dasharray:none;paint-order:markers fill stroke"
       d="m 33.766729,36.800919 c -0.518055,-0.286446 -1.061432,-0.602743 -2.584802,-1.504604 -0.476578,-0.282142 -0.884156,-0.517601 -0.90573,-0.523242 -0.0225,-0.0059 -0.561975,0.250419 -1.265191,0.601088 -1.421654,0.708928 -1.783783,0.86724 -2.183044,0.954364 -0.16812,0.03669 -0.498837,0.02994 -0.672636,-0.01371 -0.194241,-0.04879 -0.526269,-0.217445 -0.869575,-0.441699 -0.617681,-0.403481 -0.987859,-0.694293 -1.038067,-0.815506 -0.02539,-0.06131 -0.02383,-0.07507 0.0132,-0.116397 0.09594,-0.107032 0.532835,-0.375787 1.626828,-1.000731 1.018493,-0.581815 1.395089,-0.816665 1.395089,-0.869996 0,-0.0442 -0.581995,-0.411595 -1.495535,-0.944078 -0.337612,-0.196786 -0.844866,-0.494486 -1.127232,-0.661555 l -0.513393,-0.303761 0.200893,-0.01439 c 0.110491,-0.0079 0.632812,-0.02098 1.160714,-0.02904 1.378021,-0.02102 1.988039,-0.04846 2.241069,-0.100792 0.246642,-0.05101 0.537044,-0.187012 1.02902,-0.481902 0.825034,-0.494526 1.494127,-0.996106 1.598806,-1.198533 0.07293,-0.141031 0.14986,-0.775495 0.223288,-1.841509 0.03863,-0.560787 0.03904,-0.563342 0.08501,-0.533216 0.02541,0.01665 0.60866,0.369414 1.296109,0.78392 0.687449,0.414506 1.346301,0.812683 1.464115,0.884838 l 0.214206,0.131191 0.01537,2.003288 c 0.0216,2.813979 0.06434,4.49093 0.125843,4.937694 0.01436,0.104299 0.03267,0.153892 0.06614,0.179136 0.04169,0.03145 0.04493,0.05033 0.03262,0.190594 -0.01648,0.187832 0.0064,0.260033 0.164797,0.520237 0.138831,0.228046 0.175202,0.326988 0.137082,0.372919 -0.01489,0.01794 -0.0386,0.03262 -0.05269,0.03262 -0.01409,0 -0.186132,-0.08875 -0.382312,-0.197223 z"
       id="path2043"
       inkscape:connector-curvature="0"
       transform="matrix(0.26458333,0,0,0.26458333,0,280.06665)" />
    <path
       style="fill:#fce94f;fill-opacity:1;stroke-width:0.00901786;stroke-linecap:round;stroke-linejoin:miter;stroke-miterlimit:4;stroke-dasharray:none;paint-order:markers fill stroke"
       d="m 38.390417,39.603085 c -1.209467,-0.715953 -2.178838,-1.308463 -2.154157,-1.31669 0.02468,-0.0082 0.451745,0.03738 0.949031,0.101343 0.497287,0.06397 1.253223,0.132693 1.679859,0.152727 0.717799,0.03371 0.812774,0.02877 1.272322,-0.06612 0.27314,-0.0564 0.511686,-0.103388 0.530101,-0.104411 0.01842,-10e-4 0.03343,0.163876 0.03337,0.366443 -2.24e-4,0.687009 -0.05856,2.17636 -0.08509,2.172391 -0.01452,-0.0022 -1.01596,-0.589728 -2.225427,-1.30568 z"
       id="path2054"
       inkscape:connector-curvature="0"
       transform="matrix(0.26458333,0,0,0.26458333,0,280.06665)" />
    <path
       style="fill:#fce94f;fill-opacity:1;stroke-width:0.00901786;stroke-linecap:round;stroke-linejoin:miter;stroke-miterlimit:4;stroke-dasharray:none;paint-order:markers fill stroke"
       d="m 38.334984,37.469402 c -0.282366,-0.02064 -0.844866,-0.08335 -1.25,-0.139351 l -0.736607,-0.101817 -0.494465,-0.311778 -0.494464,-0.311779 -0.275625,-0.451922 -0.275625,-0.451922 6.6e-5,-0.998971 c 3.6e-5,-0.549434 0.01331,-1.735521 0.02949,-2.63575 l 0.02943,-1.636781 0.137916,0.170261 c 0.121757,0.150312 0.25822,0.220019 1.164702,0.594945 l 1.026786,0.424685 0.736607,0.06906 0.736607,0.06906 1.205357,-0.169551 1.205357,-0.169551 0.586922,-0.295419 0.586922,-0.29542 0.02419,0.143105 c 0.0133,0.07871 0.03044,0.561868 0.03808,1.073689 l 0.01389,0.930582 -0.535147,0.369624 -0.535147,0.369624 -0.234942,-0.132593 -0.234942,-0.132593 -0.0047,0.260958 c -0.0026,0.143527 -0.01765,0.997583 -0.03348,1.897902 -0.01583,0.900319 -0.04308,1.651213 -0.06054,1.668654 -0.01746,0.01744 -0.258534,0.07853 -0.535714,0.135749 -0.53945,0.111364 -0.918396,0.123289 -1.820929,0.05731 z"
       id="path2056"
       inkscape:connector-curvature="0"
       transform="matrix(0.26458333,0,0,0.26458333,0,280.06665)" />
    <path
       style="fill:#fce94f;fill-opacity:1;stroke-width:0.00901786;stroke-linecap:round;stroke-linejoin:miter;stroke-miterlimit:4;stroke-dasharray:none;paint-order:markers fill stroke"
       d="m 37.843912,30.639116 c -0.322406,-0.03273 -0.504919,-0.09016 -1.213805,-0.381963 l -0.834342,-0.343445 -0.274452,-0.326331 c -0.192245,-0.228585 -0.313405,-0.427491 -0.404498,-0.664055 -0.07153,-0.185748 -0.130046,-0.343686 -0.130046,-0.350974 0,-0.0073 0.119328,-0.159654 0.265173,-0.338594 0.232884,-0.285732 0.319302,-0.353687 0.709734,-0.55811 0.434593,-0.227545 0.462432,-0.235404 1.241524,-0.350458 0.550912,-0.08136 1.07951,-0.126075 1.712141,-0.14484 l 0.915178,-0.02715 0.513393,0.203126 c 0.282366,0.111719 0.734102,0.319775 1.003858,0.462345 l 0.490465,0.25922 0.189895,0.334821 c 0.165189,0.291263 0.189883,0.369669 0.189806,0.602679 -8.9e-5,0.218645 -0.02705,0.317069 -0.146854,0.535714 -0.144905,0.264461 -0.154036,0.271594 -0.720125,0.562549 l -0.573359,0.294691 -0.986932,0.140616 c -1.012416,0.144247 -1.288092,0.157013 -1.946754,0.09015 z"
       id="path2058"
       inkscape:connector-curvature="0"
       transform="matrix(0.26458333,0,0,0.26458333,0,280.06665)" />
    <path
       style="fill:#fce94f;fill-opacity:1;stroke-width:0.00901786;stroke-linecap:round;stroke-linejoin:miter;stroke-miterlimit:4;stroke-dasharray:none;paint-order:markers fill stroke"
       d="m 47.397484,37.154755 c -1.485491,-0.83506 -3.245117,-1.82313 -3.91028,-2.195712 l -1.209386,-0.677422 0.871168,-0.601865 c 0.479142,-0.331025 0.90622,-0.619273 0.949062,-0.64055 0.05993,-0.02976 0.969191,0.479958 3.941993,2.209822 2.125254,1.236679 3.864146,2.258551 3.864203,2.270828 1.79e-4,0.03564 -1.714265,1.161115 -1.762379,1.156952 -0.02392,-0.0021 -1.25889,-0.686993 -2.744381,-1.522053 z"
       id="path2060"
       inkscape:connector-curvature="0"
       transform="matrix(0.26458333,0,0,0.26458333,0,280.06665)" />
    <path
       style="fill:#fce94f;fill-opacity:1;stroke-width:0.00901786;stroke-linecap:round;stroke-linejoin:miter;stroke-miterlimit:4;stroke-dasharray:none;paint-order:markers fill stroke"
       d="m 51.160456,33.572584 c -2.13917,-1.130543 -3.88143,-2.068429 -3.871688,-2.084191 0.0097,-0.01576 0.471114,-0.32434 1.025273,-0.685728 l 1.007563,-0.657069 1.124993,0.663911 c 5.213957,3.077 6.413206,3.789248 6.414121,3.80942 0.0011,0.02397 -0.07185,0.06521 -1.161601,0.656753 l -0.64926,0.352437 z"
       id="path2062"
       inkscape:connector-curvature="0"
       transform="matrix(0.26458333,0,0,0.26458333,0,280.06665)" />
    <path
       style="fill:#fce94f;fill-opacity:1;stroke-width:0.00901786;stroke-linecap:round;stroke-linejoin:miter;stroke-miterlimit:4;stroke-dasharray:none;paint-order:markers fill stroke"
       d="m 54.138555,42.718047 c -0.208705,-0.133487 -0.391307,-0.242732 -0.40578,-0.242768 -0.01447,-3.6e-5 -0.05038,0.05275 -0.0798,0.117311 -0.02941,0.06456 -0.06293,0.10792 -0.07449,0.09636 -0.01156,-0.01156 -0.04021,-0.812702 -0.06368,-1.780323 -0.02347,-0.967621 -0.05371,-2.070695 -0.06719,-2.451275 l -0.02452,-0.691964 0.223805,-0.152077 c 0.123093,-0.08364 0.223805,-0.156776 0.223805,-0.162521 0,-0.0057 -1.616804,-0.95182 -3.592897,-2.102388 l -3.592898,-2.091943 -8.52e-4,-0.38799 c -4.69e-4,-0.213395 0.01756,-0.399369 0.04006,-0.413275 0.03456,-0.02136 7.684879,3.9877 7.783047,4.078613 0.01858,0.01721 0.02862,1.470306 0.02232,3.229111 l -0.01146,3.197827 z"
       id="path2064"
       inkscape:connector-curvature="0"
       transform="matrix(0.26458333,0,0,0.26458333,0,280.06665)" />
    <path
       style="fill:#fce94f;fill-opacity:1;stroke-width:0.00901786;stroke-linecap:round;stroke-linejoin:miter;stroke-miterlimit:4;stroke-dasharray:none;paint-order:markers fill stroke"
       d="m 55.577997,39.794807 0.01145,-3.267459 0.915179,-0.502297 c 0.503348,-0.276264 0.921059,-0.497404 0.928246,-0.491422 0.01376,0.01146 0.08538,3.746531 0.105146,5.483577 l 0.0116,1.019673 -0.991537,0.512693 -0.991538,0.512693 z"
       id="path2066"
       inkscape:connector-curvature="0"
       transform="matrix(0.26458333,0,0,0.26458333,0,280.06665)" />
    <path
       style="fill:#fce94f;fill-opacity:1;stroke-width:0.00901786;stroke-linecap:round;stroke-linejoin:miter;stroke-miterlimit:4;stroke-dasharray:none;paint-order:markers fill stroke"
       d="m 50.671312,43.988086 c 0.0163,-1.089893 0.03055,-2.524034 0.03166,-3.18698 l 0.002,-1.205357 0.842037,-0.567857 0.842036,-0.567856 0.02582,0.456249 c 0.0142,0.250937 0.04629,1.460714 0.07132,2.688392 0.02502,1.227679 0.05677,2.493304 0.07056,2.8125 l 0.02507,0.580358 -0.927942,0.46875 c -0.510368,0.257812 -0.946903,0.476551 -0.970078,0.486086 -0.02631,0.01083 -0.03101,-0.727012 -0.0125,-1.964285 z"
       id="path2068"
       inkscape:connector-curvature="0"
       transform="matrix(0.26458333,0,0,0.26458333,0,280.06665)" />
    <path
       style="fill:#fce94f;fill-opacity:1;stroke-width:0.00901786;stroke-linecap:round;stroke-linejoin:miter;stroke-miterlimit:4;stroke-dasharray:none;paint-order:markers fill stroke"
       d="m 55.410877,49.073258 -0.446429,-0.0414 -1.860913,-1.07966 c -1.023503,-0.593814 -1.847164,-1.092662 -1.830358,-1.108553 0.01681,-0.01589 0.549728,-0.294796 1.18427,-0.61979 l 1.153714,-0.5909 -0.01532,-1.016601 c -0.0101,-0.670001 -1e-4,-1.007347 0.02932,-0.989458 0.02455,0.01493 0.240514,0.154029 0.479911,0.309111 l 0.435268,0.281967 v 0.267014 c 0,0.146857 0.01219,0.267013 0.02709,0.267013 0.0149,0 0.797229,-0.401786 1.738508,-0.892857 0.941278,-0.491072 1.724289,-0.892857 1.740024,-0.892857 0.01573,0 0.930954,0.605807 2.033821,1.346237 1.723564,1.157147 1.994239,1.353501 1.927081,1.397944 -0.04297,0.02844 -1.365461,0.808791 -2.938862,1.734119 -2.528669,1.487127 -2.88104,1.681698 -3.035714,1.676244 -0.09624,-0.0034 -0.375879,-0.0248 -0.621414,-0.04757 z"
       id="path2070"
       inkscape:connector-curvature="0"
       transform="matrix(0.26458333,0,0,0.26458333,0,280.06665)" />
    <path
       style="fill:#fce94f;fill-opacity:1;stroke-width:0.00901786;stroke-linecap:round;stroke-linejoin:miter;stroke-miterlimit:4;stroke-dasharray:none;paint-order:markers fill stroke"
       d="m 56.861943,50.275223 1.74e-4,-0.322331 2.728396,-1.607143 c 1.500619,-0.883929 2.77621,-1.632896 2.834648,-1.664372 l 0.106251,-0.05723 -0.0014,0.280444 -0.0014,0.280444 -0.791055,0.472402 c -0.435081,0.259822 -1.71014,1.027639 -2.833466,1.70626 l -2.042411,1.233858 z"
       id="path2072"
       inkscape:connector-curvature="0"
       transform="matrix(0.26458333,0,0,0.26458333,0,280.06665)" />
    <path
       style="fill:#fce94f;fill-opacity:1;stroke-width:0.00318829;stroke-linecap:round;stroke-linejoin:miter;stroke-miterlimit:4;stroke-dasharray:none;paint-order:markers fill stroke"
       d="m 55.376102,51.114451 -0.123981,-0.04261 0.0093,-0.17382 c 0.0051,-0.0956 0.01382,-0.316 0.01932,-0.489776 l 0.01,-0.315956 0.215147,0.01884 c 0.118331,0.01036 0.237376,0.01937 0.264545,0.02001 l 0.0494,0.0012 0.0096,0.193349 c 0.0053,0.106342 0.0141,0.322006 0.01961,0.479253 l 0.01001,0.285903 -0.11636,0.02647 c -0.192953,0.0439 -0.231473,0.0436 -0.36661,-0.0028 z"
       id="path2112"
       inkscape:connector-curvature="0"
       transform="matrix(0.26458333,0,0,0.26458333,0,280.06665)" />
  </g>
</svg>
