<?xml version="1.0" encoding="UTF-8" standalone="no"?>
<!-- Created with Inkscape (http://www.inkscape.org/) -->

<svg
   xmlns:dc="http://purl.org/dc/elements/1.1/"
   xmlns:cc="http://creativecommons.org/ns#"
   xmlns:rdf="http://www.w3.org/1999/02/22-rdf-syntax-ns#"
   xmlns:svg="http://www.w3.org/2000/svg"
   xmlns="http://www.w3.org/2000/svg"
   xmlns:sodipodi="http://sodipodi.sourceforge.net/DTD/sodipodi-0.dtd"
   xmlns:inkscape="http://www.inkscape.org/namespaces/inkscape"
   width="300"
   height="256"
   viewBox="0 0 79.374998 67.733336"
   version="1.1"
   id="svg8"
   inkscape:version="0.92.3 (2405546, 2018-03-11)"
   sodipodi:docname="favicon.svg"
   inkscape:export-filename="D:\1_Datos\Estudios\Universidad\TFG\Workbench_mechatronic\icons\favicon.png"
   inkscape:export-xdpi="96"
   inkscape:export-ydpi="96">
  <defs
     id="defs2" />
  <sodipodi:namedview
     id="base"
     pagecolor="#ffffff"
     bordercolor="#666666"
     borderopacity="1.0"
     inkscape:pageopacity="0.0"
     inkscape:pageshadow="2"
     inkscape:zoom="2"
     inkscape:cx="77.405211"
     inkscape:cy="103.95191"
     inkscape:document-units="mm"
     inkscape:current-layer="layer1"
     showgrid="false"
     units="px"
     inkscape:window-width="1920"
     inkscape:window-height="1027"
     inkscape:window-x="-8"
     inkscape:window-y="-8"
     inkscape:window-maximized="1" />
  <metadata
     id="metadata5">
    <rdf:RDF>
      <cc:Work
         rdf:about="">
        <dc:format>image/svg+xml</dc:format>
        <dc:type
           rdf:resource="http://purl.org/dc/dcmitype/StillImage" />
        <dc:title></dc:title>
      </cc:Work>
    </rdf:RDF>
  </metadata>
  <g
     inkscape:label="Capa 1"
     inkscape:groupmode="layer"
     id="layer1"
     transform="translate(0,-229.26665)">
    <rect
       style="fill:#ffffff;fill-opacity:1;fill-rule:evenodd;stroke:none;stroke-width:0.52916664;stroke-linecap:round;stroke-linejoin:round;stroke-miterlimit:4;stroke-dasharray:none;stroke-dashoffset:0;stroke-opacity:1;paint-order:markers fill stroke"
       id="rect862"
       width="79.507294"
       height="67.73333"
       x="-6.7444703e-009"
       y="229.13435" />
    <path
       style="opacity:1;fill:#b3b3b3;fill-opacity:1;fill-rule:nonzero;stroke:none;stroke-width:0.7871536;stroke-miterlimit:4;stroke-dasharray:none;stroke-opacity:1"
       d="m 26.781301,254.41212 c -6.823888,-4.01933 -12.407774,-7.32484 -12.408629,-7.34542 -0.0027,-0.0652 9.222089,-5.61713 9.295797,-5.59458 0.08767,0.007 24.966618,14.66648 25.038409,14.73335 0.04978,0.0467 -9.355547,5.53191 -9.465029,5.52052 -0.02955,-9.5e-4 -5.636653,-3.29435 -12.460548,-7.31387 z"
       id="path866"
       inkscape:connector-curvature="0" />
    <path
       style="opacity:1;fill:#b3b3b3;fill-opacity:1;fill-rule:nonzero;stroke:none;stroke-width:0.7871536;stroke-miterlimit:4;stroke-dasharray:none;stroke-opacity:1"
       d="m 44.957166,243.66687 c -6.915152,-4.07358 -12.572963,-7.42259 -12.572963,-7.44232 0,-0.0556 9.539806,-5.09775 9.607784,-5.07839 0.06854,0.005 24.978956,14.67241 25.052569,14.73636 0.04852,0.0412 -9.340619,5.2021 -9.453111,5.19508 -0.03278,-9.7e-4 -5.719149,-3.33691 -12.634279,-7.41073 z"
       id="path868"
       inkscape:connector-curvature="0" />
    <path
       style="opacity:1;fill:#b3b3b3;fill-opacity:1;fill-rule:nonzero;stroke:none;stroke-width:0.7871536;stroke-miterlimit:4;stroke-dasharray:none;stroke-opacity:1"
       d="m 44.644885,247.29286 -12.556544,-7.39235 -0.01737,-1.41554 -0.01734,-1.41547 0.383989,0.21424 c 0.211219,0.11906 5.858062,3.44155 12.548621,7.38126 l 12.164642,7.16347 0.04663,1.40588 c 0.02478,0.7733 0.03706,1.41497 0.02478,1.42617 -0.0029,0.003 -5.6715,-3.30583 -12.577623,-7.37163 z m 12.392214,5.86704 v -1.20883 l -0.167976,-0.10981 c -0.09274,-0.0607 -0.203537,-0.0981 -0.246598,-0.0824 -0.04219,0.004 -2.02e-4,0.064 0.09512,0.10949 0.226786,0.10834 0.27824,0.47561 0.216924,1.55244 l -0.0455,0.79853 -1.618659,-0.95108 c -2.42367,-1.42418 -2.641668,-1.54786 -2.674175,-1.51539 -0.03037,0.008 4.302698,2.60852 4.391832,2.61287 0.02572,9.5e-4 0.04934,-0.54167 0.04934,-1.20636 z"
       id="path870"
       inkscape:connector-curvature="0" />
    <path
       style="opacity:1;fill:#b3b3b3;fill-opacity:1;fill-rule:nonzero;stroke:none;stroke-width:0.7871536;stroke-miterlimit:4;stroke-dasharray:none;stroke-opacity:1"
       d="m 53.206654,258.78392 -3.73185,-2.41039 0.01521,-0.35074 0.01519,-0.35115 -8.644936,-5.09119 c -4.754746,-2.80004 -8.641834,-5.12901 -8.63801,-5.17532 0.0017,-0.0468 0.43385,-0.81026 0.955581,-1.69757 l 0.948616,-1.6134 11.370868,6.69945 c 6.254,3.68465 11.437739,6.73198 11.519463,6.77186 0.121725,0.0594 0.175022,0.0495 0.295815,-0.0595 0.153931,-0.13919 4.063975,-2.33867 4.096925,-2.30589 0.02017,0.005 -4.355785,7.87931 -4.427831,7.94744 -0.02504,0.006 -1.72707,-1.03923 -3.779582,-2.36488 z m 5.798271,-1.52132 c 1.118925,-2.00592 2.025961,-3.65565 2.015619,-3.66594 -0.0026,-0.003 -0.844265,0.44379 -1.853197,1.00924 -1.008932,0.56526 -1.897489,1.05713 -1.974569,1.09253 -0.119448,0.0554 -0.6196,-0.21408 -3.404546,-1.85747 -1.795423,-1.05702 -3.278731,-1.90768 -3.296194,-1.89014 -0.03732,0.0396 6.480335,3.88538 6.582871,3.88561 0.03782,1.2e-4 0.822841,-0.41743 1.742156,-0.92789 0.919281,-0.51044 1.72863,-0.94963 1.798508,-0.97582 0.15245,-0.0573 -0.05335,0.33891 -1.936023,3.72281 -1.662411,2.98837 -1.721796,3.08976 -1.808669,3.08976 -0.104491,0 -1.975406,-1.16801 -4.784437,-2.98529 -1.330799,-0.86088 -2.434202,-1.55083 -2.452036,-1.53304 -0.04805,0.0485 7.158591,4.71441 7.254333,4.69737 0.04486,-0.002 0.997246,-1.65569 2.116184,-3.66173 z"
       id="path872"
       inkscape:connector-curvature="0" />
    <path
       style="opacity:1;fill:#b3b3b3;fill-opacity:1;fill-rule:nonzero;stroke:none;stroke-width:0.7871536;stroke-miterlimit:4;stroke-dasharray:none;stroke-opacity:1"
       d="m 47.32533,264.12167 c -1.273761,-0.78154 -2.302233,-1.44352 -2.285563,-1.47058 0.01539,-0.007 1.007065,-0.57231 2.200864,-1.21201 l 2.170505,-1.16281 0.002,-0.30638 c 0.0011,-0.16955 0.02537,-0.81657 0.04931,-1.43833 l 0.04177,-1.13058 3.352814,2.16962 c 1.844016,1.193 3.360356,2.19054 3.369583,2.21622 0.0176,0.0552 -6.329876,3.71867 -6.485463,3.7421 -0.05808,0.002 -1.147587,-0.62372 -2.421351,-1.40551 z"
       id="path874"
       inkscape:connector-curvature="0" />
    <path
       style="opacity:1;fill:#b3b3b3;fill-opacity:1;fill-rule:nonzero;stroke:none;stroke-width:0.7871536;stroke-miterlimit:4;stroke-dasharray:none;stroke-opacity:1"
       d="m 39.788197,293.20515 c -0.07458,-1.70333 -0.178304,-9.48123 -0.126069,-9.5001 0.02884,-0.003 0.481582,-0.25282 1.005864,-0.54033 l 0.953248,-0.52144 0.0329,3.24924 0.03274,3.24913 3.237788,-5.51488 3.237771,-5.51495 v -4.46579 -4.46569 l -3.237771,-1.81581 -3.237788,-1.816 -0.03274,3.16069 -0.0329,3.1608 -0.591676,0.34196 c -0.325428,0.18882 -0.761788,0.43773 -0.969686,0.55649 l -0.378011,0.21273 9.16e-4,-5.24777 9.14e-4,-5.24753 4.151971,-2.39969 c 2.283606,-1.31971 4.294876,-2.48154 4.469493,-2.58176 l 0.317391,-0.18374 v 1.20131 1.20149 l -2.646093,1.42197 c -1.455331,0.7819 -2.642534,1.44643 -2.638223,1.47637 0.0012,0.008 1.439108,0.93298 3.188446,2.00668 l 3.18058,1.95225 0.197175,-0.11836 c 0.10839,-0.0652 1.809557,-1.04258 3.78011,-2.17255 1.970607,-1.13026 3.645282,-2.11721 3.721493,-2.19364 0.153236,-0.15425 6.220419,-11.01451 6.191003,-11.08246 -0.0025,-0.006 -1.246166,0.64587 -2.746702,1.48749 -2.565692,1.43914 -2.730822,1.5216 -2.770988,1.38447 -0.02297,-0.0802 -0.04452,-0.57502 -0.04682,-1.09928 l -9.66e-4,-0.95303 4.403488,-2.39981 c 2.4219,-1.31958 4.432593,-2.40931 4.468174,-2.42136 0.04198,-0.004 0.05896,1.73498 0.04781,5.02209 l -0.01375,5.04418 -0.90806,0.51655 c -0.499396,0.28329 -0.923676,0.51639 -0.94281,0.51639 -0.01711,0 -0.0035,-1.42725 0.0029,-3.17206 0.03019,-2.06362 0.02328,-3.14876 -0.01531,-3.10598 -0.03405,0.009 -1.485964,2.49704 -3.223669,5.4692 l -3.159457,5.40327 -0.04686,4.52345 -0.04672,4.52355 3.279337,1.87868 3.279292,1.87861 0.03222,-3.21728 0.03211,-3.21737 0.912699,-0.51849 c 0.501964,-0.2836 0.923565,-0.51866 0.936809,-0.51866 0.0418,0 0.02502,7.11625 -0.01712,8.81335 l -0.04218,1.61462 -4.420128,2.51066 c -2.43106,1.38079 -4.438875,2.51074 -4.461793,2.51074 -0.02101,0 -0.03274,-0.49442 -0.02319,-1.09861 l 0.01535,-1.09841 2.504846,-1.51476 c 1.377656,-0.83309 2.568684,-1.55901 2.646697,-1.61337 0.135179,-0.0942 -0.002,-0.18378 -3.03672,-1.88997 -1.748233,-0.98527 -3.194117,-1.79158 -3.213089,-1.79158 -0.01714,0 -1.725627,0.95594 -3.792555,2.12424 l -3.758062,2.12407 -3.127482,5.57188 c -1.720132,3.06445 -3.111911,5.58727 -3.09287,5.6063 0.01988,0.005 1.124039,-0.60919 2.455598,-1.39626 1.331549,-0.7869 2.561547,-1.51355 2.73327,-1.61474 l 0.312481,-0.18509 -9.68e-4,1.19817 -9.52e-4,1.19788 -4.431102,2.48171 c -2.4371,1.36506 -4.445179,2.48188 -4.462396,2.48188 -0.01825,0 -0.04838,-0.39239 -0.06946,-0.8713 z m 13.11948,-17.84074 c 1.108438,-0.35317 2.73234,-2.0681 3.601584,-3.80476 0.495686,-0.99011 0.594368,-1.36487 0.640065,-2.43236 0.04183,-0.97025 -0.04788,-1.8078 -0.239302,-2.24054 -0.186334,-0.42096 -0.73464,-0.97215 -1.141116,-1.14705 -0.297377,-0.1281 -0.417855,-0.14304 -0.933656,-0.11232 -0.327323,0.005 -0.724476,0.087 -0.887961,0.15253 -0.915809,0.35987 -2.621819,1.93087 -3.284706,3.0245 -0.293976,0.48539 -0.675224,1.44286 -0.863132,2.16861 -0.127767,0.49409 -0.152436,0.75815 -0.155008,1.67154 l -9.5e-4,1.08475 0.207573,0.39438 c 0.620511,1.1799 1.776694,1.64885 3.059035,1.24078 z"
       id="path876"
       inkscape:connector-curvature="0" />
    <path
       style="opacity:1;fill:#b3b3b3;fill-opacity:1;fill-rule:nonzero;stroke:none;stroke-width:0.7871536;stroke-miterlimit:4;stroke-dasharray:none;stroke-opacity:1"
       d="m 26.237382,266.26672 c -6.86995,-4.04763 -12.5117,-7.36719 -12.537238,-7.37714 -0.05002,-0.005 0.226459,-10.93622 0.278269,-10.98634 0.01714,-0.004 5.615016,3.25759 12.439751,7.2757 l 12.408647,7.30595 v 5.57284 c 0,3.06515 -0.02204,5.57187 -0.04944,5.5706 -0.02689,-9.5e-4 -5.670166,-3.31409 -12.540094,-7.36163 z"
       id="path878"
       inkscape:connector-curvature="0" />
    <path
       style="opacity:1;fill:#b3b3b3;fill-opacity:1;fill-rule:nonzero;stroke:none;stroke-width:0.7871536;stroke-miterlimit:4;stroke-dasharray:none;stroke-opacity:1"
       d="m 42.508308,283.66287 c 0,-1.33292 0.02758,-2.39886 0.06168,-2.46425 0.05351,-0.10045 -1.430643,-0.99333 -11.539839,-6.94438 -6.577319,-3.87188 -11.593284,-6.86427 -11.582669,-6.90967 0.0345,-0.14805 1.661627,-3.04719 1.710536,-3.04817 0.02662,-5.2e-4 3.970059,2.30789 8.763345,5.13007 4.793264,2.82233 8.757936,5.14767 8.810341,5.16775 0.05259,0.005 0.09514,9.5e-4 0.09514,-0.009 0,-0.04 0.09491,-0.13244 0.211612,-0.20581 l 0.211598,-0.12901 3.913758,1.97624 c 2.152572,1.08692 3.921449,1.9836 3.930893,1.99283 0.01165,0.004 -4.497076,7.72769 -4.55805,7.78874 -0.0152,0.004 -0.02893,-1.0291 -0.02893,-2.3211 z"
       id="path880"
       inkscape:connector-curvature="0" />
    <path
       style="opacity:1;fill:#b3b3b3;fill-opacity:1;fill-rule:nonzero;stroke:none;stroke-width:0.7871536;stroke-miterlimit:4;stroke-dasharray:none;stroke-opacity:1"
       d="m 43.669159,275.50703 -3.53965,-1.79314 1.008613,-0.57634 c 0.554746,-0.31751 1.089626,-0.63363 1.188649,-0.70315 l 0.180088,-0.12762 0.01738,-2.65175 0.01736,-2.65152 2.366694,1.33051 2.366701,1.33067 0.01392,3.82304 c 0.0024,2.10279 -0.0014,3.82055 -0.0322,3.8172 -0.02597,-9.5e-4 -1.642659,-0.81293 -3.589462,-1.79901 z"
       id="path882"
       inkscape:connector-curvature="0" />
    <path
       style="opacity:1;fill:#b3b3b3;fill-opacity:1;fill-rule:nonzero;stroke:none;stroke-width:0.7871536;stroke-miterlimit:4;stroke-dasharray:none;stroke-opacity:1"
       d="m 26.79619,275.69459 c -6.779553,-3.99514 -12.362291,-7.2853 -12.406084,-7.31125 -0.07818,-0.0457 2.176442,-1.54908 2.31482,-1.54258 0.09146,9.5e-4 24.977682,14.66776 24.998521,14.72994 0.01963,0.053 -2.422054,1.39782 -2.523207,1.39161 -0.03188,-9.6e-4 -5.6045,-3.27232 -12.38405,-7.26772 z"
       id="path884"
       inkscape:connector-curvature="0" />
    <path
       style="opacity:1;fill:#b3b3b3;fill-opacity:1;fill-rule:nonzero;stroke:none;stroke-width:0.7871536;stroke-miterlimit:4;stroke-dasharray:none;stroke-opacity:1"
       d="m 26.249036,287.30651 c -6.935861,-4.07751 -12.639973,-7.44306 -12.675823,-7.47899 -0.05856,-0.0574 0.237594,-10.65494 0.299517,-10.71675 0.01543,-0.004 24.756193,14.51535 24.870341,14.60699 0.0038,0.002 0.213141,10.21007 0.214918,10.86777 2.2e-4,0.0813 -0.02207,0.14506 -0.04899,0.14074 -0.02693,-9.9e-4 -5.724084,-3.34274 -12.659946,-7.42029 z"
       id="path886"
       inkscape:connector-curvature="0" />
    <path
       style="opacity:1;fill:#b3b3b3;fill-opacity:1;fill-rule:nonzero;stroke:none;stroke-width:0.7871536;stroke-miterlimit:4;stroke-dasharray:none;stroke-opacity:1"
       d="m 45.706737,287.19391 c 0.13921,-0.24941 0.519245,-0.93341 0.844662,-1.51846 0.325523,-0.58502 0.614487,-1.0644 0.642401,-1.06494 0.07684,-9.2e-4 1.687474,0.94596 1.689571,0.99411 9.65e-4,0.009 -3.190487,1.94959 -3.36866,2.02005 -0.03382,0.003 0.05289,-0.18259 0.192109,-0.43078 z"
       id="path888"
       inkscape:connector-curvature="0" />
    <path
       style="opacity:1;fill:#b3b3b3;fill-opacity:1;fill-rule:nonzero;stroke:none;stroke-width:0.7871536;stroke-miterlimit:4;stroke-dasharray:none;stroke-opacity:1"
       d="m 51.566677,274.60686 c -0.357125,-0.0983 -0.796636,-0.51691 -0.972016,-0.92432 -0.1397,-0.32549 -0.146865,-0.40953 -0.111601,-1.26809 0.02604,-0.6578 0.07904,-1.06115 0.181538,-1.41348 0.215797,-0.74323 0.597877,-1.58265 0.932442,-2.04857 0.386226,-0.53791 1.326015,-1.46538 1.983934,-1.95816 0.55604,-0.41626 0.864065,-0.5294 1.44219,-0.5294 0.305332,0 0.403032,0.008 0.641145,0.21195 0.155903,0.11866 0.355708,0.35993 0.448841,0.54083 0.162341,0.31554 0.167771,0.36698 0.165512,1.51145 -9.67e-4,1.06273 -0.01554,1.22893 -0.153233,1.61221 -0.546644,1.55122 -2.151214,3.57589 -3.251363,4.10265 -0.393787,0.19015 -0.956903,0.25752 -1.30725,0.16119 z"
       id="path890"
       inkscape:connector-curvature="0" />
    <path
       style="opacity:1;fill:#b3b3b3;fill-opacity:1;fill-rule:nonzero;stroke:none;stroke-width:0.7871536;stroke-miterlimit:4;stroke-dasharray:none;stroke-opacity:1"
       d="m 55.327828,279.27861 c -1.247446,-0.68994 -2.33771,-1.2915 -2.422835,-1.33641 -0.145362,-0.0768 -0.03221,-0.15189 1.807907,-1.18647 1.079428,-0.60741 2.040987,-1.14975 2.136784,-1.20486 0.170661,-0.0966 0.21886,-0.0746 2.482848,1.20039 1.269774,0.71497 2.320591,1.31944 2.335161,1.34301 0.02916,0.0471 -3.901318,2.43929 -4.006932,2.43924 -0.03429,-2e-5 -1.085494,-0.56484 -2.332933,-1.2549 z"
       id="path892"
       inkscape:connector-curvature="0" />
    <path
       style="opacity:1;fill:#b3b3b3;fill-opacity:1;fill-rule:nonzero;stroke:none;stroke-width:0.7871536;stroke-miterlimit:4;stroke-dasharray:none;stroke-opacity:1"
       d="m 54.341705,282.53113 c -1.572842,-0.91949 -3.23491,-1.89226 -3.69343,-2.16166 l -0.833673,-0.4898 0.1435,-0.2629 c 0.120738,-0.21602 0.277822,-0.3383 0.994595,-0.74146 0.468174,-0.26198 0.871284,-0.48731 0.895765,-0.49798 0.04969,-0.005 5.172922,2.78741 5.305087,2.90849 0.06308,0.0582 0.07933,0.4139 0.06572,1.49659 l -0.01538,1.42019 z"
       id="path894"
       inkscape:connector-curvature="0" />
    <path
       style="opacity:1;fill:#b3b3b3;fill-opacity:1;fill-rule:nonzero;stroke:none;stroke-width:0.7871536;stroke-miterlimit:4;stroke-dasharray:none;stroke-opacity:1"
       d="m 61.86907,272.65119 -2.366679,-1.36274 -0.01412,-2.54196 -0.01392,-2.54171 0.641743,0.38538 c 0.352985,0.21052 1.447899,0.86266 2.433193,1.44698 l 1.791455,1.06269 v 2.46305 c 0,1.35483 -0.02076,2.46073 -0.04926,2.4576 -0.02568,-9.4e-4 -1.114337,-0.61872 -2.416,-1.36831 z"
       id="path896"
       inkscape:connector-curvature="0" />
    <path
       style="opacity:1;fill:#b3b3b3;fill-opacity:1;fill-rule:nonzero;stroke:none;stroke-width:0.7871536;stroke-miterlimit:4;stroke-dasharray:none;stroke-opacity:1"
       d="m 62.148478,266.8064 -2.613213,-1.55211 v -1.13998 c 0,-0.89357 0.02012,-1.18223 0.100415,-1.33434 0.05513,-0.10789 0.131535,-0.19675 0.169404,-0.19675 0.08407,0 7.421876,4.28716 7.421549,4.33655 -1.91e-4,0.008 -0.432668,0.28228 -2.099619,1.2283 l -0.365336,0.20824 z"
       id="path898"
       inkscape:connector-curvature="0" />
    <path
       style="fill:#b3b3b3;stroke:#000000;stroke-width:0.7871536;stroke-linecap:butt;stroke-linejoin:miter;stroke-miterlimit:4;stroke-dasharray:none;stroke-opacity:1"
       d="m 39.184042,283.48234 0.19961,11.36689 9.780349,-5.48415 v -3.38994 l -4.890171,2.89151 5.513902,-9.82137 7.235445,-4.08809 5.563824,3.1409 -4.915102,2.96619 -0.02425,3.21559 9.83023,-5.58372 0.05011,-11.41697 -2.769439,1.57061 0.02424,5.95789 -5.738433,-3.29066 0.05018,-8.64992 5.588758,-9.54707 -0.05023,5.55887 2.769413,-1.57046 v -11.06809 l -9.805271,5.35962 0.05021,3.19081 4.940045,-2.76689 -5.463985,9.79629 -7.410121,4.26272 -5.6137,-3.43988 4.915137,-2.64249 0.02424,-3.41497 -9.780316,5.65829 -0.02503,11.49181 2.819334,-1.62028 0.02566,-5.85787 5.638664,3.16573 v 8.59987 l -5.663618,9.64704 0.02573,-5.75818 z"
       id="path1168"
       inkscape:connector-curvature="0" />
    <path
       style="fill:#b3b3b3;stroke:#000000;stroke-width:0.7871536;stroke-linecap:butt;stroke-linejoin:miter;stroke-miterlimit:4;stroke-dasharray:none;stroke-opacity:1"
       d="m 49.45901,285.41472 -2.248545,-1.31919"
       id="path1179"
       inkscape:connector-curvature="0" />
    <path
       style="fill:#b3b3b3;stroke:#000000;stroke-width:0.7871536;stroke-linecap:butt;stroke-linejoin:miter;stroke-miterlimit:4;stroke-dasharray:none;stroke-opacity:1"
       d="m 57.344688,284.78429 -7.958806,-4.65646"
       id="path1235"
       inkscape:connector-curvature="0"
       sodipodi:nodetypes="cc" />
    <path
       style="fill:#b3b3b3;stroke:#000000;stroke-width:0.7871536;stroke-linecap:butt;stroke-linejoin:miter;stroke-miterlimit:4;stroke-dasharray:none;stroke-opacity:1"
       d="m 57.671808,281.06428 -5.573734,-3.08111"
       id="path1237"
       inkscape:connector-curvature="0" />
    <path
       style="fill:#b3b3b3;stroke:#000000;stroke-width:0.7871536;stroke-linecap:butt;stroke-linejoin:miter;stroke-miterlimit:4;stroke-dasharray:none;stroke-opacity:1"
       d="m 67.835852,266.74896 -7.958793,-4.65644"
       id="path1235-1"
       inkscape:connector-curvature="0"
       sodipodi:nodetypes="cc" />
    <path
       style="fill:#b3b3b3;stroke:#000000;stroke-width:0.7871536;stroke-linecap:butt;stroke-linejoin:miter;stroke-miterlimit:4;stroke-dasharray:none;stroke-opacity:1"
       d="m 64.757704,268.8498 -5.793166,-3.43494"
       id="path1235-1-7"
       inkscape:connector-curvature="0"
       sodipodi:nodetypes="cc" />
    <path
       style="fill:#b3b3b3;stroke:#000000;stroke-width:0.7871536;stroke-linecap:butt;stroke-linejoin:miter;stroke-miterlimit:4;stroke-dasharray:none;stroke-opacity:1"
       d="m 64.35574,259.37087 -2.156213,-1.38453"
       id="path1235-1-8"
       inkscape:connector-curvature="0"
       sodipodi:nodetypes="cc" />
    <path
       style="fill:#b3b3b3;stroke:#000000;stroke-width:0.7871536;stroke-linecap:butt;stroke-linejoin:miter;stroke-miterlimit:4;stroke-dasharray:none;stroke-opacity:1"
       d="m 54.794356,273.39105 -0.284043,0.30675 -0.469219,0.44302 -0.35798,0.30639 -0.555758,0.36995 -0.469234,0.20293 -0.679168,0.0834 -0.321121,-0.009 -0.444619,-0.12311 -0.469214,-0.30695 -0.160649,-0.18691 -0.222553,-0.25089 v 0 l -0.209149,-0.40707 c -0.05371,-0.12216 -0.05851,-0.24112 -0.112222,-0.36424 v -0.52982 l 0.02425,-0.95044 0.08586,-0.67775 0.2224,-0.77763 0.32114,-0.82571 0.259233,-0.53083 0.247122,-0.38372 0.30879,-0.39563 0.27197,-0.32304 0.333744,-0.3459 0.395148,-0.38355 0.432193,-0.37107 0.469242,-0.37026 0.469245,-0.30593 0.357935,-0.13564 0.407559,-0.071 0.419909,-0.003 0.321081,0.003 0.247152,0.071 0.197572,0.12273 0.147329,0.12357 0.197604,0.1874 0.11112,0.12262 0.147765,0.21024 0.111009,0.21701 0.07412,0.21671 0.0627,0.28237 0.02419,0.27063 0.02426,0.30686 0.003,0.32188 v 0.21676 0.39567 l -0.02421,0.34572 -0.03685,0.32196 -0.07413,0.44427 -0.123605,0.3704 -0.160685,0.3956 -0.20978,0.41959 -0.209796,0.3839 -0.234627,0.40739 -0.209793,0.28402 -0.197514,0.26871 -0.24707,0.30687 z"
       id="path2406"
       inkscape:connector-curvature="0"
       sodipodi:nodetypes="ccccccccccccccccccccccccccccccccccccccccccccccccccccccccccc" />
    <path
       style="fill:#b3b3b3;stroke:#000000;stroke-width:0.7871536;stroke-linecap:butt;stroke-linejoin:miter;stroke-miterlimit:4;stroke-dasharray:none;stroke-opacity:1"
       d="M 39.096568,295.33767 12.769283,279.87909"
       id="path1237-3"
       inkscape:connector-curvature="0"
       sodipodi:nodetypes="cc" />
    <path
       style="fill:#b3b3b3;stroke:#000000;stroke-width:0.7871536;stroke-linecap:butt;stroke-linejoin:miter;stroke-miterlimit:4;stroke-dasharray:none;stroke-opacity:1"
       d="M 39.184042,283.48234 13.15951,268.16165"
       id="path1237-3-0"
       inkscape:connector-curvature="0"
       sodipodi:nodetypes="cc" />
    <path
       style="fill:#b3b3b3;stroke:#000000;stroke-width:0.7871536;stroke-linecap:butt;stroke-linejoin:miter;stroke-miterlimit:4;stroke-dasharray:none;stroke-opacity:1"
       d="M 42.393399,281.44091 16.368852,266.11985"
       id="path1237-3-4"
       inkscape:connector-curvature="0"
       sodipodi:nodetypes="cc" />
    <path
       style="fill:#b3b3b3;stroke:#000000;stroke-width:0.7871536;stroke-linecap:butt;stroke-linejoin:miter;stroke-miterlimit:4;stroke-dasharray:none;stroke-opacity:1"
       d="M 38.962771,274.25385 12.938222,258.93308"
       id="path1237-3-4-6"
       inkscape:connector-curvature="0"
       sodipodi:nodetypes="cc" />
    <path
       style="fill:#b3b3b3;stroke:#000000;stroke-width:0.7871536;stroke-linecap:butt;stroke-linejoin:miter;stroke-miterlimit:4;stroke-dasharray:none;stroke-opacity:1"
       d="M 39.259549,262.24384 13.235004,246.92306"
       id="path1237-3-4-1"
       inkscape:connector-curvature="0"
       sodipodi:nodetypes="cc" />
    <path
       style="fill:#b3b3b3;stroke:#000000;stroke-width:0.7871536;stroke-linecap:butt;stroke-linejoin:miter;stroke-miterlimit:4;stroke-dasharray:none;stroke-opacity:1"
       d="M 49.336266,256.06715 23.311727,240.74633"
       id="path1237-3-4-8"
       inkscape:connector-curvature="0"
       sodipodi:nodetypes="cc" />
    <path
       style="fill:#b3b3b3;stroke:#000000;stroke-width:0.7871536;stroke-linecap:butt;stroke-linejoin:miter;stroke-miterlimit:4;stroke-dasharray:none;stroke-opacity:1"
       d="M 57.597231,251.59995 31.57266,236.27891"
       id="path1237-3-4-8-6"
       inkscape:connector-curvature="0"
       sodipodi:nodetypes="cc" />
    <path
       style="fill:#b3b3b3;stroke:#000000;stroke-width:0.7871536;stroke-linecap:butt;stroke-linejoin:miter;stroke-miterlimit:4;stroke-dasharray:none;stroke-opacity:1"
       d="M 67.686542,245.75937 41.661971,230.43841"
       id="path1237-3-4-8-2"
       inkscape:connector-curvature="0"
       sodipodi:nodetypes="cc" />
    <path
       style="fill:#b3b3b3;stroke:#000000;stroke-width:0.7871536;stroke-linecap:butt;stroke-linejoin:miter;stroke-miterlimit:4;stroke-dasharray:none;stroke-opacity:1"
       d="m 57.383688,255.28885 -26.024561,-15.321"
       id="path1237-3-4-8-2-9"
       inkscape:connector-curvature="0"
       sodipodi:nodetypes="cc" />
    <path
       style="fill:#b3b3b3;stroke:#000000;stroke-width:0.7871536;stroke-linecap:butt;stroke-linejoin:miter;stroke-miterlimit:4;stroke-dasharray:none;stroke-opacity:1"
       d="M 57.123467,261.82017 49.03986,256.58555"
       id="path1237-3-4-8-2-9-7"
       inkscape:connector-curvature="0"
       sodipodi:nodetypes="cc" />
    <path
       style="fill:#b3b3b3;stroke:#000000;stroke-width:0.7871536;stroke-linecap:butt;stroke-linejoin:miter;stroke-miterlimit:4;stroke-dasharray:none;stroke-opacity:1"
       d="m 47.717551,278.02314 -8.483096,-4.28748"
       id="path1237-3-4-8-2-9-8"
       inkscape:connector-curvature="0"
       sodipodi:nodetypes="cc" />
    <path
       style="fill:#b3b3b3;stroke:#000000;stroke-width:0.7871536;stroke-linecap:butt;stroke-linejoin:miter;stroke-miterlimit:4;stroke-dasharray:none;stroke-opacity:1"
       d="m 13.065831,280.41371 0.389903,-12.31454"
       id="path3821"
       inkscape:connector-curvature="0" />
    <path
       style="fill:#b3b3b3;stroke:#000000;stroke-width:0.7871536;stroke-linecap:butt;stroke-linejoin:miter;stroke-miterlimit:4;stroke-dasharray:none;stroke-opacity:1"
       d="m 16.986326,266.10773 -3.814632,2.44811"
       id="path4147"
       inkscape:connector-curvature="0"
       sodipodi:nodetypes="cc" />
    <path
       style="fill:#b3b3b3;stroke:#000000;stroke-width:0.7871536;stroke-linecap:butt;stroke-linejoin:miter;stroke-miterlimit:4;stroke-dasharray:none;stroke-opacity:1"
       d="M 13.215585,259.44699 13.556079,246.7133"
       id="path3821-3"
       inkscape:connector-curvature="0"
       sodipodi:nodetypes="cc" />
    <path
       style="fill:#b3b3b3;stroke:#000000;stroke-width:0.7871536;stroke-linecap:butt;stroke-linejoin:miter;stroke-miterlimit:4;stroke-dasharray:none;stroke-opacity:1"
       d="m 23.929183,240.74633 -10.684092,6.46481"
       id="path4147-0"
       inkscape:connector-curvature="0"
       sodipodi:nodetypes="cc" />
    <path
       style="fill:#b3b3b3;stroke:#000000;stroke-width:0.7871536;stroke-linecap:butt;stroke-linejoin:miter;stroke-miterlimit:4;stroke-dasharray:none;stroke-opacity:1"
       d="m 31.603632,240.43912 0.03931,-4.701"
       id="path5430"
       inkscape:connector-curvature="0"
       sodipodi:nodetypes="cc" />
    <path
       style="fill:#b3b3b3;stroke:#000000;stroke-width:0.7871536;stroke-linecap:butt;stroke-linejoin:miter;stroke-miterlimit:4;stroke-dasharray:none;stroke-opacity:1"
       d="m 31.325698,236.2666 10.941409,-5.80349"
       id="path5432"
       inkscape:connector-curvature="0"
       sodipodi:nodetypes="cc" />
    <path
       style="fill:#b3b3b3;stroke:#000000;stroke-width:0.7871536;stroke-linecap:butt;stroke-linejoin:miter;stroke-miterlimit:4;stroke-dasharray:none;stroke-opacity:1"
       d="m 18.798382,267.58316 2.161237,-3.88675"
       id="path5811"
       inkscape:connector-curvature="0" />
    <path
       style="fill:#b3b3b3;stroke:#000000;stroke-width:0.7871536;stroke-linecap:butt;stroke-linejoin:miter;stroke-miterlimit:4;stroke-dasharray:none;stroke-opacity:1"
       d="m 31.5275,245.68309 2.432409,-4.14172"
       id="path5822"
       inkscape:connector-curvature="0" />
    <path
       style="fill:#b3b3b3;fill-opacity:1;stroke-width:0.7871536;stroke-linecap:round;stroke-linejoin:miter;stroke-miterlimit:4;stroke-dasharray:none;paint-order:markers fill stroke"
       d="m 53.276871,258.61302 -3.632195,-2.35253 -5.75e-4,-0.10876 -5.66e-4,-0.10938 0.0012,0.0851 0.0012,0.0865 1.742137,1.12893 c 2.389381,1.54836 2.785207,1.80345 3.541776,2.2812 1.113005,0.70297 1.922925,1.18894 1.981327,1.18894 0.03737,0 1.826261,-3.18503 3.055448,-5.44209 0.08815,-0.16325 0.08842,-0.16325 0.116482,-0.16325 0.01078,0 0.02857,9.3e-4 0.02857,9.3e-4 0,9e-4 -3.174551,5.69914 -3.195529,5.73202 l -0.0034,0.005 z"
       id="path5949"
       inkscape:connector-curvature="0" />
    <path
       style="fill:#b3b3b3;fill-opacity:1;stroke-width:0.7871536;stroke-linecap:round;stroke-linejoin:miter;stroke-miterlimit:4;stroke-dasharray:none;paint-order:markers fill stroke"
       d="m 54.787183,253.06377 -2.248131,-1.32338 0.03741,-9.6e-4 0.03731,-9.5e-4 0.803722,0.47298 c 0.442037,0.25943 1.415245,0.83325 2.162734,1.27321 0.747455,0.43998 1.35967,0.79916 1.360466,0.79825 9.51e-4,-9.5e-4 0.02573,-1.08619 0.03007,-1.36425 0.0014,-0.49244 -0.0038,-0.90189 -0.04687,-0.94379 -9.65e-4,-9.9e-4 -0.0914,-0.0612 -0.195221,-0.12326 l -0.1886,-0.11494 h 0.05319 0.0533 l 0.17312,0.10102 c 0.09518,0.0573 0.174777,0.10247 0.177047,0.10735 0.0011,9.6e-4 0.0417,2.25397 0.03752,2.36747 l -9.55e-4,0.0734 z"
       id="path6473"
       inkscape:connector-curvature="0" />
    <path
       style="fill:#ffff00;fill-opacity:1;stroke-width:0.00626374;stroke-linecap:round;stroke-linejoin:miter;stroke-miterlimit:4;stroke-dasharray:none;paint-order:markers fill stroke"
       d=""
       id="path6475"
       inkscape:connector-curvature="0"
       transform="matrix(0.26458333,0,0,0.26458333,0,280.06665)" />
    <path
       style="fill:#b3b3b3;fill-opacity:1;stroke-width:0.7871536;stroke-linecap:round;stroke-linejoin:miter;stroke-miterlimit:4;stroke-dasharray:none;paint-order:markers fill stroke"
       d="m 53.776915,253.9088 -3.298954,-1.94182 -4.6e-5,-0.005 c -2e-5,-0.003 9.5e-4,-0.005 9.5e-4,-0.005 0.0014,0 6.571313,3.8655 6.577433,3.87249 0.0019,0.002 0.02451,0.002 0.03045,-4.3e-4 0.0013,-0.002 3.929088,-2.20671 3.932483,-2.20318 9.62e-4,9.6e-4 -0.200134,0.36592 -0.447781,0.80946 l -0.450138,0.80727 -0.02298,-0.001 c -0.0034,-8.5e-4 -0.02635,0.001 -0.0322,0.002 -0.0021,0.002 -0.0023,0.002 -0.0014,-9.6e-4 9.49e-4,-0.001 0.03723,-0.0719 0.07881,-0.14791 0.368792,-0.67752 0.639908,-1.19405 0.639908,-1.21871 0,-0.003 -4.21e-4,-0.003 -0.04555,0.002 -0.160762,0.0641 -0.797024,0.39946 -1.537939,0.81118 -0.204029,0.11395 -2.051379,1.14871 -2.097753,1.17565 l -0.02295,0.003 z"
       id="path6477"
       inkscape:connector-curvature="0" />
    <path
       style="fill:#ffff00;fill-opacity:1;stroke-width:0.00626374;stroke-linecap:round;stroke-linejoin:miter;stroke-miterlimit:4;stroke-dasharray:none;paint-order:markers fill stroke"
       d=""
       id="path6708"
       inkscape:connector-curvature="0"
       transform="matrix(0.26458333,0,0,0.26458333,0,280.06665)" />
    <path
       style="opacity:1;fill:#b3b3b3;fill-opacity:1;fill-rule:nonzero;stroke:none;stroke-width:0.7871536;stroke-miterlimit:4;stroke-dasharray:none;stroke-opacity:1"
       d="m 63.397889,258.25012 c -0.551597,-0.35462 -0.761701,-0.52409 -0.735702,-0.59457 0.054,-0.14657 1.555827,-2.7026 1.575091,-2.68081 0.0023,0.003 -9.53e-4,0.86258 -0.02452,1.89481 l -0.04192,1.8766 z"
       id="path900"
       inkscape:connector-curvature="0" />
  </g>
</svg>
