<?xml version="1.0" encoding="UTF-8" standalone="no"?>
<!-- Created with Inkscape (http://www.inkscape.org/) -->

<svg
   xmlns:dc="http://purl.org/dc/elements/1.1/"
   xmlns:cc="http://creativecommons.org/ns#"
   xmlns:rdf="http://www.w3.org/1999/02/22-rdf-syntax-ns#"
   xmlns:svg="http://www.w3.org/2000/svg"
   xmlns="http://www.w3.org/2000/svg"
   xmlns:sodipodi="http://sodipodi.sourceforge.net/DTD/sodipodi-0.dtd"
   xmlns:inkscape="http://www.inkscape.org/namespaces/inkscape"
   width="64"
   height="64"
   viewBox="0 0 16.933333 16.933334"
   version="1.1"
   id="svg8"
   inkscape:version="0.92.4 (5da689c313, 2019-01-14)"
   sodipodi:docname="Filter_Holder_cmd.svg">
  <defs
     id="defs2">
    <inkscape:path-effect
       effect="bspline"
       id="path-effect6827"
       is_visible="true"
       weight="33.333333"
       steps="2"
       helper_size="0"
       apply_no_weight="true"
       apply_with_weight="true"
       only_selected="false" />
    <inkscape:path-effect
       effect="bspline"
       id="path-effect6126"
       is_visible="true"
       weight="33.333333"
       steps="2"
       helper_size="0"
       apply_no_weight="true"
       apply_with_weight="true"
       only_selected="false" />
    <inkscape:path-effect
       effect="bspline"
       id="path-effect6122"
       is_visible="true"
       weight="33.333333"
       steps="2"
       helper_size="0"
       apply_no_weight="true"
       apply_with_weight="true"
       only_selected="false" />
    <inkscape:path-effect
       effect="bspline"
       id="path-effect6118"
       is_visible="true"
       weight="33.333333"
       steps="2"
       helper_size="0"
       apply_no_weight="true"
       apply_with_weight="true"
       only_selected="false" />
    <inkscape:path-effect
       effect="bspline"
       id="path-effect6114"
       is_visible="true"
       weight="33.333333"
       steps="2"
       helper_size="0"
       apply_no_weight="true"
       apply_with_weight="true"
       only_selected="false" />
    <inkscape:path-effect
       effect="bspline"
       id="path-effect6110"
       is_visible="true"
       weight="33.333333"
       steps="2"
       helper_size="0"
       apply_no_weight="true"
       apply_with_weight="true"
       only_selected="false" />
    <inkscape:path-effect
       effect="bspline"
       id="path-effect6106"
       is_visible="true"
       weight="33.333333"
       steps="2"
       helper_size="0"
       apply_no_weight="true"
       apply_with_weight="true"
       only_selected="false" />
    <inkscape:path-effect
       effect="bspline"
       id="path-effect6106-0"
       is_visible="true"
       weight="33.333333"
       steps="2"
       helper_size="0"
       apply_no_weight="true"
       apply_with_weight="true"
       only_selected="false" />
    <inkscape:path-effect
       effect="bspline"
       id="path-effect6106-8"
       is_visible="true"
       weight="33.333333"
       steps="2"
       helper_size="0"
       apply_no_weight="true"
       apply_with_weight="true"
       only_selected="false" />
    <inkscape:path-effect
       effect="bspline"
       id="path-effect6827-0"
       is_visible="true"
       weight="33.333333"
       steps="2"
       helper_size="0"
       apply_no_weight="true"
       apply_with_weight="true"
       only_selected="false" />
  </defs>
  <sodipodi:namedview
     id="base"
     pagecolor="#ffffff"
     bordercolor="#666666"
     borderopacity="1.0"
     inkscape:pageopacity="0.0"
     inkscape:pageshadow="2"
     inkscape:zoom="11.2"
     inkscape:cx="15.584167"
     inkscape:cy="35.444679"
     inkscape:document-units="mm"
     inkscape:current-layer="layer1"
     showgrid="true"
     units="px"
     inkscape:window-width="3840"
     inkscape:window-height="2055"
     inkscape:window-x="-13"
     inkscape:window-y="-13"
     inkscape:window-maximized="1">
    <inkscape:grid
       type="xygrid"
       id="grid1771"
       enabled="true"
       dotted="false"
       snapvisiblegridlinesonly="true" />
    <inkscape:grid
       type="axonomgrid"
       id="grid6158"
       units="mm"
       empspacing="5"
       enabled="false" />
  </sodipodi:namedview>
  <metadata
     id="metadata5">
    <rdf:RDF>
      <cc:Work
         rdf:about="">
        <dc:format>image/svg+xml</dc:format>
        <dc:type
           rdf:resource="http://purl.org/dc/dcmitype/StillImage" />
        <dc:title />
      </cc:Work>
    </rdf:RDF>
  </metadata>
  <g
     inkscape:label="Capa 1"
     inkscape:groupmode="layer"
     id="layer1"
     transform="translate(0,-280.06665)">
    <path
       style="fill:none;stroke:#000000;stroke-width:0.26458332px;stroke-linecap:butt;stroke-linejoin:miter;stroke-opacity:1"
       d="M 4.5756318,296.74236 H 16.481881 v -1.32292 H 4.5756318 Z"
       id="path5572"
       inkscape:connector-curvature="0" />
    <path
       style="fill:none;stroke:#000000;stroke-width:0.26458332px;stroke-linecap:butt;stroke-linejoin:miter;stroke-opacity:1"
       d="m 4.5756318,295.41944 -2.6458333,-2.64583 v -2.38125"
       id="path5758"
       inkscape:connector-curvature="0" />
    <path
       style="fill:none;stroke:#000000;stroke-width:0.26458332px;stroke-linecap:butt;stroke-linejoin:miter;stroke-opacity:1"
       d="m 16.481881,295.41944 -2.645833,-2.64583 v -2.38125"
       id="path5760"
       inkscape:connector-curvature="0" />
    <path
       style="fill:none;stroke:#000000;stroke-width:0.26458332px;stroke-linecap:butt;stroke-linejoin:miter;stroke-opacity:1"
       d="M 1.9297985,292.77361 H 13.836048"
       id="path5762"
       inkscape:connector-curvature="0" />
    <path
       style="fill:none;stroke:#000000;stroke-width:0.26458332px;stroke-linecap:butt;stroke-linejoin:miter;stroke-opacity:1"
       d="m 3.5172985,293.30278 1.5874999,1.5875 h 9.7895826 l -1.5875,-1.5875 z"
       id="path5764"
       inkscape:connector-curvature="0" />
    <path
       style="fill:none;stroke:#000000;stroke-width:0.26458332px;stroke-linecap:butt;stroke-linejoin:miter;stroke-opacity:1"
       d="m 4.3110485,294.09653 h 8.9958325 l 0.79375,0.79375"
       id="path5955"
       inkscape:connector-curvature="0" />
    <path
       style="fill:none;stroke:#000000;stroke-width:0.26458332px;stroke-linecap:butt;stroke-linejoin:miter;stroke-opacity:1"
       d="m 13.306881,294.09653 v -0.79375"
       id="path5957"
       inkscape:connector-curvature="0" />
    <path
       style="fill:none;stroke:#000000;stroke-width:0.26458332px;stroke-linecap:butt;stroke-linejoin:miter;stroke-opacity:1"
       d="m 3.2087502,291.49466 c -0.2206184,-0.22062 -0.2206184,-0.66159 -1.323e-4,-0.88194 0.2204862,-0.22036 0.6617228,-0.22036 0.8820767,-1.4e-4 0.2203539,0.22022 0.2203539,0.66146 -1.323e-4,0.88208 -0.2204862,0.22062 -0.6611936,0.22062 -0.8818121,0 z"
       id="path6104"
       inkscape:connector-curvature="0"
       inkscape:path-effect="#path-effect6106"
       inkscape:original-d="m 2.9881318,291.71528 c 2.646e-4,-0.44124 2.646e-4,-0.88221 0,-1.32292 0.4409723,-2.6e-4 0.8822089,-2.6e-4 1.3229167,0 2.645e-4,0.44044 2.645e-4,0.88168 0,1.32292 -0.4409724,-2.7e-4 -0.8816798,-2.7e-4 -1.3229167,0 z" />
    <path
       style="fill:none;stroke:#000000;stroke-width:0.26458332px;stroke-linecap:butt;stroke-linejoin:miter;stroke-opacity:1"
       d="m 12.777715,290.65695 c -0.220354,-0.22036 -0.661326,-0.22036 -0.881945,1.3e-4 -0.220618,0.22048 -0.220618,0.66119 1.32e-4,0.88181 0.220751,0.22062 0.661459,0.22062 0.881813,1.3e-4 0.220354,-0.22049 0.220354,-0.66172 0,-0.88207 z"
       id="path6108"
       inkscape:connector-curvature="0"
       inkscape:path-effect="#path-effect6110"
       inkscape:original-d="m 12.998069,290.43659 c -0.440708,-2.6e-4 -0.88168,-2.6e-4 -1.322917,0 2.64e-4,0.44097 2.64e-4,0.88168 0,1.32292 0.441501,-2.7e-4 0.882209,-2.7e-4 1.322917,0 2.64e-4,-0.44098 2.64e-4,-0.88221 0,-1.32292 z" />
    <path
       style="fill:none;stroke:#000000;stroke-width:0.26458332px;stroke-linecap:butt;stroke-linejoin:miter;stroke-opacity:1"
       d="m 7.4860484,290.65695 c 0.2206185,-0.22036 0.6615905,-0.22036 0.8819444,-1.4e-4 0.2203539,0.22022 0.2203539,0.66146 0.00594,0.88208 -0.2144105,0.22062 -0.6672694,0.22062 -0.8878879,-1.3e-4 -0.2206184,-0.22075 -0.2206184,-0.66146 0,-0.88181 z"
       id="path6116"
       inkscape:connector-curvature="0"
       inkscape:path-effect="#path-effect6118"
       inkscape:original-d="m 7.26543,290.43659 c 0.4412369,-2.6e-4 0.8822089,-2.6e-4 1.3229167,0 2.646e-4,0.44044 2.646e-4,0.88168 0,1.32292 -0.4288209,-0.007 -0.8816798,-2.7e-4 -1.3229167,0 2.646e-4,-0.4415 2.646e-4,-0.88221 0,-1.32292 z" />
    <path
       style="fill:none;stroke:#000000;stroke-width:0.26458332px;stroke-linecap:butt;stroke-linejoin:miter;stroke-opacity:1"
       d="m 5.3693818,290.92153 c 0.132424,-0.13216 0.3970073,-0.13216 0.5291666,-1.3e-4 0.1321594,0.13203 0.1321594,0.39688 -1.323e-4,0.5293 -0.1322916,0.13242 -0.3966103,0.13242 -0.5290343,-1.4e-4 -0.132424,-0.13255 -0.132424,-0.39687 0,-0.52903 z"
       id="path6120"
       inkscape:connector-curvature="0"
       inkscape:path-effect="#path-effect6122"
       inkscape:original-d="m 5.2369578,290.78937 c 0.264848,-2.6e-4 0.5294313,-2.6e-4 0.79375,0 2.646e-4,0.26406 2.646e-4,0.52891 0,0.79375 -0.2645833,-2.6e-4 -0.528902,-2.6e-4 -0.79375,0 2.646e-4,-0.26511 2.646e-4,-0.52943 0,-0.79375 z" />
    <path
       style="fill:none;stroke:#000000;stroke-width:0.26458332px;stroke-linecap:butt;stroke-linejoin:miter;stroke-opacity:1"
       d="m 9.8672985,290.92153 c 0.132424,-0.13216 0.3970075,-0.13216 0.5291675,-1.3e-4 0.132159,0.13203 0.132159,0.39688 -1.33e-4,0.5293 -0.132292,0.13242 -0.3966105,0.13242 -0.5290344,-1.4e-4 -0.132424,-0.13255 -0.132424,-0.39687 -10e-8,-0.52903 z"
       id="path6124"
       inkscape:connector-curvature="0"
       inkscape:path-effect="#path-effect6126"
       inkscape:original-d="m 9.7348746,290.78937 c 0.2648479,-2.6e-4 0.5294314,-2.6e-4 0.7937504,0 2.64e-4,0.26406 2.64e-4,0.52891 0,0.79375 -0.264584,-2.6e-4 -0.5289025,-2.6e-4 -0.7937504,0 2.645e-4,-0.26511 2.645e-4,-0.52943 0,-0.79375 z" />
    <path
       style="fill:none;stroke:#000000;stroke-width:0.26458332px;stroke-linecap:butt;stroke-linejoin:miter;stroke-opacity:1"
       d="m 5.1047985,288.27569 c -0.2206184,-0.22062 -0.2206184,-0.66159 -1.323e-4,-0.88194 0.2204862,-0.22036 0.6617228,-0.22036 0.8820767,-1.4e-4 0.2203539,0.22022 0.2203539,0.66146 -1.323e-4,0.88208 -0.2204862,0.22062 -0.6611936,0.22062 -0.8818121,0 z"
       id="path6104-9"
       inkscape:connector-curvature="0"
       inkscape:path-effect="#path-effect6106-0"
       inkscape:original-d="m 4.8841801,288.49631 c 2.646e-4,-0.44124 2.646e-4,-0.88221 0,-1.32292 0.4409723,-2.6e-4 0.8822089,-2.6e-4 1.3229167,0 2.645e-4,0.44044 2.645e-4,0.88168 0,1.32292 -0.4409724,-2.7e-4 -0.8816798,-2.7e-4 -1.3229167,0 z" />
    <path
       style="fill:none;stroke:#000000;stroke-width:0.26458332px;stroke-linecap:butt;stroke-linejoin:miter;stroke-opacity:1"
       d="m 9.6027152,288.27569 c -0.2206184,-0.22062 -0.2206184,-0.66159 -1.323e-4,-0.88195 0.2204862,-0.22035 0.6617231,-0.22035 0.8820761,-1.3e-4 0.220354,0.22022 0.220354,0.66146 -1.32e-4,0.88208 -0.220486,0.22062 -0.6611933,0.22062 -0.8818118,0 z"
       id="path6104-3"
       inkscape:connector-curvature="0"
       inkscape:path-effect="#path-effect6106-8"
       inkscape:original-d="m 9.3820968,288.49631 c 2.646e-4,-0.44124 2.646e-4,-0.88221 0,-1.32292 0.4409723,-2.6e-4 0.8822092,-2.6e-4 1.3229162,0 2.65e-4,0.44044 2.65e-4,0.88168 0,1.32292 -0.440972,-2.7e-4 -0.8816793,-2.7e-4 -1.3229162,0 z" />
    <path
       style="fill:#fce94f;stroke-width:0.03340869;fill-opacity:1"
       d="m 3.4564408,294.08774 -1.1689462,-1.16931 h 5.7462947 5.7462947 l 1.168946,1.16931 1.168947,1.1693 H 10.371682 4.6253869 Z m 10.8578242,0 -0.934996,-0.93545 H 8.2925727 c -2.7976835,0 -5.0866971,0.0112 -5.0866971,0.0248 0,0.0137 0.4095716,0.4346 0.910159,0.93544 l 0.910159,0.91061 h 5.1115334 5.111534 z"
       id="path6223"
       inkscape:connector-curvature="0" />
    <path
       style="fill:#fce94f;stroke-width:0.03340869;fill-opacity:1"
       d="m 4.141319,293.70354 -0.248893,-0.25057 h 4.6346199 4.6346191 v 0.25057 0.25056 H 8.7759387 4.3902117 Z"
       id="path6225"
       inkscape:connector-curvature="0" />
    <path
       style="fill:#fce94f;stroke-width:0.03340869;fill-opacity:1"
       d="m 4.7092667,296.07555 v -0.51783 h 5.8131123 5.813112 v 0.51783 0.51784 H 10.522379 4.7092667 Z"
       id="path6227"
       inkscape:connector-curvature="0" />
    <path
       style="fill:#fce94f;stroke-width:0.03340869;fill-opacity:1"
       d="m 13.818968,294.39427 -0.360522,-0.36165 0.0103,-0.17358 0.0103,-0.17359 0.534148,0.53523 0.534147,0.53523 h -0.183926 -0.183926 z"
       id="path6229"
       inkscape:connector-curvature="0" />
    <path
       style="fill:none;stroke:#000000;stroke-width:0.26458332px;stroke-linecap:butt;stroke-linejoin:miter;stroke-opacity:1"
       d="m 1.9297985,290.39236 v -7.9375 h 2.1166666 v 1.32292 h 7.6729159 v -1.32292 h 2.116667 v 7.9375"
       id="path6640"
       inkscape:connector-curvature="0" />
    <path
       style="fill:none;stroke:#000000;stroke-width:0.26458332px;stroke-linecap:butt;stroke-linejoin:miter;stroke-opacity:1"
       d="M 4.0464651,282.45486 2.9881318,281.39653 H 0.60688179 v 11.37708 l 3.96875001,3.96875"
       id="path6803"
       inkscape:connector-curvature="0" />
    <path
       style="fill:none;stroke:#000000;stroke-width:0.26458332px;stroke-linecap:butt;stroke-linejoin:miter;stroke-opacity:1"
       d="M 1.9297985,282.45486 0.60688179,281.39653"
       id="path6807"
       inkscape:connector-curvature="0" />
    <path
       style="fill:none;stroke:#000000;stroke-width:0.26458332px;stroke-linecap:butt;stroke-linejoin:miter;stroke-opacity:1"
       d="m 13.836048,282.45486 -1.058333,-1.05833 h -2.116667 v 1.05833 H 4.0464651"
       id="path6811"
       inkscape:connector-curvature="0" />
    <path
       style="fill:none;stroke:#000000;stroke-width:0.26458332px;stroke-linecap:butt;stroke-linejoin:miter;stroke-opacity:1"
       d="m 11.719381,282.45486 -1.058333,-1.05833"
       id="path6813"
       inkscape:connector-curvature="0" />
    <path
       style="fill:none;stroke:#000000;stroke-width:0.26458332px;stroke-linecap:butt;stroke-linejoin:miter;stroke-opacity:1"
       d="m 10.661048,282.45486 1.058333,1.32292"
       id="path6817"
       inkscape:connector-curvature="0" />
    <path
       style="fill:none;stroke:#000000;stroke-width:0.26458332px;stroke-linecap:butt;stroke-linejoin:miter;stroke-opacity:1"
       d="m 11.719381,283.77778 -0.529166,-0.79375 v -1.05834 h 2.116666"
       id="path6821"
       inkscape:connector-curvature="0" />
    <path
       style="fill:none;stroke:#000000;stroke-width:0.26458332px;stroke-linecap:butt;stroke-linejoin:miter;stroke-opacity:1"
       d="M 3.399181,281.85482 H 1.2825142 v 1.05834"
       id="path6823"
       inkscape:connector-curvature="0" />
    <path
       style="fill:none;stroke:#000000;stroke-width:0.26458332px;stroke-linecap:butt;stroke-linejoin:miter;stroke-opacity:1"
       d="m 5.8985485,285.89445 c 0,-0.26459 0,-0.61736 0,-0.88188 0,-0.26452 0,-0.44104 0.1322255,-0.5291 0.1322256,-0.0881 0.3972058,-0.0881 0.5293652,-9e-5 0.1321593,0.088 0.1321593,0.26454 0.1321593,0.52939 0,0.26485 0,0.61709 0,0.88174 0,0.26465 0,0.44091 -0.1323578,0.52923 -0.1323578,0.0883 -0.3965443,0.0883 -0.5289683,-9e-5 -0.1324239,-0.0884 -0.1324239,-0.26462 -0.1324239,-0.5292 z"
       id="path6825"
       inkscape:connector-curvature="0"
       inkscape:path-effect="#path-effect6827"
       inkscape:original-d="m 5.8985485,285.98291 c 2.646e-4,-0.35305 2.646e-4,-0.70582 0,-1.05834 2.646e-4,-0.17652 2.646e-4,-0.35304 0,-0.52916 0.2644511,-2.7e-4 0.5294313,-2.7e-4 0.79375,0 2.646e-4,0.17594 2.646e-4,0.35251 0,0.52916 2.646e-4,0.35305 2.646e-4,0.70529 0,1.05834 2.646e-4,0.17625 2.646e-4,0.35251 0,0.52916 -0.2647156,-2.6e-4 -0.5289021,-2.6e-4 -0.79375,0 2.646e-4,-0.17683 2.646e-4,-0.35304 0,-0.52916 z" />
    <path
       style="fill:none;stroke:#000000;stroke-width:0.26458332px;stroke-linecap:butt;stroke-linejoin:miter;stroke-opacity:1"
       d="m 8.5443818,285.89445 c 0,-0.26459 0,-0.61736 0,-0.88188 0,-0.26452 0,-0.44104 0.1322256,-0.5291 0.1322255,-0.0881 0.3972057,-0.0881 0.5293651,-9e-5 0.1321593,0.088 0.1321593,0.26454 0.1321593,0.52939 0,0.26485 0,0.61709 0,0.88174 0,0.26465 0,0.44091 -0.1323578,0.52923 -0.1323578,0.0883 -0.3965443,0.0883 -0.5289682,-9e-5 -0.132424,-0.0884 -0.132424,-0.26462 -0.132424,-0.5292 z"
       id="path6825-4"
       inkscape:connector-curvature="0"
       inkscape:path-effect="#path-effect6827-0"
       inkscape:original-d="m 8.5443818,285.98291 c 2.646e-4,-0.35305 2.646e-4,-0.70582 0,-1.05834 2.646e-4,-0.17652 2.646e-4,-0.35304 0,-0.52916 0.2644511,-2.7e-4 0.5294313,-2.7e-4 0.79375,0 2.646e-4,0.17594 2.646e-4,0.35251 0,0.52916 2.646e-4,0.35305 2.646e-4,0.70529 0,1.05834 2.646e-4,0.17625 2.646e-4,0.35251 0,0.52916 -0.2647156,-2.6e-4 -0.5289021,-2.6e-4 -0.79375,0 2.646e-4,-0.17683 2.646e-4,-0.35304 0,-0.52916 z" />
    <path
       style="fill:#fce94f;stroke-width:0.01670435;fill-opacity:1"
       d="m 2.5851096,294.54961 -1.84167923,-1.84175 0.004201,-5.50799 0.004201,-5.50798 0.19547351,0.15429 0.19547352,0.1543 8.017e-4,0.46423 8.017e-4,0.46422 0.1378108,-0.005 0.1378109,-0.005 0.00835,-0.34024 0.00835,-0.34024 0.1795717,0.14449 0.1795717,0.14448 v 5.15691 5.15691 l 1.3199188,1.31999 1.3199189,1.32 -0.00445,0.45492 -0.00445,0.45492 z"
       id="path6851"
       inkscape:connector-curvature="0" />
    <path
       style="fill:#fce94f;stroke-width:0.01670435;fill-opacity:1"
       d="m 2.0631238,287.61314 v -5.01965 h 0.918739 0.9187391 v 0.65982 0.65982 H 7.876236 11.85187 v -0.65982 -0.65982 h 0.918739 0.918739 v 5.01965 5.01966 H 7.876236 2.0631238 Z m 6.0493783,4.21045 c 0.1922388,-0.0407 0.3253859,-0.12438 0.4217984,-0.26495 0.2574613,-0.37539 0.1409362,-0.93085 -0.234773,-1.11913 -0.3019618,-0.15133 -0.7185432,-0.0911 -0.9258847,0.13382 -0.1454819,0.15783 -0.2182633,0.41392 -0.1829636,0.64378 0.048691,0.31705 0.2530549,0.53941 0.5563097,0.60529 0.1363684,0.0296 0.2299057,0.0299 0.3655132,10e-4 z m 4.3972609,-8.4e-4 c 0.141373,-0.03 0.247475,-0.08 0.332527,-0.15684 0.364861,-0.32963 0.300319,-0.99766 -0.117583,-1.21701 -0.308674,-0.16202 -0.728207,-0.10655 -0.941117,0.12443 -0.20621,0.22371 -0.250394,0.5903 -0.106627,0.88467 0.09489,0.19431 0.255265,0.31543 0.483383,0.36509 0.133446,0.0291 0.211012,0.029 0.349417,-3.4e-4 z m -8.6541509,-0.0501 c 0.3453067,-0.0899 0.5374481,-0.35131 0.5342816,-0.72678 -0.00375,-0.44491 -0.2958891,-0.7341 -0.7422737,-0.7348 -0.2412669,-3.7e-4 -0.471166,0.10439 -0.5928479,0.27015 -0.2680187,0.36512 -0.159672,0.9366 0.2134108,1.12566 0.1757759,0.0891 0.4011022,0.1143 0.5874292,0.0658 z M 5.82445,291.65322 c 0.3110902,-0.0976 0.416783,-0.55119 0.1877888,-0.80588 -0.1030187,-0.11459 -0.2113103,-0.15926 -0.3827373,-0.1579 -0.2940396,0.002 -0.4718425,0.16838 -0.4889997,0.45667 -0.00899,0.15104 0.012316,0.23805 0.084147,0.34367 0.119647,0.17591 0.3553447,0.24014 0.5998012,0.16344 z m 4.431378,0.0187 c 0.309721,-0.0502 0.473093,-0.43188 0.316147,-0.73856 -0.176291,-0.34447 -0.7394418,-0.32732 -0.8963056,0.0273 -0.046555,0.10525 -0.05639,0.27306 -0.022781,0.38867 0.031335,0.10779 0.1330921,0.23292 0.2293504,0.28203 0.067053,0.0342 0.2166682,0.0649 0.2741392,0.0563 0.01838,-0.003 0.06313,-0.01 0.09945,-0.0157 z M 5.8760683,288.5112 c 0.2614253,-0.12234 0.4132549,-0.36733 0.4132549,-0.66683 0,-0.29542 -0.1283394,-0.53722 -0.3469849,-0.65376 -0.3964977,-0.21133 -0.8905875,-0.0772 -1.0637121,0.28875 -0.055007,0.11627 -0.075089,0.2097 -0.075581,0.35166 -0.00103,0.2978 0.1398611,0.5439 0.3815054,0.66635 0.1259967,0.0638 0.1909704,0.0754 0.3954613,0.0705 0.166601,-0.004 0.1951355,-0.009 0.2960568,-0.0567 z m 4.4426817,0.0222 c 0.205082,-0.0724 0.344722,-0.21041 0.423967,-0.41905 0.049,-0.129 0.04478,-0.44987 -0.0076,-0.58101 -0.101122,-0.25298 -0.319377,-0.4094 -0.613895,-0.43997 -0.22027,-0.0229 -0.4722152,0.061 -0.6165195,0.20536 -0.3284469,0.32844 -0.2479106,0.97964 0.1466368,1.18567 0.1884701,0.0984 0.4690697,0.11902 0.6674517,0.049 z m -3.766875,-1.95073 c 0.117429,-0.0433 0.2080334,-0.14687 0.2455516,-0.28059 0.035472,-0.12642 0.054514,-1.00343 0.030716,-1.41463 -0.01438,-0.24845 -0.019558,-0.27807 -0.064249,-0.36749 -0.086599,-0.17328 -0.2643306,-0.25264 -0.5257752,-0.23477 -0.2376633,0.0162 -0.3869446,0.12074 -0.4463658,0.31245 -0.025289,0.0816 -0.028609,0.18265 -0.028555,0.86908 6.66e-5,0.77318 2.386e-4,0.77719 0.038734,0.87266 0.045756,0.11348 0.1166492,0.18947 0.2190128,0.23475 0.1498986,0.0663 0.3650472,0.0698 0.5309314,0.009 z m 2.5941483,0.0189 c 0.1033507,-0.026 0.2050693,-0.10352 0.2538566,-0.19334 0.07405,-0.13633 0.082762,-0.25431 0.076542,-1.0365 -0.00551,-0.69341 -0.00682,-0.71795 -0.042848,-0.80787 -0.044292,-0.11053 -0.1157521,-0.1841 -0.2293424,-0.23614 -0.070934,-0.0325 -0.1113933,-0.0383 -0.2684505,-0.0384 -0.1729801,-1.7e-4 -0.1913284,0.003 -0.2839739,0.0503 -0.1186201,0.0605 -0.1959324,0.16352 -0.223961,0.29854 -0.012605,0.0607 -0.017031,0.34051 -0.013679,0.86428 l 0.00496,0.77451 0.039694,0.0878 c 0.042919,0.0949 0.1257379,0.17836 0.2135153,0.21504 0.1245814,0.0521 0.3182945,0.061 0.4736864,0.0218 z"
       id="path6853"
       inkscape:connector-curvature="0" />
    <path
       style="fill:#fce94f;stroke-width:0.01670435;fill-opacity:1"
       d="m 4.1845757,283.11968 v -0.52619 h 3.2040827 3.2040826 l 0.412408,0.5159 c 0.226825,0.28375 0.412408,0.52054 0.412408,0.52619 0,0.006 -1.6274207,0.0103 -3.6164904,0.0103 H 4.1845757 Z"
       id="path6855"
       inkscape:connector-curvature="0" />
    <path
       style="fill:#fce94f;stroke-width:0.01670435;fill-opacity:1"
       d="m 1.780081,282.15436 -0.191169,-0.15388 0.9008495,-0.004 0.9008494,-0.004 0.1588386,0.15884 0.1588381,0.15883 -0.8685188,-6.3e-4 -0.8685189,-6.4e-4 z"
       id="path6857"
       inkscape:connector-curvature="0" />
    <path
       style="fill:#fce94f;stroke-width:0.01670435;fill-opacity:1"
       d="m 1.1214726,281.62807 -0.098082,-0.0786 0.9580182,-0.004 0.9580182,-0.004 0.08366,0.0837 0.08366,0.0837 -0.9435966,-7.5e-4 -0.9435966,-7.4e-4 z"
       id="path6859"
       inkscape:connector-curvature="0" />
    <path
       style="fill:#fce94f;stroke-width:0.01670435;fill-opacity:1"
       d="m 11.651418,282.18423 -0.124446,-0.12528 h 0.860273 0.860274 l 0.124447,0.12528 0.124446,0.12528 h -0.860274 -0.860274 z"
       id="path6861"
       inkscape:connector-curvature="0" />
    <path
       style="fill:#fce94f;stroke-width:0.01670435;fill-opacity:1"
       d="m 11.133583,281.6664 -0.124446,-0.12529 h 0.860274 0.860274 l 0.124446,0.12529 0.124446,0.12528 H 12.118303 11.25803 Z"
       id="path6863"
       inkscape:connector-curvature="0" />
    <path
       style="fill:#fce94f;stroke-width:0.01670435;fill-opacity:1"
       d="m 10.92071,282.55314 -0.121,-0.15175 -1.07e-4,-0.33395 -1.07e-4,-0.33396 0.125619,0.12562 0.125619,0.12562 -0.0045,0.36009 -0.0045,0.36009 z"
       id="path6865"
       inkscape:connector-curvature="0" />
    <path
       style="fill:#fce94f;stroke-width:0.01670435;fill-opacity:1"
       d="m 11.455142,283.12642 -0.121107,-0.18193 v -0.33823 -0.33824 l 0.125594,0.1256 0.125594,0.12559 -0.0045,0.39457 -0.0045,0.39457 z"
       id="path6867"
       inkscape:connector-curvature="0" />
  </g>
</svg>
