<?xml version="1.0" encoding="UTF-8" standalone="no"?>
<!-- Created with Inkscape (http://www.inkscape.org/) -->

<svg
   xmlns:dc="http://purl.org/dc/elements/1.1/"
   xmlns:cc="http://creativecommons.org/ns#"
   xmlns:rdf="http://www.w3.org/1999/02/22-rdf-syntax-ns#"
   xmlns:svg="http://www.w3.org/2000/svg"
   xmlns="http://www.w3.org/2000/svg"
   xmlns:sodipodi="http://sodipodi.sourceforge.net/DTD/sodipodi-0.dtd"
   xmlns:inkscape="http://www.inkscape.org/namespaces/inkscape"
   width="16.933331mm"
   height="16.933332mm"
   viewBox="0 0 16.933331 16.933334"
   version="1.1"
   id="svg8"
   inkscape:version="0.92.3 (2405546, 2018-03-11)"
   sodipodi:docname="idle.svg">
  <defs
     id="defs2" />
  <sodipodi:namedview
     id="base"
     pagecolor="#ffffff"
     bordercolor="#666666"
     borderopacity="1.0"
     inkscape:pageopacity="0.0"
     inkscape:pageshadow="2"
     inkscape:zoom="11.2"
     inkscape:cx="40.692615"
     inkscape:cy="35.399943"
     inkscape:document-units="mm"
     inkscape:current-layer="layer1"
     showgrid="false"
     units="mm"
     inkscape:window-width="1920"
     inkscape:window-height="1027"
     inkscape:window-x="-8"
     inkscape:window-y="-8"
     inkscape:window-maximized="1" />
  <metadata
     id="metadata5">
    <rdf:RDF>
      <cc:Work
         rdf:about="">
        <dc:format>image/svg+xml</dc:format>
        <dc:type
           rdf:resource="http://purl.org/dc/dcmitype/StillImage" />
        <dc:title></dc:title>
      </cc:Work>
    </rdf:RDF>
  </metadata>
  <g
     inkscape:label="Capa 1"
     inkscape:groupmode="layer"
     id="layer1"
     transform="translate(0,-280.06665)">
    <path
       style="fill:none;stroke:#000000;stroke-width:0.26458332px;stroke-linecap:butt;stroke-linejoin:miter;stroke-opacity:1"
       d="m 1.1103051,294.87387 12.4023439,1.9135 2.244233,-1.86626 0.566965,-11.22116 -0.07087,-0.56697 -0.188988,-0.56696 -0.354353,-0.4961 -0.496094,-0.37797 -0.732328,-0.44885 -0.921317,-0.3071 -7.3941596,-0.75596 -1.1339285,0.0709 -0.3543527,0.11812 -2.8348213,1.27567 -0.6850818,0.4016 -0.37797621,0.4016 -0.11811757,0.42522 z"
       id="path1519"
       inkscape:connector-curvature="0" />
    <path
       style="fill:none;stroke:#000000;stroke-width:0.26458332px;stroke-linecap:butt;stroke-linejoin:miter;stroke-opacity:1"
       d="m 13.512649,296.78737 0.496093,-12.04799 -0.188988,-0.44885 -0.330729,-0.63783 -0.448847,-0.44885 -0.732328,-0.44884 -0.566965,-0.28349 -1.110305,-0.3071 -7.4177825,-0.73233 -0.4724701,0.0236 -0.8976925,0.18902"
       id="path1521"
       inkscape:connector-curvature="0" />
    <path
       style="fill:none;stroke:#000000;stroke-width:0.26458332px;stroke-linecap:butt;stroke-linejoin:miter;stroke-opacity:1"
       d="M 10.606957,293.83443 H 9.7092634 l -0.4015997,0.23624 -0.1417412,0.23623 0.047247,0.18899 0.3779761,0.42522 0.6378344,0.23624 0.614212,-0.0236 0.543341,-0.23624 0.07087,-0.21261 -0.09449,-0.23624 -0.259858,-0.3071 z"
       id="path1523"
       inkscape:connector-curvature="0" />
    <path
       style="fill:none;stroke:#000000;stroke-width:0.26458332px;stroke-linecap:butt;stroke-linejoin:miter;stroke-opacity:1"
       d="M 4.2644471,292.81816 H 3.3667535 l -0.4015998,0.23624 -0.1417412,0.23623 0.047247,0.18899 0.3779761,0.42522 0.6378345,0.23624 0.614212,-0.0236 0.543341,-0.23624 0.07087,-0.21261 -0.09449,-0.23624 -0.259858,-0.3071 z"
       id="path1523-0"
       inkscape:connector-curvature="0" />
    <path
       style="fill:#999999;fill-opacity:1;stroke-width:0.08928572"
       d="M 27.5944,59.035118 C 15.022972,57.092992 4.7323166,55.49948 4.7262775,55.493981 4.7202385,55.488482 4.3401153,45.416218 3.8815594,33.111172 L 3.0478213,10.738363 3.2196805,10.030815 C 3.3856018,9.3477139 3.4161107,9.2978123 4.1026969,8.5865178 4.6787578,7.9897261 5.0355566,7.7202565 5.980913,7.1680092 L 7.1479719,6.4862502 8.7296387,6.147549 C 11.347415,5.5869734 10.948628,5.5737059 20.764043,6.5479295 c 4.73884,0.4703508 11.026786,1.0935408 13.973215,1.3848666 l 5.357143,0.5296833 2.053571,0.5730189 c 2.300387,0.6418889 3.119271,1.0031527 5.357143,2.3633887 1.000466,0.608109 1.434233,0.94019 2.172885,1.66351 0.922324,0.903178 0.923357,0.904679 1.697314,2.466228 0.425937,0.859375 0.830089,1.731452 0.898118,1.937952 0.109214,0.331517 0.01739,2.964332 -0.784748,22.5 -0.499641,12.1685 -0.907261,22.235039 -0.905825,22.370084 0.0014,0.135044 -0.02752,0.241949 -0.06435,0.237565 -0.03683,-0.0044 -10.352679,-1.596982 -22.924109,-3.539108 z m 14.713931,-2.069677 1.163784,-0.503478 0.205109,-0.608041 0.205108,-0.608041 -0.235452,-0.595236 C 43.269351,53.69623 42.554472,52.932546 41.313617,52.158089 l -1.037155,-0.647321 h -1.881525 -1.881524 l -0.888078,0.529976 c -0.822129,0.490619 -0.913324,0.5737 -1.228055,1.118782 -0.186988,0.323843 -0.31996,0.657899 -0.295493,0.742345 0.02447,0.08445 0.08899,0.325745 0.143392,0.536219 0.07178,0.277703 0.308863,0.620601 0.864283,1.25 l 0.765375,0.867321 1.306211,0.511219 1.30621,0.51122 1.328643,-0.05447 1.328645,-0.05447 z m -23.986691,-3.835198 1.173668,-0.503404 0.200904,-0.638538 0.200904,-0.638538 -0.219695,-0.549108 C 19.30652,49.873621 18.545583,49.061266 17.347681,48.313494 L 16.319206,47.671482 H 14.43262 12.546034 l -0.874328,0.508939 c -0.804941,0.468549 -0.901575,0.555002 -1.217656,1.089361 l -0.343327,0.580421 0.111377,0.539236 c 0.09206,0.445711 0.193294,0.6323 0.583679,1.075818 1.219232,1.38517 1.055001,1.265537 2.458264,1.790719 l 1.294643,0.48453 1.294643,-0.05343 1.294643,-0.05343 z"
       id="path1542"
       inkscape:connector-curvature="0"
       transform="matrix(0.26458333,0,0,0.26458333,0,280.06665)" />
    <path
       style="fill:#999999;fill-opacity:1;stroke-width:0.08928572"
       d="m 51.696964,61.010944 c 0.07247,-1.240251 1.737942,-41.996222 1.752807,-42.893034 0.01284,-0.774962 -0.154956,-1.224759 -1.315697,-3.526785 -0.632202,-1.253806 -0.730242,-1.39512 -1.53606,-2.214079 C 49.870885,11.63806 49.51548,11.365711 48.308686,10.622721 45.835197,9.0998624 44.836887,8.6530245 42.403748,7.9797043 40.357143,7.4133493 40.220184,7.3879835 38.049681,7.1733034 18.479304,5.2376361 12.254145,4.6355567 11.799877,4.6344982 l -0.544762,-0.00127 3.169643,-1.4311494 C 18.854937,1.2017756 18.627497,1.2721859 21.19548,1.1060166 l 2.113206,-0.1367416 8.303572,0.8492699 c 4.566964,0.4670984 10.834821,1.1093335 13.928571,1.4271892 l 5.625,0.5779193 1.696429,0.573052 c 1.552386,0.5243947 1.808867,0.642455 3.02065,1.3904329 0.728321,0.4495594 1.72106,1.1179102 2.206085,1.4852241 1.727602,1.3083276 2.686359,3.1121116 2.945377,5.5413646 0.106879,1.00239 0.05278,2.262639 -0.947219,22.064088 l -1.060573,21.000977 -3.468065,2.882952 c -1.907436,1.585624 -3.569395,2.959371 -3.693244,3.052772 l -0.225178,0.16982 z"
       id="path1544"
       inkscape:connector-curvature="0"
       transform="matrix(0.26458333,0,0,0.26458333,0,280.06665)" />
    <path
       style="fill:#666666;fill-opacity:1;stroke-width:0.08928572"
       d="m 13.657541,52.234753 -1.079716,-0.411485 -0.636998,-0.714286 c -0.895974,-1.004685 -0.849598,-1.323081 0.289446,-1.987188 l 0.649841,-0.378883 h 1.544277 1.544277 l 0.857509,0.532416 c 1.196058,0.742618 2.002201,1.76532 1.851298,2.348624 -0.0392,0.151516 -0.260906,0.2877 -0.924462,0.56785 -0.821346,0.346768 -0.936175,0.37107 -1.944327,0.411486 l -1.071428,0.04295 z"
       id="path1546"
       inkscape:connector-curvature="0"
       transform="matrix(0.26458333,0,0,0.26458333,0,280.06665)" />
    <path
       style="fill:#666666;fill-opacity:1;stroke-width:0.08928572"
       d="m 37.683686,56.098663 c -1.046392,-0.388627 -1.085389,-0.412976 -1.668847,-1.042017 -0.32858,-0.354251 -0.644197,-0.753036 -0.701372,-0.886189 -0.160669,-0.374182 0.143537,-0.784471 0.908751,-1.22565 l 0.62894,-0.362611 h 1.547356 1.547356 l 0.819504,0.511233 c 1.227518,0.765765 2.082447,1.841426 1.882189,2.368145 -0.05915,0.155574 -0.305544,0.303718 -0.959235,0.57674 -0.81279,0.33947 -0.957676,0.370845 -1.906427,0.412833 l -1.026786,0.04544 z"
       id="path1548"
       inkscape:connector-curvature="0"
       transform="matrix(0.26458333,0,0,0.26458333,0,280.06665)" />
  </g>
</svg>
