<?xml version="1.0" encoding="UTF-8" standalone="no"?>
<!-- Created with Inkscape (http://www.inkscape.org/) -->

<svg
   xmlns:dc="http://purl.org/dc/elements/1.1/"
   xmlns:cc="http://creativecommons.org/ns#"
   xmlns:rdf="http://www.w3.org/1999/02/22-rdf-syntax-ns#"
   xmlns:svg="http://www.w3.org/2000/svg"
   xmlns="http://www.w3.org/2000/svg"
   xmlns:sodipodi="http://sodipodi.sourceforge.net/DTD/sodipodi-0.dtd"
   xmlns:inkscape="http://www.inkscape.org/namespaces/inkscape"
   width="16.933331mm"
   height="16.933332mm"
   viewBox="0 0 16.933331 16.933334"
   version="1.1"
   id="svg8"
   inkscape:version="0.92.3 (2405546, 2018-03-11)"
   sodipodi:docname="Linear_Bear_House_cmd.svg">
  <defs
     id="defs2" />
  <sodipodi:namedview
     id="base"
     pagecolor="#ffffff"
     bordercolor="#666666"
     borderopacity="1.0"
     inkscape:pageopacity="0.0"
     inkscape:pageshadow="2"
     inkscape:zoom="7.9195959"
     inkscape:cx="12.361778"
     inkscape:cy="23.686469"
     inkscape:document-units="mm"
     inkscape:current-layer="layer1"
     showgrid="false"
     units="mm"
     objecttolerance="5"
     inkscape:window-width="1920"
     inkscape:window-height="1027"
     inkscape:window-x="-8"
     inkscape:window-y="-8"
     inkscape:window-maximized="1" />
  <metadata
     id="metadata5">
    <rdf:RDF>
      <cc:Work
         rdf:about="">
        <dc:format>image/svg+xml</dc:format>
        <dc:type
           rdf:resource="http://purl.org/dc/dcmitype/StillImage" />
        <dc:title />
      </cc:Work>
    </rdf:RDF>
  </metadata>
  <g
     inkscape:label="Capa 1"
     inkscape:groupmode="layer"
     id="layer1"
     transform="translate(0,-280.06665)">
    <path
       style="fill:none;stroke:#000000;stroke-width:0.26458332px;stroke-linecap:butt;stroke-linejoin:miter;stroke-opacity:1"
       d="m 0.86862596,291.85504 6.61492064,3.10701 0.334087,0.10023 H 7.984677 l 0.5011303,-0.10023 7.5837727,-3.57473 0.233861,-0.16704 v -5.34539 -0.30068 l -0.300678,-0.10023 -6.514695,-3.14041 -0.5011303,-0.10023 -0.4009041,0.0334 -7.61718157,3.67496 -0.30067821,0.23386 -0.0668174,5.41221 0.13363477,0.23386 z"
       id="path1276"
       inkscape:connector-curvature="0" />
    <path
       style="fill:none;stroke:#000000;stroke-width:0.26458332px;stroke-linecap:butt;stroke-linejoin:miter;stroke-opacity:1"
       d="m 0.66817382,286.17556 0.30067821,0.40091 6.51469457,3.04019 0.3674957,0.16705 0.534539,-0.10023 7.6171817,-3.64155 0.300678,-0.23386 v -0.23386"
       id="path1278"
       inkscape:connector-curvature="0" />
    <path
       style="fill:none;stroke:#000000;stroke-width:0.26458332px;stroke-linecap:butt;stroke-linejoin:miter;stroke-opacity:1"
       d="m 0.63476512,288.9819 6.88219018,3.24064 0.4677217,0.10023 0.3340869,-0.0334 0.3006784,-0.0668 2.3720167,-1.03567 0.06682,-0.60136 0.267269,-0.4009 0.434313,-0.46772 0.634765,-0.50113 0.467722,-0.13364 0.467721,0.0668 0.167044,0.30068 0.03341,0.26727 0.03341,0.30068 -0.167043,0.53454 -0.167044,0.33408 -0.367495,0.46772 -0.434313,0.33409 -0.501131,0.20045 -0.367495,-0.0334 -0.233861,-0.10022 -0.233861,-0.16704 -0.06682,-0.43432"
       id="path1280"
       inkscape:connector-curvature="0" />
    <path
       style="fill:none;stroke:#000000;stroke-width:0.26458332px;stroke-linecap:butt;stroke-linejoin:miter;stroke-opacity:1"
       d="m 13.597337,289.81711 2.672695,-1.20271"
       id="path1282"
       inkscape:connector-curvature="0" />
    <path
       style="fill:none;stroke:#000000;stroke-width:0.26458332px;stroke-linecap:butt;stroke-linejoin:miter;stroke-opacity:1"
       d="m 8.0849032,288.04645 -0.6347653,0.0334 -0.3674956,0.0334 -0.3674954,0.23386 v 0.23386 l 0.2672694,0.30068 0.3674956,0.10023 h 0.4009044 l 0.5011303,-0.0334 0.3006783,-0.13364 0.2672694,-0.26727 -0.033409,-0.23386 -0.2338607,-0.16704 z"
       id="path1284"
       inkscape:connector-curvature="0" />
    <path
       style="fill:none;stroke:#000000;stroke-width:0.26458332px;stroke-linecap:butt;stroke-linejoin:miter;stroke-opacity:1"
       d="m 3.4537871,285.97549 -0.6347653,0.0334 -0.3674956,0.0334 -0.3674954,0.23386 v 0.23386 l 0.2672694,0.30068 0.3674956,0.10023 h 0.4009044 l 0.5011303,-0.0334 0.3006783,-0.13364 0.2672694,-0.26727 -0.033409,-0.23386 -0.2338607,-0.16704 z"
       id="path1284-8"
       inkscape:connector-curvature="0" />
    <path
       style="fill:none;stroke:#000000;stroke-width:0.26458332px;stroke-linecap:butt;stroke-linejoin:miter;stroke-opacity:1"
       d="m 9.5007602,283.00212 -0.6347654,0.0334 -0.3674956,0.0334 -0.3674954,0.23386 v 0.23386 l 0.2672694,0.30068 0.3674956,0.10023 h 0.4009045 l 0.5011303,-0.0334 0.3006783,-0.13364 0.2672691,-0.26727 -0.03341,-0.23386 -0.2338604,-0.16704 z"
       id="path1284-7"
       inkscape:connector-curvature="0" />
    <path
       style="fill:none;stroke:#000000;stroke-width:0.26458332px;stroke-linecap:butt;stroke-linejoin:miter;stroke-opacity:1"
       d="m 14.077751,285.07346 -0.634765,0.0334 -0.367496,0.0334 -0.367495,0.23386 v 0.23386 l 0.267269,0.30068 0.367496,0.10023 h 0.400904 l 0.501131,-0.0334 0.300678,-0.13364 0.267269,-0.26727 -0.03341,-0.23386 -0.23386,-0.16704 z"
       id="path1284-9"
       inkscape:connector-curvature="0" />
    <path
       style="fill:#37abc8;fill-opacity:1;stroke-width:0.12626907"
       d="M 28.915653,55.918541 C 28.707309,55.845154 22.911559,53.144072 16.036208,49.916135 9.1608571,46.688199 3.4503385,44.014631 3.3461665,43.974876 2.885323,43.799001 2.8489025,43.56041 2.8605123,40.79335 c 0.00626,-1.493132 0.047074,-3.494902 0.090686,-4.448377 l 0.079296,-1.733592 12.6182697,5.943843 c 14.361383,6.764939 13.740385,6.524601 15.896127,6.152118 0.985175,-0.170226 1.791645,-0.476923 5.381613,-2.046609 3.11531,-1.362145 4.249005,-1.805075 4.322782,-1.688891 0.055,0.08662 0.100874,0.313387 0.101937,0.503934 0.0038,0.67197 1.630326,1.582252 3.032391,1.697019 0.718028,0.05877 0.947176,0.0169 1.830901,-0.334541 1.32276,-0.526042 2.620946,-1.527995 3.56799,-2.753812 1.074611,-1.390931 1.389828,-2.073817 1.985109,-4.300542 l 0.146287,-0.547203 4.568615,-2.0589 4.568615,-2.0589 v 4.395139 4.395139 l -0.410375,0.25031 c -0.225706,0.137671 -6.802746,3.259306 -14.615644,6.936966 -10.093577,4.751213 -14.421519,6.728451 -14.952377,6.831056 -0.900486,0.174046 -1.646311,0.170946 -2.157082,-0.009 z"
       id="path1313"
       inkscape:connector-curvature="0"
       transform="matrix(0.26458333,0,0,0.26458333,0,280.06665)" />
    <path
       style="fill:#37abc8;fill-opacity:1;stroke-width:0.12626907"
       d="m 29.231326,45.566716 c -0.312516,-0.0667 -6.335551,-2.837733 -13.384522,-6.15785 L 3.0304939,33.37229 2.9898454,31.684817 C 2.9247435,28.982191 3.094748,24.85413 3.2654918,24.991554 3.4045916,25.103509 27.403778,36.32813 28.896841,36.979552 l 0.738804,0.322338 1.137489,-0.218054 c 1.053641,-0.20198 2.190569,-0.720991 15.423638,-7.040927 7.857381,-3.75258 14.413995,-6.904484 14.570253,-7.004231 l 0.284106,-0.181358 v 4.519338 4.519338 l -4.601111,2.066729 c -2.530612,1.136702 -4.647197,2.061469 -4.703523,2.055038 -0.05633,-0.0064 -0.134722,-0.204657 -0.174212,-0.440503 -0.05647,-0.337224 -0.582048,-1.424904 -0.829962,-1.717587 -0.02423,-0.02861 -0.522669,-0.122777 -1.10764,-0.209266 -0.998832,-0.14768 -1.12532,-0.139305 -2.077667,0.13757 -0.879429,0.255675 -1.175077,0.424312 -2.226519,1.270003 -1.541536,1.23988 -2.726549,2.467443 -3.489682,3.614988 -0.547528,0.823331 -0.608113,0.989992 -0.686485,1.888432 -0.04728,0.541972 -0.14973,1.033149 -0.227672,1.091503 -0.382869,0.286648 -8.689856,3.803648 -9.270868,3.925086 -0.780604,0.163154 -1.625618,0.159225 -2.424464,-0.01128 z"
       id="path1315"
       inkscape:connector-curvature="0"
       transform="matrix(0.26458333,0,0,0.26458333,0,280.06665)" />
    <path
       style="fill:#37abc8;fill-opacity:1;stroke-width:0.12626907"
       d="M 16.871278,30.147382 C 5.2399589,24.720121 4.0336226,24.129416 3.6792429,23.687672 L 3.2891956,23.201467 3.6407652,22.937603 c 0.1933632,-0.145126 6.7832218,-3.3665 14.6441308,-7.15861 11.102458,-5.355838 14.433476,-6.9110144 14.923905,-6.9676322 1.478962,-0.1707392 1.667974,-0.091174 14.691694,6.1845172 6.71199,3.234281 12.399293,5.948599 12.638452,6.031817 0.584187,0.203275 0.601187,0.348628 0.08667,0.741068 -0.238879,0.182201 -6.903134,3.420986 -14.809455,7.1973 -13.629575,6.509925 -15.07665,7.156799 -16.00612,7.155079 -0.07523,-1.27e-4 -5.897672,-2.688332 -12.938766,-5.97376 z m 15.137967,3.670847 c 0.383925,-0.176125 0.967642,-0.600453 1.305341,-0.948905 l 0.610859,-0.630313 -0.08684,-0.695051 c -0.08076,-0.646408 -0.127931,-0.724021 -0.673995,-1.109034 -0.966314,-0.681317 -2.129287,-0.866703 -4.538708,-0.723501 l -1.982984,0.117858 -0.915505,0.570609 -0.915505,0.570609 0.0014,0.712979 c 0.0013,0.672737 0.03602,0.752094 0.614942,1.406071 0.883723,0.998298 1.400388,1.141402 3.929352,1.088338 1.775766,-0.03726 2.02154,-0.0706 2.65165,-0.35966 z M 14.584114,25.964396 c 0.997115,-0.501221 1.767767,-1.279794 1.767767,-1.785936 0,-0.875775 -0.143052,-1.188463 -0.727749,-1.590745 -0.95884,-0.659699 -2.148728,-0.848942 -4.464837,-0.710099 -2.0671896,0.123922 -2.3153882,0.200203 -3.4884129,1.072143 -0.3654703,0.271664 -0.4103744,0.372619 -0.4103744,0.922614 0,0.56091 0.058507,0.684861 0.6376792,1.350967 0.9004355,1.03559 1.4326337,1.184761 4.0342761,1.130768 1.844598,-0.03828 1.997116,-0.0607 2.651651,-0.389712 z m 40.153563,-3.409265 c 0.997116,-0.501221 1.767767,-1.279793 1.767767,-1.785935 0,-0.875776 -0.143051,-1.188464 -0.727748,-1.590746 -0.95884,-0.659699 -2.148728,-0.848942 -4.464837,-0.710099 -2.06719,0.123922 -2.315389,0.200204 -3.488413,1.072143 -0.365471,0.271664 -0.410375,0.372619 -0.410375,0.922614 0,0.56091 0.05851,0.68486 0.637679,1.350967 0.900436,1.03559 1.432634,1.184761 4.034277,1.130768 1.844598,-0.03828 1.997116,-0.0607 2.65165,-0.389712 z M 37.438815,14.726449 c 0.997115,-0.501222 1.767767,-1.279794 1.767767,-1.785935 0,-0.875777 -0.143052,-1.188464 -0.727748,-1.590747 -0.958841,-0.659699 -2.148728,-0.848941 -4.464838,-0.710098 -2.06719,0.123921 -2.315388,0.200204 -3.488412,1.072143 -0.365471,0.271664 -0.410375,0.372618 -0.410375,0.922614 0,0.560909 0.05851,0.68486 0.637679,1.350966 0.900436,1.035591 1.432634,1.184761 4.034277,1.130769 1.844597,-0.03828 1.997115,-0.0607 2.65165,-0.389712 z"
       id="path1317"
       inkscape:connector-curvature="0"
       transform="matrix(0.26458333,0,0,0.26458333,0,280.06665)" />
    <path
       style="fill:#164450;fill-opacity:1;stroke-width:0.12626907"
       d="M 9.5449272,25.087444 C 9.127517,24.93653 8.3966976,24.206683 8.3971551,23.941199 c 1.241e-4,-0.07207 0.2481264,-0.287648 0.5511161,-0.479058 0.4992532,-0.315399 0.7151261,-0.358951 2.3030338,-0.464638 1.41483,-0.09417 1.906872,-0.08073 2.555868,0.06978 1.406663,0.326226 1.715737,0.717477 1.061046,1.343157 -0.72106,0.689108 -1.320467,0.846924 -3.188294,0.839437 -1.015986,-0.0041 -1.8784936,-0.06969 -2.1349978,-0.162431 z"
       id="path1319"
       inkscape:connector-curvature="0"
       transform="matrix(0.26458333,0,0,0.26458333,0,280.06665)" />
    <path
       style="fill:#164450;fill-opacity:1;stroke-width:0.12626907"
       d="M 27.159719,32.959457 C 26.710229,32.825 25.94833,32.108503 25.94833,31.820256 c 0,-0.116044 0.227085,-0.361267 0.504634,-0.544941 0.453519,-0.300124 0.680545,-0.345726 2.241276,-0.450199 2.207648,-0.147777 3.429543,0.06474 3.945299,0.686191 0.144319,0.173893 0.100517,0.270606 -0.315524,0.696671 -0.70045,0.717326 -1.317748,0.885042 -3.209885,0.872105 -0.87309,-0.006 -1.752575,-0.06025 -1.954411,-0.120626 z"
       id="path1321"
       inkscape:connector-curvature="0"
       transform="matrix(0.26458333,0,0,0.26458333,0,280.06665)" />
    <path
       style="fill:#164450;fill-opacity:1;stroke-width:0.12626907"
       d="m 32.399629,13.849497 c -0.417411,-0.150914 -1.14823,-0.880761 -1.147773,-1.146245 1.25e-4,-0.07207 0.248127,-0.287648 0.551117,-0.479059 0.499253,-0.315398 0.715126,-0.35895 2.303034,-0.464637 1.41483,-0.09417 1.906872,-0.08074 2.555867,0.06978 1.406663,0.326226 1.715737,0.717477 1.061046,1.343157 -0.72106,0.689108 -1.320467,0.846924 -3.188294,0.839437 -1.015986,-0.0041 -1.878493,-0.06969 -2.134997,-0.162431 z"
       id="path1323"
       inkscape:connector-curvature="0"
       transform="matrix(0.26458333,0,0,0.26458333,0,280.06665)" />
    <path
       style="fill:#164450;fill-opacity:1;stroke-width:0.12626907"
       d="m 49.698491,21.678179 c -0.41741,-0.150914 -1.14823,-0.880761 -1.147772,-1.146245 1.24e-4,-0.07207 0.248126,-0.287648 0.551116,-0.479058 0.499253,-0.315399 0.715126,-0.358951 2.303034,-0.464638 1.41483,-0.09417 1.906872,-0.08073 2.555868,0.06978 1.406663,0.326227 1.715736,0.717477 1.061046,1.343157 -0.721061,0.689108 -1.320467,0.846925 -3.188294,0.839437 -1.015987,-0.0041 -1.878494,-0.06969 -2.134998,-0.162431 z"
       id="path1325"
       inkscape:connector-curvature="0"
       transform="matrix(0.26458333,0,0,0.26458333,0,280.06665)" />
    <path
       style="fill:#164450;fill-opacity:1;stroke-width:0.12626907"
       d="m 43.243546,43.729106 c -0.756,-0.395454 -0.806149,-0.468411 -0.976432,-1.420527 -0.193913,-1.084243 0.0029,-2.279976 0.494048,-3.000966 1.252807,-1.83923 3.785677,-4.037909 5.109011,-4.434918 0.444509,-0.133356 0.907274,-0.222602 1.028365,-0.198323 0.121091,0.02428 0.433103,0.07823 0.693361,0.1199 0.601807,0.09635 0.840168,0.524585 0.99754,1.792171 0.09915,0.798643 0.07746,1.048841 -0.159503,1.839588 -0.371637,1.240165 -0.773167,2.007788 -1.577639,3.016046 -0.838495,1.050899 -1.899487,1.880465 -2.952094,2.308178 -1.064806,0.432669 -1.800271,0.426814 -2.656657,-0.02115 z"
       id="path1327"
       inkscape:connector-curvature="0"
       transform="matrix(0.26458333,0,0,0.26458333,0,280.06665)" />
  </g>
</svg>
