<?xml version="1.0" encoding="UTF-8" standalone="no"?>
<!-- Created with Inkscape (http://www.inkscape.org/) -->

<svg
   xmlns:dc="http://purl.org/dc/elements/1.1/"
   xmlns:cc="http://creativecommons.org/ns#"
   xmlns:rdf="http://www.w3.org/1999/02/22-rdf-syntax-ns#"
   xmlns:svg="http://www.w3.org/2000/svg"
   xmlns="http://www.w3.org/2000/svg"
   xmlns:xlink="http://www.w3.org/1999/xlink"
   xmlns:sodipodi="http://sodipodi.sourceforge.net/DTD/sodipodi-0.dtd"
   xmlns:inkscape="http://www.inkscape.org/namespaces/inkscape"
   width="200"
   height="50"
   viewBox="0 0 52.916666 13.229167"
   version="1.1"
   id="svg8"
   sodipodi:docname="Mechatronic2.svg"
   inkscape:version="0.92.3 (2405546, 2018-03-11)"
   inkscape:export-filename="D:\TFG\Workbench_mechatronic\docs\_static\Mechatronic.png"
   inkscape:export-xdpi="144"
   inkscape:export-ydpi="144">
  <defs
     id="defs2">
    <linearGradient
       inkscape:collect="always"
       id="linearGradient4803">
      <stop
         style="stop-color:#000000;stop-opacity:1;"
         offset="0"
         id="stop4799" />
      <stop
         style="stop-color:#000000;stop-opacity:0;"
         offset="1"
         id="stop4801" />
    </linearGradient>
    <radialGradient
       inkscape:collect="always"
       xlink:href="#linearGradient4803"
       id="radialGradient4805"
       cx="70.548363"
       cy="152.56657"
       fx="70.548363"
       fy="152.56657"
       r="40.68779"
       gradientTransform="matrix(1,0,0,0.10118309,0,137.12941)"
       gradientUnits="userSpaceOnUse" />
  </defs>
  <sodipodi:namedview
     id="base"
     pagecolor="#ffffff"
     bordercolor="#666666"
     borderopacity="1.0"
     inkscape:pageopacity="0.0"
     inkscape:pageshadow="2"
     inkscape:zoom="3.959798"
     inkscape:cx="58.546153"
     inkscape:cy="45.064634"
     inkscape:document-units="mm"
     inkscape:current-layer="layer1-6-1"
     showgrid="false"
     inkscape:window-width="1920"
     inkscape:window-height="1027"
     inkscape:window-x="1072"
     inkscape:window-y="193"
     inkscape:window-maximized="1"
     units="px"
     inkscape:measure-start="176.517,8.0653"
     inkscape:measure-end="170.211,8.08122" />
  <metadata
     id="metadata5">
    <rdf:RDF>
      <cc:Work
         rdf:about="">
        <dc:format>image/svg+xml</dc:format>
        <dc:type
           rdf:resource="http://purl.org/dc/dcmitype/StillImage" />
        <dc:title></dc:title>
      </cc:Work>
    </rdf:RDF>
  </metadata>
  <g
     inkscape:label="Capa 1"
     inkscape:groupmode="layer"
     id="layer1"
     transform="translate(0,-283.77082)">
    <text
       xml:space="preserve"
       style="font-style:normal;font-variant:normal;font-weight:normal;font-stretch:normal;font-size:6.66380358px;line-height:3;font-family:'OCR A Std';-inkscape-font-specification:'OCR A Std';letter-spacing:0px;word-spacing:0px;opacity:1;fill:#afafaf;fill-opacity:1;fill-rule:nonzero;stroke:#000000;stroke-width:0.18;stroke-miterlimit:4;stroke-dasharray:none;stroke-opacity:1"
       x="7.4091868"
       y="280.36911"
       id="text4529"
       transform="scale(0.95400139,1.0482165)"
       inkscape:export-filename="D:\TFG\Workbench_mechatronic\docs\_static\Mechatronic.png"
       inkscape:export-xdpi="64"
       inkscape:export-ydpi="64"><tspan
         sodipodi:role="line"
         id="tspan4527"
         x="7.4091868"
         y="280.36911"
         style="font-style:normal;font-variant:normal;font-weight:normal;font-stretch:normal;line-height:0;font-family:'OCR A Std';-inkscape-font-specification:'OCR A Std';direction:ltr;baseline-shift:baseline;opacity:0.9;fill:#afafaf;fill-opacity:1;fill-rule:nonzero;stroke:#000000;stroke-width:0.18;stroke-miterlimit:4;stroke-dasharray:none;stroke-opacity:1">M</tspan></text>
    <g
       transform="matrix(0.45051575,0,0,0.49500776,23.577392,141.32383)"
       id="layer1-6"
       inkscape:label="Capa 1"
       style="fill-rule:evenodd">
      <path
         inkscape:connector-curvature="0"
         id="path1168"
         d="m -45.610618,305.49964 0.0502,2.85922 2.460133,-1.37944 v -0.85275 l -1.230068,0.72734 1.386965,-2.47047 1.819996,-1.02832 1.399515,0.79004 -1.236342,0.74617 -0.0063,0.80883 2.472686,-1.40451 0.01261,-2.87179 -0.696619,0.39503 0.0063,1.49863 -1.443445,-0.82771 0.01261,-2.17579 1.405788,-2.40148 -0.01261,1.39827 0.696621,-0.39504 v -2.78401 l -2.46641,1.3481 0.01261,0.80263 1.242619,-0.696 -1.374412,2.4642 -1.863929,1.07221 -1.412065,-0.86528 1.236342,-0.66466 0.0063,-0.859 -2.460134,1.4233 -0.0063,2.89062 0.709174,-0.40757 0.0063,-1.4735 1.418342,0.79631 v 2.16322 l -1.424618,2.42661 0.0063,-1.44843 z"
         style="fill:#b4b4b4;fill-opacity:0.98323405;stroke:#000000;stroke-width:0.30042729;stroke-linecap:butt;stroke-linejoin:miter;stroke-miterlimit:4;stroke-dasharray:none;stroke-opacity:1;fill-rule:evenodd" />
      <path
         inkscape:connector-curvature="0"
         id="path1179"
         d="m -43.026065,305.9857 -0.565595,-0.33177"
         style="fill:#b4b4b4;fill-opacity:0.98323405;stroke:#000000;stroke-width:0.30042729;stroke-linecap:butt;stroke-linejoin:miter;stroke-miterlimit:4;stroke-dasharray:none;stroke-opacity:1;fill-rule:evenodd" />
      <path
         sodipodi:nodetypes="cc"
         inkscape:connector-curvature="0"
         id="path1235"
         d="m -41.042506,305.82712 -2.00195,-1.17126"
         style="fill:#b4b4b4;fill-opacity:0.98323405;stroke:#000000;stroke-width:0.30042729;stroke-linecap:butt;stroke-linejoin:miter;stroke-miterlimit:4;stroke-dasharray:none;stroke-opacity:1;fill-rule:evenodd" />
      <path
         inkscape:connector-curvature="0"
         id="path1237"
         d="m -40.960226,304.89143 -1.402012,-0.77502"
         style="fill:#b4b4b4;fill-opacity:0.98323405;stroke:#000000;stroke-width:0.30042729;stroke-linecap:butt;stroke-linejoin:miter;stroke-miterlimit:4;stroke-dasharray:none;stroke-opacity:1;fill-rule:evenodd" />
      <path
         sodipodi:nodetypes="cc"
         inkscape:connector-curvature="0"
         id="path1235-1"
         d="m -38.403569,301.29055 -2.001949,-1.17127"
         style="fill:#b4b4b4;fill-opacity:0.98323405;stroke:#000000;stroke-width:0.30042729;stroke-linecap:butt;stroke-linejoin:miter;stroke-miterlimit:4;stroke-dasharray:none;stroke-opacity:1;fill-rule:evenodd" />
      <path
         sodipodi:nodetypes="cc"
         inkscape:connector-curvature="0"
         id="path1235-1-7"
         d="m -39.177848,301.81899 -1.457206,-0.86405"
         style="fill:#b4b4b4;fill-opacity:0.98323405;stroke:#000000;stroke-width:0.30042729;stroke-linecap:butt;stroke-linejoin:miter;stroke-miterlimit:4;stroke-dasharray:none;stroke-opacity:1;fill-rule:evenodd" />
      <path
         sodipodi:nodetypes="cc"
         inkscape:connector-curvature="0"
         id="path1235-1-8"
         d="m -39.278951,299.43464 -0.542375,-0.34823"
         style="fill:#b4b4b4;fill-opacity:0.98323405;stroke:#000000;stroke-width:0.30042729;stroke-linecap:butt;stroke-linejoin:miter;stroke-miterlimit:4;stroke-dasharray:none;stroke-opacity:1;fill-rule:evenodd" />
      <path
         sodipodi:nodetypes="ccccccccccccccccccccccccccccccccccccccccccccccccccccccccccc"
         inkscape:connector-curvature="0"
         id="path2406"
         d="m -41.684013,302.96128 -0.07145,0.0774 -0.118033,0.11143 -0.09008,0.0774 -0.139794,0.0931 -0.118033,0.0495 -0.170839,0.0211 -0.08077,-0.009 -0.111836,-0.0309 -0.118034,-0.0774 -0.04037,-0.0465 -0.05596,-0.0634 v 0 l -0.0525,-0.10224 c -0.01351,-0.0307 -0.01471,-0.061 -0.02825,-0.0916 v -0.13326 l 0.0063,-0.2391 0.02164,-0.17049 0.0559,-0.19557 0.08077,-0.20769 0.06522,-0.13356 0.06213,-0.0962 0.07767,-0.0995 0.06834,-0.0807 0.08388,-0.0867 0.09939,-0.0962 0.108713,-0.0931 0.118033,-0.0931 0.118034,-0.0774 0.09008,-0.034 0.102516,-0.0181 0.105623,-0.003 0.08077,0.003 0.06213,0.0181 0.04972,0.0309 0.03726,0.0307 0.04972,0.0465 0.02796,0.0307 0.03726,0.053 0.02795,0.056 0.01864,0.056 0.01563,0.0714 0.0063,0.0682 0.0063,0.0774 0.003,0.0807 v 0.056 0.0995 l -0.0063,0.0867 -0.0093,0.0807 -0.01864,0.11173 -0.03105,0.0932 -0.0404,0.0995 -0.0528,0.10556 -0.05281,0.0962 -0.05903,0.10254 -0.05281,0.0717 -0.04972,0.0679 -0.06213,0.0774 z"
         style="fill:#b4b4b4;fill-opacity:0.98323405;stroke:#000000;stroke-width:0.30042729;stroke-linecap:butt;stroke-linejoin:miter;stroke-miterlimit:4;stroke-dasharray:none;stroke-opacity:1;fill-rule:evenodd" />
      <path
         sodipodi:nodetypes="cc"
         inkscape:connector-curvature="0"
         id="path1237-3"
         d="m -45.632629,308.48172 -6.622336,-3.88845"
         style="fill:#b4b4b4;fill-opacity:0.98323405;stroke:#000000;stroke-width:0.30352512;stroke-linecap:butt;stroke-linejoin:miter;stroke-miterlimit:4;stroke-dasharray:none;stroke-opacity:1;fill-rule:evenodd" />
      <path
         sodipodi:nodetypes="cc"
         inkscape:connector-curvature="0"
         id="path1237-3-0"
         d="m -45.610618,305.49964 -6.546189,-3.85378"
         style="fill:#b4b4b4;fill-opacity:0.98323405;stroke:#000000;stroke-width:0.30042729;stroke-linecap:butt;stroke-linejoin:miter;stroke-miterlimit:4;stroke-dasharray:none;stroke-opacity:1;fill-rule:evenodd" />
      <path
         sodipodi:nodetypes="cc"
         inkscape:connector-curvature="0"
         id="path1237-3-4"
         d="m -44.80334,304.98613 -6.546192,-3.85382"
         style="fill:#b4b4b4;fill-opacity:0.98323405;stroke:#000000;stroke-width:0.30042729;stroke-linecap:butt;stroke-linejoin:miter;stroke-miterlimit:4;stroke-dasharray:none;stroke-opacity:1;fill-rule:evenodd" />
      <path
         sodipodi:nodetypes="cc"
         inkscape:connector-curvature="0"
         id="path1237-3-4-6"
         d="m -45.666278,303.17831 -6.546192,-3.85379"
         style="fill:#b4b4b4;fill-opacity:0.98323405;stroke:#000000;stroke-width:0.30042729;stroke-linecap:butt;stroke-linejoin:miter;stroke-miterlimit:4;stroke-dasharray:none;stroke-opacity:1;fill-rule:evenodd" />
      <path
         sodipodi:nodetypes="cc"
         inkscape:connector-curvature="0"
         id="path1237-3-4-1"
         d="m -45.591625,300.15736 -6.546193,-3.85381"
         style="fill:#b4b4b4;fill-opacity:0.98323405;stroke:#000000;stroke-width:0.30042729;stroke-linecap:butt;stroke-linejoin:miter;stroke-miterlimit:4;stroke-dasharray:none;stroke-opacity:1;fill-rule:evenodd" />
      <path
         sodipodi:nodetypes="cc"
         inkscape:connector-curvature="0"
         id="path1237-3-4-8"
         d="m -43.056938,298.60366 -6.546191,-3.85378"
         style="fill:#b4b4b4;fill-opacity:0.98323405;stroke:#000000;stroke-width:0.30042729;stroke-linecap:butt;stroke-linejoin:miter;stroke-miterlimit:4;stroke-dasharray:none;stroke-opacity:1;fill-rule:evenodd" />
      <path
         sodipodi:nodetypes="cc"
         inkscape:connector-curvature="0"
         id="path1237-3-4-8-6"
         d="m -40.978984,297.47996 -6.546191,-3.85378"
         style="fill:#b4b4b4;fill-opacity:0.98323405;stroke:#000000;stroke-width:0.30042729;stroke-linecap:butt;stroke-linejoin:miter;stroke-miterlimit:4;stroke-dasharray:none;stroke-opacity:1;fill-rule:evenodd" />
      <path
         sodipodi:nodetypes="cc"
         inkscape:connector-curvature="0"
         id="path1237-3-4-8-2"
         d="m -38.441128,296.01084 -6.546195,-3.85381"
         style="fill:#b4b4b4;fill-opacity:0.98323405;stroke:#000000;stroke-width:0.30042729;stroke-linecap:butt;stroke-linejoin:miter;stroke-miterlimit:4;stroke-dasharray:none;stroke-opacity:1;fill-rule:evenodd" />
      <path
         sodipodi:nodetypes="cc"
         inkscape:connector-curvature="0"
         id="path1237-3-4-8-2-9"
         d="m -41.032697,298.40786 -6.546195,-3.85379"
         style="fill:#b4b4b4;fill-opacity:0.98323405;stroke:#000000;stroke-width:0.30042729;stroke-linecap:butt;stroke-linejoin:miter;stroke-miterlimit:4;stroke-dasharray:none;stroke-opacity:1;fill-rule:evenodd" />
      <path
         sodipodi:nodetypes="cc"
         inkscape:connector-curvature="0"
         id="path1237-3-4-8-2-9-7"
         d="m -41.098153,300.05079 -2.033339,-1.31673"
         style="fill:#b4b4b4;fill-opacity:0.98323405;stroke:#000000;stroke-width:0.30042729;stroke-linecap:butt;stroke-linejoin:miter;stroke-miterlimit:4;stroke-dasharray:none;stroke-opacity:1;fill-rule:evenodd" />
      <path
         sodipodi:nodetypes="cc"
         inkscape:connector-curvature="0"
         id="path1237-3-4-8-2-9-8"
         d="m -43.464109,304.12644 -2.133828,-1.07846"
         style="fill:#b4b4b4;fill-opacity:0.98323405;stroke:#000000;stroke-width:0.30042729;stroke-linecap:butt;stroke-linejoin:miter;stroke-miterlimit:4;stroke-dasharray:none;stroke-opacity:1;fill-rule:evenodd" />
      <path
         inkscape:connector-curvature="0"
         id="path3821"
         d="m -52.180371,304.72775 0.09808,-3.09758"
         style="fill:#b4b4b4;fill-opacity:0.98323405;stroke:#000000;stroke-width:0.30785868;stroke-linecap:butt;stroke-linejoin:miter;stroke-miterlimit:4;stroke-dasharray:none;stroke-opacity:1;fill-rule:evenodd" />
      <path
         sodipodi:nodetypes="cc"
         inkscape:connector-curvature="0"
         id="path4147"
         d="m -51.194211,301.12924 -0.959532,0.61579"
         style="fill:#b4b4b4;fill-opacity:0.98323405;stroke:#000000;stroke-width:0.30042729;stroke-linecap:butt;stroke-linejoin:miter;stroke-miterlimit:4;stroke-dasharray:none;stroke-opacity:1;fill-rule:evenodd" />
      <path
         sodipodi:nodetypes="cc"
         inkscape:connector-curvature="0"
         id="path3821-3"
         d="m -52.142702,299.45385 0.08565,-3.20306"
         style="fill:#b4b4b4;fill-opacity:0.98323405;stroke:#000000;stroke-width:0.30785868;stroke-linecap:butt;stroke-linejoin:miter;stroke-miterlimit:4;stroke-dasharray:none;stroke-opacity:1;fill-rule:evenodd" />
      <path
         sodipodi:nodetypes="cc"
         inkscape:connector-curvature="0"
         id="path4147-0"
         d="m -49.447812,294.74988 -2.687468,1.62615"
         style="fill:#b4b4b4;fill-opacity:0.98323405;stroke:#000000;stroke-width:0.30042729;stroke-linecap:butt;stroke-linejoin:miter;stroke-miterlimit:4;stroke-dasharray:none;stroke-opacity:1;fill-rule:evenodd" />
      <path
         sodipodi:nodetypes="cc"
         inkscape:connector-curvature="0"
         id="path5430"
         d="m -47.517387,294.67256 0.0099,-1.18243"
         style="fill:#b4b4b4;fill-opacity:0.98323405;stroke:#000000;stroke-width:0.30042729;stroke-linecap:butt;stroke-linejoin:miter;stroke-miterlimit:4;stroke-dasharray:none;stroke-opacity:1;fill-rule:evenodd" />
      <path
         sodipodi:nodetypes="cc"
         inkscape:connector-curvature="0"
         id="path5432"
         d="m -47.587304,293.62307 2.752193,-1.45982"
         style="fill:#b4b4b4;fill-opacity:0.98323405;stroke:#000000;stroke-width:0.30042729;stroke-linecap:butt;stroke-linejoin:miter;stroke-miterlimit:4;stroke-dasharray:none;stroke-opacity:1;fill-rule:evenodd" />
      <path
         inkscape:connector-curvature="0"
         id="path5811"
         d="m -50.738412,301.50039 0.543636,-0.97772"
         style="fill:#b4b4b4;fill-opacity:0.98323405;stroke:#000000;stroke-width:0.30000001;stroke-linecap:butt;stroke-linejoin:miter;stroke-miterlimit:4;stroke-dasharray:none;stroke-opacity:1;fill-rule:evenodd" />
      <path
         inkscape:connector-curvature="0"
         id="path5822"
         d="m -47.53654,295.99168 0.611849,-1.04179"
         style="fill:#b4b4b4;fill-opacity:0.98323405;stroke:#000000;stroke-width:0.30000001;stroke-linecap:butt;stroke-linejoin:miter;stroke-miterlimit:4;stroke-dasharray:none;stroke-opacity:1;fill-rule:evenodd" />
      <path
         inkscape:connector-curvature="0"
         id="path5826"
         d="m -48.897177,306.35719 -3.075781,-1.81435 0.0242,-1.239 c 0.01331,-0.68144 0.03367,-1.24943 0.04525,-1.26219 0.02148,-0.0237 5.981813,3.46998 6.057661,3.5507 0.05561,0.0592 0.121084,2.59265 0.06681,2.58509 -0.0233,-0.003 -1.42646,-0.82236 -3.11814,-1.82025 z"
         style="fill:#b4b4b4;fill-opacity:0.98323405;stroke-width:0.075;stroke-linecap:round;stroke-linejoin:miter;stroke-miterlimit:4;stroke-dasharray:none;paint-order:markers fill stroke;fill-rule:evenodd" />
      <path
         inkscape:connector-curvature="0"
         id="path5846"
         d="m -48.698393,303.50315 c -1.689504,-0.99467 -3.07189,-1.81113 -3.07197,-1.81434 -7.9e-5,-0.003 0.113051,-0.0781 0.251401,-0.1665 l 0.251546,-0.16064 3.102971,1.82673 c 1.706634,1.0047 3.100909,1.83007 3.098391,1.83414 -0.0085,0.0138 -0.529783,0.29112 -0.545222,0.29011 -0.0084,-5.5e-4 -1.397613,-0.81482 -3.087117,-1.8095 z"
         style="fill:#b4b4b4;fill-opacity:0.98323405;stroke-width:0.01325825;stroke-linecap:round;stroke-linejoin:miter;stroke-miterlimit:4;stroke-dasharray:none;paint-order:markers fill stroke;fill-rule:evenodd" />
      <path
         inkscape:connector-curvature="0"
         id="path5848"
         d="m -44.730113,305.41229 0.0039,-0.56203 -2.896951,-1.70544 c -1.593324,-0.93799 -2.896952,-1.70807 -2.896952,-1.71129 0,-0.0154 0.389577,-0.70264 0.396021,-0.69867 0.0041,0.003 0.991095,0.58365 2.193403,1.29143 l 2.186013,1.28687 0.03567,-0.0211 c 0.01962,-0.0116 0.05408,-0.0315 0.07659,-0.0443 l 0.04093,-0.0232 0.950381,0.48039 c 0.699444,0.35354 0.949188,0.48501 0.945861,0.49792 -0.0041,0.016 -1.019919,1.75203 -1.033114,1.76565 -0.0031,0.003 -0.0039,-0.24706 -0.0017,-0.55617 z"
         style="fill:#b4b4b4;fill-opacity:0.98323405;stroke-width:0.01325825;stroke-linecap:round;stroke-linejoin:miter;stroke-miterlimit:4;stroke-dasharray:none;paint-order:markers fill stroke;fill-rule:evenodd" />
      <path
         inkscape:connector-curvature="0"
         id="path5850"
         d="m -45.41079,308.00732 c -2.91e-4,-0.0506 -0.0102,-0.61289 -0.02199,-1.24958 -0.0118,-0.63668 -0.01813,-1.16114 -0.01407,-1.16545 0.0093,-0.01 0.395799,-0.22017 0.404621,-0.22017 0.0036,0 0.0031,0.39332 -10e-4,0.87405 -0.0052,0.60634 -0.0038,0.87048 0.0047,0.86236 0.0067,-0.006 0.399411,-0.67145 0.87268,-1.47782 l 0.86049,-1.46612 -0.003,-1.14727 -0.003,-1.14726 -0.859438,-0.48253 -0.859439,-0.48254 -0.0071,0.65208 c -0.0039,0.35864 -0.0079,0.72934 -0.0088,0.82377 l -0.0017,0.17168 -0.19533,0.11143 c -0.107432,0.0613 -0.197226,0.10952 -0.199543,0.10721 -0.0023,-0.002 -4.23e-4,-0.57186 0.0042,-1.26564 l 0.0084,-1.26143 0.999847,-0.57849 c 0.549916,-0.31817 1.03056,-0.5959 1.068099,-0.61717 l 0.06825,-0.0387 v 0.24501 0.24502 l -0.68989,0.37086 c -0.379439,0.20397 -0.689889,0.37441 -0.689889,0.37875 0,0.004 0.384534,0.24349 0.854521,0.53146 l 0.854522,0.52358 0.990866,-0.56985 0.990866,-0.56984 0.825605,-1.48011 c 0.454082,-0.81406 0.821533,-1.48159 0.816556,-1.48341 -0.005,-0.002 -0.3374,0.18075 -0.738717,0.40571 l -0.729669,0.40902 -0.0071,-0.21862 c -0.0039,-0.12025 -0.0039,-0.22196 0,-0.22604 0.0039,-0.004 0.467561,-0.25868 1.030288,-0.56577 0.562728,-0.30709 1.045504,-0.57129 1.072837,-0.58711 l 0.04969,-0.0288 v 1.21621 1.21622 l -0.187276,0.10621 c -0.103001,0.0584 -0.190484,0.10621 -0.194406,0.10621 -0.0039,0 -0.0033,-0.38017 0.0013,-0.84482 0.0057,-0.57318 0.0046,-0.84107 -0.0034,-0.83313 -0.0065,0.006 -0.392493,0.66153 -0.857657,1.45578 l -0.845753,1.44409 -0.0073,0.45018 c -0.004,0.2476 -0.0079,0.77116 -0.0086,1.16346 l -0.0013,0.71328 0.866988,0.49695 c 0.476843,0.27333 0.872228,0.49899 0.878633,0.50147 0.0077,0.003 0.0093,-0.27888 0.0048,-0.83295 l -0.0068,-0.83747 0.185656,-0.10541 c 0.102111,-0.058 0.188537,-0.10542 0.192058,-0.10542 0.0089,0 0.008,1.27178 -0.0014,1.94789 l -0.0078,0.56027 -1.065801,0.60511 c -0.586191,0.33282 -1.069408,0.60512 -1.073816,0.60512 -0.0044,0 -0.008,-0.0991 -0.008,-0.2201 v -0.22006 l 0.683994,-0.41236 c 0.376198,-0.2268 0.686595,-0.41656 0.689771,-0.4217 0.0048,-0.008 -1.649862,-0.95096 -1.686808,-0.96156 -0.0065,-0.002 -0.445726,0.24129 -0.976058,0.54034 l -0.964239,0.54372 -0.839146,1.49435 c -0.46153,0.8219 -0.83643,1.49707 -0.833111,1.50039 0.0045,0.005 1.290071,-0.7476 1.443749,-0.84468 l 0.02631,-0.0166 v 0.24443 0.24442 l -1.049451,0.58805 c -0.577198,0.32343 -1.06129,0.59565 -1.07576,0.60494 l -0.02631,0.0169 z m 3.12365,-4.4716 c 0.189816,-0.0237 0.360384,-0.12037 0.574558,-0.3256 0.122788,-0.11766 0.150144,-0.14972 0.310396,-0.3637 0.09322,-0.12447 0.222199,-0.35747 0.277806,-0.50184 0.06741,-0.17501 0.08114,-0.27206 0.08039,-0.56807 -7.4e-4,-0.28726 -0.01254,-0.3636 -0.07691,-0.49696 -0.04369,-0.0905 -0.185548,-0.23729 -0.268579,-0.27786 -0.11624,-0.0568 -0.376203,-0.0554 -0.531047,0.003 -0.192263,0.0724 -0.560128,0.39045 -0.763048,0.65979 -0.170651,0.2265 -0.313829,0.60532 -0.3407,0.90141 -0.02067,0.22783 -0.01615,0.41685 0.01206,0.50379 0.08864,0.2732 0.326553,0.46164 0.602304,0.47706 0.01345,7.4e-4 0.0687,-0.004 0.122777,-0.0109 z"
         style="fill:#b4b4b4;fill-opacity:0.98323405;stroke-width:0.01325825;stroke-linecap:round;stroke-linejoin:miter;stroke-miterlimit:4;stroke-dasharray:none;paint-order:markers fill stroke;fill-rule:evenodd" />
      <path
         inkscape:connector-curvature="0"
         id="path5852"
         d="m -42.478052,303.22142 c -0.08919,-0.029 -0.191233,-0.12643 -0.22497,-0.21477 -0.01829,-0.0479 -0.02014,-0.0821 -0.01482,-0.2741 0.0069,-0.24765 0.02636,-0.3441 0.114505,-0.5663 0.06292,-0.15863 0.111445,-0.24412 0.20209,-0.35609 0.151421,-0.18704 0.456212,-0.45549 0.579336,-0.51026 0.05468,-0.0243 0.211387,-0.0406 0.263951,-0.0274 0.04132,0.0104 0.131474,0.0945 0.15893,0.14833 0.01205,0.0236 0.02736,0.0765 0.03401,0.11746 0.01724,0.10625 0.01446,0.43176 -0.0046,0.53864 -0.06356,0.35641 -0.517491,0.96335 -0.833868,1.11495 -0.06744,0.0323 -0.216664,0.0484 -0.274563,0.0295 z"
         style="fill:#b4b4b4;fill-opacity:0.98323405;stroke-width:0.01325825;stroke-linecap:round;stroke-linejoin:miter;stroke-miterlimit:4;stroke-dasharray:none;paint-order:markers fill stroke;fill-rule:evenodd" />
      <path
         inkscape:connector-curvature="0"
         id="path5854"
         d="m -44.34618,303.50556 c -0.389086,-0.19675 -0.756061,-0.38217 -0.815501,-0.41203 l -0.108072,-0.0543 0.265928,-0.15255 0.265928,-0.15254 0.0058,-0.65024 0.0058,-0.65024 0.552496,0.31008 0.552496,0.31009 v 0.90495 c 0,0.49772 -0.0039,0.90485 -0.0088,0.90473 -0.0048,-1.2e-4 -0.327113,-0.16119 -0.716199,-0.35794 z"
         style="fill:#b4b4b4;fill-opacity:0.98323405;stroke-width:0.01325825;stroke-linecap:round;stroke-linejoin:miter;stroke-miterlimit:4;stroke-dasharray:none;paint-order:markers fill stroke;fill-rule:evenodd" />
      <path
         inkscape:connector-curvature="0"
         id="path5856"
         d="m -43.508521,300.605 c -0.430725,-0.26399 -0.54388,-0.33823 -0.530368,-0.34794 0.0094,-0.007 0.251912,-0.13831 0.538811,-0.29227 l 0.521633,-0.27993 0.0031,-0.33095 0.0031,-0.33094 0.777588,0.50342 c 0.427673,0.27688 0.781159,0.50704 0.785526,0.51148 0.0057,0.006 -1.491269,0.87786 -1.544552,0.89973 -0.004,0.002 -0.253686,-0.14802 -0.554836,-0.3326 z"
         style="fill:#b4b4b4;fill-opacity:0.98323405;stroke-width:0.01325825;stroke-linecap:round;stroke-linejoin:miter;stroke-miterlimit:4;stroke-dasharray:none;paint-order:markers fill stroke;fill-rule:evenodd" />
      <path
         inkscape:connector-curvature="0"
         id="path5858"
         d="m -48.871387,301.11059 -3.104502,-1.82847 0.0028,-0.1209 c 0.01751,-0.74745 0.06533,-2.53056 0.06794,-2.53361 0.0019,-0.002 1.387618,0.81078 3.07944,1.80658 l 3.07604,1.81053 1.45e-4,1.34762 c 8.1e-5,0.74119 -0.0038,1.34742 -0.0086,1.34718 -0.0048,-2.5e-4 -1.405796,-0.82326 -3.113272,-1.82893 z"
         style="fill:#b4b4b4;fill-opacity:0.98323405;stroke-width:0.01325825;stroke-linecap:round;stroke-linejoin:miter;stroke-miterlimit:4;stroke-dasharray:none;paint-order:markers fill stroke;fill-rule:evenodd" />
      <path
         inkscape:connector-curvature="0"
         id="path5860"
         d="m -48.672605,298.16232 c -1.688183,-0.99404 -3.076025,-1.81112 -3.084094,-1.81571 -0.009,-0.005 0.249853,-0.16833 0.66609,-0.42004 l 0.680761,-0.41169 h 0.899363 0.899364 l 2.65757,1.56395 c 1.461663,0.86017 2.654113,1.56744 2.649888,1.57172 -0.01558,0.0158 -2.275951,1.31938 -2.287525,1.31926 -0.0066,-7e-5 -1.393234,-0.81344 -3.081417,-1.80749 z"
         style="fill:#b4b4b4;fill-opacity:0.98323405;stroke-width:0.01325825;stroke-linecap:round;stroke-linejoin:miter;stroke-miterlimit:4;stroke-dasharray:none;paint-order:markers fill stroke;fill-rule:evenodd" />
      <path
         inkscape:connector-curvature="0"
         id="path5871"
         d="m -42.071643,299.22648 -0.905209,-0.58659 v -0.0887 -0.0886 l -2.157366,-1.269 c -1.186551,-0.69795 -2.160083,-1.27108 -2.163403,-1.27362 -0.012,-0.009 0.417079,-0.7255 0.439086,-0.73303 0.01242,-0.004 1.31084,0.75065 2.885379,1.67756 l 2.862799,1.6853 0.460626,-0.25836 c 0.253344,-0.1421 0.46531,-0.25367 0.471034,-0.24795 0.01001,0.01 -0.935283,1.71671 -0.970506,1.75222 -0.0095,0.01 -0.424575,-0.2466 -0.92244,-0.56923 z"
         style="fill:#b4b4b4;fill-opacity:0.98323405;stroke-width:0.0265165;stroke-linecap:round;stroke-linejoin:miter;stroke-miterlimit:4;stroke-dasharray:none;paint-order:markers fill stroke;fill-rule:evenodd" />
      <path
         inkscape:connector-curvature="0"
         id="path5882"
         d="m -43.900519,306.40968 c 0,-0.003 0.0716,-0.13321 0.159107,-0.28902 0.15027,-0.26755 0.160029,-0.2827 0.1757,-0.27286 0.0091,0.006 0.08263,0.0491 0.163354,0.0965 0.08072,0.0473 0.146759,0.0881 0.146758,0.0905 -3e-6,0.005 -0.632635,0.38064 -0.640442,0.38064 -0.0025,0 -0.0045,-0.003 -0.0045,-0.006 z"
         style="fill:#b4b4b4;fill-opacity:0.98323405;stroke-width:0.009375;stroke-linecap:round;stroke-linejoin:miter;stroke-miterlimit:4;stroke-dasharray:none;paint-order:markers fill stroke;fill-rule:evenodd" />
      <path
         inkscape:connector-curvature="0"
         id="path5886"
         d="m -42.004551,305.08611 -0.869755,-0.50963 0.02226,-0.0398 c 0.02128,-0.0381 0.03132,-0.045 0.228278,-0.15625 0.197887,-0.11181 0.206908,-0.11596 0.228632,-0.10522 0.01244,0.006 0.30563,0.16745 0.651535,0.35845 l 0.62892,0.34727 2.65e-4,0.15783 c 3.44e-4,0.19074 -0.0087,0.45837 -0.0155,0.45758 -0.0027,-3.2e-4 -0.396285,-0.2299 -0.874651,-0.51019 z"
         style="fill:#b4b4b4;fill-opacity:0.98323405;stroke-width:0.009375;stroke-linecap:round;stroke-linejoin:miter;stroke-miterlimit:4;stroke-dasharray:none;paint-order:markers fill stroke;fill-rule:evenodd" />
      <path
         inkscape:connector-curvature="0"
         id="path5888"
         d="m -41.533228,304.39957 c -0.482382,-0.26665 -0.561843,-0.31315 -0.55027,-0.32203 0.0074,-0.006 0.225032,-0.12981 0.483541,-0.27579 0.279855,-0.15803 0.475723,-0.26384 0.484124,-0.26153 0.0266,0.007 1.072442,0.6019 1.072442,0.6097 0,0.007 -0.890598,0.54962 -0.915642,0.55788 -0.0057,0.002 -0.264107,-0.13682 -0.574195,-0.30823 z"
         style="fill:#b4b4b4;fill-opacity:0.98323405;stroke-width:0.009375;stroke-linecap:round;stroke-linejoin:miter;stroke-miterlimit:4;stroke-dasharray:none;paint-order:markers fill stroke;fill-rule:evenodd" />
      <path
         inkscape:connector-curvature="0"
         id="path5890"
         d="m -39.897427,302.72426 -0.565104,-0.32306 0.0057,-0.57464 c 0.0031,-0.31606 0.0069,-0.57587 0.0083,-0.57736 0.0026,-0.003 1.077366,0.63249 1.10621,0.65368 0.01332,0.01 0.01413,0.0485 0.01213,0.57746 l -0.0021,0.56697 z"
         style="fill:#b4b4b4;fill-opacity:0.98323405;stroke-width:0.009375;stroke-linecap:round;stroke-linejoin:miter;stroke-miterlimit:4;stroke-dasharray:none;paint-order:markers fill stroke;fill-rule:evenodd" />
      <path
         inkscape:connector-curvature="0"
         id="path5892"
         d="m -39.816014,301.26114 -0.63252,-0.37513 -0.0022,-0.25927 c -0.0021,-0.25553 -0.0019,-0.25978 0.01654,-0.29462 0.01182,-0.0223 0.02288,-0.0337 0.02999,-0.031 0.0102,0.004 1.695294,0.98776 1.746855,1.01991 l 0.0218,0.0136 -0.266678,0.15089 c -0.146673,0.083 -0.269963,0.15087 -0.273978,0.15083 -0.004,-3e-5 -0.291933,-0.16887 -0.639819,-0.37518 z"
         style="fill:#b4b4b4;fill-opacity:0.98323405;stroke-width:0.009375;stroke-linecap:round;stroke-linejoin:miter;stroke-miterlimit:4;stroke-dasharray:none;paint-order:markers fill stroke;fill-rule:evenodd" />
      <path
         inkscape:connector-curvature="0"
         id="path5905"
         d="m -44.078865,295.4681 c -1.704261,-1.00366 -3.106784,-1.83283 -3.116718,-1.84259 -0.01787,-0.0176 2.239664,-1.22769 2.285915,-1.22533 0.01721,8.7e-4 5.01609,2.93605 6.123483,3.5955 l 0.08928,0.0532 -1.128449,0.61695 c -0.620646,0.33932 -1.134389,0.61924 -1.14165,0.62204 -0.0073,0.003 -1.407597,-0.81608 -3.111858,-1.81974 z"
         style="fill:#b4b4b4;fill-opacity:0.98323405;stroke-width:0.0265165;stroke-linecap:round;stroke-linejoin:miter;stroke-miterlimit:4;stroke-dasharray:none;paint-order:markers fill stroke;fill-rule:evenodd" />
      <path
         inkscape:connector-curvature="0"
         id="path5907"
         d="m -44.248244,296.32709 -3.104332,-1.82728 -1.7e-4,-0.28648 c -9.4e-5,-0.15757 0.0042,-0.28648 0.0096,-0.28648 0.01378,0 6.171858,3.62511 6.194143,3.64634 0.01006,0.01 0.01532,0.14427 0.01169,0.2993 l -0.0066,0.28188 z"
         style="fill:#b4b4b4;fill-opacity:0.98323405;stroke-width:0.0265165;stroke-linecap:round;stroke-linejoin:miter;stroke-miterlimit:4;stroke-dasharray:none;paint-order:markers fill stroke;fill-rule:evenodd" />
      <path
         inkscape:connector-curvature="0"
         id="path5909"
         d="m -50.356859,295.49606 c 0.01222,-0.0116 0.20494,-0.13133 0.428269,-0.26612 l 0.406051,-0.24509 0.435848,0.25652 c 0.239716,0.14109 0.440232,0.26084 0.445591,0.26613 0.0054,0.005 -0.383493,0.01 -0.864116,0.01 -0.518539,0 -0.864826,-0.009 -0.851643,-0.021 z"
         style="fill:#b4b4b4;fill-opacity:0.98323405;stroke-width:0.0265165;stroke-linecap:round;stroke-linejoin:miter;stroke-miterlimit:4;stroke-dasharray:none;paint-order:markers fill stroke;fill-rule:evenodd" />
      <path
         inkscape:connector-curvature="0"
         id="path5929"
         d="m -39.507163,299.10222 c -0.07878,-0.0511 -0.143239,-0.0958 -0.143239,-0.0994 0,-0.004 0.06446,-0.11644 0.143239,-0.25082 l 0.14324,-0.24433 0.0032,0.17543 c 0.0018,0.0965 0.0018,0.25115 0,0.3437 l -0.0032,0.16827 z"
         style="fill:#b4b4b4;fill-opacity:0.98323405;stroke-width:0.01325825;stroke-linecap:round;stroke-linejoin:miter;stroke-miterlimit:4;stroke-dasharray:none;paint-order:markers fill stroke;fill-rule:evenodd" />
      <path
         inkscape:connector-curvature="0"
         id="path5949"
         d="m -42.065721,299.24407 -0.913639,-0.59174 -1.44e-4,-0.0274 -1.44e-4,-0.0275 0.0012,0.0215 0.0012,0.0215 0.438216,0.28399 c 0.60103,0.3895 0.700594,0.45362 0.890902,0.57381 0.279966,0.17681 0.48369,0.29905 0.498378,0.29905 0.0096,0 0.459375,-0.80117 0.768566,-1.36891 0.02218,-0.0407 0.02225,-0.0408 0.02928,-0.0408 0.0039,0 0.0071,4.7e-4 0.0071,0.001 0,10e-4 -0.798528,1.43359 -0.803805,1.44183 l -0.0034,0.005 z"
         style="fill:#b4b4b4;fill-opacity:0.98323405;stroke-width:0.00234375;stroke-linecap:round;stroke-linejoin:miter;stroke-miterlimit:4;stroke-dasharray:none;paint-order:markers fill stroke;fill-rule:evenodd" />
      <path
         inkscape:connector-curvature="0"
         id="path6473"
         d="m -41.685818,297.8482 -0.565497,-0.3329 0.0096,-4.3e-4 0.0096,-4.2e-4 0.202166,0.11899 c 0.111191,0.0654 0.355999,0.20954 0.544016,0.32021 0.188018,0.11067 0.342013,0.20104 0.342211,0.20081 7.94e-4,-9.3e-4 0.0068,-0.27319 0.0076,-0.34317 0.0013,-0.12385 -0.0038,-0.22688 -0.01181,-0.23742 -8.99e-4,-10e-4 -0.02299,-0.015 -0.04908,-0.0307 l -0.04744,-0.0286 h 0.01339 0.01339 l 0.04355,0.0257 c 0.02395,0.0141 0.044,0.0261 0.04455,0.0267 0.0011,10e-4 0.01032,0.56697 0.0097,0.59553 l -4.23e-4,0.0186 z"
         style="fill:#b4b4b4;fill-opacity:0.98323405;stroke-width:0.00165728;stroke-linecap:round;stroke-linejoin:miter;stroke-miterlimit:4;stroke-dasharray:none;paint-order:markers fill stroke;fill-rule:evenodd" />
      <path
         transform="matrix(0.26458333,0,0,0.26458333,0,280.06665)"
         inkscape:connector-curvature="0"
         id="path6475"
         d=""
         style="fill:#ffff00;fill-opacity:1;stroke-width:0.00626374;stroke-linecap:round;stroke-linejoin:miter;stroke-miterlimit:4;stroke-dasharray:none;paint-order:markers fill stroke;fill-rule:evenodd" />
      <path
         inkscape:connector-curvature="0"
         id="path6477"
         d="m -41.939946,298.06079 -0.829813,-0.48849 -6e-6,-0.005 c -4e-6,-0.003 3.7e-4,-0.005 7.93e-4,-0.005 0.0014,0 1.652944,0.97234 1.654484,0.97407 0.0019,0.002 0.0064,0.002 0.0077,-10e-5 0.0013,-0.002 0.988326,-0.55503 0.989175,-0.55418 3.44e-4,3.5e-4 -0.05035,0.092 -0.112629,0.20363 l -0.113235,0.20302 -0.0059,-4.2e-4 c -0.0034,-2.5e-4 -0.007,3.9e-4 -0.0083,0.002 -0.0021,0.002 -0.0022,0.002 -0.0014,-7.4e-4 5.56e-4,-0.001 0.0095,-0.0182 0.01983,-0.0373 0.09275,-0.17043 0.160955,-0.30035 0.160955,-0.30658 0,-0.003 -1.01e-4,-0.003 -0.01144,0.002 -0.04044,0.0161 -0.200484,0.1005 -0.38685,0.20406 -0.05132,0.0285 -0.516005,0.28894 -0.52767,0.29572 l -0.0059,0.003 z"
         style="fill:#b4b4b4;fill-opacity:0.98323405;stroke-width:0.00165728;stroke-linecap:round;stroke-linejoin:miter;stroke-miterlimit:4;stroke-dasharray:none;paint-order:markers fill stroke;fill-rule:evenodd" />
      <path
         transform="matrix(0.26458333,0,0,0.26458333,0,280.06665)"
         inkscape:connector-curvature="0"
         id="path6708"
         d=""
         style="fill:#ffff00;fill-opacity:1;stroke-width:0.00626374;stroke-linecap:round;stroke-linejoin:miter;stroke-miterlimit:4;stroke-dasharray:none;paint-order:markers fill stroke;fill-rule:evenodd" />
      <path
         inkscape:connector-curvature="0"
         id="path6710"
         d="m -41.317107,297.47152 c -0.175027,-0.10409 -0.625362,-0.37044 -1.025347,-0.60644 l -0.125036,-0.0738 0.0099,-4.2e-4 0.0099,-4.3e-4 0.609909,0.35903 c 0.33545,0.19746 0.611882,0.36027 0.614294,0.36179 l 0.0044,0.003 -0.01321,2e-5 -0.01321,3e-5 -0.07157,-0.0426 z"
         style="fill:#b4b4b4;fill-opacity:0.98323405;stroke-width:0.00165728;stroke-linecap:round;stroke-linejoin:miter;stroke-miterlimit:4;stroke-dasharray:none;paint-order:markers fill stroke;fill-rule:evenodd" />
    </g>
    <text
       xml:space="preserve"
       style="font-style:normal;font-weight:normal;font-size:4.99785328px;line-height:1.25;font-family:sans-serif;letter-spacing:0px;word-spacing:0px;fill:#afafaf;fill-opacity:1;stroke:#000000;stroke-width:0.18;stroke-miterlimit:4;stroke-dasharray:none;stroke-opacity:1"
       x="8.3983393"
       y="280.35065"
       id="text4927"
       transform="scale(0.95400139,1.0482165)"><tspan
         sodipodi:role="line"
         id="tspan4925"
         x="8.3983393"
         y="280.35065"
         style="font-style:normal;font-variant:normal;font-weight:normal;font-stretch:normal;font-family:'OCR A Std';-inkscape-font-specification:'OCR A Std';fill:#afafaf;fill-opacity:1;stroke:#000000;stroke-width:0.18;stroke-miterlimit:4;stroke-dasharray:none;stroke-opacity:1"> echatronic</tspan></text>
    <g
       transform="matrix(-0.45051575,0,0,0.49500776,34.177565,72.262977)"
       id="layer1-6-1"
       inkscape:label="Capa 1"
       style="fill-rule:evenodd">
      <path
         inkscape:connector-curvature="0"
         id="path1168-4"
         d="m -34.916569,445.01433 0.0502,2.85922 2.460133,-1.37944 v -0.85275 l -1.230068,0.72734 1.386965,-2.47047 1.819996,-1.02832 1.399515,0.79004 -1.236342,0.74617 -0.0063,0.80883 2.472686,-1.40451 0.01261,-2.87179 -0.696619,0.39503 0.0063,1.49863 -1.443445,-0.82771 0.01261,-2.17579 1.405788,-2.40148 -0.01261,1.39827 0.696621,-0.39504 v -2.78401 l -2.46641,1.3481 0.01261,0.80263 1.242619,-0.696 -1.374412,2.4642 -1.863929,1.07221 -1.412065,-0.86528 1.236342,-0.66466 0.0063,-0.859 -2.460134,1.4233 -0.0063,2.89062 0.709174,-0.40757 0.0063,-1.4735 1.418342,0.79631 v 2.16322 l -1.424618,2.42661 0.0063,-1.44843 z"
         style="fill:#b4b4b4;fill-opacity:1;stroke:#000000;stroke-width:0.30042729;stroke-linecap:butt;stroke-linejoin:miter;stroke-miterlimit:4;stroke-dasharray:none;stroke-opacity:1;fill-rule:evenodd" />
      <path
         inkscape:connector-curvature="0"
         id="path1179-4"
         d="m -32.332016,445.50039 -0.565595,-0.33177"
         style="fill:#b4b4b4;fill-opacity:1;stroke:#000000;stroke-width:0.30042729;stroke-linecap:butt;stroke-linejoin:miter;stroke-miterlimit:4;stroke-dasharray:none;stroke-opacity:1;fill-rule:evenodd" />
      <path
         sodipodi:nodetypes="cc"
         inkscape:connector-curvature="0"
         id="path1235-8"
         d="m -30.348457,445.34181 -2.00195,-1.17126"
         style="fill:#b4b4b4;fill-opacity:1;stroke:#000000;stroke-width:0.30042729;stroke-linecap:butt;stroke-linejoin:miter;stroke-miterlimit:4;stroke-dasharray:none;stroke-opacity:1;fill-rule:evenodd" />
      <path
         inkscape:connector-curvature="0"
         id="path1237-0"
         d="m -30.266177,444.40612 -1.402012,-0.77502"
         style="fill:#b4b4b4;fill-opacity:1;stroke:#000000;stroke-width:0.30042729;stroke-linecap:butt;stroke-linejoin:miter;stroke-miterlimit:4;stroke-dasharray:none;stroke-opacity:1;fill-rule:evenodd" />
      <path
         sodipodi:nodetypes="cc"
         inkscape:connector-curvature="0"
         id="path1235-1-5"
         d="m -27.70952,440.80524 -2.001949,-1.17127"
         style="fill:#b4b4b4;fill-opacity:1;stroke:#000000;stroke-width:0.30042729;stroke-linecap:butt;stroke-linejoin:miter;stroke-miterlimit:4;stroke-dasharray:none;stroke-opacity:1;fill-rule:evenodd" />
      <path
         sodipodi:nodetypes="cc"
         inkscape:connector-curvature="0"
         id="path1235-1-7-6"
         d="m -28.483799,441.33368 -1.457206,-0.86405"
         style="fill:#b4b4b4;fill-opacity:1;stroke:#000000;stroke-width:0.30042729;stroke-linecap:butt;stroke-linejoin:miter;stroke-miterlimit:4;stroke-dasharray:none;stroke-opacity:1;fill-rule:evenodd" />
      <path
         sodipodi:nodetypes="cc"
         inkscape:connector-curvature="0"
         id="path1235-1-8-0"
         d="m -28.584902,438.94933 -0.542375,-0.34823"
         style="fill:#b4b4b4;fill-opacity:1;stroke:#000000;stroke-width:0.30042729;stroke-linecap:butt;stroke-linejoin:miter;stroke-miterlimit:4;stroke-dasharray:none;stroke-opacity:1;fill-rule:evenodd" />
      <path
         sodipodi:nodetypes="ccccccccccccccccccccccccccccccccccccccccccccccccccccccccccc"
         inkscape:connector-curvature="0"
         id="path2406-2"
         d="m -30.989964,442.47597 -0.07145,0.0774 -0.118033,0.11143 -0.09008,0.0774 -0.139794,0.0931 -0.118033,0.0495 -0.170839,0.0211 -0.08077,-0.009 -0.111836,-0.0309 -0.118034,-0.0774 -0.04037,-0.0465 -0.05596,-0.0634 v 0 l -0.0525,-0.10224 c -0.01351,-0.0307 -0.01471,-0.061 -0.02825,-0.0916 v -0.13326 l 0.0063,-0.2391 0.02164,-0.17049 0.0559,-0.19557 0.08077,-0.20769 0.06522,-0.13356 0.06213,-0.0962 0.07767,-0.0995 0.06834,-0.0807 0.08388,-0.0867 0.09939,-0.0962 0.108713,-0.0931 0.118033,-0.0931 0.118034,-0.0774 0.09008,-0.034 0.102516,-0.0181 0.105623,-0.003 0.08077,0.003 0.06213,0.0181 0.04972,0.0309 0.03726,0.0307 0.04972,0.0465 0.02796,0.0307 0.03726,0.053 0.02795,0.056 0.01864,0.056 0.01563,0.0714 0.0063,0.0682 0.0063,0.0774 0.003,0.0807 v 0.056 0.0995 l -0.0063,0.0867 -0.0093,0.0807 -0.01864,0.11173 -0.03105,0.0932 -0.0404,0.0995 -0.0528,0.10556 -0.05281,0.0962 -0.05903,0.10254 -0.05281,0.0717 -0.04972,0.0679 -0.06213,0.0774 z"
         style="fill:#b4b4b4;fill-opacity:1;stroke:#000000;stroke-width:0.30042729;stroke-linecap:butt;stroke-linejoin:miter;stroke-miterlimit:4;stroke-dasharray:none;stroke-opacity:1;fill-rule:evenodd" />
      <path
         sodipodi:nodetypes="cc"
         inkscape:connector-curvature="0"
         id="path1237-3-5"
         d="m -34.93858,447.99641 -6.622336,-3.88845"
         style="fill:#b4b4b4;fill-opacity:1;stroke:#000000;stroke-width:0.30352512;stroke-linecap:butt;stroke-linejoin:miter;stroke-miterlimit:4;stroke-dasharray:none;stroke-opacity:1;fill-rule:evenodd" />
      <path
         sodipodi:nodetypes="cc"
         inkscape:connector-curvature="0"
         id="path1237-3-0-3"
         d="m -34.916569,445.01433 -6.546189,-3.85378"
         style="fill:#b4b4b4;fill-opacity:1;stroke:#000000;stroke-width:0.30042729;stroke-linecap:butt;stroke-linejoin:miter;stroke-miterlimit:4;stroke-dasharray:none;stroke-opacity:1;fill-rule:evenodd" />
      <path
         sodipodi:nodetypes="cc"
         inkscape:connector-curvature="0"
         id="path1237-3-4-87"
         d="M -34.109291,444.50082 -40.655483,440.647"
         style="fill:#b4b4b4;fill-opacity:1;stroke:#000000;stroke-width:0.30042729;stroke-linecap:butt;stroke-linejoin:miter;stroke-miterlimit:4;stroke-dasharray:none;stroke-opacity:1;fill-rule:evenodd" />
      <path
         sodipodi:nodetypes="cc"
         inkscape:connector-curvature="0"
         id="path1237-3-4-6-6"
         d="m -34.972229,442.693 -6.546192,-3.85379"
         style="fill:#b4b4b4;fill-opacity:1;stroke:#000000;stroke-width:0.30042729;stroke-linecap:butt;stroke-linejoin:miter;stroke-miterlimit:4;stroke-dasharray:none;stroke-opacity:1;fill-rule:evenodd" />
      <path
         sodipodi:nodetypes="cc"
         inkscape:connector-curvature="0"
         id="path1237-3-4-1-0"
         d="m -34.897576,439.67205 -6.546193,-3.85381"
         style="fill:#b4b4b4;fill-opacity:1;stroke:#000000;stroke-width:0.30042729;stroke-linecap:butt;stroke-linejoin:miter;stroke-miterlimit:4;stroke-dasharray:none;stroke-opacity:1;fill-rule:evenodd" />
      <path
         sodipodi:nodetypes="cc"
         inkscape:connector-curvature="0"
         id="path1237-3-4-8-4"
         d="m -32.362889,438.11835 -6.546191,-3.85378"
         style="fill:#b4b4b4;fill-opacity:1;stroke:#000000;stroke-width:0.30042729;stroke-linecap:butt;stroke-linejoin:miter;stroke-miterlimit:4;stroke-dasharray:none;stroke-opacity:1;fill-rule:evenodd" />
      <path
         sodipodi:nodetypes="cc"
         inkscape:connector-curvature="0"
         id="path1237-3-4-8-6-1"
         d="m -30.284935,436.99465 -6.546191,-3.85378"
         style="fill:#b4b4b4;fill-opacity:1;stroke:#000000;stroke-width:0.30042729;stroke-linecap:butt;stroke-linejoin:miter;stroke-miterlimit:4;stroke-dasharray:none;stroke-opacity:1;fill-rule:evenodd" />
      <path
         sodipodi:nodetypes="cc"
         inkscape:connector-curvature="0"
         id="path1237-3-4-8-2-7"
         d="m -27.747079,435.52553 -6.546195,-3.85381"
         style="fill:#b4b4b4;fill-opacity:1;stroke:#000000;stroke-width:0.30042729;stroke-linecap:butt;stroke-linejoin:miter;stroke-miterlimit:4;stroke-dasharray:none;stroke-opacity:1;fill-rule:evenodd" />
      <path
         sodipodi:nodetypes="cc"
         inkscape:connector-curvature="0"
         id="path1237-3-4-8-2-9-5"
         d="m -30.338648,437.92255 -6.546195,-3.85379"
         style="fill:#b4b4b4;fill-opacity:1;stroke:#000000;stroke-width:0.30042729;stroke-linecap:butt;stroke-linejoin:miter;stroke-miterlimit:4;stroke-dasharray:none;stroke-opacity:1;fill-rule:evenodd" />
      <path
         sodipodi:nodetypes="cc"
         inkscape:connector-curvature="0"
         id="path1237-3-4-8-2-9-7-4"
         d="m -30.404104,439.56548 -2.033339,-1.31673"
         style="fill:#b4b4b4;fill-opacity:1;stroke:#000000;stroke-width:0.30042729;stroke-linecap:butt;stroke-linejoin:miter;stroke-miterlimit:4;stroke-dasharray:none;stroke-opacity:1;fill-rule:evenodd" />
      <path
         sodipodi:nodetypes="cc"
         inkscape:connector-curvature="0"
         id="path1237-3-4-8-2-9-8-2"
         d="m -32.77006,443.64113 -2.133828,-1.07846"
         style="fill:#b4b4b4;fill-opacity:1;stroke:#000000;stroke-width:0.30042729;stroke-linecap:butt;stroke-linejoin:miter;stroke-miterlimit:4;stroke-dasharray:none;stroke-opacity:1;fill-rule:evenodd" />
      <path
         inkscape:connector-curvature="0"
         id="path3821-0"
         d="m -41.486322,444.24244 0.09808,-3.09758"
         style="fill:#b4b4b4;fill-opacity:1;stroke:#000000;stroke-width:0.30785868;stroke-linecap:butt;stroke-linejoin:miter;stroke-miterlimit:4;stroke-dasharray:none;stroke-opacity:1;fill-rule:evenodd" />
      <path
         sodipodi:nodetypes="cc"
         inkscape:connector-curvature="0"
         id="path4147-1"
         d="m -40.500162,440.64393 -0.959532,0.61579"
         style="fill:#b4b4b4;fill-opacity:1;stroke:#000000;stroke-width:0.30042729;stroke-linecap:butt;stroke-linejoin:miter;stroke-miterlimit:4;stroke-dasharray:none;stroke-opacity:1;fill-rule:evenodd" />
      <path
         sodipodi:nodetypes="cc"
         inkscape:connector-curvature="0"
         id="path3821-3-5"
         d="m -41.448653,438.96854 0.08565,-3.20306"
         style="fill:#b4b4b4;fill-opacity:1;stroke:#000000;stroke-width:0.30785868;stroke-linecap:butt;stroke-linejoin:miter;stroke-miterlimit:4;stroke-dasharray:none;stroke-opacity:1;fill-rule:evenodd" />
      <path
         sodipodi:nodetypes="cc"
         inkscape:connector-curvature="0"
         id="path4147-0-9"
         d="m -38.753763,434.26457 -2.687468,1.62615"
         style="fill:#b4b4b4;fill-opacity:1;stroke:#000000;stroke-width:0.30042729;stroke-linecap:butt;stroke-linejoin:miter;stroke-miterlimit:4;stroke-dasharray:none;stroke-opacity:1;fill-rule:evenodd" />
      <path
         sodipodi:nodetypes="cc"
         inkscape:connector-curvature="0"
         id="path5430-5"
         d="m -36.823338,434.18725 0.0099,-1.18243"
         style="fill:#b4b4b4;fill-opacity:1;stroke:#000000;stroke-width:0.30042729;stroke-linecap:butt;stroke-linejoin:miter;stroke-miterlimit:4;stroke-dasharray:none;stroke-opacity:1;fill-rule:evenodd" />
      <path
         sodipodi:nodetypes="cc"
         inkscape:connector-curvature="0"
         id="path5432-3"
         d="m -36.893255,433.13776 2.752193,-1.45982"
         style="fill:#b4b4b4;fill-opacity:1;stroke:#000000;stroke-width:0.30042729;stroke-linecap:butt;stroke-linejoin:miter;stroke-miterlimit:4;stroke-dasharray:none;stroke-opacity:1;fill-rule:evenodd" />
      <path
         inkscape:connector-curvature="0"
         id="path5811-0"
         d="m -40.044363,441.01508 0.543636,-0.97772"
         style="fill:#b4b4b4;fill-opacity:1;stroke:#000000;stroke-width:0.30000001;stroke-linecap:butt;stroke-linejoin:miter;stroke-miterlimit:4;stroke-dasharray:none;stroke-opacity:1;fill-rule:evenodd" />
      <path
         inkscape:connector-curvature="0"
         id="path5822-7"
         d="m -36.842491,435.50637 0.611849,-1.04179"
         style="fill:#b4b4b4;fill-opacity:1;stroke:#000000;stroke-width:0.30000001;stroke-linecap:butt;stroke-linejoin:miter;stroke-miterlimit:4;stroke-dasharray:none;stroke-opacity:1;fill-rule:evenodd" />
      <path
         inkscape:connector-curvature="0"
         id="path5826-7"
         d="m -38.203128,445.87188 -3.075781,-1.81435 0.0242,-1.239 c 0.01331,-0.68144 0.03367,-1.24943 0.04525,-1.26219 0.02148,-0.0237 5.981813,3.46998 6.057661,3.5507 0.05561,0.0592 0.121084,2.59265 0.06681,2.58509 -0.0233,-0.003 -1.42646,-0.82236 -3.11814,-1.82025 z"
         style="fill:#b4b4b4;fill-opacity:1;stroke-width:0.075;stroke-linecap:round;stroke-linejoin:miter;stroke-miterlimit:4;stroke-dasharray:none;paint-order:markers fill stroke;fill-rule:evenodd" />
      <path
         inkscape:connector-curvature="0"
         id="path5846-9"
         d="m -38.004344,443.01784 c -1.689504,-0.99467 -3.07189,-1.81113 -3.07197,-1.81434 -7.9e-5,-0.003 0.113051,-0.0781 0.251401,-0.1665 l 0.251546,-0.16064 3.102971,1.82673 c 1.706634,1.0047 3.100909,1.83007 3.098391,1.83414 -0.0085,0.0138 -0.529783,0.29112 -0.545222,0.29011 -0.0084,-5.5e-4 -1.397613,-0.81482 -3.087117,-1.8095 z"
         style="fill:#b4b4b4;fill-opacity:1;stroke-width:0.01325825;stroke-linecap:round;stroke-linejoin:miter;stroke-miterlimit:4;stroke-dasharray:none;paint-order:markers fill stroke;fill-rule:evenodd" />
      <path
         inkscape:connector-curvature="0"
         id="path5848-6"
         d="m -34.036064,444.92698 0.0039,-0.56203 -2.896951,-1.70544 c -1.593324,-0.93799 -2.896952,-1.70807 -2.896952,-1.71129 0,-0.0154 0.389577,-0.70264 0.396021,-0.69867 0.0041,0.003 0.991095,0.58365 2.193403,1.29143 l 2.186013,1.28687 0.03567,-0.0211 c 0.01962,-0.0116 0.05408,-0.0315 0.07659,-0.0443 l 0.04093,-0.0232 0.950381,0.48039 c 0.699444,0.35354 0.949188,0.48501 0.945861,0.49792 -0.0041,0.016 -1.019919,1.75203 -1.033114,1.76565 -0.0031,0.003 -0.0039,-0.24706 -0.0017,-0.55617 z"
         style="fill:#b4b4b4;fill-opacity:1;stroke-width:0.01325825;stroke-linecap:round;stroke-linejoin:miter;stroke-miterlimit:4;stroke-dasharray:none;paint-order:markers fill stroke;fill-rule:evenodd" />
      <path
         inkscape:connector-curvature="0"
         id="path5850-7"
         d="m -34.716741,447.52201 c -2.91e-4,-0.0506 -0.0102,-0.61289 -0.02199,-1.24958 -0.0118,-0.63668 -0.01813,-1.16114 -0.01407,-1.16545 0.0093,-0.01 0.395799,-0.22017 0.404621,-0.22017 0.0036,0 0.0031,0.39332 -10e-4,0.87405 -0.0052,0.60634 -0.0038,0.87048 0.0047,0.86236 0.0067,-0.006 0.399411,-0.67145 0.87268,-1.47782 l 0.86049,-1.46612 -0.003,-1.14727 -0.003,-1.14726 -0.859438,-0.48253 -0.859439,-0.48254 -0.0071,0.65208 c -0.0039,0.35864 -0.0079,0.72934 -0.0088,0.82377 l -0.0017,0.17168 -0.19533,0.11143 c -0.107432,0.0613 -0.197226,0.10952 -0.199543,0.10721 -0.0023,-0.002 -4.23e-4,-0.57186 0.0042,-1.26564 l 0.0084,-1.26143 0.999847,-0.57849 c 0.549916,-0.31817 1.03056,-0.5959 1.068099,-0.61717 l 0.06825,-0.0387 v 0.24501 0.24502 l -0.68989,0.37086 c -0.379439,0.20397 -0.689889,0.37441 -0.689889,0.37875 0,0.004 0.384534,0.24349 0.854521,0.53146 l 0.854522,0.52358 0.990866,-0.56985 0.990866,-0.56984 0.825605,-1.48011 c 0.454082,-0.81406 0.821533,-1.48159 0.816556,-1.48341 -0.005,-0.002 -0.3374,0.18075 -0.738717,0.40571 l -0.729669,0.40902 -0.0071,-0.21862 c -0.0039,-0.12025 -0.0039,-0.22196 0,-0.22604 0.0039,-0.004 0.467561,-0.25868 1.030288,-0.56577 0.562728,-0.30709 1.045504,-0.57129 1.072837,-0.58711 l 0.04969,-0.0288 v 1.21621 1.21622 l -0.187276,0.10621 c -0.103001,0.0584 -0.190484,0.10621 -0.194406,0.10621 -0.0039,0 -0.0033,-0.38017 0.0013,-0.84482 0.0057,-0.57318 0.0046,-0.84107 -0.0034,-0.83313 -0.0065,0.006 -0.392493,0.66153 -0.857657,1.45578 l -0.845753,1.44409 -0.0073,0.45018 c -0.004,0.2476 -0.0079,0.77116 -0.0086,1.16346 l -0.0013,0.71328 0.866988,0.49695 c 0.476843,0.27333 0.872228,0.49899 0.878633,0.50147 0.0077,0.003 0.0093,-0.27888 0.0048,-0.83295 l -0.0068,-0.83747 0.185656,-0.10541 c 0.102111,-0.058 0.188537,-0.10542 0.192058,-0.10542 0.0089,0 0.008,1.27178 -0.0014,1.94789 l -0.0078,0.56027 -1.065801,0.60511 c -0.586191,0.33282 -1.069408,0.60512 -1.073816,0.60512 -0.0044,0 -0.008,-0.0991 -0.008,-0.2201 v -0.22006 l 0.683994,-0.41236 c 0.376198,-0.2268 0.686595,-0.41656 0.689771,-0.4217 0.0048,-0.008 -1.649862,-0.95096 -1.686808,-0.96156 -0.0065,-0.002 -0.445726,0.24129 -0.976058,0.54034 l -0.964239,0.54372 -0.839146,1.49435 c -0.46153,0.8219 -0.83643,1.49707 -0.833111,1.50039 0.0045,0.005 1.290071,-0.7476 1.443749,-0.84468 l 0.02631,-0.0166 v 0.24443 0.24442 l -1.049451,0.58805 c -0.577198,0.32343 -1.06129,0.59565 -1.07576,0.60494 l -0.02631,0.0169 z m 3.12365,-4.4716 c 0.189816,-0.0237 0.360384,-0.12037 0.574558,-0.3256 0.122788,-0.11766 0.150144,-0.14972 0.310396,-0.3637 0.09322,-0.12447 0.222199,-0.35747 0.277806,-0.50184 0.06741,-0.17501 0.08114,-0.27206 0.08039,-0.56807 -7.4e-4,-0.28726 -0.01254,-0.3636 -0.07691,-0.49696 -0.04369,-0.0905 -0.185548,-0.23729 -0.268579,-0.27786 -0.11624,-0.0568 -0.376203,-0.0554 -0.531047,0.003 -0.192263,0.0724 -0.560128,0.39045 -0.763048,0.65979 -0.170651,0.2265 -0.313829,0.60532 -0.3407,0.90141 -0.02067,0.22783 -0.01615,0.41685 0.01206,0.50379 0.08864,0.2732 0.326553,0.46164 0.602304,0.47706 0.01345,7.4e-4 0.0687,-0.004 0.122777,-0.0109 z"
         style="fill:#b4b4b4;fill-opacity:1;stroke-width:0.01325825;stroke-linecap:round;stroke-linejoin:miter;stroke-miterlimit:4;stroke-dasharray:none;paint-order:markers fill stroke;fill-rule:evenodd" />
      <path
         inkscape:connector-curvature="0"
         id="path5852-6"
         d="m -31.784003,442.73611 c -0.08919,-0.029 -0.191233,-0.12643 -0.22497,-0.21477 -0.01829,-0.0479 -0.02014,-0.0821 -0.01482,-0.2741 0.0069,-0.24765 0.02636,-0.3441 0.114505,-0.5663 0.06292,-0.15863 0.111445,-0.24412 0.20209,-0.35609 0.151421,-0.18704 0.456212,-0.45549 0.579336,-0.51026 0.05468,-0.0243 0.211387,-0.0406 0.263951,-0.0274 0.04132,0.0104 0.131474,0.0945 0.15893,0.14833 0.01205,0.0236 0.02736,0.0765 0.03401,0.11746 0.01724,0.10625 0.01446,0.43176 -0.0046,0.53864 -0.06356,0.35641 -0.517491,0.96335 -0.833868,1.11495 -0.06744,0.0323 -0.216664,0.0484 -0.274563,0.0295 z"
         style="fill:#b4b4b4;fill-opacity:1;stroke-width:0.01325825;stroke-linecap:round;stroke-linejoin:miter;stroke-miterlimit:4;stroke-dasharray:none;paint-order:markers fill stroke;fill-rule:evenodd" />
      <path
         inkscape:connector-curvature="0"
         id="path5854-9"
         d="m -33.652131,443.02025 c -0.389086,-0.19675 -0.756061,-0.38217 -0.815501,-0.41203 l -0.108072,-0.0543 0.265928,-0.15255 0.265928,-0.15254 0.0058,-0.65024 0.0058,-0.65024 0.552496,0.31008 0.552496,0.31009 v 0.90495 c 0,0.49772 -0.0039,0.90485 -0.0088,0.90473 -0.0048,-1.2e-4 -0.327113,-0.16119 -0.716199,-0.35794 z"
         style="fill:#b4b4b4;fill-opacity:1;stroke-width:0.01325825;stroke-linecap:round;stroke-linejoin:miter;stroke-miterlimit:4;stroke-dasharray:none;paint-order:markers fill stroke;fill-rule:evenodd" />
      <path
         inkscape:connector-curvature="0"
         id="path5856-4"
         d="m -32.814472,440.11969 c -0.430725,-0.26399 -0.54388,-0.33823 -0.530368,-0.34794 0.0094,-0.007 0.251912,-0.13831 0.538811,-0.29227 l 0.521633,-0.27993 0.0031,-0.33095 0.0031,-0.33094 0.777588,0.50342 c 0.427673,0.27688 0.781159,0.50704 0.785526,0.51148 0.0057,0.006 -1.491269,0.87786 -1.544552,0.89973 -0.004,0.002 -0.253686,-0.14802 -0.554836,-0.3326 z"
         style="fill:#b4b4b4;fill-opacity:1;stroke-width:0.01325825;stroke-linecap:round;stroke-linejoin:miter;stroke-miterlimit:4;stroke-dasharray:none;paint-order:markers fill stroke;fill-rule:evenodd" />
      <path
         inkscape:connector-curvature="0"
         id="path5858-8"
         d="m -38.177338,440.62528 -3.104502,-1.82847 0.0028,-0.1209 c 0.01751,-0.74745 0.06533,-2.53056 0.06794,-2.53361 0.0019,-0.002 1.387618,0.81078 3.07944,1.80658 l 3.07604,1.81053 1.45e-4,1.34762 c 8.1e-5,0.74119 -0.0038,1.34742 -0.0086,1.34718 -0.0048,-2.5e-4 -1.405796,-0.82326 -3.113272,-1.82893 z"
         style="fill:#b4b4b4;fill-opacity:1;stroke-width:0.01325825;stroke-linecap:round;stroke-linejoin:miter;stroke-miterlimit:4;stroke-dasharray:none;paint-order:markers fill stroke;fill-rule:evenodd" />
      <path
         inkscape:connector-curvature="0"
         id="path5860-9"
         d="m -37.978556,437.67701 c -1.688183,-0.99404 -3.076025,-1.81112 -3.084094,-1.81571 -0.009,-0.005 0.249853,-0.16833 0.66609,-0.42004 l 0.680761,-0.41169 h 0.899363 0.899364 l 2.65757,1.56395 c 1.461663,0.86017 2.654113,1.56744 2.649888,1.57172 -0.01558,0.0158 -2.275951,1.31938 -2.287525,1.31926 -0.0066,-7e-5 -1.393234,-0.81344 -3.081417,-1.80749 z"
         style="fill:#b4b4b4;fill-opacity:1;stroke-width:0.01325825;stroke-linecap:round;stroke-linejoin:miter;stroke-miterlimit:4;stroke-dasharray:none;paint-order:markers fill stroke;fill-rule:evenodd" />
      <path
         inkscape:connector-curvature="0"
         id="path5871-4"
         d="m -31.377594,438.74117 -0.905209,-0.58659 v -0.0887 -0.0886 l -2.157366,-1.269 c -1.186551,-0.69795 -2.160083,-1.27108 -2.163403,-1.27362 -0.012,-0.009 0.417079,-0.7255 0.439086,-0.73303 0.01242,-0.004 1.31084,0.75065 2.885379,1.67756 l 2.862799,1.6853 0.460626,-0.25836 c 0.253344,-0.1421 0.46531,-0.25367 0.471034,-0.24795 0.01001,0.01 -0.935283,1.71671 -0.970506,1.75222 -0.0095,0.01 -0.424575,-0.2466 -0.92244,-0.56923 z"
         style="fill:#b4b4b4;fill-opacity:1;stroke-width:0.0265165;stroke-linecap:round;stroke-linejoin:miter;stroke-miterlimit:4;stroke-dasharray:none;paint-order:markers fill stroke;fill-rule:evenodd" />
      <path
         inkscape:connector-curvature="0"
         id="path5882-8"
         d="m -33.20647,445.92437 c 0,-0.003 0.0716,-0.13321 0.159107,-0.28902 0.15027,-0.26755 0.160029,-0.2827 0.1757,-0.27286 0.0091,0.006 0.08263,0.0491 0.163354,0.0965 0.08072,0.0473 0.146759,0.0881 0.146758,0.0905 -3e-6,0.005 -0.632635,0.38064 -0.640442,0.38064 -0.0025,0 -0.0045,-0.003 -0.0045,-0.006 z"
         style="fill:#b4b4b4;fill-opacity:1;stroke-width:0.009375;stroke-linecap:round;stroke-linejoin:miter;stroke-miterlimit:4;stroke-dasharray:none;paint-order:markers fill stroke;fill-rule:evenodd" />
      <path
         inkscape:connector-curvature="0"
         id="path5886-8"
         d="m -31.310502,444.6008 -0.869755,-0.50963 0.02226,-0.0398 c 0.02128,-0.0381 0.03132,-0.045 0.228278,-0.15625 0.197887,-0.11181 0.206908,-0.11596 0.228632,-0.10522 0.01244,0.006 0.30563,0.16745 0.651535,0.35845 l 0.62892,0.34727 2.65e-4,0.15783 c 3.44e-4,0.19074 -0.0087,0.45837 -0.0155,0.45758 -0.0027,-3.2e-4 -0.396285,-0.2299 -0.874651,-0.51019 z"
         style="fill:#b4b4b4;fill-opacity:1;stroke-width:0.009375;stroke-linecap:round;stroke-linejoin:miter;stroke-miterlimit:4;stroke-dasharray:none;paint-order:markers fill stroke;fill-rule:evenodd" />
      <path
         inkscape:connector-curvature="0"
         id="path5888-6"
         d="m -30.839179,443.91426 c -0.482382,-0.26665 -0.561843,-0.31315 -0.55027,-0.32203 0.0074,-0.006 0.225032,-0.12981 0.483541,-0.27579 0.279855,-0.15803 0.475723,-0.26384 0.484124,-0.26153 0.0266,0.007 1.072442,0.6019 1.072442,0.6097 0,0.007 -0.890598,0.54962 -0.915642,0.55788 -0.0057,0.002 -0.264107,-0.13682 -0.574195,-0.30823 z"
         style="fill:#b4b4b4;fill-opacity:1;stroke-width:0.009375;stroke-linecap:round;stroke-linejoin:miter;stroke-miterlimit:4;stroke-dasharray:none;paint-order:markers fill stroke;fill-rule:evenodd" />
      <path
         inkscape:connector-curvature="0"
         id="path5890-7"
         d="m -29.203378,442.23895 -0.565104,-0.32306 0.0057,-0.57464 c 0.0031,-0.31606 0.0069,-0.57587 0.0083,-0.57736 0.0026,-0.003 1.077366,0.63249 1.10621,0.65368 0.01332,0.01 0.01413,0.0485 0.01213,0.57746 l -0.0021,0.56697 z"
         style="fill:#b4b4b4;fill-opacity:1;stroke-width:0.009375;stroke-linecap:round;stroke-linejoin:miter;stroke-miterlimit:4;stroke-dasharray:none;paint-order:markers fill stroke;fill-rule:evenodd" />
      <path
         inkscape:connector-curvature="0"
         id="path5892-2"
         d="m -29.121965,440.77583 -0.63252,-0.37513 -0.0022,-0.25927 c -0.0021,-0.25553 -0.0019,-0.25978 0.01654,-0.29462 0.01182,-0.0223 0.02288,-0.0337 0.02999,-0.031 0.0102,0.004 1.695294,0.98776 1.746855,1.01991 l 0.0218,0.0136 -0.266678,0.15089 c -0.146673,0.083 -0.269963,0.15087 -0.273978,0.15083 -0.004,-3e-5 -0.291933,-0.16887 -0.639819,-0.37518 z"
         style="fill:#b4b4b4;fill-opacity:1;stroke-width:0.009375;stroke-linecap:round;stroke-linejoin:miter;stroke-miterlimit:4;stroke-dasharray:none;paint-order:markers fill stroke;fill-rule:evenodd" />
      <path
         inkscape:connector-curvature="0"
         id="path5905-1"
         d="m -33.384816,434.98279 c -1.704261,-1.00366 -3.106784,-1.83283 -3.116718,-1.84259 -0.01787,-0.0176 2.239664,-1.22769 2.285915,-1.22533 0.01721,8.7e-4 5.01609,2.93605 6.123483,3.5955 l 0.08928,0.0532 -1.128449,0.61695 c -0.620646,0.33932 -1.134389,0.61924 -1.14165,0.62204 -0.0073,0.003 -1.407597,-0.81608 -3.111858,-1.81974 z"
         style="fill:#b4b4b4;fill-opacity:1;stroke-width:0.0265165;stroke-linecap:round;stroke-linejoin:miter;stroke-miterlimit:4;stroke-dasharray:none;paint-order:markers fill stroke;fill-rule:evenodd" />
      <path
         inkscape:connector-curvature="0"
         id="path5907-3"
         d="m -33.554195,435.84178 -3.104332,-1.82728 -1.7e-4,-0.28648 c -9.4e-5,-0.15757 0.0042,-0.28648 0.0096,-0.28648 0.01378,0 6.171858,3.62511 6.194143,3.64634 0.01006,0.01 0.01532,0.14427 0.01169,0.2993 l -0.0066,0.28188 z"
         style="fill:#b4b4b4;fill-opacity:1;stroke-width:0.0265165;stroke-linecap:round;stroke-linejoin:miter;stroke-miterlimit:4;stroke-dasharray:none;paint-order:markers fill stroke;fill-rule:evenodd" />
      <path
         inkscape:connector-curvature="0"
         id="path5909-1"
         d="m -39.66281,435.01075 c 0.01222,-0.0116 0.20494,-0.13133 0.428269,-0.26612 l 0.406051,-0.24509 0.435848,0.25652 c 0.239716,0.14109 0.440232,0.26084 0.445591,0.26613 0.0054,0.005 -0.383493,0.01 -0.864116,0.01 -0.518539,0 -0.864826,-0.009 -0.851643,-0.021 z"
         style="fill:#b4b4b4;fill-opacity:1;stroke-width:0.0265165;stroke-linecap:round;stroke-linejoin:miter;stroke-miterlimit:4;stroke-dasharray:none;paint-order:markers fill stroke;fill-rule:evenodd" />
      <path
         inkscape:connector-curvature="0"
         id="path5929-3"
         d="m -28.813114,438.61691 c -0.07878,-0.0511 -0.143239,-0.0958 -0.143239,-0.0994 0,-0.004 0.06446,-0.11644 0.143239,-0.25082 l 0.14324,-0.24433 0.0032,0.17543 c 0.0018,0.0965 0.0018,0.25115 0,0.3437 l -0.0032,0.16827 z"
         style="fill:#b4b4b4;fill-opacity:1;stroke-width:0.01325825;stroke-linecap:round;stroke-linejoin:miter;stroke-miterlimit:4;stroke-dasharray:none;paint-order:markers fill stroke;fill-rule:evenodd" />
      <path
         inkscape:connector-curvature="0"
         id="path5949-6"
         d="m -31.371672,438.75876 -0.913639,-0.59174 -1.44e-4,-0.0274 -1.44e-4,-0.0275 0.0012,0.0215 0.0012,0.0215 0.438216,0.28399 c 0.60103,0.3895 0.700594,0.45362 0.890902,0.57381 0.279966,0.17681 0.48369,0.29905 0.498378,0.29905 0.0096,0 0.459375,-0.80117 0.768566,-1.36891 0.02218,-0.0407 0.02225,-0.0408 0.02928,-0.0408 0.0039,0 0.0071,4.7e-4 0.0071,10e-4 0,0.001 -0.798528,1.43359 -0.803805,1.44183 l -0.0034,0.005 z"
         style="fill:#b4b4b4;fill-opacity:1;stroke-width:0.00234375;stroke-linecap:round;stroke-linejoin:miter;stroke-miterlimit:4;stroke-dasharray:none;paint-order:markers fill stroke;fill-rule:evenodd" />
      <path
         inkscape:connector-curvature="0"
         id="path6473-4"
         d="m -30.991769,437.36289 -0.565497,-0.3329 0.0096,-4.3e-4 0.0096,-4.2e-4 0.202166,0.11899 c 0.111191,0.0654 0.355999,0.20954 0.544016,0.32021 0.188018,0.11067 0.342013,0.20104 0.342211,0.20081 7.94e-4,-9.3e-4 0.0068,-0.27319 0.0076,-0.34317 0.0013,-0.12385 -0.0038,-0.22688 -0.01181,-0.23742 -8.99e-4,-10e-4 -0.02299,-0.015 -0.04908,-0.0307 l -0.04744,-0.0286 h 0.01339 0.01339 l 0.04355,0.0257 c 0.02395,0.0141 0.044,0.0261 0.04455,0.0267 0.0011,10e-4 0.01032,0.56697 0.0097,0.59553 l -4.23e-4,0.0186 z"
         style="fill:#b4b4b4;fill-opacity:1;stroke-width:0.00165728;stroke-linecap:round;stroke-linejoin:miter;stroke-miterlimit:4;stroke-dasharray:none;paint-order:markers fill stroke;fill-rule:evenodd" />
      <path
         transform="matrix(0.26458333,0,0,0.26458333,0,280.06665)"
         inkscape:connector-curvature="0"
         id="path6475-2"
         d=""
         style="fill:#ffff00;fill-opacity:1;stroke-width:0.00626374;stroke-linecap:round;stroke-linejoin:miter;stroke-miterlimit:4;stroke-dasharray:none;paint-order:markers fill stroke;fill-rule:evenodd" />
      <path
         inkscape:connector-curvature="0"
         id="path6477-7"
         d="m -31.245897,437.57548 -0.829813,-0.48849 -6e-6,-0.005 c -4e-6,-0.003 3.7e-4,-0.005 7.93e-4,-0.005 0.0014,0 1.652944,0.97234 1.654484,0.97407 0.0019,0.002 0.0064,0.002 0.0077,-1e-4 0.0013,-0.002 0.988326,-0.55503 0.989175,-0.55418 3.44e-4,3.5e-4 -0.05035,0.092 -0.112629,0.20363 l -0.113235,0.20302 -0.0059,-4.2e-4 c -0.0034,-2.5e-4 -0.007,3.9e-4 -0.0083,0.002 -0.0021,0.002 -0.0022,0.002 -0.0014,-7.4e-4 5.56e-4,-10e-4 0.0095,-0.0182 0.01983,-0.0373 0.09275,-0.17043 0.160955,-0.30035 0.160955,-0.30658 0,-0.003 -1.01e-4,-0.003 -0.01144,0.002 -0.04044,0.0161 -0.200484,0.1005 -0.38685,0.20406 -0.05132,0.0285 -0.516005,0.28894 -0.52767,0.29572 l -0.0059,0.003 z"
         style="fill:#b4b4b4;fill-opacity:1;stroke-width:0.00165728;stroke-linecap:round;stroke-linejoin:miter;stroke-miterlimit:4;stroke-dasharray:none;paint-order:markers fill stroke;fill-rule:evenodd" />
      <path
         transform="matrix(0.26458333,0,0,0.26458333,0,280.06665)"
         inkscape:connector-curvature="0"
         id="path6708-6"
         d=""
         style="fill:#ffff00;fill-opacity:1;stroke-width:0.00626374;stroke-linecap:round;stroke-linejoin:miter;stroke-miterlimit:4;stroke-dasharray:none;paint-order:markers fill stroke;fill-rule:evenodd" />
      <path
         inkscape:connector-curvature="0"
         id="path6710-1"
         d="m -30.623058,436.98621 c -0.175027,-0.10409 -0.625362,-0.37044 -1.025347,-0.60644 l -0.125036,-0.0738 0.0099,-4.2e-4 0.0099,-4.3e-4 0.609909,0.35903 c 0.33545,0.19746 0.611882,0.36027 0.614294,0.36179 l 0.0044,0.003 -0.01321,2e-5 -0.01321,3e-5 -0.07157,-0.0426 z"
         style="fill:#b4b4b4;fill-opacity:1;stroke-width:0.00165728;stroke-linecap:round;stroke-linejoin:miter;stroke-miterlimit:4;stroke-dasharray:none;paint-order:markers fill stroke;fill-rule:evenodd" />
    </g>
  </g>
</svg>
