<?xml version="1.0" encoding="UTF-8" standalone="no"?>
<!-- Created with Inkscape (http://www.inkscape.org/) -->

<svg
   xmlns:dc="http://purl.org/dc/elements/1.1/"
   xmlns:cc="http://creativecommons.org/ns#"
   xmlns:rdf="http://www.w3.org/1999/02/22-rdf-syntax-ns#"
   xmlns:svg="http://www.w3.org/2000/svg"
   xmlns="http://www.w3.org/2000/svg"
   xmlns:sodipodi="http://sodipodi.sourceforge.net/DTD/sodipodi-0.dtd"
   xmlns:inkscape="http://www.inkscape.org/namespaces/inkscape"
   width="64"
   height="64"
   viewBox="0 0 16.933333 16.933334"
   version="1.1"
   id="svg8"
   inkscape:version="0.92.4 (5da689c313, 2019-01-14)"
   sodipodi:docname="Motor_Holder_cmd.svg">
  <defs
     id="defs2">
    <inkscape:path-effect
       effect="bspline"
       id="path-effect5679"
       is_visible="true"
       weight="33.333333"
       steps="2"
       helper_size="0"
       apply_no_weight="true"
       apply_with_weight="true"
       only_selected="false" />
    <inkscape:path-effect
       effect="spiro"
       id="path-effect4845"
       is_visible="true" />
    <inkscape:path-effect
       effect="spiro"
       id="path-effect4841"
       is_visible="true" />
    <inkscape:path-effect
       effect="bspline"
       id="path-effect4807"
       is_visible="true"
       weight="33.333333"
       steps="2"
       helper_size="0"
       apply_no_weight="true"
       apply_with_weight="true"
       only_selected="false" />
    <inkscape:path-effect
       effect="bspline"
       id="path-effect4654"
       is_visible="true"
       weight="33.333333"
       steps="2"
       helper_size="0"
       apply_no_weight="true"
       apply_with_weight="true"
       only_selected="false" />
    <inkscape:path-effect
       effect="bspline"
       id="path-effect4650"
       is_visible="true"
       weight="33.333333"
       steps="2"
       helper_size="0"
       apply_no_weight="true"
       apply_with_weight="true"
       only_selected="false" />
    <inkscape:path-effect
       effect="bspline"
       id="path-effect4650-6"
       is_visible="true"
       weight="33.333333"
       steps="2"
       helper_size="0"
       apply_no_weight="true"
       apply_with_weight="true"
       only_selected="false" />
  </defs>
  <sodipodi:namedview
     id="base"
     pagecolor="#ffffff"
     bordercolor="#666666"
     borderopacity="1.0"
     inkscape:pageopacity="0.0"
     inkscape:pageshadow="2"
     inkscape:zoom="19.499989"
     inkscape:cx="-10.850363"
     inkscape:cy="29.365421"
     inkscape:document-units="mm"
     inkscape:current-layer="layer1"
     showgrid="true"
     units="px"
     inkscape:window-width="3840"
     inkscape:window-height="2055"
     inkscape:window-x="-13"
     inkscape:window-y="-13"
     inkscape:window-maximized="1">
    <inkscape:grid
       type="xygrid"
       id="grid3713" />
  </sodipodi:namedview>
  <metadata
     id="metadata5">
    <rdf:RDF>
      <cc:Work
         rdf:about="">
        <dc:format>image/svg+xml</dc:format>
        <dc:type
           rdf:resource="http://purl.org/dc/dcmitype/StillImage" />
        <dc:title />
      </cc:Work>
    </rdf:RDF>
  </metadata>
  <g
     inkscape:label="Capa 1"
     inkscape:groupmode="layer"
     id="layer1"
     transform="translate(0,-280.06665)">
    <path
       style="fill:none;stroke:#000000;stroke-width:0.31975481px;stroke-linecap:butt;stroke-linejoin:miter;stroke-opacity:1"
       d="m 14.37432,281.05214 -4.4872941,5.12664 H 2.4082054"
       id="path4208"
       inkscape:connector-curvature="0" />
    <path
       style="fill:none;stroke:#000000;stroke-width:0.31975481px;stroke-linecap:butt;stroke-linejoin:miter;stroke-opacity:1"
       d="m 9.8870269,289.59653 3.5898341,6.15196"
       id="path4365"
       inkscape:connector-curvature="0" />
    <path
       style="fill:none;stroke:#000000;stroke-width:0.31975481px;stroke-linecap:butt;stroke-linejoin:miter;stroke-opacity:1"
       d="m 3.6048167,289.59653 3.5898344,6.15196"
       id="path4365-2"
       inkscape:connector-curvature="0" />
    <path
       style="fill:none;stroke:#000000;stroke-width:0.31975481px;stroke-linecap:butt;stroke-linejoin:miter;stroke-opacity:1"
       d="M 11.681944,294.72317 H 8.0921094 L 7.194651,295.74849 H 5.9980396 l -3.589834,-6.15196 10e-8,-3.41776 4.4872926,-5.12664 H 14.37432 v 13.67104 l -0.897459,1.02532 H 12.28025 c 0,0 -3.5898351,-6.15196 -3.5898351,-6.15196 v -2.05066 h -5.085598 v 2.05066 H 2.4082056"
       id="path4481"
       inkscape:connector-curvature="0" />
    <path
       style="fill:none;stroke:#000000;stroke-width:0.31975481px;stroke-linecap:butt;stroke-linejoin:miter;stroke-opacity:1"
       d="m 8.0921094,294.72317 v -7.1773"
       id="path4483"
       inkscape:connector-curvature="0" />
    <path
       style="fill:none;stroke:#000000;stroke-width:0.31975481px;stroke-linecap:butt;stroke-linejoin:miter;stroke-opacity:1"
       d="m 8.6904149,289.59653 h 1.196612 v -3.41776"
       id="path4584"
       inkscape:connector-curvature="0" />
    <path
       style="fill:#fce94f;fill-opacity:1;stroke-width:0.02318984"
       d="m 2.5786609,287.88829 v -1.53678 h 3.5797912 3.5797908 v 1.53678 1.53679 h -0.444762 -0.444762 v -1.02866 -1.02866 H 6.1476042 3.4464892 v 1.02866 1.02866 H 3.0125749 2.5786609 Z"
       id="path4777"
       inkscape:connector-curvature="0" />
    <path
       style="fill:#fce94f;fill-opacity:1;stroke-width:0.02318984"
       d="m 4.4336437,292.74319 c -0.9068804,-1.5552 -1.6669177,-2.85992 -1.6889715,-2.89937 l -0.040098,-0.0718 h 0.4034543 0.4034546 l 1.6923581,2.90006 1.6923588,2.90006 -0.4068416,-7.1e-4 -0.406841,-7.2e-4 -1.6488735,-2.82763 z"
       id="path4779"
       inkscape:connector-curvature="0" />
    <path
       style="fill:#fce94f;stroke-width:0.02318984;fill-opacity:1"
       d="m 11.768882,292.496 -1.726899,-2.95935 v -1.63599 -1.636 l 2.082788,-2.37945 2.082788,-2.37944 v 6.56875 6.56876 l -0.35589,0.40603 -0.355891,0.40604 z"
       id="path4795"
       inkscape:connector-curvature="0" />
    <path
       style="fill:#fce94f;fill-opacity:1;stroke-width:0.02318984"
       d="m 10.685596,292.68457 c -0.9267541,-1.5882 -1.6850061,-2.89324 -1.6850061,-2.90007 0,-0.007 0.179002,-0.0124 0.397782,-0.0124 h 0.397781 l 1.6850061,2.88765 c 0.926754,1.58821 1.685007,2.89324 1.685007,2.90007 0,0.007 -0.179002,0.0124 -0.397782,0.0124 h -0.397782 z"
       id="path4797"
       inkscape:connector-curvature="0" />
    <path
       style="fill:#fce94f;fill-opacity:1;stroke-width:0.02318984"
       d="m 5.4913093,292.49795 -1.7193846,-2.9489 v -0.90474 -0.90474 H 5.8547123 7.9375 v 3.45185 3.45186 l -0.3527949,0.4025 c -0.1940367,0.22139 -0.3575684,0.40219 -0.3634031,0.4018 -0.00584,-4.2e-4 -0.7843311,-1.32773 -1.7299927,-2.94963 z"
       id="path4799"
       inkscape:connector-curvature="0" />
    <path
       style="fill:none;stroke:#000000;stroke-width:0.31975481px;stroke-linecap:butt;stroke-linejoin:miter;stroke-opacity:1"
       d="m 5.9983382,284.64062 c 0.2991533,0.51284 1.7949174,0.51284 2.9914425,10e-5 1.1965253,-0.51273 2.0941503,-1.53825 1.7952493,-2.05075 -0.2989,-0.5125 -1.7951621,-0.5125 -2.9918628,1e-4 -1.1967008,0.51259 -2.0939823,1.53772 -1.794829,2.05055 z"
       id="path4648"
       inkscape:connector-curvature="0"
       inkscape:path-effect="#path-effect4650"
       inkscape:original-d="m 4.8014281,285.15346 c 1.4960634,-3.4e-4 2.9918275,-3.4e-4 4.4872928,0 0.8975781,-1.02548 1.7952151,-2.05099 2.6923761,-3.07599 -1.494967,-3.3e-4 -2.9912291,-3.3e-4 -4.4872933,0 -0.8973389,1.02519 -1.7946179,2.05032 -2.6923756,3.07599 z" />
    <path
       style="fill:none;stroke:#000000;stroke-width:0.31975481px;stroke-linecap:butt;stroke-linejoin:miter;stroke-opacity:1"
       d="m 5.9980395,284.81168 c 0.3509008,-0.39296 0.7545105,-0.7388 1.1966114,-1.02533 0.5422656,-0.35145 1.1522754,-0.61589 1.794917,-0.68355 0.6144639,-0.0647 1.2472221,0.0558 1.7949171,0.34176"
       id="path4839"
       inkscape:connector-curvature="0"
       inkscape:path-effect="#path-effect4841"
       inkscape:original-d="m 5.9980395,284.81168 c 0.3991694,-0.34212 0.7980402,-0.68389 1.1966114,-1.02533 0.3985711,-0.34143 1.196911,-0.45606 1.794917,-0.68355 0.598007,-0.22751 1.1969101,0.22749 1.7949171,0.34176" />
    <path
       style="fill:none;stroke:#000000;stroke-width:0.31975481px;stroke-linecap:butt;stroke-linejoin:miter;stroke-opacity:1"
       d="m 8.0921093,284.81168 v -1.36712"
       id="path4843"
       inkscape:connector-curvature="0"
       inkscape:path-effect="#path-effect4845"
       inkscape:original-d="m 8.0921093,284.81168 c 2.992e-4,-0.45605 2.992e-4,-0.91174 0,-1.36712" />
    <path
       style="fill:#fce94f;fill-opacity:1;stroke-width:0.0163977"
       d="m 6.103667,284.37486 c 0,-0.1991 0.25341,-0.57742 0.5922231,-0.88414 0.5960353,-0.53957 1.364136,-0.89617 2.2612358,-1.0498 0.299649,-0.0514 0.85132,-0.0642 1.0932481,-0.0255 0.36307,0.0581 0.570333,0.16887 0.625007,0.33412 0.02239,0.0677 0.0091,0.14748 -0.04872,0.29218 l -0.04664,0.11672 -0.08658,-0.0341 c -0.264331,-0.10431 -0.6433241,-0.18525 -0.9633641,-0.20564 -0.705886,-0.0449 -1.3909572,0.12751 -2.1147467,0.53244 -0.405,0.22658 -0.8899142,0.58904 -1.1989696,0.89619 -0.051923,0.0516 -0.098521,0.0938 -0.1035529,0.0938 -0.00503,0 -0.00915,-0.0298 -0.00915,-0.0662 z"
       id="path4847"
       inkscape:connector-curvature="0" />
    <path
       style="fill:#fce94f;fill-opacity:1;stroke-width:0.0163977"
       d="m 6.7863496,284.82538 c -0.11864,-0.0162 -0.4177468,-0.0933 -0.4341188,-0.11199 -0.013698,-0.0156 0.041861,-0.0745 0.2172989,-0.23035 0.3925459,-0.34864 0.9091254,-0.69734 1.2814858,-0.86501 l 0.078252,-0.0353 v 0.59566 c 0,0.32763 -0.00174,0.59574 -0.00383,0.59582 -0.00213,8e-5 -0.079774,0.0123 -0.1725882,0.0272 -0.2032674,0.0324 -0.7957435,0.0472 -0.9664943,0.024 z"
       id="path4849"
       inkscape:connector-curvature="0" />
    <path
       style="fill:#fce94f;fill-opacity:1;stroke-width:0.0163977"
       d="m 8.2514322,284.07683 v -0.62954 l 0.1955997,-0.0553 c 0.340462,-0.096 0.481748,-0.11479 0.870612,-0.11517 0.299223,-2.9e-4 0.382181,0.006 0.545858,0.0391 0.1914241,0.0391 0.4727451,0.11806 0.4889231,0.13729 0.01291,0.0154 -0.173819,0.20723 -0.339681,0.34904 -0.4412031,0.37718 -0.9721521,0.66628 -1.5311901,0.8337 -0.09703,0.0291 -0.188509,0.0567 -0.203274,0.0616 -0.025213,0.008 -0.026847,-0.0296 -0.026847,-0.62077 z"
       id="path4851"
       inkscape:connector-curvature="0" />
    <path
       style="fill:#fce94f;fill-opacity:1;stroke-width:0.0163977"
       d="m 4.8687022,283.61732 2.086358,-2.38367 h 3.5208008 3.520801 l -2.086358,2.38367 -2.0863581,2.38366 H 6.3031448 2.7823439 Z m 2.822624,1.54893 c 0.7482857,-0.0918 1.4183227,-0.32862 2.0218667,-0.7146 0.3342171,-0.21374 0.6458681,-0.47683 0.8620171,-0.7277 0.05884,-0.0683 0.117883,-0.12416 0.131214,-0.12416 0.01451,0 0.04301,-0.0439 0.07103,-0.10958 0.02574,-0.0603 0.07531,-0.1695 0.110146,-0.24279 0.162616,-0.34202 0.142659,-0.64477 -0.05683,-0.86216 -0.220412,-0.24019 -0.603923,-0.35209 -1.2063001,-0.35195 -1.019332,2.3e-4 -2.0215193,0.33193 -2.8297025,0.93657 -0.7703656,0.57635 -1.1449983,1.234 -0.9619924,1.68875 0.048091,0.1195 0.1008611,0.18748 0.2103903,0.27104 0.3145251,0.23996 0.9163213,0.32633 1.6481637,0.23654 z"
       id="path4853"
       inkscape:connector-curvature="0" />
    <path
       style="fill:none;stroke:#000000;stroke-width:0.31975481px;stroke-linecap:butt;stroke-linejoin:miter;stroke-opacity:1"
       d="m 8.9895679,290.28008 c 0,0.79714 0,1.59461 0,2.16431 0,0.5697 0,0.91133 0.1498755,1.08238 0.1498755,0.17106 0.4487285,0.17106 0.598156,1.8e-4 0.1494275,-0.17088 0.1494275,-0.51301 0.1494275,-0.79771 0,-0.28469 0,-0.51277 0,-0.68355 0,-0.17078 0,-0.28492 0,-0.3985"
       id="path5677"
       inkscape:connector-curvature="0"
       inkscape:path-effect="#path-effect5679"
       inkscape:original-d="m 8.9895679,290.28008 c 3e-4,0.79714 3e-4,1.59461 0,2.39243 3e-4,0.34158 3e-4,0.68321 0,1.02532 0.299751,-3.3e-4 0.598604,-3.3e-4 0.897459,0 2.98e-4,-0.34176 2.98e-4,-0.68389 0,-1.02532 2.98e-4,-0.22796 2.98e-4,-0.45604 0,-0.68355 2.98e-4,-0.11405 2.98e-4,-0.22819 0,-0.34177" />
    <path
       style="fill:#fce94f;fill-opacity:1;stroke-width:0.0163977"
       d="m 8.2540279,291.14264 v -3.409 h 0.13807 0.138071 v 0.95557 0.95557 l 0.184301,0.31513 c 0.153368,0.26225 0.17898,0.31514 0.152603,0.31514 h -0.0317 l 0.0056,1.45912 c 0.0062,1.61456 0.0034,1.56634 0.107115,1.78876 0.0977,0.20942 0.297971,0.32391 0.534229,0.30541 0.208234,-0.0163 0.364241,-0.12712 0.455609,-0.32363 0.07691,-0.1654 0.09616,-0.31156 0.1063071,-0.80714 l 0.0091,-0.44315 0.665141,1.13978 c 0.365827,0.62688 0.66514,1.14376 0.66514,1.1486 0,0.005 -0.704161,0.009 -1.5648011,0.009 H 8.254027 Z"
       id="path6751"
       inkscape:connector-curvature="0" />
    <path
       style="fill:none;stroke:#000000;stroke-width:0.31975481px;stroke-linecap:butt;stroke-linejoin:miter;stroke-opacity:1"
       d="m 8.9895679,293.0143 0.897458,-1.02534"
       id="path6762"
       inkscape:connector-curvature="0" />
    <path
       style="fill:#fce94f;fill-opacity:1;stroke-width:0.01159492"
       d="m 9.1459029,291.64202 5e-6,-0.94801 0.292882,0.50193 0.292882,0.50193 5e-6,0.11165 5e-6,0.11164 -0.292892,0.33445 -0.292892,0.33445 z"
       id="path6908"
       inkscape:connector-curvature="0" />
    <path
       style="fill:#fce94f;fill-opacity:1;stroke-width:0.01159492"
       d="m 9.3363629,293.45859 c -0.09602,-0.0408 -0.136513,-0.10936 -0.164449,-0.27858 l -0.01718,-0.10408 0.288478,-0.32958 0.288477,-0.32958 v 0.27621 c 0,0.61631 -0.05322,0.76626 -0.27662,0.77934 -0.04898,0.003 -0.09111,-0.002 -0.118699,-0.0138 z"
       id="path6910"
       inkscape:connector-curvature="0" />
  </g>
</svg>
