<?xml version="1.0" encoding="UTF-8" standalone="no"?>
<!-- Created with Inkscape (http://www.inkscape.org/) -->

<svg
   xmlns:dc="http://purl.org/dc/elements/1.1/"
   xmlns:cc="http://creativecommons.org/ns#"
   xmlns:rdf="http://www.w3.org/1999/02/22-rdf-syntax-ns#"
   xmlns:svg="http://www.w3.org/2000/svg"
   xmlns="http://www.w3.org/2000/svg"
   xmlns:sodipodi="http://sodipodi.sourceforge.net/DTD/sodipodi-0.dtd"
   xmlns:inkscape="http://www.inkscape.org/namespaces/inkscape"
   width="16.933331mm"
   height="16.933332mm"
   viewBox="0 0 16.933331 16.933334"
   version="1.1"
   id="svg8"
   inkscape:version="0.92.3 (2405546, 2018-03-11)"
   sodipodi:docname="endStop.svg">
  <defs
     id="defs2" />
  <sodipodi:namedview
     id="base"
     pagecolor="#ffffff"
     bordercolor="#666666"
     borderopacity="1.0"
     inkscape:pageopacity="0.0"
     inkscape:pageshadow="2"
     inkscape:zoom="11.2"
     inkscape:cx="30.27628"
     inkscape:cy="33.331053"
     inkscape:document-units="mm"
     inkscape:current-layer="layer1"
     showgrid="false"
     units="mm"
     inkscape:window-width="1920"
     inkscape:window-height="1027"
     inkscape:window-x="-8"
     inkscape:window-y="-8"
     inkscape:window-maximized="1" />
  <metadata
     id="metadata5">
    <rdf:RDF>
      <cc:Work
         rdf:about="">
        <dc:format>image/svg+xml</dc:format>
        <dc:type
           rdf:resource="http://purl.org/dc/dcmitype/StillImage" />
        <dc:title></dc:title>
      </cc:Work>
    </rdf:RDF>
  </metadata>
  <g
     inkscape:label="Capa 1"
     inkscape:groupmode="layer"
     id="layer1"
     transform="translate(0,-280.06665)">
    <path
       style="fill:none;stroke:#000000;stroke-width:0.26458332px;stroke-linecap:butt;stroke-linejoin:miter;stroke-opacity:1"
       d="m 16.323847,287.45608 -0.118118,3.54353 -3.708891,5.26804 -0.283483,0.21262 h -0.212611 l -0.307106,-0.0473 -10.74869753,-5.66964 -0.28348215,-0.33073 -0.16536458,-3.89788 4.15773816,-4.7247 0.3071055,-0.14175 0.3779761,-0.0945 0.2834823,0.0709 10.3707212,4.91369 0.283482,0.30711 0.04725,0.23623 z"
       id="path1132"
       inkscape:connector-curvature="0" />
    <path
       style="fill:none;stroke:#000000;stroke-width:0.26458332px;stroke-linecap:butt;stroke-linejoin:miter;stroke-opacity:1"
       d="m 0.49609374,286.53472 v 0 l 0.25985864,0.47252 0.16536458,0.11812 10.46521604,5.48065 0.448846,0.14174 0.425224,-0.0709 0.354352,-0.16536 3.307292,-4.63021 0.401602,-0.77961"
       id="path1134"
       inkscape:connector-curvature="0" />
    <path
       style="fill:none;stroke:#000000;stroke-width:0.26458332px;stroke-linecap:butt;stroke-linejoin:miter;stroke-opacity:1"
       d="m 11.740885,289.74757 h -0.330729 l -0.307105,0.14174 -0.0945,0.28348 0.07087,0.25986 0.307106,0.21261 h 0.401599 l 0.33073,-0.18899 0.09449,-0.35435 -0.212611,-0.25986 z"
       id="path1136"
       inkscape:connector-curvature="0" />
    <path
       style="fill:none;stroke:#000000;stroke-width:0.26458332px;stroke-linecap:butt;stroke-linejoin:miter;stroke-opacity:1"
       d="m 13.591785,287.14898 h -0.330729 l -0.307105,0.14174 -0.0945,0.28348 0.07087,0.25986 0.307106,0.21261 h 0.401599 l 0.33073,-0.18899 0.09449,-0.35435 -0.212611,-0.25986 z"
       id="path1136-1"
       inkscape:connector-curvature="0" />
    <path
       style="fill:none;stroke:#000000;stroke-width:0.26458332px;stroke-linecap:butt;stroke-linejoin:miter;stroke-opacity:1"
       d="m 2.5513393,287.05448 5.0554314,2.55134 0.5197174,0.14175 0.377976,-0.0236 0.5197174,-0.21261 0.3071055,-0.30711 0.07087,-0.35435 -0.023623,-0.35435 -0.1889881,-0.25986 -0.4015997,-0.30711 -5.0554315,-2.45684 -0.4488469,-0.0472 -0.4488465,0.0945 -0.3543528,0.18898 -0.3307291,0.33073 -0.047247,0.4016 0.1181176,0.25986 z"
       id="path1155"
       inkscape:connector-curvature="0" />
    <path
       style="fill:none;stroke:#000000;stroke-width:0.26458332px;stroke-linecap:butt;stroke-linejoin:miter;stroke-opacity:1"
       d="m 5.1499256,284.3614 4.8191964,2.26786 0.661458,0.14174 0.566965,-0.14174 0.377976,-0.33073 0.118117,-0.3071 -0.118117,-0.44885 -0.212612,-0.25986 -0.377976,-0.23623 -4.937314,-2.31511 -0.4960937,-0.0236 -0.3307292,0.0945 -0.4252232,0.21261 -0.1653646,0.30711 -0.07087,0.49609 0.1889881,0.21262 z"
       id="path1157"
       inkscape:connector-curvature="0" />
    <path
       style="fill:#808080;fill-opacity:1;stroke-width:0.08928572"
       d="M 44.890002,61.423379 C 44.473396,61.356081 40.9378,59.522761 24.175716,50.682351 4.0076313,40.045599 3.962773,40.021334 3.499697,39.498047 L 3.0356141,38.973624 2.7727634,32.861462 c -0.1445679,-3.361688 -0.249559,-6.126458 -0.2333135,-6.143931 0.016245,-0.01747 0.2027405,0.08998 0.4144335,0.238787 0.2116931,0.148806 9.2643606,4.919213 20.1170396,10.600903 16.718629,8.752685 19.876037,10.376009 20.674349,10.629339 l 0.942207,0.298993 0.932793,-0.161423 c 0.634639,-0.109826 1.168065,-0.269912 1.668853,-0.500836 l 0.736059,-0.339414 6.317512,-8.83964 c 3.474632,-4.861802 6.424304,-9.044939 6.554826,-9.295861 l 0.237314,-0.456221 -0.04058,0.892857 c -0.02232,0.491072 -0.117651,3.23726 -0.211854,6.102642 -0.153423,4.666697 -0.187894,5.235805 -0.330666,5.459395 -0.08766,0.137286 -3.21296,4.586731 -6.945103,9.887657 -5.651888,8.027624 -6.859596,9.692629 -7.227886,9.964713 -0.472864,0.349341 -0.596973,0.36801 -1.488749,0.223957 z"
       id="path1159"
       inkscape:connector-curvature="0"
       transform="matrix(0.26458333,0,0,0.26458333,0,280.06665)" />
    <path
       style="fill:#808080;fill-opacity:1;stroke-width:0.08928572"
       d="M 43.765576,47.037206 C 43.207615,46.842066 36.634021,43.443025 23.363791,36.487953 12.595571,30.844211 3.6626642,26.134634 3.512888,26.022227 3.3631119,25.909819 3.0847147,25.522964 2.8942278,25.162549 l -0.34634,-0.6553 7.6478732,-8.700403 c 8.461232,-9.6256984 7.831074,-8.9902035 9.303733,-9.382529 0.526072,-0.1401489 0.695663,-0.1504748 1.071429,-0.065236 0.245535,0.055697 9.225446,4.256536 19.955357,9.335198 l 19.508929,9.233929 0.507039,0.526698 c 0.312438,0.324554 0.519737,0.622617 0.540124,0.776618 0.02345,0.177144 -0.162798,0.639915 -0.639598,1.589205 -0.622422,1.239217 -1.138528,1.991673 -6.907371,10.070584 l -6.234687,8.7313 -0.507754,0.230301 c -0.568763,0.257974 -1.419843,0.470031 -1.891682,0.471334 -0.171875,4.47e-4 -0.682941,-0.128693 -1.135704,-0.287042 z m 1.542008,-6.8529 c 0.945278,-0.521804 0.977226,-0.56158 1.226648,-1.527181 l 0.222152,-0.860033 -0.537401,-0.657713 c -0.686374,-0.840034 -1.185969,-1.055953 -2.44857,-1.058239 -0.750695,-0.0014 -0.877756,0.02528 -1.536566,0.322189 l -0.7182,0.323671 -0.235475,0.707068 c -0.234313,0.703575 -0.234748,0.710038 -0.08817,1.308182 0.08102,0.330613 0.177301,0.64964 0.213957,0.70895 0.03666,0.05931 0.385019,0.32944 0.774144,0.600289 l 0.707499,0.492455 h 0.884237 c 0.865279,0 0.898207,-0.0077 1.53574,-0.359638 z M 33.33878,36.599164 c 1.000997,-0.408441 1.116459,-0.481846 1.756447,-1.116665 l 0.685019,-0.679485 0.153217,-0.81349 c 0.114539,-0.608132 0.137058,-1.007481 0.0892,-1.581956 -0.06046,-0.725807 -0.08667,-0.800104 -0.472135,-1.338367 -0.259978,-0.363031 -0.697815,-0.792718 -1.206192,-1.183738 -0.720807,-0.554411 -1.731573,-1.0676 -10.440649,-5.30095 l -9.642581,-4.687112 -0.996879,-0.09047 c -0.899923,-0.08167 -1.083719,-0.07145 -1.889737,0.105125 -1.249369,0.273697 -2.1024029,0.755005 -3.048947,1.720309 l -0.7275185,0.741938 -0.1068803,0.90262 -0.1068802,0.902621 0.3161772,0.659879 c 0.2195662,0.458247 0.5154483,0.867878 0.9683274,1.340591 l 0.6521501,0.680711 9.5980423,4.845435 c 8.694437,4.389263 9.694725,4.872719 10.625,5.135238 0.929776,0.262378 1.107226,0.285314 1.875172,0.242375 0.751622,-0.04203 0.970225,-0.09721 1.919643,-0.484607 z m 19.132216,-6.336083 0.802966,-0.459433 0.239059,-0.918871 0.239058,-0.918871 -0.540345,-0.658358 c -0.480567,-0.585523 -0.602208,-0.680085 -1.099508,-0.854742 -0.41751,-0.146635 -0.762726,-0.196237 -1.362732,-0.195805 -0.731682,5.36e-4 -0.868173,0.02964 -1.525686,0.325415 l -0.722116,0.324835 -0.235697,0.724596 -0.235696,0.724597 0.185185,0.669643 0.185184,0.669642 0.727984,0.509614 0.727985,0.509612 0.905697,0.0038 0.905696,0.0038 0.802966,-0.459434 z m -11.076887,-4.665982 1.180329,-0.29985 0.8286,-0.721114 c 0.777342,-0.676506 0.843788,-0.761941 1.074135,-1.381102 0.135044,-0.362993 0.244111,-0.736333 0.242369,-0.829646 -0.0017,-0.09331 -0.114462,-0.573643 -0.250489,-1.067404 -0.210711,-0.764854 -0.312674,-0.97761 -0.688798,-1.437254 C 43.499217,19.517285 43.0792,19.155323 42.624494,18.86472 42.230263,18.612766 37.673533,16.420315 32.454951,13.97169 L 22.999694,9.5351612 21.943083,9.4916448 c -1.292264,-0.053222 -1.747332,0.053406 -3.202517,0.7503842 l -1.026786,0.491791 -0.377295,0.730955 c -0.328175,0.635792 -0.396781,0.87269 -0.526977,1.819643 l -0.149684,1.088688 0.458526,0.5017 c 0.252188,0.275935 0.810757,0.795015 1.241263,1.15351 0.775855,0.646079 0.86321,0.689707 9.934524,4.961736 l 9.151786,4.309926 1.294643,0.290008 c 0.712053,0.159504 1.334821,0.293822 1.383928,0.298485 0.04911,0.0047 0.620434,-0.126455 1.269615,-0.291372 z"
       id="path1161"
       inkscape:connector-curvature="0"
       transform="matrix(0.26458333,0,0,0.26458333,0,280.06665)" />
    <path
       style="fill:#666666;fill-opacity:1;stroke-width:0.08928572"
       d="M 29.793372,35.769088 C 28.974895,35.535793 27.580653,34.860663 19.485682,30.77783 10.217438,26.103237 10.118433,26.050491 9.5140143,25.46533 8.6895448,24.667129 8.468931,24.180533 8.5761288,23.396686 c 0.073637,-0.538446 0.110378,-0.606428 0.5902309,-1.092115 1.0497243,-1.062485 2.6107743,-1.607787 4.0832223,-1.42634 0.694645,0.0856 0.976451,0.215326 10.204318,4.697442 8.146449,3.956854 9.589059,4.68624 10.190062,5.1521 1.223544,0.948419 1.494268,1.580638 1.253577,2.927463 -0.10482,0.586537 -0.143079,0.655892 -0.61207,1.109533 -0.40162,0.388475 -0.676312,0.555178 -1.393118,0.845445 -1.222652,0.495108 -1.813146,0.525381 -3.098979,0.158874 z"
       id="path1163"
       inkscape:connector-curvature="0"
       transform="matrix(0.26458333,0,0,0.26458333,0,280.06665)" />
    <path
       style="fill:#666666;fill-opacity:1;stroke-width:0.08928572"
       d="M 38.740566,24.477517 C 37.784494,24.249622 37.098869,23.943205 28.785208,20.028315 19.299653,15.561581 19.336817,15.581261 18.199602,14.422524 l -0.384959,-0.392245 0.09996,-0.747105 c 0.0619,-0.462641 0.192676,-0.936147 0.343463,-1.243595 0.236266,-0.481737 0.26894,-0.508403 1.099607,-0.89741 1.173226,-0.54943 1.547689,-0.633806 2.547993,-0.574127 l 0.834756,0.0498 9.183107,4.302826 c 5.050708,2.366554 9.513792,4.504426 9.917963,4.750826 0.964971,0.588286 1.331927,1.041475 1.593298,1.967711 0.191989,0.680368 0.195411,0.740172 0.06206,1.084723 -0.169747,0.438595 -0.274129,0.565514 -0.940206,1.14319 -0.44969,0.390009 -0.617887,0.472626 -1.339286,0.657848 -1.017901,0.261351 -1.195585,0.257946 -2.476795,-0.04745 z"
       id="path1165"
       inkscape:connector-curvature="0"
       transform="matrix(0.26458333,0,0,0.26458333,0,280.06665)" />
    <path
       style="fill:#666666;fill-opacity:1;stroke-width:0.08928572"
       d="M 42.781911,39.143882 C 42.248829,38.771004 42.12756,38.44575 42.30313,37.859749 c 0.136632,-0.456037 0.668368,-0.708662 1.491622,-0.708662 0.705779,0 1.207895,0.194424 1.503704,0.58225 0.258494,0.338902 0.265729,0.386586 0.128276,0.845364 -0.07979,0.266315 -0.19657,0.387988 -0.58839,0.613037 -0.403908,0.231993 -0.584406,0.280641 -1.038846,0.279992 -0.487973,-6.96e-4 -0.602735,-0.03767 -1.017585,-0.327848 z"
       id="path1167"
       inkscape:connector-curvature="0"
       transform="matrix(0.26458333,0,0,0.26458333,0,280.06665)" />
    <path
       style="fill:#666666;fill-opacity:1;stroke-width:0.08928572"
       d=""
       id="path1169"
       inkscape:connector-curvature="0"
       transform="matrix(0.26458333,0,0,0.26458333,0,280.06665)" />
    <path
       style="fill:#666666;fill-opacity:1;stroke-width:0.08928572"
       d="m 49.773364,29.315815 c -0.513952,-0.390201 -0.636401,-0.698185 -0.491209,-1.235482 0.130978,-0.484693 0.640159,-0.750675 1.437047,-0.750675 0.778272,0 1.198271,0.15116 1.544776,0.555973 0.289268,0.337944 0.293126,0.353529 0.18877,0.762604 -0.09397,0.368351 -0.163842,0.452081 -0.592394,0.709861 -0.416248,0.25038 -0.56901,0.292241 -1.066217,0.292172 -0.532512,-7.4e-5 -0.616665,-0.02765 -1.020773,-0.334453 z"
       id="path1171"
       inkscape:connector-curvature="0"
       transform="matrix(0.26458333,0,0,0.26458333,0,280.06665)" />
    <path
       style="fill:#999999;fill-opacity:1;stroke-width:0.08928572"
       d="m 42.154607,60.048905 c -2.518927,-1.279458 -5.648948,-2.912368 -12.021641,-6.27161 -1.075698,-0.567034 -2.00985,-1.03097 -2.075893,-1.03097 -0.06604,0 -0.120079,-0.03057 -0.120079,-0.06794 0,-0.08392 -2.9393,-1.628491 -3.098994,-1.628491 -0.06341,0 -0.115292,-0.03308 -0.115292,-0.07351 0,-0.101911 -1.573186,-0.883067 -1.641283,-0.81497 -0.03033,0.03033 -0.05514,0.01118 -0.05514,-0.04256 0,-0.10413 -2.904393,-1.658252 -3.098994,-1.658252 -0.06341,0 -0.115292,-0.03308 -0.115292,-0.07351 0,-0.101911 -1.573186,-0.883067 -1.641283,-0.81497 -0.03033,0.03033 -0.05514,0.0087 -0.05514,-0.04803 0,-0.122036 -1.382183,-0.836076 -1.46265,-0.75561 -0.03036,0.03036 -0.05521,0.0121 -0.05521,-0.04059 0,-0.05269 -0.97433,-0.607918 -2.165178,-1.23384 C 11.012974,43.696712 5.8736599,40.951177 4.8755213,40.388503 4.3065098,40.067738 3.7833644,39.689893 3.483833,39.383346 L 3.003886,38.892158 2.9827011,37.820729 c -0.011652,-0.589285 -0.024084,-1.502948 -0.027627,-2.03036 -0.00354,-0.527413 -0.033993,-1.003512 -0.067667,-1.057997 -0.033674,-0.05448 -0.069902,-0.547072 -0.080508,-1.094639 -0.010605,-0.547566 -0.039341,-1.497807 -0.063858,-2.111646 -0.024516,-0.61384 -0.049333,-1.611769 -0.055148,-2.21762 -0.00582,-0.605852 -0.043685,-1.081084 -0.084154,-1.056073 -0.060751,0.03755 -0.058396,-0.981619 0.00309,-1.337466 0.00995,-0.05757 0.3958045,0.103914 0.8831779,0.369606 0.4760325,0.259509 0.8878628,0.449486 0.9151785,0.42217 0.027316,-0.02732 0.049665,-4.19e-4 0.049665,0.05977 0,0.06019 0.040179,0.0846 0.089286,0.05425 0.049107,-0.03035 0.089286,-0.01026 0.089286,0.04464 0,0.0549 0.036747,0.07711 0.08166,0.04936 0.044913,-0.02776 0.095136,-0.01675 0.1116072,0.02446 0.049177,0.12305 1.5588506,0.912158 1.6227793,0.848229 0.032425,-0.03242 0.058954,-0.0097 0.058954,0.05048 0,0.06019 0.036747,0.08672 0.08166,0.05897 0.044913,-0.02776 0.095136,-0.01503 0.1116072,0.02828 0.047606,0.125182 1.5561717,0.911021 1.6221735,0.845019 0.032758,-0.03276 0.05956,-0.01031 0.05956,0.04988 0,0.06019 0.040179,0.0846 0.089286,0.05425 0.049107,-0.03035 0.089286,-0.0167 0.089286,0.03033 0,0.112488 1.5649873,0.91956 1.6392013,0.845346 0.03148,-0.03147 0.05723,-0.008 0.05723,0.05221 0,0.06019 0.04018,0.0846 0.08929,0.05426 0.04911,-0.03035 0.08929,-0.01303 0.08929,0.03848 0,0.115497 1.564736,0.911668 1.641283,0.83512 0.03033,-0.03033 0.05515,-0.0059 0.05515,0.05429 0,0.06019 0.04018,0.0846 0.08929,0.05426 0.04911,-0.03035 0.08929,-0.01304 0.08929,0.03848 0,0.115497 1.564736,0.911668 1.641283,0.83512 0.03033,-0.03033 0.05515,-0.0086 0.05515,0.04821 0,0.05684 0.401785,0.304978 0.892857,0.551409 0.491071,0.246431 0.892857,0.419922 0.892857,0.385535 0,-0.03439 0.05022,-7.86e-4 0.111607,0.07467 0.153726,0.18897 14.648947,7.78384 14.85588,7.78384 0.06699,0 0.121799,0.03312 0.121799,0.07359 0,0.101934 1.751805,0.972224 1.819906,0.904122 0.0303,-0.0303 0.05509,-0.0086 0.05509,0.04826 0,0.121951 1.739311,1.014477 1.819906,0.933883 0.0303,-0.0303 0.05509,-0.0058 0.05509,0.05434 0,0.06019 0.04018,0.08461 0.08928,0.05426 0.04911,-0.03035 0.08929,-0.01026 0.08929,0.04464 0,0.0549 0.04018,0.07499 0.08929,0.04464 0.04911,-0.03035 0.08929,-0.01308 0.08929,0.03838 0,0.115519 1.386148,0.822499 1.462649,0.745999 0.03036,-0.03037 0.05521,-0.006 0.05521,0.05423 0,0.06019 0.04018,0.08461 0.08928,0.05426 0.04911,-0.03035 0.08929,-0.01026 0.08929,0.04464 0,0.0549 0.03675,0.07711 0.08166,0.04936 0.04491,-0.02776 0.09514,-0.01584 0.111607,0.02649 0.0485,0.12463 1.378646,0.82248 1.4437,0.757424 0.0327,-0.0327 0.05946,-0.01022 0.05946,0.04997 0,0.06019 0.04018,0.08461 0.08928,0.05425 0.04911,-0.03035 0.08929,-0.01026 0.08929,0.04464 0,0.0549 0.04018,0.07499 0.08929,0.04464 0.04911,-0.03035 0.08929,-0.01869 0.08929,0.0259 0,0.0446 0.41183,0.274038 0.915178,0.50987 0.503348,0.235832 0.935268,0.457802 0.959822,0.493267 0.08206,0.118518 3.077183,1.510861 3.303571,1.535727 0.122768,0.01349 0.249065,0.06014 0.280662,0.103675 0.08899,0.122619 0.969338,0.185224 0.969338,0.06893 0,-0.05381 0.06027,-0.07472 0.133929,-0.04645 0.07366,0.02827 0.204241,0.02184 0.290178,-0.01428 0.08594,-0.03612 0.236607,-0.07612 0.334822,-0.08889 0.192735,-0.02506 0.479994,-0.09127 0.788383,-0.18171 0.106568,-0.03125 0.45492,-0.175274 0.774117,-0.320046 l 0.580357,-0.26322 4.882707,-6.848886 c 6.104449,-8.562603 7.483364,-10.523191 7.483364,-10.640101 0,-0.05099 0.04018,-0.09271 0.08929,-0.09271 0.04911,0 0.08929,-0.06027 0.08929,-0.133929 0,-0.07366 0.04255,-0.133928 0.09455,-0.133928 0.05201,0 0.07847,-0.03013 0.0588,-0.06696 -0.01966,-0.03683 0.03417,-0.133207 0.119616,-0.214171 0.146838,-0.139126 0.157464,-0.107271 0.193591,0.580357 0.02102,0.400161 0.0016,0.801547 -0.04311,0.891971 -0.04473,0.09042 -0.07252,0.693103 -0.06175,1.339286 0.01077,0.646183 -0.0099,1.244317 -0.04594,1.329186 -0.03604,0.08487 -0.05152,0.697614 -0.0344,1.361656 0.01712,0.664042 -0.0027,1.207327 -0.04402,1.2073 -0.04133,-2.7e-5 -0.06142,0.59884 -0.04464,1.330816 0.01678,0.731976 0.0063,1.31588 -0.0232,1.297564 -0.02954,-0.01832 -0.07623,0.503837 -0.103761,1.160342 -0.02864,0.682999 -0.09766,1.283349 -0.161351,1.40333 -0.115257,0.21713 -2.914729,4.218197 -7.705771,11.013256 -5.220647,7.40436 -6.23863,8.791083 -6.600051,8.990768 -0.10823,0.0598 -0.42832,0.132062 -0.711312,0.160589 l -0.51453,0.05187 z"
       id="path1173"
       inkscape:connector-curvature="0"
       transform="matrix(0.26458333,0,0,0.26458333,0,280.06665)" />
    <path
       style="fill:#999999;fill-opacity:1;stroke-width:0.08928572"
       d="m 43.908407,47.03387 c -0.578557,-0.210026 -1.571261,-0.710458 -7.347322,-3.703864 -1.567018,-0.812096 -2.902955,-1.476538 -2.96875,-1.476538 -0.06579,0 -0.119627,-0.03312 -0.119627,-0.07359 0,-0.101934 -1.751805,-0.972223 -1.819906,-0.904122 -0.0303,0.0303 -0.05509,0.0058 -0.05509,-0.05434 0,-0.06019 -0.04018,-0.0846 -0.08929,-0.05425 -0.04911,0.03035 -0.08929,0.01303 -0.08929,-0.03848 0,-0.115496 -1.564736,-0.911667 -1.641283,-0.835119 -0.03033,0.03033 -0.05515,0.0059 -0.05515,-0.05429 0,-0.06019 -0.04018,-0.0846 -0.08929,-0.05425 -0.04911,0.03035 -0.08929,0.0167 -0.08929,-0.03033 0,-0.112487 -1.564987,-0.91956 -1.639201,-0.845346 -0.03148,0.03148 -0.05723,0.008 -0.05723,-0.05221 0,-0.06019 -0.04018,-0.0846 -0.08929,-0.05425 -0.04911,0.03035 -0.08929,0.0167 -0.08929,-0.03033 0,-0.112487 -1.564987,-0.91956 -1.639201,-0.845346 -0.03148,0.03148 -0.05723,0.008 -0.05723,-0.05221 0,-0.06019 -0.04018,-0.0846 -0.08929,-0.05425 -0.04911,0.03035 -0.08929,0.0167 -0.08929,-0.03033 0,-0.112488 -1.564987,-0.919561 -1.639201,-0.845347 -0.03148,0.03148 -0.05723,0.008 -0.05723,-0.05221 0,-0.06019 -0.04018,-0.0846 -0.08929,-0.05425 -0.04911,0.03035 -0.08929,0.01026 -0.08929,-0.04464 0,-0.0549 -0.04018,-0.07499 -0.08929,-0.04464 -0.04911,0.03035 -0.08929,0.01711 -0.08929,-0.02942 0,-0.112154 -1.386591,-0.831008 -1.460453,-0.757148 -0.03157,0.03157 -0.0574,0.0082 -0.0574,-0.05203 0,-0.06019 -0.04018,-0.0846 -0.08929,-0.05425 -0.04911,0.03035 -0.08929,0.01026 -0.08929,-0.04464 0,-0.0549 -0.04018,-0.07499 -0.08929,-0.04464 -0.04911,0.03035 -0.08929,0.01308 -0.08929,-0.03838 0,-0.115518 -1.386149,-0.822498 -1.46265,-0.745998 -0.03036,0.03036 -0.05521,0.006 -0.05521,-0.05423 0,-0.06019 -0.04018,-0.0846 -0.08929,-0.05425 -0.04911,0.03035 -0.08929,0.01303 -0.08929,-0.03848 0,-0.115496 -1.564736,-0.911668 -1.641283,-0.835119 -0.03033,0.03033 -0.05515,0.0059 -0.05515,-0.05429 0,-0.06019 -0.04018,-0.0846 -0.08929,-0.05425 -0.04911,0.03035 -0.08929,0.01303 -0.08929,-0.03848 0,-0.115496 -1.564736,-0.911667 -1.641283,-0.835119 -0.03033,0.03033 -0.05515,0.0086 -0.05515,-0.04821 0,-0.05684 -0.401785,-0.304978 -0.892857,-0.551409 -0.491071,-0.246431 -0.892857,-0.419922 -0.892857,-0.385535 0,0.03439 -0.05022,8.04e-4 -0.111607,-0.07468 C 14.638906,31.88332 12.840911,30.905374 10.70475,29.785575 3.5633407,26.041861 3.4873395,25.999362 3.2100709,25.594502 3.0733189,25.39482 2.879383,25.069749 2.7791022,24.872121 L 2.5967737,24.5128 3.8498833,23.086407 C 9.4984421,16.656754 14.8203,10.608276 15.513735,9.8300325 c 1.30789,-1.4678472 2.705277,-2.8577262 3.053615,-3.0372052 0.473795,-0.2441209 1.425206,-0.4681877 1.780358,-0.4192926 0.171875,0.023663 1.73884,0.7056005 3.482143,1.5154174 3.207506,1.4899826 12.504221,5.8575789 14.943186,7.0203079 0.729913,0.347972 1.359294,0.612788 1.398624,0.588481 0.03933,-0.02431 0.08499,-0.0087 0.101457,0.03479 0.04563,0.120339 1.499767,0.827623 1.588634,0.7727 0.04282,-0.02646 0.09132,-0.01257 0.107795,0.03087 0.04563,0.120339 1.499767,0.827623 1.588634,0.772701 0.04282,-0.02646 0.09132,-0.01257 0.107794,0.03087 0.04563,0.12034 1.499767,0.827624 1.588634,0.772701 0.04282,-0.02646 0.09132,-0.01257 0.107795,0.03087 0.04563,0.120339 1.499767,0.827623 1.588634,0.772701 0.04282,-0.02646 0.09132,-0.01257 0.107795,0.03087 0.04799,0.126566 1.502116,0.826172 1.596259,0.767988 0.04701,-0.02905 0.08547,-0.0079 0.08547,0.047 0,0.0549 0.03675,0.07711 0.08166,0.04936 0.04491,-0.02776 0.09514,-0.01498 0.111608,0.02839 0.04799,0.126357 1.323334,0.737143 1.417573,0.678901 0.04707,-0.02909 0.08559,-0.008 0.08559,0.04693 0,0.0549 0.03675,0.07711 0.08166,0.04936 0.04491,-0.02776 0.09514,-0.01293 0.111607,0.03295 0.04272,0.118992 1.336198,0.724629 1.427327,0.668307 0.04171,-0.02578 0.07583,-0.0019 0.07583,0.05296 0,0.0549 0.03675,0.07711 0.08166,0.04936 0.04491,-0.02776 0.09513,-0.01293 0.111607,0.03295 0.04272,0.118992 1.336197,0.724628 1.427327,0.668307 0.04171,-0.02578 0.07583,-0.0019 0.07583,0.05296 0,0.0549 0.03675,0.07711 0.08166,0.04936 0.04491,-0.02776 0.09514,-0.01293 0.111607,0.03295 0.04272,0.118992 1.336198,0.724629 1.427327,0.668307 0.04171,-0.02578 0.07583,-0.0019 0.07583,0.05296 0,0.0549 0.03675,0.07711 0.08166,0.04936 0.04491,-0.02776 0.09513,-0.01293 0.111607,0.03295 0.04272,0.118992 1.336197,0.724628 1.427327,0.668307 0.04171,-0.02578 0.07584,-0.0019 0.07584,0.05296 0,0.0549 0.03675,0.07711 0.08166,0.04936 0.04491,-0.02776 0.09514,-0.01293 0.111608,0.03295 0.04272,0.118992 1.336197,0.724629 1.427326,0.668307 0.04171,-0.02578 0.07583,-0.0019 0.07583,0.05296 0,0.0549 0.04018,0.07499 0.08929,0.04464 0.04911,-0.03035 0.08929,-0.01026 0.08929,0.04464 0,0.0549 0.04018,0.07499 0.08928,0.04464 0.04911,-0.03035 0.08929,-0.01873 0.08929,0.02581 0,0.04455 0.162983,0.154491 0.362185,0.244318 0.379732,0.171235 1.280454,1.071523 1.377291,1.376626 0.07281,0.229403 -0.403264,1.331675 -1.049128,2.429091 -0.588003,0.999105 -2.464694,3.679752 -8.324277,11.890323 l -4.375,6.130343 -0.714285,0.278562 c -0.997165,0.388879 -1.839334,0.433983 -2.644659,0.141636 z m 1.57323,-6.907914 c 0.596345,-0.356227 1.006513,-0.826684 0.887972,-1.018488 -0.02766,-0.04476 -0.01207,-0.08138 0.03464,-0.08138 0.04672,0 0.154415,-0.283509 0.239332,-0.63002 l 0.154393,-0.63002 -0.205636,-0.240516 c -0.113101,-0.132284 -0.445269,-0.469972 -0.738151,-0.750418 -0.642,-0.614741 -1.031421,-0.730394 -2.29284,-0.680942 -0.753498,0.02954 -0.91654,0.06774 -1.469004,0.344178 l -0.621436,0.310952 -0.205355,0.622731 c -0.144354,0.437753 -0.191203,0.740623 -0.157712,1.019614 0.06515,0.542756 0.138871,0.813012 0.221769,0.813012 0.03833,0 0.06411,0.06816 0.05729,0.151476 -0.0077,0.09391 0.25903,0.349324 0.701885,0.672127 l 0.714286,0.520651 1.026785,-0.02481 1.026786,-0.02481 z M 31.954851,37.055589 c 0.303422,-0.02134 1.071429,-0.272669 1.071429,-0.350623 0,-0.04619 0.05509,-0.06285 0.122416,-0.03701 0.06733,0.02584 0.178179,-0.0088 0.246333,-0.07694 0.06815,-0.06815 0.169118,-0.108849 0.224363,-0.09043 0.05525,0.01841 0.15629,-0.01853 0.224543,-0.08211 0.06825,-0.06358 0.183407,-0.128786 0.255899,-0.144912 0.179856,-0.04001 0.950828,-0.642822 1.360416,-1.063691 0.28618,-0.294063 0.353623,-0.443183 0.456755,-1.009925 0.176589,-0.970402 0.176522,-1.996183 -1.79e-4,-2.534026 -0.118059,-0.359378 -0.308634,-0.610855 -0.927435,-1.223817 -0.428364,-0.424322 -0.874548,-0.801389 -0.99152,-0.837927 -0.116958,-0.03654 -0.232752,-0.09586 -0.257305,-0.131816 -0.09034,-0.1323 -2.472267,-1.337092 -2.529783,-1.279576 -0.03273,0.03273 -0.0595,0.01026 -0.0595,-0.04993 0,-0.06019 -0.04018,-0.0846 -0.08929,-0.05425 -0.04911,0.03035 -0.08929,0.01026 -0.08929,-0.04464 0,-0.0549 -0.03675,-0.07711 -0.08166,-0.04936 -0.04491,0.02776 -0.09514,0.01282 -0.111607,-0.0332 -0.04314,-0.120541 -2.765597,-1.438154 -2.856031,-1.382263 -0.04164,0.02573 -0.0757,0.0019 -0.0757,-0.05304 0,-0.0549 -0.03675,-0.07711 -0.08166,-0.04936 -0.04491,0.02776 -0.09514,0.01472 -0.111608,-0.02897 -0.04556,-0.120858 -2.929012,-1.541035 -3.017633,-1.486265 -0.04258,0.02632 -0.09089,0.01209 -0.107367,-0.03162 -0.04556,-0.120891 -3.107627,-1.630266 -3.19623,-1.575506 -0.04257,0.02631 -0.09087,0.01208 -0.107341,-0.03161 -0.04802,-0.12738 -2.931499,-1.539498 -3.025259,-1.481552 -0.04678,0.02891 -0.08504,0.01684 -0.08504,-0.02681 0,-0.04366 -0.883707,-0.511179 -1.963791,-1.038939 -1.48683,-0.726507 -2.034701,-0.953455 -2.255751,-0.93441 -0.160576,0.01383 -0.336538,-0.0024 -0.391025,-0.03607 -0.241914,-0.149511 -2.532137,0.03028 -2.532354,0.1988 -3.4e-5,0.027 -0.09793,0.05474 -0.217553,0.06162 -0.356966,0.02056 -1.2474052,0.513789 -1.9066742,1.05615 -0.6926884,0.569852 -1.3042306,1.256744 -1.2282858,1.379625 0.027565,0.0446 0.00962,0.09459 -0.03987,0.111088 -0.049493,0.0165 -0.099966,0.361038 -0.1121635,0.765645 -0.012197,0.404608 -0.05166,0.736059 -0.087696,0.736559 -0.036036,5.36e-4 0.00154,0.141534 0.083501,0.313409 0.081961,0.171875 0.1841291,0.3125 0.2270391,0.3125 0.04291,0 0.055796,0.03596 0.028635,0.0799 -0.078684,0.127312 0.6053133,1.079294 1.1716766,1.630729 0.4843915,0.471625 1.0219175,0.758538 8.0710398,4.308033 4.153647,2.091516 7.578871,3.775973 7.611607,3.743236 0.03274,-0.03274 0.05952,-0.01535 0.05952,0.03863 0,0.09615 0.336568,0.252075 0.46875,0.217159 0.03683,-0.0097 0.06696,0.02486 0.06696,0.07686 0,0.05201 0.04018,0.06972 0.08929,0.03937 0.04911,-0.03035 0.08929,-0.01026 0.08929,0.04464 0,0.0549 0.04018,0.07499 0.08929,0.04464 0.04911,-0.03035 0.08929,-0.01026 0.08929,0.04464 0,0.0549 0.04018,0.07499 0.08929,0.04464 0.04911,-0.03035 0.08929,-0.01026 0.08929,0.04464 0,0.0549 0.04018,0.07499 0.08929,0.04464 0.04911,-0.03035 0.08929,-0.01026 0.08929,0.04464 0,0.0549 0.04018,0.07499 0.08929,0.04464 0.04911,-0.03035 0.08929,-0.01026 0.08929,0.04464 0,0.0549 0.04018,0.07499 0.08929,0.04464 0.04911,-0.03035 0.08929,-0.01026 0.08929,0.04464 0,0.0549 0.04018,0.07499 0.08929,0.04464 0.04911,-0.03035 0.08929,-0.01026 0.08929,0.04464 0,0.0549 0.04018,0.07499 0.08929,0.04464 0.04911,-0.03035 0.08929,-0.02064 0.08929,0.02158 0,0.149938 2.56188,1.302683 2.741727,1.233669 0.06348,-0.02436 0.115416,-0.01014 0.115416,0.03159 0,0.09439 0.783799,0.298415 0.891268,0.231994 0.04319,-0.0267 0.1064,-0.0035 0.140457,0.05165 0.04153,0.06719 0.271462,0.0829 0.698134,0.0477 0.349917,-0.02887 0.696481,-0.05673 0.770141,-0.06191 z M 52.473163,30.31445 c 0.396135,-0.224436 0.757133,-0.455462 0.802217,-0.513393 0.120161,-0.154398 0.389242,-1.30615 0.32822,-1.404885 -0.02868,-0.0464 -0.0072,-0.08437 0.04777,-0.08437 0.06123,0 0.08331,-0.10539 0.05702,-0.272181 -0.046,-0.291849 -1.000747,-1.458585 -1.128808,-1.37944 -0.04057,0.02508 -0.08758,0.0042 -0.104462,-0.0465 -0.06796,-0.203876 -0.886916,-0.34918 -1.841074,-0.326655 -0.889895,0.02101 -0.998598,0.04394 -1.572427,0.331706 L 48.445174,26.92787 48.2281,27.632151 c -0.21166,0.686715 -0.222084,1.304648 -0.02201,1.304648 0.04534,0 0.0638,0.05022 0.04103,0.111607 -0.117979,0.317963 0.120195,0.65741 0.812162,1.157501 l 0.708068,0.511729 0.992783,0.0024 0.992783,0.0024 0.720246,-0.408066 z m -11.036308,-4.688866 1.139137,-0.275502 0.795867,-0.703194 c 0.76299,-0.674142 1.265432,-1.379985 1.13386,-1.592873 -0.02859,-0.04626 -0.0065,-0.09928 0.04919,-0.117828 0.130864,-0.04362 0.224654,-0.963672 0.09824,-0.963672 -0.05076,0 -0.07127,-0.08036 -0.04559,-0.178571 0.02714,-0.10379 0.0027,-0.178572 -0.05827,-0.178572 -0.05773,0 -0.07884,-0.04228 -0.0469,-0.09395 0.03194,-0.05167 -0.03601,-0.362042 -0.150981,-0.689709 -0.164409,-0.46855 -0.332076,-0.725362 -0.785236,-1.202733 -0.537077,-0.565771 -0.701718,-0.669983 -2.425394,-1.535193 -1.017063,-0.510521 -1.872733,-0.904691 -1.901489,-0.875936 -0.02876,0.02876 -0.05228,0.003 -0.05228,-0.05715 0,-0.06019 -0.03675,-0.08673 -0.08166,-0.05897 -0.04491,0.02776 -0.09513,0.02009 -0.111607,-0.01705 -0.03812,-0.08596 -1.111942,-0.592376 -1.196613,-0.564331 -0.03485,0.01155 -0.08881,-0.02018 -0.119914,-0.0705 -0.07261,-0.117479 -1.257615,-0.6513 -1.25943,-0.567347 -7.14e-4,0.03478 -0.03089,0.01819 -0.06696,-0.03686 -0.08013,-0.122268 -1.076496,-0.630568 -1.319023,-0.672905 -0.09633,-0.01682 -0.195235,-0.05553 -0.219789,-0.08602 -0.09976,-0.123902 -1.17342,-0.616881 -1.245922,-0.572072 -0.04296,0.02655 -0.09159,0.01279 -0.108059,-0.03058 -0.04565,-0.120208 -1.321022,-0.738572 -1.409947,-0.683614 -0.04288,0.0265 -0.09144,0.0127 -0.10791,-0.03067 -0.04565,-0.120208 -1.321023,-0.738572 -1.409948,-0.683613 -0.04288,0.0265 -0.09144,0.01277 -0.107909,-0.0305 -0.04569,-0.120042 -1.142233,-0.649589 -1.231227,-0.594588 -0.04296,0.02655 -0.09159,0.01279 -0.108059,-0.03058 -0.04565,-0.120207 -1.321022,-0.738572 -1.409947,-0.683613 -0.04288,0.0265 -0.09144,0.01277 -0.10791,-0.03051 -0.04569,-0.120041 -1.142233,-0.649589 -1.231227,-0.594587 -0.04296,0.02655 -0.09159,0.01279 -0.108059,-0.03058 -0.04799,-0.126356 -1.323335,-0.737142 -1.417573,-0.6789 -0.04707,0.02909 -0.08559,0.01641 -0.08559,-0.02819 0,-0.0446 -0.391741,-0.265305 -0.870535,-0.4904653 l -0.870536,-0.4093813 -1.227679,7.72e-5 c -0.675223,4.25e-5 -1.22777,0.027533 -1.227882,0.061089 -8.9e-5,0.033557 -0.12891,0.065708 -0.286217,0.071448 -0.157307,0.00574 -0.301272,0.056213 -0.319922,0.1121634 -0.01865,0.05595 -0.06825,0.080504 -0.11022,0.054564 -0.04197,-0.025939 -0.538167,0.1706884 -1.102657,0.436951 l -1.026345,0.484114 -0.269508,0.533892 c -0.14823,0.293641 -0.244585,0.558816 -0.214123,0.589278 0.03046,0.03046 0.0018,0.05539 -0.06366,0.05539 -0.06548,0 -0.09441,0.02464 -0.06429,0.05476 0.03011,0.03012 -0.0077,0.210837 -0.08403,0.401605 -0.07633,0.190767 -0.115623,0.407199 -0.08732,0.480959 0.0283,0.07376 0.0082,0.13411 -0.04479,0.13411 -0.05743,0 -0.08154,0.126051 -0.05977,0.3125 0.02007,0.171875 -2.3e-5,0.3125 -0.04464,0.3125 -0.04462,0 -0.06478,0.139991 -0.04481,0.311091 0.01997,0.171099 -0.0058,0.325224 -0.0572,0.342498 -0.05143,0.01727 0.05704,0.21538 0.241055,0.440236 0.374088,0.457117 1.792411,1.711856 1.898543,1.679572 0.03759,-0.01144 0.09293,0.01666 0.122977,0.06244 0.08462,0.128938 2.152661,1.206521 2.154206,1.122482 7.14e-4,-0.04091 0.03089,-0.02929 0.06696,0.02584 0.101485,0.155066 1.3568,0.760648 1.453224,0.701055 0.04707,-0.02909 0.08559,-0.008 0.08559,0.04693 0,0.0549 0.03675,0.07711 0.08166,0.04936 0.04491,-0.02776 0.09514,-0.011 0.111607,0.03724 0.0469,0.137368 14.640134,6.981489 14.775429,6.929571 0.06632,-0.02545 0.12059,-0.01539 0.12059,0.02235 0,0.09144 1.051593,0.305717 1.16286,0.23695 0.04793,-0.02962 0.08714,-0.01565 0.08714,0.03104 0,0.08525 0.656655,0.252508 1.068755,0.27223 0.121297,0.0058 0.733152,-0.11342 1.359677,-0.264947 z"
       id="path1175"
       inkscape:connector-curvature="0"
       transform="matrix(0.26458333,0,0,0.26458333,0,280.06665)" />
  </g>
</svg>
