<?xml version="1.0" encoding="UTF-8" standalone="no"?>
<!-- Created with Inkscape (http://www.inkscape.org/) -->

<svg
   xmlns:dc="http://purl.org/dc/elements/1.1/"
   xmlns:cc="http://creativecommons.org/ns#"
   xmlns:rdf="http://www.w3.org/1999/02/22-rdf-syntax-ns#"
   xmlns:svg="http://www.w3.org/2000/svg"
   xmlns="http://www.w3.org/2000/svg"
   xmlns:sodipodi="http://sodipodi.sourceforge.net/DTD/sodipodi-0.dtd"
   xmlns:inkscape="http://www.inkscape.org/namespaces/inkscape"
   width="16.933331mm"
   height="16.933332mm"
   viewBox="0 0 16.933331 16.933333"
   version="1.1"
   id="svg8"
   inkscape:version="0.92.3 (2405546, 2018-03-11)"
   sodipodi:docname="SK.svg">
  <defs
     id="defs2">
    <inkscape:path-effect
       effect="spiro"
       id="path-effect1460"
       is_visible="true" />
    <inkscape:path-effect
       effect="spiro"
       id="path-effect1412"
       is_visible="true" />
    <inkscape:path-effect
       effect="bspline"
       id="path-effect1249"
       is_visible="true"
       weight="33.333333"
       steps="2"
       helper_size="0"
       apply_no_weight="true"
       apply_with_weight="true"
       only_selected="false" />
  </defs>
  <sodipodi:namedview
     id="base"
     pagecolor="#ffffff"
     bordercolor="#666666"
     borderopacity="1.0"
     inkscape:pageopacity="0.0"
     inkscape:pageshadow="2"
     inkscape:zoom="7.9195959"
     inkscape:cx="20.156826"
     inkscape:cy="25.391151"
     inkscape:document-units="mm"
     inkscape:current-layer="layer1"
     showgrid="true"
     units="mm"
     inkscape:window-width="1920"
     inkscape:window-height="1027"
     inkscape:window-x="-8"
     inkscape:window-y="-8"
     inkscape:window-maximized="1" />
  <metadata
     id="metadata5">
    <rdf:RDF>
      <cc:Work
         rdf:about="">
        <dc:format>image/svg+xml</dc:format>
        <dc:type
           rdf:resource="http://purl.org/dc/dcmitype/StillImage" />
        <dc:title></dc:title>
      </cc:Work>
    </rdf:RDF>
  </metadata>
  <g
     inkscape:label="Capa 1"
     inkscape:groupmode="layer"
     id="layer1"
     transform="translate(0,-280.06665)">
    <path
       style="fill:none;stroke:#000000;stroke-width:0.26458332px;stroke-linecap:butt;stroke-linejoin:miter;stroke-opacity:1"
       d="m 1.984375,292.53514 -1.15755209,-1.2048 -0.40159969,-2.78757 10.53608678,-8.00837 1.228422,1.32291 -0.118118,2.78758 -1.299293,0.89769 4.417597,4.60658 -0.259859,2.71671 -1.913504,1.48828 0.118117,-2.43322 -2.173362,-2.26786"
       id="path1231"
       inkscape:connector-curvature="0" />
    <path
       style="fill:none;stroke:#000000;stroke-width:0.26458332px;stroke-linecap:butt;stroke-linejoin:miter;stroke-opacity:1"
       d="m 13.134672,291.92093 2.055246,-1.77177"
       id="path1233"
       inkscape:connector-curvature="0" />
    <path
       style="fill:none;stroke:#000000;stroke-width:0.26458332px;stroke-linecap:butt;stroke-linejoin:miter;stroke-opacity:1"
       d="m 10.772321,285.54258 -1.441034,-1.46466 2.858445,-2.22061"
       id="path1235"
       inkscape:connector-curvature="0" />
    <path
       style="fill:none;stroke:#000000;stroke-width:0.26458332px;stroke-linecap:butt;stroke-linejoin:miter;stroke-opacity:1"
       d="m 0.42522322,288.54277 1.22842258,1.41741 0.3307292,2.57496 2.9765624,-2.3151 -0.1653645,-2.66946 5.8350071,6.40197 2.102493,-1.72452 -2.126116,-2.24423"
       id="path1237"
       inkscape:connector-curvature="0" />
    <path
       style="fill:none;stroke:#000000;stroke-width:0.26458332px;stroke-linecap:butt;stroke-linejoin:miter;stroke-opacity:1"
       d="m 1.6536458,289.96018 3.1419271,-2.4096"
       id="path1239"
       inkscape:connector-curvature="0" />
    <path
       style="fill:none;stroke:#000000;stroke-width:0.26458332px;stroke-linecap:butt;stroke-linejoin:miter;stroke-opacity:1"
       d="m 4.9609374,290.22004 5.5751486,6.2366 2.078869,-1.79538 0.118118,-2.43323"
       id="path1243"
       inkscape:connector-curvature="0" />
    <path
       style="fill:none;stroke:#000000;stroke-width:0.26458332px;stroke-linecap:butt;stroke-linejoin:miter;stroke-opacity:1"
       d="m 10.63058,293.95255 -0.09449,2.50409"
       id="path1245"
       inkscape:connector-curvature="0" />
    <path
       style="fill:none;stroke:#000000;stroke-width:0.26458332px;stroke-linecap:butt;stroke-linejoin:miter;stroke-opacity:1"
       d="m 10.96131,289.65307 c 0.194117,-0.16496 0.311811,-0.41644 0.314123,-0.67117 0.0019,-0.20986 -0.07249,-0.41831 -0.200452,-0.58465 -0.135474,-0.1761 -0.327375,-0.30391 -0.534539,-0.3842 -0.227561,-0.0882 -0.480392,-0.12128 -0.718287,-0.0668 -0.2790807,0.0639 -0.5243815,0.24733 -0.6848782,0.48442 -0.1290788,0.19068 -0.2068676,0.42237 -0.1837478,0.65147 0.024056,0.23838 0.1561233,0.45765 0.334087,0.61806 0.2149581,0.19376 0.4968616,0.30831 0.785104,0.33409 0.179165,0.016 0.361249,-0.001 0.534237,-0.0505"
       id="path1410"
       inkscape:connector-curvature="0"
       inkscape:path-effect="#path-effect1412"
       inkscape:original-d="m 10.96131,289.65307 c 0.104972,-0.22399 0.20968,-0.44771 0.314123,-0.67117 0.104443,-0.22346 -0.13337,-0.39004 -0.200452,-0.58465 -0.06708,-0.19462 -0.356095,-0.2564 -0.534539,-0.3842 -0.178444,-0.12781 -0.478594,-0.0448 -0.718287,-0.0668 -0.2396934,-0.022 -0.4563208,0.32268 -0.6848782,0.48442 -0.2285571,0.16174 -0.1222338,0.43405 -0.1837478,0.65147 -0.061514,0.21742 0.2229892,0.41178 0.334087,0.61806 0.1110977,0.20629 0.5236673,0.22246 0.785104,0.33409 0.261437,0.11163 0.356423,-0.0339 0.534237,-0.0505" />
    <path
       style="fill:#808080;fill-opacity:1;stroke-width:0.12626907"
       d="M 28.902275,39.26904 C 22.669691,32.430217 17.545441,26.834815 17.515051,26.834815 c -0.03039,0 -0.03873,0.268641 -0.01854,0.596981 l 0.03671,0.596983 -5.551446,4.262855 C 8.9284784,34.636204 6.3966381,36.555175 6.3554622,36.556012 6.257604,36.558 2.4137324,32.132794 2.4716737,32.084851 2.5810515,31.994347 39.495714,3.9490936 40.384046,3.281606 l 0.997492,-0.7495097 0.770275,0.8362864 c 0.423652,0.4599575 1.290553,1.3982476 1.926448,2.0850889 l 1.156173,1.2488026 -5.35462,4.1619998 c -2.94504,2.2891 -5.354619,4.210857 -5.354619,4.27057 0,0.05971 1.440609,1.56601 3.201353,3.347323 4.067603,4.115121 18.769465,19.452386 18.769465,19.580665 0,0.0531 -1.530714,1.414114 -3.401587,3.024474 l -3.401587,2.927927 -1.562587,-1.613842 c -0.859424,-0.887615 -2.53195,-2.628059 -3.716726,-3.867655 l -2.154139,-2.253809 0.426053,-0.81739 c 0.375961,-0.721291 0.426041,-0.931362 0.425952,-1.7868 -8.2e-5,-0.804675 -0.06132,-1.098154 -0.360339,-1.727025 -0.682872,-1.436136 -2.108366,-2.428048 -3.941029,-2.742315 -2.075491,-0.355907 -4.153217,0.75985 -5.106643,2.742315 -0.480346,0.998786 -0.525176,2.453082 -0.103833,3.368312 0.844628,1.834678 2.828512,2.931002 5.185036,2.86533 l 1.165797,-0.03249 3.632428,3.831309 c 1.997835,2.107221 3.64345,3.865532 3.656921,3.907357 0.01347,0.04183 -0.924076,0.849879 -2.083439,1.795674 -1.159364,0.945794 -2.74111,2.236999 -3.51499,2.869343 l -1.407058,1.149717 z"
       id="path1444"
       inkscape:connector-curvature="0"
       transform="matrix(0.26458333,0,0,0.26458333,0,280.06665)" />
    <path
       style="fill:#808080;fill-opacity:1;stroke-width:0.12626907"
       d="m 7.8824219,45.886322 c 0,-0.08934 -0.233007,-1.974811 -0.5177934,-4.189938 C 7.0798422,39.481258 6.8951737,37.624469 6.9542541,37.570186 7.5049153,37.064245 17.523454,29.488959 17.574459,29.539964 c 0.07614,0.07614 0.520411,6.662247 0.52972,7.852796 l 0.006,0.772092 -5.009622,3.899864 c -2.755293,2.144925 -5.0565467,3.918803 -5.1138976,3.941952 -0.057351,0.02315 -0.1042745,-0.03101 -0.1042745,-0.120346 z"
       id="path1446"
       inkscape:connector-curvature="0"
       transform="matrix(0.26458333,0,0,0.26458333,0,280.06665)" />
    <path
       style="fill:#808080;fill-opacity:1;stroke-width:0.12626907"
       d="M 29.285029,49.311031 19.309773,38.15265 19.044816,34.040528 c -0.145727,-2.261666 -0.257119,-4.123841 -0.247538,-4.138166 0.0096,-0.01432 3.310792,3.588561 7.336025,8.006414 4.025233,4.417853 8.700456,9.543471 10.389384,11.390262 l 3.070778,3.357801 -0.08766,2.77792 c -0.04821,1.527856 -0.123179,3.285684 -0.166589,3.906286 l -0.07893,1.128367 z"
       id="path1448"
       inkscape:connector-curvature="0"
       transform="matrix(0.26458333,0,0,0.26458333,0,280.06665)" />
    <path
       style="fill:#808080;fill-opacity:1;stroke-width:0.12626907"
       d="M 5.1487858,43.847534 3.6316742,42.302776 3.0432087,38.145474 C 2.7195526,35.858957 2.4685229,33.975425 2.4853648,33.959847 c 0.016842,-0.01558 0.7522331,0.808995 1.6342026,1.832387 l 1.6035809,1.860712 0.495235,3.840144 c 0.2723792,2.112079 0.4844979,3.853432 0.4713746,3.869673 -0.013123,0.01624 -0.7065607,-0.665613 -1.5409721,-1.515229 z"
       id="path1450"
       inkscape:connector-curvature="0"
       transform="matrix(0.26458333,0,0,0.26458333,0,280.06665)" />
    <path
       style="fill:#808080;fill-opacity:1;stroke-width:0.12626907"
       d="m 40.506869,58.433649 c 0.04578,-1.163253 0.118693,-2.918857 0.162022,-3.901341 l 0.07878,-1.786334 3.338621,-2.738694 c 1.836241,-1.506282 3.356117,-2.71958 3.377503,-2.696218 0.0521,0.05691 -0.304001,7.327103 -0.367744,7.507902 -0.05611,0.159141 -6.464318,5.729692 -6.591282,5.729692 -0.04463,0 -0.04368,-0.951753 0.0021,-2.115007 z"
       id="path1452"
       inkscape:connector-curvature="0"
       transform="matrix(0.26458333,0,0,0.26458333,0,280.06665)" />
    <path
       style="fill:#808080;fill-opacity:1;stroke-width:0.12626907"
       d="m 49.858835,51.61512 c 0.04072,-0.60767 0.135076,-2.326508 0.209673,-3.81964 0.0746,-1.493131 0.157945,-2.737219 0.185217,-2.764638 0.198357,-0.199425 6.433107,-5.545675 6.446968,-5.528225 0.0701,0.08825 -0.826353,8.583325 -0.913877,8.660239 -0.401294,0.352651 -5.872852,4.557118 -5.930487,4.557118 -0.03934,0 -0.03822,-0.497184 0.0025,-1.104854 z"
       id="path1454"
       inkscape:connector-curvature="0"
       transform="matrix(0.26458333,0,0,0.26458333,0,280.06665)" />
    <path
       style="fill:#808080;fill-opacity:1;stroke-width:0.12626907"
       d="m 38.444155,17.558662 c -1.280839,-1.282245 -2.303043,-2.354057 -2.271563,-2.381804 0.43174,-0.380557 9.237723,-7.168212 9.25878,-7.1366716 0.01604,0.02402 -0.05901,2.0518926 -0.166776,4.5063846 l -0.195933,4.462713 -2.083116,1.440366 c -1.145713,0.792201 -2.112247,1.440366 -2.147854,1.440366 -0.03561,0 -1.112698,-1.049109 -2.393538,-2.331354 z"
       id="path1456"
       inkscape:connector-curvature="0"
       transform="matrix(0.26458333,0,0,0.26458333,0,280.06665)" />
    <path
       style="fill:#4d4d4d;stroke:#000000;stroke-width:0.26458332px;stroke-linecap:butt;stroke-linejoin:miter;stroke-opacity:1"
       d="m 13.016555,294.35415 -0.37207,-0.26576"
       id="path1458"
       inkscape:connector-curvature="0"
       inkscape:path-effect="#path-effect1460"
       inkscape:original-d="m 13.016555,294.35415 c -0.123759,-0.0888 -0.247782,-0.17744 -0.37207,-0.26576" />
    <path
       style="fill:#4d4d4d;fill-opacity:1;stroke-width:0.06313454"
       d="m 48.495622,52.842204 -0.171947,-0.13743 0.159795,-3.218622 c 0.149389,-3.009007 0.168006,-3.227361 0.285877,-3.352828 l 0.12608,-0.134207 -4.179759,-4.411682 c -2.298869,-2.426425 -4.205956,-4.421829 -4.237972,-4.434231 -0.03202,-0.0124 -0.126337,0.04145 -0.209602,0.119676 l -0.151392,0.142225 -0.06507,-0.171137 c -0.03579,-0.09413 -0.06507,-0.199613 -0.06507,-0.234416 0,-0.0348 -0.04972,-0.04821 -0.110486,-0.0298 -0.628498,0.190427 -1.669872,0.218718 -2.370865,0.06441 -1.665444,-0.366612 -3.035774,-1.716008 -3.123008,-3.075299 -0.06322,-0.985114 0.285818,-1.809177 1.115338,-2.633259 0.618664,-0.614608 1.10848,-0.892583 1.851182,-1.050562 1.341562,-0.285362 3.085583,0.3408 4.001011,1.436496 0.975239,1.167284 0.958199,2.788502 -0.0407,3.872176 l -0.236735,0.256827 0.149655,0.187684 0.149654,0.187685 -0.167978,0.175331 -0.167979,0.175332 0.1932,0.20489 c 0.10626,0.11269 1.915772,2.003966 4.021139,4.202836 l 3.827941,3.997945 -0.0024,0.389905 c -0.0038,0.600043 -0.355299,7.555703 -0.383262,7.583215 -0.01357,0.01335 -0.102049,-0.03757 -0.19662,-0.113156 z"
       id="path1522"
       inkscape:connector-curvature="0"
       transform="matrix(0.26458333,0,0,0.26458333,0,280.06665)" />
  </g>
</svg>
