<?xml version="1.0" encoding="UTF-8" standalone="no"?>
<!-- Created with Inkscape (http://www.inkscape.org/) -->

<svg
   xmlns:dc="http://purl.org/dc/elements/1.1/"
   xmlns:cc="http://creativecommons.org/ns#"
   xmlns:rdf="http://www.w3.org/1999/02/22-rdf-syntax-ns#"
   xmlns:svg="http://www.w3.org/2000/svg"
   xmlns="http://www.w3.org/2000/svg"
   xmlns:sodipodi="http://sodipodi.sourceforge.net/DTD/sodipodi-0.dtd"
   xmlns:inkscape="http://www.inkscape.org/namespaces/inkscape"
   width="64"
   height="64"
   viewBox="0 0 16.933333 16.933334"
   version="1.1"
   id="svg8"
   inkscape:version="0.92.3 (2405546, 2018-03-11)"
   sodipodi:docname="Stop_Holder.svg">
  <defs
     id="defs2" />
  <sodipodi:namedview
     id="base"
     pagecolor="#ffffff"
     bordercolor="#666666"
     borderopacity="1.0"
     inkscape:pageopacity="0.0"
     inkscape:pageshadow="2"
     inkscape:zoom="11.2"
     inkscape:cx="34.338983"
     inkscape:cy="31.175801"
     inkscape:document-units="mm"
     inkscape:current-layer="layer1"
     showgrid="false"
     units="px"
     inkscape:window-width="1920"
     inkscape:window-height="1027"
     inkscape:window-x="1072"
     inkscape:window-y="-8"
     inkscape:window-maximized="1" />
  <metadata
     id="metadata5">
    <rdf:RDF>
      <cc:Work
         rdf:about="">
        <dc:format>image/svg+xml</dc:format>
        <dc:type
           rdf:resource="http://purl.org/dc/dcmitype/StillImage" />
        <dc:title />
      </cc:Work>
    </rdf:RDF>
  </metadata>
  <g
     inkscape:label="Capa 1"
     inkscape:groupmode="layer"
     id="layer1"
     transform="translate(0,-280.06665)">
    <path
       style="fill:none;stroke:#000000;stroke-width:0.26458332px;stroke-linecap:butt;stroke-linejoin:miter;stroke-opacity:1"
       d="m 0.99218749,285.9678 0.0236235,6.85082 6.8508184,3.9215 0.023624,-1.37016 -4.7010788,-8.12649 z"
       id="path1005"
       inkscape:connector-curvature="0" />
    <path
       style="fill:none;stroke:#000000;stroke-width:0.26458332px;stroke-linecap:butt;stroke-linejoin:miter;stroke-opacity:1"
       d="m 0.99218749,285.9678 8.74069951,-4.98456 2.102492,1.25205 4.677456,8.15011 v 1.41741 l -8.6462056,4.93731"
       id="path1007"
       inkscape:connector-curvature="0" />
    <path
       style="fill:none;stroke:#000000;stroke-width:0.26458332px;stroke-linecap:butt;stroke-linejoin:miter;stroke-opacity:1"
       d="M 7.8902533,295.36996 16.512835,290.3854"
       id="path1009"
       inkscape:connector-curvature="0" />
    <path
       style="fill:none;stroke:#000000;stroke-width:0.26458332px;stroke-linecap:butt;stroke-linejoin:miter;stroke-opacity:1"
       d="m 3.1891745,287.24347 v 0 l 0.4252227,-0.23623"
       id="path1011"
       inkscape:connector-curvature="0" />
    <path
       style="fill:none;stroke:#000000;stroke-width:0.26458332px;stroke-linecap:butt;stroke-linejoin:miter;stroke-opacity:1"
       d="m 8.3154762,295.08648 -4.701079,-8.07924 -0.9213168,-0.56697"
       id="path1013"
       inkscape:connector-curvature="0" />
    <path
       style="fill:none;stroke:#000000;stroke-width:0.26458332px;stroke-linecap:butt;stroke-linejoin:miter;stroke-opacity:1"
       d="m 11.835379,282.23529 -0.448846,0.3071 4.653831,8.05562"
       id="path1015"
       inkscape:connector-curvature="0" />
    <path
       style="fill:none;stroke:#000000;stroke-width:0.26458332px;stroke-linecap:butt;stroke-linejoin:miter;stroke-opacity:1"
       d="m 11.386533,282.54239 -0.968564,-0.59058 -7.7248885,4.48846"
       id="path1017"
       inkscape:connector-curvature="0" />
    <path
       style="fill:none;stroke:#000000;stroke-width:0.26458332px;stroke-linecap:butt;stroke-linejoin:miter;stroke-opacity:1"
       d="m 8.6225818,287.62145 v -3.70889 l 0.141741,-0.44885 0.2126118,-0.21261 0.1653645,-0.16537 0.1889879,-0.0472 0.1181177,-0.0236 0.1653646,0.0945 0.094494,0.16536 -0.047247,3.56715 -0.07087,0.37798 -0.1181174,0.18899 -0.1653646,0.25986 -0.2362351,0.11811 -0.1653645,0.0236 H 8.7643228 Z"
       id="path1019"
       inkscape:connector-curvature="0" />
    <path
       style="fill:none;stroke:#000000;stroke-width:0.26458332px;stroke-linecap:butt;stroke-linejoin:miter;stroke-opacity:1"
       d="m 4.5357142,288.35378 -0.047247,-2.03162 -0.023625,-0.18899 -0.094494,-0.0709 -0.1653646,-0.0473 -0.1653646,0.0236 -0.1889879,0.0945 -0.1181177,0.14174 -0.1653646,0.25986 0.047247,0.47247 v 0"
       id="path1021"
       inkscape:connector-curvature="0" />
    <path
       style="fill:none;stroke:#000000;stroke-width:0.26458332px;stroke-linecap:butt;stroke-linejoin:miter;stroke-opacity:1"
       d="m 5.1735492,289.48771 2.9765625,-1.7009 0.3071055,0.4016 0.2126115,0.16537 0.2362354,0.14174 0.2598584,0.0945 0.3071058,0.0945 0.1653646,0.0236 h 0.1889879 l 0.1653646,-0.11812 0.1181176,-0.11811 0.118118,-0.18899 0.07087,-0.14174 0.04725,-0.30711 0.04725,-0.23623 -0.04725,-0.30711 -0.07087,-0.37798 -0.04725,-0.21261 -0.07087,-0.16536 0.4016,-0.18899 -0.141741,-4.39397"
       id="path1023"
       inkscape:connector-curvature="0" />
    <path
       style="fill:none;stroke:#000000;stroke-width:0.26458332px;stroke-linecap:butt;stroke-linejoin:miter;stroke-opacity:1"
       d="m 10.559711,286.34577 0.944939,1.46467 -5.5279015,3.1183"
       id="path1025"
       inkscape:connector-curvature="0" />
    <path
       style="fill:none;stroke:#000000;stroke-width:0.26458332px;stroke-linecap:butt;stroke-linejoin:miter;stroke-opacity:1"
       d="m 11.50465,287.81044 4.535714,2.78757"
       id="path1027"
       inkscape:connector-curvature="0" />
    <path
       style="fill:none;stroke:#000000;stroke-width:0.26458332px;stroke-linecap:butt;stroke-linejoin:miter;stroke-opacity:1"
       d="m 6.6145832,292.01542 2.7875746,1.58278 0.2598584,0.16536 0.023625,0.18899 -0.023625,0.14174 -0.1889879,0.14174 -0.4015997,0.0945 -0.496094,-0.0236 -0.4252229,-0.21261 -0.4960938,-0.33073"
       id="path1029"
       inkscape:connector-curvature="0" />
    <path
       style="fill:none;stroke:#000000;stroke-width:0.26458332px;stroke-linecap:butt;stroke-linejoin:miter;stroke-opacity:1"
       d="m 10.536086,289.55858 3.141927,1.77176 0.330729,0.0236 0.448847,-0.0709 0.165365,-0.0472 0.118117,-0.21261 0.02363,-0.23624 -0.236235,-0.21261 -2.905692,-1.6064 -0.259859,-0.0945 -0.47247,-0.0236 -0.354353,0.11812 -0.141741,0.16536 0.02362,0.18899 z"
       id="path1031"
       inkscape:connector-curvature="0" />
    <path
       style="fill:#fce94f;fill-opacity:1;stroke-width:0.01803572;stroke-linecap:round;stroke-linejoin:miter;stroke-miterlimit:4;stroke-dasharray:none;paint-order:markers fill stroke"
       d="m 37.123714,52.551769 c -0.0022,-0.959991 -0.05915,-1.081152 -0.700003,-1.488715 -1.445053,-0.919007 -11.138649,-6.363692 -11.220209,-6.30215 -0.05497,0.04148 -0.389842,-0.445199 -0.848214,-1.232762 -0.416557,-0.715717 -0.867724,-1.490369 -1.002593,-1.721447 L 23.107479,41.38655 33.216224,35.684456 c 5.55981,-3.136152 10.171995,-5.702094 10.249301,-5.702094 0.202048,0 16.259118,9.885243 16.180281,9.961096 -0.03616,0.0348 -0.84137,0.512873 -1.789346,1.062396 -1.591066,0.922307 -2.003809,1.105157 -1.71841,0.761273 0.06063,-0.07305 0.130089,-0.445672 0.154364,-0.828051 l 0.04414,-0.695234 -0.565749,-0.496506 c -0.434758,-0.381546 -1.844431,-1.203097 -6.088406,-3.548293 -3.037462,-1.678484 -5.796737,-3.150655 -6.131725,-3.271492 -0.491908,-0.177441 -0.797598,-0.222503 -1.589172,-0.234259 -0.849453,-0.01262 -1.076165,0.01743 -1.700697,0.225423 -0.621401,0.206945 -0.777324,0.30308 -1.13275,0.698399 -0.409168,0.455095 -0.411761,0.46201 -0.357401,0.953288 0.03012,0.272178 0.180324,0.762418 0.333793,1.089424 l 0.279035,0.594556 5.946502,3.346923 c 3.270576,1.840808 6.026859,3.386272 6.125073,3.434365 0.297565,0.145708 1.522765,0.179382 2.210028,0.06074 0.355913,-0.06144 0.657356,-0.102091 0.669872,-0.09033 0.01252,0.01176 -3.72409,2.185987 -8.303571,4.831624 -4.579481,2.645637 -8.456909,4.886016 -8.616508,4.978621 l -0.290178,0.168374 -9.82e-4,-0.432926 z"
       id="path1033"
       inkscape:connector-curvature="0"
       transform="matrix(0.26458333,0,0,0.26458333,0,280.06665)" />
    <path
       style="fill:#fce94f;fill-opacity:1;stroke-width:0.01803572;stroke-linecap:round;stroke-linejoin:miter;stroke-miterlimit:4;stroke-dasharray:none;paint-order:markers fill stroke"
       d="M 16.767554,54.96935 4.4014824,47.888221 4.3456821,35.583889 C 4.314992,28.816506 4.2949027,23.274207 4.3010393,23.26767 c 0.00614,-0.0065 1.6639134,0.949109 3.6839485,2.12366 l 3.6727912,2.135547 8.804887,15.220274 8.804888,15.220274 -0.0097,1.539994 c -0.0053,0.846997 -0.03546,1.765684 -0.06696,2.041527 l -0.05728,0.501533 z"
       id="path1035"
       inkscape:connector-curvature="0"
       transform="matrix(0.26458333,0,0,0.26458333,0,280.06665)" />
    <path
       style="fill:#fce94f;fill-opacity:1;stroke-width:0.01803572;stroke-linecap:round;stroke-linejoin:miter;stroke-miterlimit:4;stroke-dasharray:none;paint-order:markers fill stroke"
       d="M 8.4463162,24.40886 C 6.5459747,23.296672 4.9683969,22.362693 4.9405877,22.333352 4.8782143,22.267542 36.576159,4.1841615 36.765869,4.1773267 c 0.155006,-0.00558 6.876685,3.9717305 6.876685,4.0690346 0,0.09259 -0.609697,0.4542182 -0.690336,0.4094572 -0.03773,-0.020941 -0.846464,-0.5112353 -1.797195,-1.0895427 L 39.42642,6.5148079 39.146094,6.6506104 C 38.84219,6.7978355 9.9807788,23.563355 9.9108386,23.633295 c -0.023361,0.02336 0.018723,0.135873 0.093519,0.250026 0.116729,0.17815 0.118442,0.231556 0.0121,0.376995 -0.068145,0.09319 -0.1238996,0.198515 -0.1238996,0.234049 0,0.03554 0.6072186,0.435842 1.3493746,0.889573 1.295734,0.792171 1.340987,0.829615 1.138393,0.941949 -0.11604,0.06434 -0.271249,0.114318 -0.34491,0.11106 -0.07366,-0.0033 -1.688753,-0.915897 -3.5890952,-2.028087 z"
       id="path1037"
       inkscape:connector-curvature="0"
       transform="matrix(0.26458333,0,0,0.26458333,0,280.06665)" />
    <path
       style="fill:#fce94f;fill-opacity:1;stroke-width:0.01803572;stroke-linecap:round;stroke-linejoin:miter;stroke-miterlimit:4;stroke-dasharray:none;paint-order:markers fill stroke"
       d="m 18.350717,33.211544 c -0.949175,-1.632284 -1.032453,-1.809863 -0.861369,-1.83672 l 0.189395,-0.02973 -0.0614,-3.13991 c -0.03377,-1.726951 -0.09528,-3.681001 -0.136681,-4.342333 l -0.07528,-1.202422 -0.294576,-0.240422 c -0.615747,-0.502547 -1.483596,-0.579985 -2.302518,-0.205453 -0.632147,0.289111 -0.892061,0.541768 -1.446546,1.406161 -0.428353,0.667765 -0.445674,0.718757 -0.387596,1.141037 l 0.0608,0.442033 -0.897818,-0.550137 -0.897817,-0.550137 13.679302,-7.948178 C 32.44223,11.783836 38.65952,8.1909039 38.734814,8.1710404 c 0.120754,-0.031857 0.16075,0.7357643 0.339169,6.5094156 0.11125,3.600042 0.225673,7.027674 0.254274,7.61696 l 0.052,1.071429 -0.815279,0.397831 c -0.448403,0.218807 -0.815278,0.430955 -0.815278,0.47144 0,0.04049 0.09786,0.306108 0.217461,0.590272 0.181359,0.430892 0.455743,1.673794 0.714037,3.234436 0.02904,0.17544 -0.0235,0.76612 -0.116741,1.312624 -0.207411,1.215644 -0.59218,1.98491 -1.240355,2.479828 -0.390196,0.297937 -0.448497,0.315504 -0.866901,0.261217 -0.246715,-0.03201 -0.729823,-0.141922 -1.073573,-0.244248 -1.836813,-0.546774 -2.631587,-1.062006 -3.626753,-2.351131 -0.392731,-0.508736 -0.747491,-0.945641 -0.788359,-0.970898 -0.04087,-0.02526 -2.640078,1.420213 -5.776024,3.212156 -3.135947,1.791942 -5.72181,3.257646 -5.746364,3.25712 -0.02455,-5.36e-4 -0.517487,-0.814101 -1.095408,-1.807945 z m 16.61269,-3.761991 c 0.572704,-0.288409 0.625041,-0.342939 1.198101,-1.248314 0.895334,-1.414531 0.85659,-1.047423 0.977311,-9.2601 l 0.101832,-6.927703 -0.250334,-0.459947 C 36.801183,11.205987 36.626414,11.029447 36.27544,10.83137 l -0.464543,-0.262172 -0.736455,0.159821 -0.736456,0.159821 -0.84834,0.84834 -0.848341,0.848341 -0.301976,0.927375 -0.301976,0.927374 -9.73e-4,7.130235 -9.73e-4,7.130236 0.424107,0.580939 0.424107,0.580939 0.740458,-0.05574 c 0.593553,-0.04468 0.859272,-0.115575 1.339323,-0.357324 z"
       id="path1039"
       inkscape:connector-curvature="0"
       transform="matrix(0.26458333,0,0,0.26458333,0,280.06665)" />
    <path
       style="fill:#fce94f;fill-opacity:1;stroke-width:0.01803572;stroke-linecap:round;stroke-linejoin:miter;stroke-miterlimit:4;stroke-dasharray:none;paint-order:markers fill stroke"
       d="M 21.474725,42.319735 C 16.780366,34.204779 12.915684,27.502981 12.886544,27.42685 c -0.03695,-0.09654 0.04213,-0.183777 0.261381,-0.28833 0.306721,-0.146266 0.317414,-0.145071 0.439863,0.04913 0.28634,0.45414 17.026965,29.267562 17.070703,29.381542 0.02956,0.07702 -0.075,0.196678 -0.27494,0.314644 -0.177448,0.104696 -0.334107,0.190358 -0.34813,0.190358 -0.01402,0 -3.866337,-6.639509 -8.560696,-14.754464 z"
       id="path1041"
       inkscape:connector-curvature="0"
       transform="matrix(0.26458333,0,0,0.26458333,0,280.06665)" />
    <path
       style="fill:#fce94f;fill-opacity:1;stroke-width:0.01803572;stroke-linecap:round;stroke-linejoin:miter;stroke-miterlimit:4;stroke-dasharray:none;paint-order:markers fill stroke"
       d="m 15.365082,28.072133 -1.177436,-2.02472 -0.07759,-0.745937 -0.07759,-0.745937 0.41951,-0.59736 c 0.4889,-0.696169 0.936989,-0.960558 1.478915,-0.872615 0.181597,0.02947 0.36205,0.08545 0.401006,0.124409 0.0603,0.0603 0.286935,6.810565 0.23055,6.86695 -0.01096,0.01096 -0.549777,-0.891194 -1.197367,-2.00479 z"
       id="path1045"
       inkscape:connector-curvature="0"
       transform="matrix(0.26458333,0,0,0.26458333,0,280.06665)" />
    <path
       style="fill:#fce94f;fill-opacity:1;stroke-width:0.01803572;stroke-linecap:round;stroke-linejoin:miter;stroke-miterlimit:4;stroke-dasharray:none;paint-order:markers fill stroke"
       d="m 21.260339,38.212592 c -0.95273,-1.631291 -1.23874,-2.189533 -1.159912,-2.263949 0.05755,-0.05432 2.452813,-1.437804 5.322818,-3.074401 l 5.21819,-2.975631 0.271233,0.351187 c 0.932207,1.207005 2.049209,1.967504 3.675579,2.50248 0.559718,0.184113 1.007831,0.341959 0.995809,0.35077 -0.180605,0.132354 -12.925605,7.274722 -12.981176,7.274722 -0.0429,0 -0.647044,-0.97433 -1.342541,-2.165178 z"
       id="path1047"
       inkscape:connector-curvature="0"
       transform="matrix(0.26458333,0,0,0.26458333,0,280.06665)" />
    <path
       style="fill:#fce94f;fill-opacity:1;stroke-width:0.01803572;stroke-linecap:round;stroke-linejoin:miter;stroke-miterlimit:4;stroke-dasharray:none;paint-order:markers fill stroke"
       d="M 33.26309,28.548249 C 33.117512,28.3498 33.10684,27.870744 33.10684,21.534602 v -6.800651 l 0.231832,-0.77184 c 0.216108,-0.719493 0.2745,-0.815242 0.86096,-1.411772 0.494089,-0.502573 0.71476,-0.661494 1.028072,-0.740387 0.46786,-0.117808 0.784684,0.02564 0.878025,0.397536 0.103104,0.4108 -0.138368,13.435191 -0.260731,14.063139 -0.0839,0.430562 -0.235786,0.771469 -0.588459,1.320787 -0.508405,0.791886 -0.808764,1.018633 -1.480056,1.117325 -0.306202,0.04502 -0.37943,0.02213 -0.513393,-0.16049 z"
       id="path1049"
       inkscape:connector-curvature="0"
       transform="matrix(0.26458333,0,0,0.26458333,0,280.06665)" />
    <path
       style="fill:#fce94f;fill-opacity:1;stroke-width:0.01803572;stroke-linecap:round;stroke-linejoin:miter;stroke-miterlimit:4;stroke-dasharray:none;paint-order:markers fill stroke"
       d="m 39.443833,30.623306 c 0.03993,-0.159598 0.143289,-0.733319 0.229687,-1.274935 L 39.830607,28.363615 39.5835,26.95186 c -0.135908,-0.776465 -0.298672,-1.607232 -0.361697,-1.846149 l -0.114591,-0.434394 0.309367,-0.102101 c 0.170153,-0.05616 0.322045,-0.08805 0.337538,-0.07088 0.08265,0.0916 2.837269,4.39977 2.873417,4.493971 0.02694,0.0702 -0.552642,0.447375 -1.561808,1.016397 -0.882551,0.497629 -1.624856,0.904781 -1.649565,0.904781 -0.02471,0 -0.01226,-0.130581 0.02767,-0.290179 z"
       id="path1051"
       inkscape:connector-curvature="0"
       transform="matrix(0.26458333,0,0,0.26458333,0,280.06665)" />
    <path
       style="fill:#fce94f;fill-opacity:1;stroke-width:0.01803572;stroke-linecap:round;stroke-linejoin:miter;stroke-miterlimit:4;stroke-dasharray:none;paint-order:markers fill stroke"
       d="M 51.412939,33.500628 43.874367,28.866964 42.159229,26.207188 40.444091,23.547413 40.206137,16.181342 C 40.075262,12.130002 39.9813,8.6660411 39.997332,8.4836499 l 0.02915,-0.3316203 1.322845,0.8226918 1.322846,0.8226917 8.165307,14.1427999 c 4.490918,7.77854 8.153769,14.154338 8.139668,14.16844 -0.0141,0.0141 -3.417996,-2.059511 -7.56421,-4.608025 z"
       id="path1053"
       inkscape:connector-curvature="0"
       transform="matrix(0.26458333,0,0,0.26458333,0,280.06665)" />
    <path
       style="fill:#fce94f;fill-opacity:1;stroke-width:0.01803572;stroke-linecap:round;stroke-linejoin:miter;stroke-miterlimit:4;stroke-dasharray:none;paint-order:markers fill stroke"
       d="M 52.338741,24.373306 43.761174,9.5295559 44.150907,9.2717536 c 0.214353,-0.1417913 0.407501,-0.2400341 0.429218,-0.2183174 0.02172,0.021717 3.876379,6.7245388 8.565917,14.8951608 l 8.526432,14.855676 -0.36336,0.206391 c -0.199847,0.113516 -0.369984,0.206392 -0.378082,0.206392 -0.0081,0 -3.874629,-6.679687 -8.592291,-14.84375 z"
       id="path1055"
       inkscape:connector-curvature="0"
       transform="matrix(0.26458333,0,0,0.26458333,0,280.06665)" />
    <path
       style="fill:#fce94f;fill-opacity:1;stroke-width:0.01803572;stroke-linecap:round;stroke-linejoin:miter;stroke-miterlimit:4;stroke-dasharray:none;paint-order:markers fill stroke"
       d="m 30.280556,61.88153 c 0.03079,-0.115014 0.05654,-0.99705 0.05721,-1.960079 l 0.0012,-1.750963 15.760554,-9.111479 15.760555,-9.11148 -0.02395,2.061061 -0.02395,2.061061 -15.446429,8.827959 c -8.495535,4.855377 -15.602752,8.910102 -15.793814,9.010498 l -0.347386,0.18254 z"
       id="path1057"
       inkscape:connector-curvature="0"
       transform="matrix(0.26458333,0,0,0.26458333,0,280.06665)" />
    <path
       style="fill:#fce94f;fill-opacity:1;stroke-width:0.01803572;stroke-linecap:round;stroke-linejoin:miter;stroke-miterlimit:4;stroke-dasharray:none;paint-order:markers fill stroke"
       d="m 46.055895,38.768695 c -6.276214,-3.543474 -6.150352,-3.458264 -6.159599,-4.170116 -0.0044,-0.335734 0.154276,-0.461162 0.879314,-0.695241 0.66037,-0.213201 2.009985,-0.147357 2.639282,0.128764 0.243089,0.106662 2.854696,1.524077 5.803571,3.14981 3.443055,1.898178 5.487024,3.076795 5.71213,3.293793 0.34202,0.3297 0.34805,0.346221 0.248126,0.679739 -0.05633,0.188005 -0.153802,0.409274 -0.21661,0.491709 -0.145595,0.191091 -1.477096,0.427312 -2.390983,0.424183 l -0.669643,-0.0023 z"
       id="path1059"
       inkscape:connector-curvature="0"
       transform="matrix(0.26458333,0,0,0.26458333,0,280.06665)" />
    <path
       style="fill:#fce94f;fill-opacity:1;stroke-width:0.01803572;stroke-linecap:round;stroke-linejoin:miter;stroke-miterlimit:4;stroke-dasharray:none;paint-order:markers fill stroke"
       d="M 31.722911,52.852044 C 31.23184,52.595653 30.518544,52.173817 30.13781,51.91463 c -0.812601,-0.553184 -0.95478,-0.617603 -1.044107,-0.473069 -0.04075,0.06593 -0.63895,-0.872285 -1.543014,-2.420026 -0.812059,-1.390231 -1.463298,-2.542231 -1.447198,-2.56 0.03257,-0.03594 8.626173,4.821297 9.435603,5.33315 0.448068,0.283342 0.512711,0.359928 0.513393,0.608256 0.0016,0.571117 -0.96186,0.923285 -2.512107,0.918263 l -0.924612,-0.003 z"
       id="path1061"
       inkscape:connector-curvature="0"
       transform="matrix(0.26458333,0,0,0.26458333,0,280.06665)" />
    <path
       style="fill:#fce94f;fill-opacity:1;stroke-width:0.01803572;stroke-linecap:round;stroke-linejoin:miter;stroke-miterlimit:4;stroke-dasharray:none;paint-order:markers fill stroke"
       d="m 31.615147,55.980449 c -0.249107,-0.327135 -1.557911,-2.672122 -1.515217,-2.714817 0.02761,-0.02761 0.163004,0.02956 0.300876,0.127046 0.137872,0.09749 0.616728,0.36062 1.064124,0.584743 l 0.813448,0.407498 1.168691,0.0247 c 0.64278,0.01359 1.160657,0.03053 1.150838,0.03766 -0.08216,0.05964 -2.84735,1.644771 -2.869219,1.644771 -0.0157,0 -0.0668,-0.05022 -0.113541,-0.111607 z"
       id="path1063"
       inkscape:connector-curvature="0"
       transform="matrix(0.26458333,0,0,0.26458333,0,280.06665)" />
  </g>
</svg>
