<?xml version="1.0" encoding="UTF-8" standalone="no"?>
<!-- Created with Inkscape (http://www.inkscape.org/) -->

<svg
   xmlns:dc="http://purl.org/dc/elements/1.1/"
   xmlns:cc="http://creativecommons.org/ns#"
   xmlns:rdf="http://www.w3.org/1999/02/22-rdf-syntax-ns#"
   xmlns:svg="http://www.w3.org/2000/svg"
   xmlns="http://www.w3.org/2000/svg"
   xmlns:sodipodi="http://sodipodi.sourceforge.net/DTD/sodipodi-0.dtd"
   xmlns:inkscape="http://www.inkscape.org/namespaces/inkscape"
   width="64"
   height="64"
   viewBox="0 0 16.933333 16.933334"
   version="1.1"
   id="svg8"
   sodipodi:docname="Tensioner_cmd.svg"
   inkscape:version="0.92.4 (5da689c313, 2019-01-14)">
  <defs
     id="defs2">
    <inkscape:path-effect
       effect="spiro"
       id="path-effect2989"
       is_visible="true" />
    <inkscape:path-effect
       effect="bspline"
       id="path-effect2893"
       is_visible="true"
       weight="33.333333"
       steps="2"
       helper_size="0"
       apply_no_weight="true"
       apply_with_weight="true"
       only_selected="false" />
    <inkscape:path-effect
       effect="bspline"
       id="path-effect2698"
       is_visible="true"
       weight="33.333333"
       steps="2"
       helper_size="0"
       apply_no_weight="true"
       apply_with_weight="true"
       only_selected="false" />
    <inkscape:path-effect
       effect="bspline"
       id="path-effect2694"
       is_visible="true"
       weight="33.333333"
       steps="2"
       helper_size="0"
       apply_no_weight="true"
       apply_with_weight="true"
       only_selected="false" />
    <inkscape:path-effect
       effect="bspline"
       id="path-effect2117"
       is_visible="true"
       weight="33.333333"
       steps="2"
       helper_size="0"
       apply_no_weight="true"
       apply_with_weight="true"
       only_selected="false" />
    <inkscape:path-effect
       effect="bspline"
       id="path-effect2063"
       is_visible="true"
       weight="33.333333"
       steps="2"
       helper_size="0"
       apply_no_weight="true"
       apply_with_weight="true"
       only_selected="false" />
    <inkscape:path-effect
       effect="spiro"
       id="path-effect1433"
       is_visible="true" />
    <inkscape:path-effect
       effect="spiro"
       id="path-effect1429"
       is_visible="true" />
    <inkscape:path-effect
       effect="bspline"
       id="path-effect1425"
       is_visible="true"
       weight="33.333333"
       steps="2"
       helper_size="0"
       apply_no_weight="true"
       apply_with_weight="true"
       only_selected="false" />
    <inkscape:path-effect
       effect="bspline"
       id="path-effect1421"
       is_visible="true"
       weight="33.333333"
       steps="2"
       helper_size="0"
       apply_no_weight="true"
       apply_with_weight="true"
       only_selected="false" />
    <inkscape:path-effect
       effect="bspline"
       id="path-effect1367"
       is_visible="true"
       weight="33.333333"
       steps="2"
       helper_size="0"
       apply_no_weight="true"
       apply_with_weight="true"
       only_selected="false" />
    <inkscape:path-effect
       effect="bspline"
       id="path-effect1093"
       is_visible="true"
       weight="33.333333"
       steps="2"
       helper_size="0"
       apply_no_weight="true"
       apply_with_weight="true"
       only_selected="false" />
    <inkscape:path-effect
       effect="bspline"
       id="path-effect877"
       is_visible="true"
       weight="33.333333"
       steps="2"
       helper_size="0"
       apply_no_weight="true"
       apply_with_weight="true"
       only_selected="false" />
    <inkscape:path-effect
       effect="bspline"
       id="path-effect847"
       is_visible="true"
       weight="33.333333"
       steps="2"
       helper_size="0"
       apply_no_weight="true"
       apply_with_weight="true"
       only_selected="false" />
    <inkscape:path-effect
       effect="bspline"
       id="path-effect843"
       is_visible="true"
       weight="33.333333"
       steps="2"
       helper_size="0"
       apply_no_weight="true"
       apply_with_weight="true"
       only_selected="false" />
    <inkscape:path-effect
       effect="bspline"
       id="path-effect839"
       is_visible="true"
       weight="33.333333"
       steps="2"
       helper_size="0"
       apply_no_weight="true"
       apply_with_weight="true"
       only_selected="false" />
    <inkscape:path-effect
       effect="bspline"
       id="path-effect847-2"
       is_visible="true"
       weight="33.333333"
       steps="2"
       helper_size="0"
       apply_no_weight="true"
       apply_with_weight="true"
       only_selected="false" />
    <inkscape:path-effect
       effect="bspline"
       id="path-effect847-5"
       is_visible="true"
       weight="33.333333"
       steps="2"
       helper_size="0"
       apply_no_weight="true"
       apply_with_weight="true"
       only_selected="false" />
    <inkscape:path-effect
       effect="spiro"
       id="path-effect1433-4"
       is_visible="true" />
    <inkscape:path-effect
       effect="bspline"
       id="path-effect1425-9"
       is_visible="true"
       weight="33.333333"
       steps="2"
       helper_size="0"
       apply_no_weight="true"
       apply_with_weight="true"
       only_selected="false" />
    <inkscape:path-effect
       effect="bspline"
       id="path-effect2698-0"
       is_visible="true"
       weight="33.333333"
       steps="2"
       helper_size="0"
       apply_no_weight="true"
       apply_with_weight="true"
       only_selected="false" />
  </defs>
  <sodipodi:namedview
     id="base"
     pagecolor="#ffffff"
     bordercolor="#666666"
     borderopacity="1.0"
     inkscape:pageopacity="0.0"
     inkscape:pageshadow="2"
     inkscape:zoom="22.4"
     inkscape:cx="42.060996"
     inkscape:cy="34.989147"
     inkscape:document-units="mm"
     inkscape:current-layer="layer1"
     showgrid="true"
     units="px"
     inkscape:snap-grids="true"
     inkscape:snap-to-guides="true"
     inkscape:window-width="3840"
     inkscape:window-height="2055"
     inkscape:window-x="-13"
     inkscape:window-y="-13"
     inkscape:window-maximized="1">
    <inkscape:grid
       type="axonomgrid"
       id="grid821"
       units="px"
       empspacing="5"
       enabled="false"
       spacingy="1.0000007" />
    <inkscape:grid
       type="xygrid"
       id="grid879"
       enabled="false" />
  </sodipodi:namedview>
  <metadata
     id="metadata5">
    <rdf:RDF>
      <cc:Work
         rdf:about="">
        <dc:format>image/svg+xml</dc:format>
        <dc:type
           rdf:resource="http://purl.org/dc/dcmitype/StillImage" />
        <dc:title />
      </cc:Work>
    </rdf:RDF>
  </metadata>
  <g
     inkscape:label="Capa 1"
     inkscape:groupmode="layer"
     id="layer1"
     transform="translate(0,-280.06665)">
    <path
       style="fill:none;stroke:#000000;stroke-width:0.26458332px;stroke-linecap:butt;stroke-linejoin:miter;stroke-opacity:1"
       d="m 15.470467,286.67842 -0.866025,0.5 -0.289102,0.91459 v 1.32291 l 0.289102,0.7625 0.869634,-0.49791 0.164181,-0.79375 v -1.5875 z"
       id="path829"
       inkscape:connector-curvature="0" />
    <path
       style="fill:none;stroke:#000000;stroke-width:0.26458332px;stroke-linecap:butt;stroke-linejoin:miter;stroke-opacity:1"
       d="m 13.738419,283.67842 c 0,-0.33359 0,-0.66693 0.144379,-0.91682 0.14438,-0.2499 0.43328,-0.41669 0.577463,-0.33358 0.144183,0.0831 0.144183,0.41681 0.144183,0.7504"
       id="path841"
       inkscape:connector-curvature="0"
       inkscape:path-effect="#path-effect843"
       inkscape:original-d="m 13.738419,283.67842 c 2.64e-4,-0.33359 2.64e-4,-0.66693 0,-1 0.28871,-0.1668 0.577614,-0.33359 0.866025,-0.5 2.65e-4,0.33271 2.65e-4,0.66641 0,1" />
    <path
       style="fill:none;stroke:#000000;stroke-width:0.26458332px;stroke-linecap:butt;stroke-linejoin:miter;stroke-opacity:1"
       d="m 15.470469,282.67842 c 0,-0.33359 0,-0.66693 0.14438,-0.91682 0.14438,-0.2499 0.43328,-0.41669 0.577463,-0.32321 0.144183,0.0935 0.144183,0.40644 0.144183,0.74003"
       id="path845"
       inkscape:connector-curvature="0"
       inkscape:path-effect="#path-effect847"
       inkscape:original-d="m 15.470469,282.67842 c 2.65e-4,-0.33359 2.65e-4,-0.66693 0,-1 0.288711,-0.1668 0.577615,-0.33359 0.866026,-0.5 -0.0073,0.35346 2.64e-4,0.66641 0,1" />
    <path
       style="fill:none;stroke:#000000;stroke-width:0.26458332px;stroke-linecap:butt;stroke-linejoin:miter;stroke-opacity:1"
       d="m 12.463259,281.41464 c 0.577435,0.33338 1.154788,0.66672 1.732051,1"
       id="path1423"
       inkscape:connector-curvature="0"
       inkscape:path-effect="#path-effect1425"
       inkscape:original-d="m 12.463259,281.41464 c 0.577615,0.33307 1.154965,0.66641 1.732051,1" />
    <path
       style="fill:none;stroke:#000000;stroke-width:0.26458332px;stroke-linecap:butt;stroke-linejoin:miter;stroke-opacity:1"
       d="m 12.006368,282.67842 c -0.02386,-0.20324 -0.02386,-0.40926 0,-0.6125 0.01169,-0.0996 0.02933,-0.19932 0.06692,-0.29225 0.03759,-0.0929 0.09645,-0.17925 0.17845,-0.23691 0.06916,-0.0486 0.153507,-0.0753 0.23805,-0.0753 0.08454,0 0.168891,0.0267 0.23805,0.0753"
       id="path1431"
       inkscape:connector-curvature="0"
       inkscape:path-effect="#path-effect1433"
       inkscape:original-d="m 12.006368,282.67842 c 2.64e-4,-0.20443 2.64e-4,-0.40859 0,-0.6125 -2.65e-4,-0.2039 0.163847,-0.35304 0.245374,-0.52916 0.08153,-0.17613 0.317665,-2.7e-4 0.4761,0" />
    <path
       style="fill:none;stroke:#000000;stroke-width:0.26458332px;stroke-linecap:butt;stroke-linejoin:miter;stroke-opacity:1"
       d="m 14.170792,280.42879 c 0.577434,0.33338 1.154788,0.66672 1.73205,1"
       id="path1423-7"
       inkscape:connector-curvature="0"
       inkscape:path-effect="#path-effect1425-9"
       inkscape:original-d="m 14.170792,280.42879 c 0.577614,0.33307 1.154965,0.66641 1.73205,1" />
    <path
       style="fill:none;stroke:#000000;stroke-width:0.26458332px;stroke-linecap:butt;stroke-linejoin:miter;stroke-opacity:1"
       d="m 13.7139,281.69257 c -0.02386,-0.20324 -0.02386,-0.40926 0,-0.6125 0.01169,-0.0996 0.02933,-0.19932 0.06692,-0.29225 0.03759,-0.0929 0.09645,-0.17925 0.17845,-0.23691 0.06916,-0.0486 0.153507,-0.0753 0.238051,-0.0753 0.08454,0 0.16889,0.0267 0.23805,0.0753"
       id="path1431-7"
       inkscape:connector-curvature="0"
       inkscape:path-effect="#path-effect1433-4"
       inkscape:original-d="m 13.7139,281.69257 c 2.65e-4,-0.20443 2.65e-4,-0.40859 0,-0.6125 -2.64e-4,-0.2039 0.163847,-0.35304 0.245374,-0.52916 0.08153,-0.17613 0.317665,-2.7e-4 0.476101,0" />
    <path
       style="fill:none;stroke:#000000;stroke-width:0.26458332px;stroke-linecap:butt;stroke-linejoin:miter;stroke-opacity:1"
       d="m 15.470469,284.67842 -0.959845,-0.52916"
       id="path1914"
       inkscape:connector-curvature="0" />
    <path
       style="fill:none;stroke:#000000;stroke-width:0.26458332px;stroke-linecap:butt;stroke-linejoin:miter;stroke-opacity:1"
       d="M 15.470467,289.67842 14.31534,289.01151"
       id="path1916"
       inkscape:connector-curvature="0" />
    <path
       style="fill:none;stroke:#000000;stroke-width:0.28314826px;stroke-linecap:butt;stroke-linejoin:miter;stroke-opacity:1"
       d="M 15.638257,288.88676 14.31534,288.21985"
       id="path1916-7"
       inkscape:connector-curvature="0" />
    <path
       style="fill:none;stroke:#000000;stroke-width:0.26458332px;stroke-linecap:butt;stroke-linejoin:miter;stroke-opacity:1"
       d="m 12.51804,284.4619 c -0.144381,-0.25015 -0.144381,-0.58349 -1.16e-4,-0.66673 0.144265,-0.0832 0.43317,0.0836 0.577465,0.33395 0.144296,0.25039 0.144296,0.58263 -1.14e-4,0.66605 -0.144409,0.0834 -0.432853,-0.0831 -0.577235,-0.33327 z"
       id="path2061"
       inkscape:connector-curvature="0"
       inkscape:path-effect="#path-effect2063"
       inkscape:original-d="m 12.373659,284.54534 c 2.65e-4,-0.33359 2.65e-4,-0.66693 0,-1 0.288711,0.16627 0.577615,0.33307 0.866026,0.5 -0.0062,0.33417 2.64e-4,0.66641 0,1 -0.28864,-0.16706 -0.577086,-0.33359 -0.866026,-0.5 z" />
    <path
       style="fill:none;stroke:#000000;stroke-width:0.26458332px;stroke-linecap:butt;stroke-linejoin:miter;stroke-opacity:1"
       d="m 14.604444,283.17842 c 0,0.66641 0,1.33307 0,2"
       id="path2115"
       inkscape:connector-curvature="0"
       inkscape:path-effect="#path-effect2117"
       inkscape:original-d="m 14.604444,283.17842 c 2.65e-4,0.66641 2.65e-4,1.33307 0,2" />
    <path
       style="fill:none;stroke:#000000;stroke-width:0.26458332px;stroke-linecap:butt;stroke-linejoin:miter;stroke-opacity:1"
       d="m 14.604444,285.17842 0.866025,-0.5 v -2 l -1.73205,-1 v 0.3875"
       id="path2119"
       inkscape:connector-curvature="0" />
    <path
       style="fill:none;stroke:#000000;stroke-width:0.26458332px;stroke-linecap:butt;stroke-linejoin:miter;stroke-opacity:1"
       d="m 13.738416,291.67842 2.598078,-1.5 v -8"
       id="path2166"
       inkscape:connector-curvature="0" />
    <path
       style="fill:none;stroke:#000000;stroke-width:0.26458332px;stroke-linecap:butt;stroke-linejoin:miter;stroke-opacity:1"
       d="m 12.006364,282.67842 v 8 l 1.732052,1 v -8 z"
       id="path2168"
       inkscape:connector-curvature="0" />
    <path
       style="fill:#fce94f;fill-opacity:1;stroke-width:0.02362351"
       d="M 12.865531,291.00961 12.15092,290.5953 v -3.82495 c 0,-2.10373 0.0068,-3.82496 0.01506,-3.82496 0.0083,0 0.332517,0.18333 0.720517,0.4074 l 0.705456,0.4074 v 3.83302 c 0,2.10816 -0.0027,3.8325 -0.0059,3.83187 -0.0032,-6.4e-4 -0.327481,-0.18759 -0.720517,-0.41547 z m 0.302141,-6.09214 c 0.27332,-0.14134 0.213292,-0.74046 -0.106199,-1.05995 -0.278473,-0.27847 -0.608208,-0.29541 -0.740971,-0.0381 -0.04694,0.091 -0.05335,0.13184 -0.04448,0.28348 0.01437,0.24576 0.08616,0.41918 0.244157,0.58984 0.213057,0.23013 0.466742,0.31816 0.647493,0.22469 z"
       id="path3659"
       inkscape:connector-curvature="0" />
    <path
       style="fill:#fce94f;fill-opacity:1;stroke-width:0.02362351"
       d="m 13.88106,287.29977 c 0.0063,-3.86332 0.0095,-4.13911 0.04841,-4.2717 0.0229,-0.0779 0.07094,-0.18426 0.106761,-0.23623 0.06484,-0.0941 0.265856,-0.24805 0.323848,-0.24805 0.09123,0 0.104409,0.27486 0.10566,2.20289 l 2.88e-4,0.44294 h 0.0654 c 0.04436,0 0.07686,0.0189 0.10104,0.0587 l 0.03564,0.0587 0.477736,-0.2744 0.477736,-0.2744 v -1.27145 c 0,-1.30669 0.0075,-1.43171 0.09628,-1.60727 0.09018,-0.17831 0.301776,-0.35252 0.38799,-0.31944 0.07915,0.0304 0.0827,0.21908 0.0827,4.39493 v 4.14128 l -1.139835,0.65675 c -0.626909,0.36121 -1.148066,0.66122 -1.158127,0.66669 -0.01006,0.005 -0.01524,-1.84854 -0.01152,-4.12002 z m 1.691558,2.48404 c 0.01745,-0.016 0.07292,-0.22441 0.12326,-0.46311 l 0.09154,-0.434 7.68e-4,-0.78933 7.67e-4,-0.78934 -0.110657,-0.41546 c -0.06086,-0.22851 -0.113075,-0.41895 -0.11603,-0.42322 -0.0076,-0.011 -0.994121,0.56046 -1.047909,0.60705 -0.02721,0.0236 -0.100318,0.21809 -0.188152,0.50063 l -0.143651,0.46209 v 0.71579 0.71579 l 0.144068,0.38127 c 0.07924,0.2097 0.158299,0.41552 0.175694,0.45739 l 0.03163,0.0761 0.503482,-0.28628 c 0.276915,-0.15745 0.517758,-0.29937 0.535206,-0.31538 z"
       id="path3661"
       inkscape:connector-curvature="0" />
    <path
       style="fill:#fce94f;fill-opacity:1;stroke-width:0.02362351"
       d="m 12.87208,283.01509 c -0.376441,-0.21879 -0.699085,-0.417 -0.716986,-0.44046 -0.04153,-0.0544 -0.02126,-0.50808 0.03049,-0.68233 0.05938,-0.19997 0.229752,-0.32999 0.349704,-0.26689 0.08049,0.0423 1.397918,0.80344 1.408427,0.81367 0.0051,0.005 -0.02902,0.0513 -0.07575,0.10302 -0.151984,0.16823 -0.225065,0.37248 -0.26474,0.73993 -0.0081,0.0747 -0.02187,0.13471 -0.03068,0.13334 -0.0088,-10e-4 -0.324015,-0.18149 -0.700457,-0.40028 z"
       id="path3663"
       inkscape:connector-curvature="0" />
    <path
       style="fill:#fce94f;fill-opacity:1;stroke-width:0.02362351"
       d="m 14.584142,282.00276 -0.720517,-0.41895 -0.01274,-0.0939 c -0.02004,-0.1476 0.016,-0.53062 0.06034,-0.64124 0.05013,-0.12505 0.157307,-0.21843 0.250707,-0.21843 0.048,0 0.298177,0.13163 0.789639,0.41548 l 0.719379,0.41549 -0.08141,0.0951 c -0.150277,0.17556 -0.248122,0.46838 -0.249038,0.74528 -2.25e-4,0.0682 -0.0084,0.12313 -0.01813,0.12204 -0.0097,-10e-4 -0.341951,-0.19051 -0.738235,-0.42093 z"
       id="path3665"
       inkscape:connector-curvature="0" />
    <path
       style="fill:#fce94f;fill-opacity:1;stroke-width:0.02362351"
       d="m 15.027083,284.26901 -0.277577,-0.15404 -1.78e-4,-0.63794 c -1.79e-4,-0.6406 -0.02051,-0.88616 -0.08396,-1.01385 -0.0188,-0.0378 -0.02944,-0.0735 -0.02365,-0.0793 0.0101,-0.0101 0.547597,0.28972 0.633751,0.35351 0.03866,0.0286 0.04123,0.0909 0.03544,0.85828 l -0.0062,0.82742 z"
       id="path3667"
       inkscape:connector-curvature="0" />
    <path
       style="fill:#fce94f;fill-opacity:1;stroke-width:0.02362351"
       d="m 14.749506,284.69245 c 0,-0.12933 0.0049,-0.23515 0.01088,-0.23515 0.01732,0 0.414588,0.22026 0.408251,0.22636 -0.0031,0.003 -0.09873,0.0591 -0.212423,0.12472 l -0.206706,0.11923 z"
       id="path3669"
       inkscape:connector-curvature="0" />
    <path
       style="fill:#ffff00;fill-opacity:1;stroke-width:0.02362351"
       d="m 14.058519,282.17289 c -0.163463,-0.0949 -0.183083,-0.11385 -0.183083,-0.17655 v -0.0702 l 0.135836,0.0774 c 0.446508,0.25436 0.448792,0.25595 0.368096,0.2564 -0.04116,2.3e-4 -0.089,0.005 -0.106306,0.01 -0.0173,0.005 -0.113848,-0.0384 -0.214543,-0.0969 z"
       id="path3671"
       inkscape:connector-curvature="0" />
    <path
       style="fill:#fce94f;fill-opacity:1;stroke-width:0.02362351"
       d="m 14.985959,288.3891 c -0.266235,-0.13665 -0.492946,-0.25735 -0.503801,-0.2682 -0.01086,-0.0109 0.03969,-0.20585 0.112313,-0.43332 l 0.132051,-0.41357 0.327333,-0.18878 0.327334,-0.18877 0.06213,0.23171 c 0.05986,0.22323 0.06214,0.25513 0.06214,0.8711 0,0.35166 -0.008,0.63914 -0.01772,0.63884 -0.0097,-2.9e-4 -0.235547,-0.11235 -0.501782,-0.24901 z"
       id="path3675"
       inkscape:connector-curvature="0" />
    <path
       style="fill:#fce94f;fill-opacity:1;stroke-width:0.02362351"
       d="m 14.908854,289.1879 -0.442366,-0.25395 -2.32e-4,-0.23026 -2.32e-4,-0.23026 0.503991,0.25168 0.50399,0.25167 -0.04817,0.23254 c -0.02649,0.12789 -0.05412,0.23254 -0.06139,0.23254 -0.0073,0 -0.21229,-0.11428 -0.455591,-0.25396 z"
       id="path3677"
       inkscape:connector-curvature="0" />
    <path
       style="fill:#fce94f;fill-opacity:1;stroke-width:0.02362351"
       d="m 14.653184,289.89856 c -0.143807,-0.37351 -0.186847,-0.50173 -0.186991,-0.5571 -9.3e-5,-0.0357 0.0046,-0.065 0.0105,-0.065 0.01072,0 0.542926,0.30488 0.647719,0.37105 l 0.05599,0.0354 -0.103237,0.0587 c -0.05678,0.0323 -0.169609,0.0959 -0.250729,0.14128 l -0.147492,0.0826 z"
       id="path3681"
       inkscape:connector-curvature="0" />
    <path
       style="fill:#fce94f;fill-opacity:1;stroke-width:0.02362351"
       d="m 12.843358,284.60165 c -0.128547,-0.0931 -0.216509,-0.21199 -0.257394,-0.34784 -0.03716,-0.12348 -0.0431,-0.26444 -0.01312,-0.3117 0.05703,-0.0899 0.34075,0.12739 0.426463,0.32664 0.0691,0.16062 0.063,0.38569 -0.01073,0.39625 -0.02653,0.004 -0.09187,-0.0247 -0.145213,-0.0634 z"
       id="path3683"
       inkscape:connector-curvature="0" />
    <path
       style="fill:#aa4400;fill-opacity:1;stroke-width:0.08928572"
       d=""
       id="path3679"
       inkscape:connector-curvature="0"
       transform="matrix(0.26458333,0,0,0.26458333,0,280.06665)" />
    <path
       style="fill:none;stroke:#000000;stroke-width:0.28983665px;stroke-linecap:butt;stroke-linejoin:miter;stroke-opacity:1"
       d="m 4.0789904,296.71195 v -6.00001"
       id="path3183"
       inkscape:connector-curvature="0" />
    <path
       style="fill:none;stroke:#000000;stroke-width:0.26458332px;stroke-linecap:butt;stroke-linejoin:miter;stroke-opacity:1"
       d="m 8.4091204,294.21195 -4.33013,2.5 -3.46410382,-2 v -6.00001 l 6.92820682,-4 3.4641046,2 v 4"
       id="path3215"
       inkscape:connector-curvature="0" />
    <path
       style="fill:none;stroke:#000000;stroke-width:0.26458332px;stroke-linecap:butt;stroke-linejoin:miter;stroke-opacity:1"
       d="m 8.4091204,294.21195 2.5980776,1.5"
       id="path2162"
       inkscape:connector-curvature="0" />
    <path
       style="fill:none;stroke:#000000;stroke-width:0.26458332px;stroke-linecap:butt;stroke-linejoin:miter;stroke-opacity:1"
       d="m 9.2751464,293.71195 2.5980776,-1.5"
       id="path2164"
       inkscape:connector-curvature="0" />
    <path
       style="fill:none;stroke:#000000;stroke-width:0.26458332px;stroke-linecap:butt;stroke-linejoin:miter;stroke-opacity:1"
       d="m 8.4091204,292.21195 0.866026,1.5 1.7320516,1 2.598078,-1.5 -1.732052,-1 -0.866026,-1.5 -2.5980776,1.5"
       id="path2207"
       inkscape:connector-curvature="0" />
    <path
       style="fill:none;stroke:#000000;stroke-width:0.26458332px;stroke-linecap:butt;stroke-linejoin:miter;stroke-opacity:1"
       d="m 11.572546,293.06161 c -0.28856,-1.1e-4 -0.577236,0.16655 -0.5766,0.33377 6.36e-4,0.16721 0.287811,0.33301 0.576977,0.33268 0.289167,-3.3e-4 0.577085,-0.16656 0.577129,-0.33302 4.4e-5,-0.16647 -0.288946,-0.33332 -0.577506,-0.33343 z"
       id="path2692"
       inkscape:connector-curvature="0"
       inkscape:path-effect="#path-effect2694"
       inkscape:original-d="m 11.572348,292.89501 c -0.288411,0.1664 -0.577086,0.33307 -0.866026,0.5 0.280838,0.1839 0.577615,0.33307 0.866026,0.5 0.286885,-0.17223 0.577615,-0.33359 0.866026,-0.5 -0.288098,-0.16675 -0.577086,-0.3336 -0.866026,-0.5 z" />
    <path
       style="fill:none;stroke:#000000;stroke-width:0.26458332px;stroke-linecap:butt;stroke-linejoin:miter;stroke-opacity:1"
       d="m 11.007198,295.71195 c 0.281765,0.16268 0.577432,0.33339 0.721729,0.24994 0.144297,-0.0834 0.144297,-0.41687 1.18e-4,-0.66665 -0.14418,-0.24977 -0.433084,-0.41657 -0.721847,-0.58329"
       id="path2696"
       inkscape:connector-curvature="0"
       inkscape:path-effect="#path-effect2698"
       inkscape:original-d="m 11.007198,295.71195 c 0.281401,0.16331 0.577615,0.33307 0.866026,0.50001 2.65e-4,-0.33351 2.65e-4,-0.66694 0,-1.00001 -0.288182,-0.16679 -0.577086,-0.33359 -0.866026,-0.5" />
    <path
       style="fill:none;stroke:#000000;stroke-width:0.26458332px;stroke-linecap:butt;stroke-linejoin:miter;stroke-opacity:1"
       d="m 11.655439,295.96084 c 0.923128,-0.52573 1.845936,-1.05128 2.768437,-1.57665"
       id="path2891"
       inkscape:connector-curvature="0"
       inkscape:path-effect="#path-effect2893"
       inkscape:original-d="m 11.655439,295.96084 c 0.923077,-0.52582 1.845889,-1.05136 2.768437,-1.57665" />
    <path
       style="fill:none;stroke:#000000;stroke-width:0.26458332px;stroke-linecap:butt;stroke-linejoin:miter;stroke-opacity:1"
       d="m 13.605276,293.21195 c 0.152134,0.0727 0.296387,0.16186 0.429423,0.26545 0.126008,0.0981 0.243682,0.21136 0.321559,0.35079 0.06775,0.12129 0.103446,0.26409 0.07935,0.40091 -0.01813,0.10295 -0.07019,0.19964 -0.146163,0.27144"
       id="path2987"
       inkscape:connector-curvature="0"
       inkscape:path-effect="#path-effect2989"
       inkscape:original-d="m 13.605276,293.21195 c 0.142013,0.0882 0.286547,0.1767 0.429423,0.26545 0.142876,0.0888 0.214637,0.2336 0.321559,0.35079 0.106921,0.1172 0.05316,0.26701 0.07935,0.40091 0.02618,0.1339 -0.09718,0.1807 -0.146163,0.27144" />
    <path
       style="fill:none;stroke:#000000;stroke-width:0.26458332px;stroke-linecap:butt;stroke-linejoin:miter;stroke-opacity:1"
       d="m 8.4091204,294.21195 v -2"
       id="path3187"
       inkscape:connector-curvature="0" />
    <path
       style="fill:none;stroke:#000000;stroke-width:0.26458332px;stroke-linecap:butt;stroke-linejoin:miter;stroke-opacity:1"
       d="m 1.4809126,294.21195 1.7320518,-1"
       id="path3205"
       inkscape:connector-curvature="0" />
    <path
       style="fill:none;stroke:#000000;stroke-width:0.26458332px;stroke-linecap:butt;stroke-linejoin:miter;stroke-opacity:1"
       d="m 1.4809126,294.21195 1.7320518,1 v -4.00001 l -1.7320518,-1 z"
       id="path3209"
       inkscape:connector-curvature="0" />
    <path
       style="fill:none;stroke:#000000;stroke-width:0.26458332px;stroke-linecap:butt;stroke-linejoin:miter;stroke-opacity:1"
       d="m 0.61488658,288.71194 3.46410382,2 6.9282076,-4"
       id="path3213"
       inkscape:connector-curvature="0" />
    <path
       style="fill:none;stroke:#000000;stroke-width:0.26458332px;stroke-linecap:butt;stroke-linejoin:miter;stroke-opacity:1"
       d="m 4.9450154,292.21195 v 1 h 1.732052 l 1.732053,-1 0.866026,-0.5 0.8660256,-1.50001 v -1 H 8.4091204 l -1.732052,1 z"
       id="path3217"
       inkscape:connector-curvature="0" />
    <path
       style="fill:none;stroke:#000000;stroke-width:0.26458332px;stroke-linecap:butt;stroke-linejoin:miter;stroke-opacity:1"
       d="m 9.2751464,291.71195 -0.866026,-0.50001 0.866026,-1.5"
       id="path3219"
       inkscape:connector-curvature="0" />
    <path
       style="fill:none;stroke:#000000;stroke-width:0.26458332px;stroke-linecap:butt;stroke-linejoin:miter;stroke-opacity:1"
       d="m 8.4091204,291.21194 -3.464105,2.00001"
       id="path3221"
       inkscape:connector-curvature="0" />
    <path
       style="fill:none;stroke:#000000;stroke-width:0.26458332px;stroke-linecap:butt;stroke-linejoin:miter;stroke-opacity:1"
       d="m 9.2751464,289.77028 v -0.52917"
       id="path3268"
       inkscape:connector-curvature="0" />
    <path
       style="fill:none;stroke:#000000;stroke-width:0.26458332px;stroke-linecap:butt;stroke-linejoin:miter;stroke-opacity:1"
       d="m 2.3469386,290.71194 v 1.00001 h 0.8335358"
       id="path3324"
       inkscape:connector-curvature="0" />
    <path
       style="fill:#fce94f;fill-opacity:1;stroke-width:0.02362351"
       d="m 2.5107616,289.64004 c -0.862757,-0.49788 -1.57147602,-0.91372 -1.57493002,-0.92409 -0.0035,-0.0104 1.48180202,-0.87803 3.30056782,-1.92816 l 3.306849,-1.90933 1.58478,0.9148 c 0.871629,0.50313 1.5761496,0.92223 1.5656006,0.93131 -0.01055,0.009 -1.2789026,0.74308 -2.8185646,1.63109 -1.539663,0.88802 -3.023547,1.74396 -3.29752,1.9021 l -0.498134,0.28752 z"
       id="path3699"
       inkscape:connector-curvature="0" />
    <path
       style="fill:#fce94f;fill-opacity:1;stroke-width:0.02362351"
       d="m 2.3412566,295.54197 -1.57687002,-0.91039 v -2.83334 -2.83334 l 0.1004,0.0582 c 0.05522,0.032 0.75949602,0.43818 1.56505802,0.90263 0.8055618,0.46444 1.4726738,0.85179 1.4824718,0.86075 0.0098,0.009 0.01511,1.28747 0.01181,2.84111 l -0.006,2.82479 z m 1.0215348,-2.25539 -1.89e-4,-2.15564 -0.9816718,-0.56697 c -0.539913,-0.31183 -0.996946,-0.5704 -1.015623,-0.5746 -0.02934,-0.007 -0.03385,0.28575 -0.03317,2.14974 l 7.94e-4,2.15738 0.985499,0.57045 c 0.542025,0.31375 0.9987878,0.57154 1.0150288,0.57287 0.02343,0.002 0.02949,-0.44308 0.02935,-2.15323 z"
       id="path3701"
       inkscape:connector-curvature="0" />
    <path
       style="fill:#fce94f;fill-opacity:1;stroke-width:0.02362351"
       d="m 4.2428544,293.61798 0.006,-2.83727 3.307292,-1.90962 3.3072916,-1.90961 0.0061,1.82354 c 0.0033,1.00295 -0.002,1.83127 -0.01181,1.84072 -0.01785,0.0172 -1.1651676,0.68237 -1.1769186,0.68237 -0.0034,0 0.131064,-0.23756 0.298845,-0.5279 l 0.3050566,-0.52791 v -0.59421 -0.59421 H 9.3303704 8.3760294 l -0.894199,0.51678 -0.894198,0.51677 -0.890705,1.02466 -0.890704,1.02466 -0.0011,0.6083 -0.0011,0.60831 h 0.948925 0.948925 l 0.767582,-0.44294 c 0.42217,-0.24362 0.776639,-0.44653 0.787708,-0.45092 0.01107,-0.004 0.01733,0.36709 0.01391,0.8255 l -0.0062,0.83347 -1.630022,0.94139 c -0.896512,0.51777 -1.802812,1.0413 -2.013999,1.16339 l -0.383978,0.22199 z"
       id="path3703"
       inkscape:connector-curvature="0" />
    <path
       style="fill:#fce94f;fill-opacity:1;stroke-width:0.02362351"
       d="m 8.9657064,292.88686 c -0.250608,-0.43495 -0.348826,-0.62553 -0.328398,-0.63722 0.01603,-0.009 0.544057,-0.31471 1.173395,-0.67898 l 1.1442526,-0.66229 0.06377,0.11128 c 0.03507,0.0612 0.197089,0.34211 0.360037,0.62423 l 0.296267,0.51294 -0.07507,0.0457 c -0.152069,0.0925 -2.2239076,1.28468 -2.2498596,1.29464 -0.01513,0.006 -0.182899,-0.26053 -0.384397,-0.61025 z"
       id="path3705"
       inkscape:connector-curvature="0" />
    <path
       style="fill:#fce94f;fill-opacity:1;stroke-width:0.02362351"
       d="m 11.442214,295.78272 c -0.04547,-0.0196 -0.712544,-0.39877 -1.4823746,-0.84262 l -1.399694,-0.807 v -0.68561 -0.68562 l 0.305101,0.52806 0.305099,0.52805 0.9960526,0.57514 c 1.26286,0.7292 1.361896,0.79925 1.466588,1.0373 0.133515,0.30358 0.05077,0.45639 -0.190772,0.3523 z"
       id="path3707"
       inkscape:connector-curvature="0" />
    <path
       style="fill:#fce94f;fill-opacity:1;stroke-width:0.02362351"
       d="m 10.308389,294.14183 c -0.3832336,-0.22146 -0.7045496,-0.41041 -0.7140346,-0.4199 -0.0132,-0.0132 2.1897136,-1.30789 2.2687656,-1.33338 0.0149,-0.005 1.288727,0.7189 1.405099,0.79828 0.037,0.0252 -0.103362,0.11322 -1.096757,0.68742 -0.626552,0.36216 -1.145283,0.66112 -1.152735,0.66435 -0.0074,0.003 -0.327103,-0.17532 -0.710338,-0.39677 z m 1.549923,-0.31729 c 0.270808,-0.0804 0.452385,-0.2786 0.427213,-0.46627 -0.03755,-0.27993 -0.482295,-0.49699 -0.871081,-0.42514 -0.422075,0.078 -0.657946,0.36084 -0.514206,0.6166 0.141678,0.25208 0.595895,0.38236 0.958074,0.27481 z"
       id="path3709"
       inkscape:connector-curvature="0" />
    <path
       style="fill:#fce94f;fill-opacity:1;stroke-width:0.02362351"
       d="m 11.955811,295.51558 c -0.03236,-0.24129 -0.209657,-0.48705 -0.497296,-0.68933 l -0.160876,-0.11314 0.219934,-0.12854 c 0.926212,-0.54135 2.076623,-1.19759 2.09942,-1.19759 0.04785,0 0.336105,0.20355 0.457084,0.32277 0.122405,0.12062 0.225965,0.30909 0.226351,0.41194 6.61e-4,0.17345 0.0222,0.15807 -1.171871,0.83626 -0.617662,0.3508 -1.13138,0.64089 -1.141594,0.64463 -0.01021,0.004 -0.02423,-0.0354 -0.03115,-0.087 z"
       id="path3711"
       inkscape:connector-curvature="0" />
    <path
       style="fill:#fce94f;fill-opacity:1;stroke-width:0.02362351"
       d="m 5.5020824,293.06013 c 0.01234,-0.0109 0.671718,-0.39369 1.465277,-0.85073 l 1.442835,-0.83099 0.275775,0.15931 c 0.151677,0.0876 0.275776,0.1662 0.275776,0.17461 0,0.008 -0.130224,0.0898 -0.289388,0.18093 -0.159163,0.0911 -0.686566,0.39534 -1.172005,0.67612 l -0.882616,0.5105 h -0.569048 c -0.312977,0 -0.558949,-0.009 -0.546606,-0.0198 z"
       id="path3713"
       inkscape:connector-curvature="0" />
    <path
       style="fill:#fce94f;fill-opacity:1;stroke-width:0.02362351"
       d="m 8.9026864,291.33066 c -0.155915,-0.091 -0.280336,-0.17733 -0.276492,-0.19177 0.0038,-0.0145 0.164345,-0.29854 0.356668,-0.63132 0.463098,-0.80131 0.42773,-0.72207 0.42773,-0.95824 v -0.20197 h 0.295294 0.2952936 v 0.40935 0.40936 l -0.3835866,0.66551 c -0.210973,0.36604 -0.394351,0.66531 -0.407506,0.66506 -0.01316,-2.5e-4 -0.151485,-0.0749 -0.307401,-0.16598 z"
       id="path3715"
       inkscape:connector-curvature="0" />
    <path
       style="fill:#fce94f;fill-opacity:1;stroke-width:0.02362351"
       d="m 5.0881424,292.61603 6.62e-4,-0.35116 0.83924,-0.96857 0.839241,-0.96856 0.843281,-0.48898 0.843282,-0.48898 0.336635,-0.001 0.336635,-10e-4 v 0.16657 0.16657 l -0.412137,0.71341 -0.412138,0.71341 -1.55452,0.89619 c -0.854986,0.49291 -1.578439,0.91138 -1.607673,0.92994 l -0.05315,0.0337 z"
       id="path3717"
       inkscape:connector-curvature="0" />
    <path
       style="fill:#fce94f;fill-opacity:1;stroke-width:0.02362351"
       d="m 1.6148336,292.20309 v -1.75086 l 0.05315,0.0341 c 0.02923,0.0188 0.162116,0.0955 0.295294,0.17057 l 0.242141,0.13645 v 0.52904 0.52903 h 0.437035 0.4370348 v 0.63538 0.63538 l -0.7192618,0.41587 c -0.395593,0.22873 -0.725141,0.41587 -0.732329,0.41587 -0.0072,0 -0.01307,-0.78789 -0.01307,-1.75086 z"
       id="path3719"
       inkscape:connector-curvature="0" />
    <path
       style="fill:#fce94f;fill-opacity:1;stroke-width:0.02362351"
       d="m 2.4469406,294.60312 c -0.341406,-0.19662 -0.630403,-0.3673 -0.642214,-0.37931 -0.01304,-0.0132 0.230824,-0.16689 0.620739,-0.39108 l 0.6422138,-0.36927 0.0065,0.37517 c 0.0036,0.20635 0.0036,0.54321 0,0.74858 l -0.0065,0.3734 z"
       id="path3721"
       inkscape:connector-curvature="0" />
    <path
       style="fill:#fce94f;fill-opacity:1;stroke-width:0.02362351"
       d="m 2.4889036,291.27268 c 0,-0.16241 0.0064,-0.2953 0.01422,-0.2953 0.0078,0 0.14034,0.0718 0.294484,0.15946 l 0.2802618,0.15946 8.2e-4,0.13584 8.2e-4,0.13583 H 2.7842156 2.4889216 Z"
       id="path3723"
       inkscape:connector-curvature="0" />
    <path
       style="fill:#fce94f;fill-opacity:1;stroke-width:0.02362351"
       d="m 11.430518,293.5679 c -0.113463,-0.0276 -0.206487,-0.0756 -0.259111,-0.13376 -0.03944,-0.0436 -0.03889,-0.0478 0.01254,-0.0961 0.141826,-0.13324 0.469051,-0.16387 0.671707,-0.0629 0.187027,0.0932 0.186939,0.15444 -3.44e-4,0.24209 -0.122817,0.0575 -0.30662,0.0794 -0.424788,0.0507 z"
       id="path3923"
       inkscape:connector-curvature="0" />
  </g>
</svg>
