<?xml version="1.0" encoding="UTF-8" standalone="no"?>
<!-- Created with Inkscape (http://www.inkscape.org/) -->

<svg
   xmlns:dc="http://purl.org/dc/elements/1.1/"
   xmlns:cc="http://creativecommons.org/ns#"
   xmlns:rdf="http://www.w3.org/1999/02/22-rdf-syntax-ns#"
   xmlns:svg="http://www.w3.org/2000/svg"
   xmlns="http://www.w3.org/2000/svg"
   xmlns:sodipodi="http://sodipodi.sourceforge.net/DTD/sodipodi-0.dtd"
   xmlns:inkscape="http://www.inkscape.org/namespaces/inkscape"
   width="16.933331mm"
   height="16.933332mm"
   viewBox="0 0 16.933331 16.933334"
   version="1.1"
   id="svg8"
   inkscape:version="0.92.3 (2405546, 2018-03-11)"
   sodipodi:docname="Thin_Linear_Bear_House.svg">
  <defs
     id="defs2" />
  <sodipodi:namedview
     id="base"
     pagecolor="#ffffff"
     bordercolor="#666666"
     borderopacity="1.0"
     inkscape:pageopacity="0.0"
     inkscape:pageshadow="2"
     inkscape:zoom="7.9195959"
     inkscape:cx="39.947179"
     inkscape:cy="21.853633"
     inkscape:document-units="mm"
     inkscape:current-layer="layer1"
     showgrid="false"
     units="mm"
     objecttolerance="5"
     inkscape:window-width="958"
     inkscape:window-height="1018"
     inkscape:window-x="953"
     inkscape:window-y="0"
     inkscape:window-maximized="0" />
  <metadata
     id="metadata5">
    <rdf:RDF>
      <cc:Work
         rdf:about="">
        <dc:format>image/svg+xml</dc:format>
        <dc:type
           rdf:resource="http://purl.org/dc/dcmitype/StillImage" />
        <dc:title></dc:title>
      </cc:Work>
    </rdf:RDF>
  </metadata>
  <g
     inkscape:label="Capa 1"
     inkscape:groupmode="layer"
     id="layer1"
     transform="translate(0,-280.06665)">
    <path
       style="fill:none;stroke:#000000;stroke-width:0.26458332px;stroke-linecap:butt;stroke-linejoin:miter;stroke-opacity:1"
       d="m 9.18739,294.66137 6.614921,-3.57473 0.233861,-0.26726 v -5.24517 L 15.869128,285.30694 9.1539813,281.66539 8.753077,281.53176 H 8.5526249 l -0.3674956,0.10023 -6.5146948,3.57473 -0.3340869,0.20045 -0.066817,0.23386 v 5.31198 l 0.2004522,0.16704 6.6149208,3.60814 0.5345391,0.13364 0.3674954,-0.0668 z"
       id="path5339"
       inkscape:connector-curvature="0" />
    <path
       style="fill:none;stroke:#000000;stroke-width:0.26458332px;stroke-linecap:butt;stroke-linejoin:miter;stroke-opacity:1"
       d="m 1.2695306,285.64104 6.8153726,3.77518 0.3006781,0.10023 0.3674957,0.0668 0.5011303,-0.13363 6.7819647,-3.87541"
       id="path5341"
       inkscape:connector-curvature="0" />
    <path
       style="fill:none;stroke:#000000;stroke-width:0.26458332px;stroke-linecap:butt;stroke-linejoin:miter;stroke-opacity:1"
       d="m 1.2361215,288.24691 0.334087,0.26727 6.6149208,3.54132 0.3674956,0.13363 0.3674954,-0.0668 0.3674957,-0.10022 1.937704,-1.06908 0.06682,-0.43431 0.26727,-0.63477 0.200452,-0.36749 0.50113,-0.46773 0.434313,-0.23386 0.367496,-0.10022 0.367495,0.10022 0.300679,0.3675 0.03341,0.33409 2.3052,-1.23613"
       id="path5343"
       inkscape:connector-curvature="0" />
    <path
       style="fill:none;stroke:#000000;stroke-width:0.26458332px;stroke-linecap:butt;stroke-linejoin:miter;stroke-opacity:1"
       d="m 11.22532,290.95303 v 0 l 0.167043,0.66815 0.467722,0.23386 0.400904,-0.10022 0.467722,-0.23386 0.334087,-0.26727 0.367495,-0.46772 0.233861,-0.43432 0.100231,-0.83519 v 0"
       id="path5345"
       inkscape:connector-curvature="0" />
    <path
       style="fill:none;stroke:#000000;stroke-width:0.26458332px;stroke-linecap:butt;stroke-linejoin:miter;stroke-opacity:1"
       d="m 7.7842249,288.74804 0.434313,0.20045 0.4677217,0.0334 0.5011304,-0.0668 0.3340867,-0.20045 0.1670436,-0.16705 V 288.1801 L 9.3210247,287.91282 8.8867116,287.81259 H 8.2853553 l -0.4009044,0.16705 -0.200452,0.20045 -0.100226,0.33409 z"
       id="path5349"
       inkscape:connector-curvature="0" />
    <path
       style="fill:none;stroke:#000000;stroke-width:0.26458332px;stroke-linecap:butt;stroke-linejoin:miter;stroke-opacity:1"
       d="m 2.5967683,285.89128 0.434313,0.20045 0.4677217,0.0334 0.5011304,-0.0668 0.3340867,-0.20045 0.1670436,-0.16705 v -0.36749 L 4.1335681,285.05606 3.699255,284.95583 H 3.0978987 l -0.4009044,0.16705 -0.200452,0.20045 -0.100226,0.33409 z"
       id="path5349-9"
       inkscape:connector-curvature="0" />
    <path
       style="fill:none;stroke:#000000;stroke-width:0.26458332px;stroke-linecap:butt;stroke-linejoin:miter;stroke-opacity:1"
       d="m 7.7751154,283.11837 0.434313,0.20045 0.4677218,0.0334 0.5011304,-0.0668 0.3340867,-0.20045 0.1670436,-0.16705 v -0.36749 L 9.3119153,282.28315 8.8776022,282.18292 H 8.2762458 l -0.4009044,0.16705 -0.200452,0.20045 -0.100226,0.33409 z"
       id="path5349-3"
       inkscape:connector-curvature="0" />
    <path
       style="fill:none;stroke:#000000;stroke-width:0.26458332px;stroke-linecap:butt;stroke-linejoin:miter;stroke-opacity:1"
       d="m 12.953462,285.92469 0.434313,0.20045 0.467722,0.0334 0.501131,-0.0668 0.334086,-0.20045 0.167044,-0.16705 v -0.36749 l -0.367496,-0.26728 -0.434313,-0.10023 h -0.601356 l -0.400905,0.16705 -0.200452,0.20045 -0.100226,0.33409 z"
       id="path5349-2"
       inkscape:connector-curvature="0" />
    <path
       style="fill:#00aad4;fill-opacity:1;stroke-width:0.12626907"
       d="M 31.649085,55.126885 C 30.994485,54.952697 27.802881,53.271759 18.327698,48.110844 11.474401,44.378011 5.7393098,41.209242 5.5830519,41.069136 L 5.2989465,40.814398 v -4.338053 -4.338052 l 0.3472399,0.241922 C 6.4203567,32.919579 30.754836,45.841773 31.5181,46.118822 l 0.823566,0.298939 1.406969,-0.316943 c 1.452751,-0.327257 2.014215,-0.600429 7.221323,-3.513411 0.555584,-0.310808 1.045509,-0.528667 1.088721,-0.484134 0.04321,0.04453 0.177882,0.495779 0.299263,1.002767 l 0.220693,0.921795 1.102587,0.553752 1.102587,0.553753 0.984927,-0.252314 c 1.982881,-0.507967 3.560331,-1.577484 4.86406,-3.297853 0.89073,-1.175384 1.634178,-2.613751 1.646456,-3.185439 0.0045,-0.210303 0.07554,-0.824589 0.157837,-1.365081 l 0.149624,-0.982711 3.724937,-1.99848 3.724938,-1.998481 0.0333,4.177154 0.0333,4.177154 -0.475245,0.463312 c -0.320293,0.312249 -4.530492,2.65612 -12.91275,7.188692 -6.840627,3.698959 -12.636377,6.824922 -12.879445,6.946585 -0.676812,0.338762 -1.244687,0.369669 -2.186671,0.119007 z"
       id="path5388"
       inkscape:connector-curvature="0"
       transform="matrix(0.26458333,0,0,0.26458333,0,280.06665)" />
    <path
       style="fill:#00aad4;fill-opacity:1;stroke-width:0.12626907"
       d="M 31.669767,44.977269 C 30.521289,44.506374 6.2928065,31.502597 5.7747316,31.079029 l -0.4712329,-0.38527 -0.00228,-4.324716 c -0.00125,-2.378593 0.02047,-4.324715 0.04827,-4.324715 0.027801,0 5.5536513,3.050689 12.2796673,6.77931 6.726016,3.728621 12.55858,6.913967 12.961254,7.078546 0.402673,0.164579 1.127342,0.374538 1.610376,0.466575 0.800623,0.152552 0.96902,0.144545 1.905377,-0.09061 0.928766,-0.233244 2.189432,-0.922201 13.163106,-7.193669 6.674783,-3.814646 12.292947,-7.01787 12.484809,-7.118276 l 0.348839,-0.182557 -0.03317,4.496378 -0.03317,4.496378 -3.724938,2.001739 -3.724937,2.00174 -0.126269,-0.341804 c -0.06945,-0.187992 -0.406062,-0.688369 -0.748029,-1.111951 -0.591443,-0.732597 -0.665715,-0.781093 -1.523301,-0.994647 -0.888054,-0.221141 -0.914647,-0.220448 -1.777354,0.0463 -1.988309,0.614788 -4.067916,2.274114 -4.91663,3.922995 -0.747546,1.452333 -1.315269,2.899179 -1.457035,3.713259 l -0.137313,0.788504 -1.718669,0.943388 c -5.403367,2.965941 -5.439004,2.983707 -6.435436,3.208115 -0.541314,0.12191 -1.06944,0.242867 -1.173612,0.268794 -0.104172,0.02593 -0.510656,-0.08458 -0.903298,-0.245571 z"
       id="path5390"
       inkscape:connector-curvature="0"
       transform="matrix(0.26458333,0,0,0.26458333,0,280.06665)" />
    <path
       style="fill:#00aad4;fill-opacity:1;stroke-width:0.12626907"
       d="M 32.234307,35.237842 C 31.804921,35.145178 31.2083,34.960733 30.908482,34.827962 30.309797,34.562845 5.678714,20.944076 5.510189,20.784996 5.4527523,20.730778 5.5684042,20.570605 5.7671931,20.429055 6.4881848,19.915663 30.885417,6.5815256 31.499778,6.3650892 c 0.825326,-0.2907584 1.553393,-0.2871017 2.339912,0.011753 0.943482,0.3584944 25.706774,13.8024458 25.856539,14.0374728 0.108662,0.170524 -1.766413,1.283265 -12.404731,7.361444 -7.632107,4.360586 -12.774921,7.224675 -13.152079,7.324537 -0.340635,0.09019 -0.732978,0.195942 -0.871874,0.235004 -0.138896,0.03906 -0.603853,-0.0048 -1.033238,-0.09746 z m 1.917122,-1.151511 c 0.837622,-0.09752 1.707328,-0.547928 2.493814,-1.291512 0.471701,-0.445971 0.473495,-0.451561 0.469828,-1.463774 l -0.0037,-1.016093 -0.779319,-0.565999 C 35.317585,29.01217 34.339757,28.753496 32.5327,28.743868 c -1.24256,-0.0066 -1.449036,0.02722 -2.282031,0.373995 -1.183207,0.49257 -1.623924,0.95944 -1.952075,2.067921 l -0.257798,0.870831 0.458906,0.560035 c 0.639583,0.780526 1.959049,1.438212 3.126326,1.55831 0.8738,0.08991 1.042841,0.08397 2.525381,-0.08863 z M 53.59114,23.427641 c 0.997862,-0.144215 1.764506,-0.532935 2.562674,-1.299384 l 0.536643,-0.515318 v -0.959508 -0.959509 l -0.832954,-0.611598 c -1.014755,-0.745085 -2.188028,-1.067797 -3.905779,-1.074294 -0.976957,-0.0037 -1.262736,0.04744 -1.997514,0.357439 -1.19696,0.504988 -1.79556,1.124284 -2.120383,2.193692 l -0.258536,0.851173 0.52857,0.601102 c 1.123151,1.277272 3.034792,1.770644 5.487279,1.416205 z M 14.447729,23.301372 c 0.997861,-0.144215 1.764505,-0.532935 2.562674,-1.299384 l 0.536643,-0.515318 v -0.959508 -0.959509 l -0.832954,-0.611598 c -1.014755,-0.745085 -2.188028,-1.067797 -3.905778,-1.074294 -0.976959,-0.0037 -1.262737,0.04744 -1.997515,0.357439 -1.1969602,0.504988 -1.7955604,1.124284 -2.120383,2.193692 l -0.2585361,0.851173 0.5285705,0.601102 c 1.1231506,1.277272 3.0347906,1.770644 5.4872786,1.416205 z M 34.019434,12.821038 c 0.997862,-0.144213 1.764506,-0.532934 2.562674,-1.299383 l 0.536644,-0.515317 V 10.046829 9.0873202 L 36.285798,8.475723 C 35.271043,7.7306376 34.097769,7.4079256 32.380019,7.401428 c -0.976958,-0.0037 -1.262736,0.047442 -1.997515,0.3574395 -1.19696,0.504988 -1.79556,1.1242838 -2.120382,2.1936916 l -0.258536,0.8511739 0.52857,0.601102 c 1.123151,1.277271 3.034791,1.770644 5.487278,1.416203 z"
       id="path5392"
       inkscape:connector-curvature="0"
       transform="matrix(0.26458333,0,0,0.26458333,0,280.06665)" />
    <path
       style="fill:#006680;fill-opacity:1;stroke-width:0.12626907"
       d="M 11.044189,21.974683 C 10.627501,21.793015 10.148829,21.510099 9.9804743,21.345979 9.6987133,21.071307 9.6859942,21.008795 9.8205144,20.559807 10.002305,19.953043 10.34768,19.638873 11.218864,19.287799 c 1.283078,-0.517061 3.605854,-0.290642 4.686876,0.456867 0.437621,0.302607 0.495858,0.402706 0.500092,0.859564 0.0053,0.576693 -0.104358,0.708438 -1.03675,1.245063 -0.537682,0.309456 -0.752828,0.350803 -2.083439,0.400394 -1.387631,0.05172 -1.532962,0.03388 -2.241454,-0.275004 z"
       id="path5394"
       inkscape:connector-curvature="0"
       transform="matrix(0.26458333,0,0,0.26458333,0,280.06665)" />
    <path
       style="fill:#006680;fill-opacity:1;stroke-width:0.12626907"
       d="m 30.615895,11.49435 c -0.416688,-0.181667 -0.89536,-0.464584 -1.063715,-0.628704 -0.281761,-0.274672 -0.29448,-0.337183 -0.15996,-0.786172 0.181791,-0.606764 0.527166,-0.9209338 1.398349,-1.2720075 1.283079,-0.5170609 3.605855,-0.2906418 4.686877,0.4568665 0.437621,0.3026071 0.495858,0.4027063 0.500092,0.859565 0.0053,0.576693 -0.104358,0.708438 -1.03675,1.245063 -0.537683,0.309455 -0.752829,0.350802 -2.08344,0.400393 -1.38763,0.05172 -1.532961,0.03388 -2.241453,-0.275004 z"
       id="path5396"
       inkscape:connector-curvature="0"
       transform="matrix(0.26458333,0,0,0.26458333,0,280.06665)" />
    <path
       style="fill:#006680;fill-opacity:1;stroke-width:0.12626907"
       d="m 31.626047,33.037245 c -0.682433,-0.08994 -1.7605,-0.590034 -2.113023,-0.980196 -0.176226,-0.195043 -0.195465,-0.324387 -0.09853,-0.662392 0.168114,-0.58618 0.464604,-0.879707 1.236564,-1.224206 0.553073,-0.246817 0.875437,-0.297186 1.894036,-0.295942 1.490396,0.0018 2.384975,0.222733 3.056875,0.754888 0.665813,0.527334 0.683797,0.95593 0.06298,1.501014 -0.645889,0.567098 -1.078387,0.756854 -2.0429,0.896309 -0.931406,0.134668 -1.049301,0.135289 -1.996006,0.01053 z"
       id="path5398"
       inkscape:connector-curvature="0"
       transform="matrix(0.26458333,0,0,0.26458333,0,280.06665)" />
    <path
       style="fill:#006680;fill-opacity:1;stroke-width:0.12626907"
       d="m 50.1876,22.100952 c -0.416688,-0.181668 -0.895359,-0.464584 -1.063714,-0.628704 -0.281762,-0.274672 -0.294481,-0.337184 -0.15996,-0.786172 0.181791,-0.606764 0.527165,-0.920934 1.398349,-1.272008 1.283078,-0.517061 3.605854,-0.290642 4.686876,0.456867 0.437621,0.302607 0.495859,0.402706 0.500093,0.859564 0.0053,0.576693 -0.104358,0.708438 -1.03675,1.245063 -0.537683,0.309456 -0.752829,0.350803 -2.08344,0.400394 -1.38763,0.05172 -1.532961,0.03389 -2.241454,-0.275004 z"
       id="path5400"
       inkscape:connector-curvature="0"
       transform="matrix(0.26458333,0,0,0.26458333,0,280.06665)" />
    <path
       style="fill:#006680;fill-opacity:1;stroke-width:0.12626907"
       d="m 44.243916,43.666206 c -0.342269,-0.172259 -0.641054,-0.329752 -0.663967,-0.349985 -0.02291,-0.02023 -0.156461,-0.482077 -0.296774,-1.026323 -0.420435,-1.630783 -0.1796,-2.725976 1.197125,-5.443906 0.703299,-1.388453 2.74164,-2.995886 4.347242,-3.42823 0.864507,-0.232788 1.53962,0.0066 2.103404,0.745899 0.541836,0.710503 0.588555,1.15899 0.335168,3.217505 -0.183367,1.489666 -0.516915,2.235595 -1.618121,3.618682 -1.189949,1.494545 -2.481436,2.378856 -4.0862,2.797919 -0.670938,0.175206 -0.717606,0.170547 -1.317877,-0.131561 z"
       id="path5402"
       inkscape:connector-curvature="0"
       transform="matrix(0.26458333,0,0,0.26458333,0,280.06665)" />
  </g>
</svg>
