<?xml version="1.0" encoding="UTF-8" standalone="no"?>
<!-- Created with Inkscape (http://www.inkscape.org/) -->

<svg
   xmlns:dc="http://purl.org/dc/elements/1.1/"
   xmlns:cc="http://creativecommons.org/ns#"
   xmlns:rdf="http://www.w3.org/1999/02/22-rdf-syntax-ns#"
   xmlns:svg="http://www.w3.org/2000/svg"
   xmlns="http://www.w3.org/2000/svg"
   xmlns:sodipodi="http://sodipodi.sourceforge.net/DTD/sodipodi-0.dtd"
   xmlns:inkscape="http://www.inkscape.org/namespaces/inkscape"
   width="16.933331mm"
   height="16.933332mm"
   viewBox="0 0 16.933331 16.933334"
   version="1.1"
   id="svg8"
   inkscape:version="0.92.3 (2405546, 2018-03-11)"
   sodipodi:docname="ThinLinBearHouse1rail.svg">
  <defs
     id="defs2" />
  <sodipodi:namedview
     id="base"
     pagecolor="#ffffff"
     bordercolor="#666666"
     borderopacity="1.0"
     inkscape:pageopacity="0.0"
     inkscape:pageshadow="2"
     inkscape:zoom="11.2"
     inkscape:cx="27.049609"
     inkscape:cy="35.410051"
     inkscape:document-units="mm"
     inkscape:current-layer="layer1"
     showgrid="false"
     units="mm"
     inkscape:window-width="1920"
     inkscape:window-height="1027"
     inkscape:window-x="-8"
     inkscape:window-y="-8"
     inkscape:window-maximized="1" />
  <metadata
     id="metadata5">
    <rdf:RDF>
      <cc:Work
         rdf:about="">
        <dc:format>image/svg+xml</dc:format>
        <dc:type
           rdf:resource="http://purl.org/dc/dcmitype/StillImage" />
        <dc:title></dc:title>
      </cc:Work>
    </rdf:RDF>
  </metadata>
  <g
     inkscape:label="Capa 1"
     inkscape:groupmode="layer"
     id="layer1"
     transform="translate(0,-280.06665)">
    <path
       style="fill:none;stroke:#000000;stroke-width:0.26458332px;stroke-linecap:butt;stroke-linejoin:miter;stroke-opacity:1"
       d="m 15.95265,292.94083 -3.808591,2.47224 -0.367495,0.0501 -0.367496,-0.0167 -0.150339,-0.10023 -1.6704347,-1.25282 0.066817,-5.34539 -7.2997989,-4.9779 4.7607388,-2.17155 7.3666168,4.56028 -0.26727,5.12824 1.5368,1.03567 0.183748,0.21715 0.05011,0.20045 z"
       id="path1114"
       inkscape:connector-curvature="0" />
    <path
       style="fill:none;stroke:#000000;stroke-width:0.26458332px;stroke-linecap:butt;stroke-linejoin:miter;stroke-opacity:1"
       d="m 2.3553124,283.77013 0.2672698,4.9445 -1.2194172,-0.93545 -0.083522,-0.18374 0.066817,-0.20046 0.1336348,-0.11693 0.9521477,-0.46772"
       id="path1116"
       inkscape:connector-curvature="0" />
    <path
       style="fill:none;stroke:#000000;stroke-width:0.26458332px;stroke-linecap:butt;stroke-linejoin:miter;stroke-opacity:1"
       d="m 1.319643,287.59544 3e-7,0.83521 9.8555637,7.78423 0.26727,0.11693 0.217156,0.0334 0.317383,-0.0334 0.400904,-0.21716 3.591434,-2.35531 0.0167,-1.01897"
       id="path1118"
       inkscape:connector-curvature="0" />
    <path
       style="fill:none;stroke:#000000;stroke-width:0.26458332px;stroke-linecap:butt;stroke-linejoin:miter;stroke-opacity:1"
       d="m 9.6551111,288.74803 4.8275569,-2.58917"
       id="path1120"
       inkscape:connector-curvature="0" />
    <path
       style="fill:none;stroke:#000000;stroke-width:0.26458332px;stroke-linecap:butt;stroke-linejoin:miter;stroke-opacity:1"
       d="M 9.5882943,294.09342 14.215398,291.2871"
       id="path1122"
       inkscape:connector-curvature="0" />
    <ellipse
       style="fill:#666666;fill-opacity:1;stroke-width:0.27978128"
       id="path1124"
       cx="4.1259727"
       cy="283.81192"
       rx="0.68487817"
       ry="0.37584776" />
    <ellipse
       style="fill:#666666;fill-opacity:1;stroke-width:0.32892025"
       id="path1134"
       cx="12.970923"
       cy="293.37515"
       rx="0.42596081"
       ry="0.33408689" />
    <ellipse
       style="fill:#666666;fill-opacity:1;stroke-width:0.27978128"
       id="path1124-5"
       cx="9.7720413"
       cy="287.64554"
       rx="0.68487817"
       ry="0.37584776" />
    <ellipse
       style="fill:#666666;fill-opacity:1;stroke-width:0.27978128"
       id="path1124-8"
       cx="12.645189"
       cy="286.04193"
       rx="0.68487817"
       ry="0.37584776" />
    <ellipse
       style="fill:#666666;fill-opacity:1;stroke-width:0.27978128"
       id="path1124-6"
       cx="6.9490075"
       cy="282.48392"
       rx="0.68487817"
       ry="0.37584776" />
    <path
       style="fill:none;stroke:#000000;stroke-width:0.26458332px;stroke-linecap:butt;stroke-linejoin:miter;stroke-opacity:1"
       d="m 11.943607,291.20358 0.300678,-0.18375 0.217157,-0.23386 0.217156,-0.30068 0.183748,-0.3842 0.100226,-0.33409 0.05011,-0.23386 -0.0167,-0.3842 -0.167044,-0.26727 -0.183748,-0.15034 -0.434312,0.11693 -0.334087,0.30068 -0.250566,0.30068 -0.150339,0.23386 -0.167043,0.30068 -0.100226,0.30068 -0.03341,0.33408 0.06682,0.33409 0.183747,0.20045 0.300678,0.11693 z"
       id="path1163"
       inkscape:connector-curvature="0" />
    <path
       style="fill:#999999;fill-opacity:1;stroke-width:0.06313454"
       d="M 42.756414,60.683816 C 42.63488,60.626226 41.541075,59.795991 40.325735,58.838851 35.657388,55.162294 5.660773,31.479196 5.583707,31.409128 5.5249516,31.355708 5.5075182,31.150024 5.5205724,30.664253 l 0.018034,-0.671076 2.4622468,1.890171 c 1.3542358,1.039594 2.4695558,1.86858 2.4784898,1.842193 0.0089,-0.02639 -0.209888,-4.222701 -0.4862702,-9.325139 -0.276382,-5.102438 -0.4912914,-9.288382 -0.4775764,-9.302097 0.022894,-0.02289 26.0120286,17.676362 26.3110066,17.91846 l 0.131484,0.106469 -0.104417,9.117376 c -0.05743,5.014558 -0.119735,9.546496 -0.138457,10.070975 l -0.03404,0.953598 3.332483,2.493813 c 3.448361,2.580529 3.876998,2.89103 3.990987,2.89103 0.04532,0 0.06754,0.353152 0.06754,1.073287 0,0.590308 -0.02131,1.07147 -0.04735,1.069249 -0.02604,-0.0022 -0.146788,-0.05116 -0.268322,-0.108746 z"
       id="path1165"
       inkscape:connector-curvature="0"
       transform="matrix(0.26458333,0,0,0.26458333,0,280.06665)" />
    <path
       style="fill:#999999;fill-opacity:1;stroke-width:0.06313454"
       d="m 42.873535,57.305797 c -1.392404,-1.001738 -5.637075,-4.22617 -5.611946,-4.263071 0.03274,-0.04808 16.407875,-9.98693 16.454354,-9.98693 0.01611,0 1.214664,0.797169 2.663453,1.771487 2.821839,1.897701 3.290148,2.279552 3.429253,2.79615 0.06946,0.25795 0.04229,0.652307 -0.05097,0.739743 -0.0273,0.0256 -3.189008,2.085499 -7.026009,4.577554 l -6.976366,4.531008 -0.473509,0.08072 c -0.26043,0.0444 -0.804348,0.08223 -1.208705,0.08407 l -0.735196,0.0033 z m 6.831988,-5.815428 C 50.14,51.386442 50.30718,51.30203 50.568656,51.054557 c 0.383901,-0.363339 0.354893,-0.854179 -0.07985,-1.351156 -0.719594,-0.822604 -1.957108,-0.920213 -2.688038,-0.212019 -0.746712,0.723482 -0.413325,1.68838 0.700889,2.028537 0.249489,0.07617 0.820505,0.06215 1.203866,-0.02955 z"
       id="path1167"
       inkscape:connector-curvature="0"
       transform="matrix(0.26458333,0,0,0.26458333,0,280.06665)" />
    <path
       style="fill:#999999;fill-opacity:1;stroke-width:0.06313454"
       d="m 36.793903,50.676288 c 0.01745,-0.770957 0.07522,-5.024085 0.128386,-9.451394 0.05316,-4.427309 0.116942,-8.070264 0.141732,-8.095457 0.04611,-0.04686 17.083357,-9.197158 17.094112,-9.180842 0.0033,0.005 -0.201363,3.943864 -0.454726,8.753137 -0.253364,4.809273 -0.462011,8.888472 -0.463661,9.064886 l -0.003,0.320753 -6.549191,3.972396 c -3.602056,2.184817 -7.308834,4.432715 -8.237285,4.995328 l -1.688094,1.022934 z m 8.070712,-7.942698 c 0.718504,-0.212634 1.688203,-0.834846 2.220538,-1.424819 1.312627,-1.454749 2.059416,-2.934878 2.526425,-5.007345 0.08608,-0.382023 0.09808,-0.634318 0.06263,-1.317762 l -0.04384,-0.845279 -0.362609,-0.576274 c -0.268247,-0.426309 -0.484934,-0.678907 -0.832674,-0.970668 -0.258536,-0.216918 -0.498476,-0.394908 -0.5332,-0.395534 -0.03472,-6.31e-4 -0.503498,0.11577 -1.04172,0.258658 l -0.978585,0.259796 -0.705185,0.640813 c -1.097459,0.997281 -1.880153,2.0072 -2.633156,3.397592 -0.434738,0.802727 -0.668977,1.535654 -0.763412,2.388687 -0.07618,0.688102 -0.07258,0.765131 0.06876,1.473889 0.160767,0.806176 0.223057,0.921847 0.797052,1.48011 0.205145,0.199521 0.44327,0.336143 0.904862,0.519154 0.344547,0.136605 0.680207,0.24914 0.745912,0.250078 0.0657,9.41e-4 0.321399,-0.05805 0.568211,-0.131096 z"
       id="path1169"
       inkscape:connector-curvature="0"
       transform="matrix(0.26458333,0,0,0.26458333,0,280.06665)" />
    <path
       style="fill:#999999;fill-opacity:1;stroke-width:0.06313454"
       d="m 23.267564,23.150345 c -7.294616,-4.972954 -13.252695,-9.052992 -13.240175,-9.066753 0.01252,-0.01376 3.80436,-1.750056 8.42631,-3.858434 l 8.403546,-3.8334131 13.377472,8.2778511 c 7.35761,4.552818 13.371127,8.298984 13.363371,8.324813 -0.0078,0.02583 -3.593829,1.966773 -7.969052,4.313206 -4.375224,2.346434 -8.212258,4.405343 -8.526743,4.575353 l -0.571791,0.309109 z m 14.280251,7.064864 c 0.638011,-0.02313 1.231124,-0.137209 1.231124,-0.236789 0,-0.0225 0.06826,-0.05805 0.151693,-0.07899 0.208052,-0.05222 0.719767,-0.561808 0.830659,-0.827211 0.111895,-0.267802 0.117013,-0.650634 0.01202,-0.898798 -0.09295,-0.219684 -0.457023,-0.64872 -0.550499,-0.64872 -0.03578,0 -0.06506,-0.02734 -0.06506,-0.06076 0,-0.08045 -0.891962,-0.507448 -1.060018,-0.507448 -0.07222,0 -0.211297,-0.03097 -0.309048,-0.06881 -0.271932,-0.105287 -1.501481,-0.08203 -1.977064,0.0374 -0.405957,0.101942 -0.781665,0.249002 -0.911528,0.356789 -0.03688,0.03061 -0.189976,0.142141 -0.340211,0.247843 -0.483903,0.340466 -0.659692,1.044242 -0.391928,1.569103 0.138615,0.271708 0.651932,0.744499 0.870269,0.801562 0.07813,0.02042 0.142052,0.05853 0.142052,0.0847 0,0.0489 0.621551,0.191275 0.835005,0.191275 0.06571,0 0.104801,-0.02373 0.08688,-0.05272 -0.01792,-0.029 0.347875,-0.05168 0.812882,-0.05041 0.465007,0.0013 0.831448,0.025 0.814315,0.05272 -0.01713,0.02772 -0.372078,0.05041 -0.788766,0.05041 -0.462184,0 -0.743166,0.02338 -0.720562,0.05995 0.02038,0.03297 0.171211,0.04738 0.335182,0.03202 0.163972,-0.01536 0.610646,-0.03926 0.99261,-0.05311 z m 11.689211,-5.941712 c 0.199497,-0.05196 0.391235,-0.12299 0.426082,-0.157837 0.03485,-0.03485 0.108901,-0.06336 0.164564,-0.06336 0.157061,0 0.592628,-0.347993 0.78746,-0.629134 0.311538,-0.449549 0.208064,-0.987739 -0.292556,-1.521652 -0.203504,-0.217038 -1.004861,-0.598597 -1.473679,-0.701679 -0.583315,-0.128257 -1.685036,-0.108112 -2.178142,0.03983 -1.161788,0.348558 -1.616843,0.880513 -1.44373,1.687709 0.05513,0.257071 0.13143,0.392256 0.331514,0.587373 0.339085,0.330667 0.405163,0.371802 1.038926,0.646761 0.129234,0.05607 0.569005,0.110016 1.136422,0.139408 0.509083,0.02637 0.973938,0.05225 1.033011,0.0575 0.05907,0.0053 0.27063,-0.03296 0.470128,-0.08492 z M 16.650284,15.532081 c 0.496833,-0.1273 1.077889,-0.423377 1.319873,-0.67254 0.436165,-0.449105 0.459884,-1.021708 0.0594,-1.434025 -0.507782,-0.522787 -1.440174,-0.782203 -2.578831,-0.717498 -1.986889,0.112906 -3.064992,1.231889 -2.15485,2.236558 0.226815,0.250372 0.893107,0.584563 1.165471,0.584563 0.110109,0 0.200198,0.02995 0.200198,0.06655 0,0.09184 1.579196,0.04133 1.988737,-0.06361 z m 10.669737,-4.96013 c 0.505563,-0.09504 0.91545,-0.228655 0.91545,-0.298427 0,-0.02623 0.04368,-0.04769 0.09706,-0.04769 0.05338,0 0.220533,-0.127047 0.371448,-0.2823268 C 29.17842,9.4553442 29.151917,8.9986458 28.620288,8.5013687 28.241342,8.1469091 27.916217,7.9792069 27.304812,7.822836 26.09998,7.5146917 24.59568,7.8064949 23.957052,8.4722324 c -0.648225,0.6757423 -0.252667,1.422717 1.058558,1.9989886 0.267475,0.117552 1.213985,0.249635 1.546796,0.215851 0.17362,-0.01763 0.514547,-0.06943 0.757615,-0.115121 z"
       id="path1171"
       inkscape:connector-curvature="0"
       transform="matrix(0.26458333,0,0,0.26458333,0,280.06665)" />
    <path
       style="fill:#999999;fill-opacity:1;stroke-width:0.06313454"
       d="M 7.4889,30.154296 C 6.2348751,29.192649 5.6913259,28.738055 5.6360934,28.604711 c -0.1082954,-0.261448 0.00589,-0.581543 0.2827878,-0.792744 0.2072345,-0.158066 3.0611761,-1.570383 3.0983114,-1.533248 0.031754,0.03175 0.2875155,4.896957 0.2665293,5.070042 -0.019039,0.157025 -0.1203483,0.0896 -1.7948219,-1.194465 z"
       id="path1173"
       inkscape:connector-curvature="0"
       transform="matrix(0.26458333,0,0,0.26458333,0,280.06665)" />
    <path
       style="fill:#666666;fill-opacity:1;stroke-width:0.06313454"
       d="m 47.167015,38.774371 c -0.186133,-0.127982 -0.352628,-0.2469 -0.36999,-0.264262 -0.0998,-0.0998 -0.630795,-0.441941 -0.685881,-0.441941 -0.036,0 -0.08818,-0.03633 -0.115948,-0.08073 -0.02777,-0.0444 -0.109806,-0.108323 -0.182307,-0.142053 -0.239203,-0.111285 -1.852717,-1.322586 -1.854839,-1.392469 -0.0069,-0.225733 1.059904,-1.506857 1.867037,-2.242216 0.567831,-0.517336 0.620352,-0.549469 1.11537,-0.682393 0.285714,-0.07672 0.565964,-0.152922 0.622777,-0.169336 0.154544,-0.04465 0.479831,0.262507 0.789295,0.745302 l 0.275397,0.429648 v 0.665877 c 0,0.366232 -0.03154,0.799202 -0.07008,0.962156 -0.195053,0.824601 -0.485121,1.684408 -0.753537,2.233605 l -0.298867,0.611501 z"
       id="path1177"
       inkscape:connector-curvature="0"
       transform="matrix(0.26458333,0,0,0.26458333,0,280.06665)" />
    <path
       style="fill:#666666;fill-opacity:1;stroke-width:0.06313454"
       d="m 43.926494,41.627997 c -0.228589,-0.09145 -0.490769,-0.263056 -0.666775,-0.436415 -0.271409,-0.267328 -0.296709,-0.321106 -0.393513,-0.836456 -0.152242,-0.81048 -0.0115,-1.800652 0.375884,-2.644429 l 0.09165,-0.199635 0.200628,0.104933 c 0.110346,0.05771 0.223348,0.140446 0.251117,0.183851 0.02777,0.0434 0.08932,0.07892 0.136791,0.07892 0.04747,0 0.09577,0.02131 0.107348,0.04735 0.01158,0.02604 0.191509,0.160992 0.399852,0.299887 0.208344,0.138895 0.407218,0.274826 0.441942,0.302069 0.396399,0.310992 1.214926,0.865922 1.277242,0.865922 0.04408,0 0.08015,0.02911 0.08015,0.0647 0,0.03558 0.07103,0.0917 0.157836,0.124706 0.08681,0.03301 0.157836,0.08912 0.157836,0.124707 0,0.03558 0.03914,0.0647 0.08697,0.0647 0.04783,0 0.118856,0.03842 0.157826,0.08538 0.116877,0.140829 -0.699954,1.030648 -1.275283,1.389235 -0.848552,0.528879 -1.078854,0.584091 -1.587507,0.380587 z"
       id="path1179"
       inkscape:connector-curvature="0"
       transform="matrix(0.26458333,0,0,0.26458333,0,280.06665)" />
    <path
       style="fill:#666666;fill-opacity:1;stroke-width:0.06313454"
       d="m 46.797025,39.912545 c 0,-0.05641 -0.522536,-0.459916 -0.947018,-0.731297 -0.156258,-0.0999 -0.605183,-0.412518 -0.99761,-0.694708 -0.392427,-0.282191 -0.761764,-0.541921 -0.820749,-0.577178 -0.253629,-0.151601 -0.643888,-0.428671 -0.643888,-0.457136 0,-0.0643 0.409686,-0.773018 0.446854,-0.773018 0.0214,0 0.104417,0.05682 0.184491,0.126269 0.08007,0.06945 0.171682,0.126269 0.203573,0.126269 0.03189,0 0.09509,0.03551 0.140441,0.07892 0.04535,0.0434 0.14697,0.121534 0.225821,0.17362 0.07885,0.05209 0.443398,0.314884 0.810104,0.583995 0.366706,0.26911 0.70342,0.489292 0.748254,0.489292 0.04483,0 0.08152,0.02911 0.08152,0.0647 0,0.03558 0.07103,0.0917 0.157836,0.124707 0.08681,0.033 0.157836,0.08912 0.157836,0.124706 0,0.03558 0.02866,0.0647 0.06368,0.0647 0.03502,0 0.173722,0.07813 0.308217,0.17362 0.134496,0.09549 0.301165,0.212848 0.370376,0.260793 0.122332,0.08474 0.118004,0.09838 -0.155263,0.489293 -0.273238,0.390871 -0.334473,0.455399 -0.334473,0.352461 z"
       id="path1181"
       inkscape:connector-curvature="0"
       transform="matrix(0.26458333,0,0,0.26458333,0,280.06665)" />
    <path
       style="fill:#666666;fill-opacity:1;stroke-width:0.06313454"
       d="m 44.145374,41.673224 c -0.592778,-0.189579 -1.090598,-0.638785 -1.19652,-1.079675 -0.09105,-0.378981 -0.179309,-1.262691 -0.126112,-1.262691 0.03788,0 0.120972,-0.496319 0.145335,-0.8681 0.0051,-0.07813 0.03366,-0.142052 0.06341,-0.142052 0.02976,0 0.03775,-0.04262 0.01776,-0.0947 -0.01999,-0.05209 -0.0058,-0.0947 0.03157,-0.0947 0.03735,0 0.05156,-0.04262 0.03157,-0.0947 -0.01999,-0.05209 -0.01227,-0.0947 0.01715,-0.0947 0.02942,0 0.0888,-0.08523 0.131947,-0.189404 0.04315,-0.104172 0.09193,-0.189404 0.108403,-0.189404 0.06812,0 0.396673,0.220442 0.396673,0.266151 0,0.02724 0.03084,0.04952 0.06853,0.04952 0.03769,0 0.442541,0.265817 0.899667,0.590704 0.759347,0.53968 1.46747,1.023761 1.872858,1.280308 0.55723,0.352639 -0.435835,-0.380137 -1.688849,-1.24619 -0.807333,-0.558009 -1.467878,-1.043428 -1.467878,-1.078709 0,-0.09372 0.339157,-0.682395 0.393195,-0.68247 0.04625,-6.5e-5 0.513707,0.317368 1.911216,1.29783 0.416688,0.292339 0.951622,0.66058 1.188743,0.818314 l 0.431128,0.286787 -0.115456,0.180734 c -0.0635,0.0994 -0.306453,0.423987 -0.539893,0.721297 -0.83595,1.064667 -2.010269,1.80629 -2.574453,1.625855 z"
       id="path1183"
       inkscape:connector-curvature="0"
       transform="matrix(0.26458333,0,0,0.26458333,0,280.06665)" />
    <path
       style="fill:#666666;fill-opacity:1;stroke-width:0.06313454"
       d="m 47.365235,39.14184 c 0,-0.03451 -0.234387,-0.220376 -0.52086,-0.413031 -0.286473,-0.192656 -0.81917,-0.560575 -1.183772,-0.817598 -0.587098,-0.413871 -1.607587,-1.122285 -1.793681,-1.245158 -0.04821,-0.03183 -0.04819,-0.06426 6.6e-5,-0.11252 0.04831,-0.04831 0.184278,0.02557 0.472981,0.257003 0.222851,0.178641 0.675083,0.51208 1.004961,0.740976 0.329878,0.228896 0.613984,0.434818 0.631346,0.457605 0.01736,0.02279 0.119772,0.08661 0.227577,0.141819 0.440723,0.225716 1.27965,0.874774 1.245546,0.963648 -0.03995,0.104106 -0.08416,0.118425 -0.08416,0.02726 z"
       id="path1185"
       inkscape:connector-curvature="0"
       transform="matrix(0.26458333,0,0,0.26458333,0,280.06665)" />
    <path
       style="fill:#999999;fill-opacity:1;stroke-width:0.08928572"
       d="m 43.482645,60.954818 -0.379464,-0.08967 v -1.11144 -1.11144 l 0.61909,0.05754 c 0.355904,0.03308 0.991682,0.0084 1.495535,-0.05794 l 0.876446,-0.115473 6.863357,-4.454573 c 3.774846,-2.450015 6.872779,-4.442637 6.884296,-4.428048 0.01152,0.01459 -0.0033,0.437871 -0.033,0.940628 l -0.05394,0.914105 -6.651785,4.357908 c -3.658482,2.396849 -6.95546,4.523604 -7.326618,4.726122 -0.550448,0.300346 -0.789074,0.376853 -1.294643,0.415079 -0.340896,0.02577 -0.79057,0.0065 -0.999275,-0.0428 z"
       id="path1187"
       inkscape:connector-curvature="0"
       transform="matrix(0.26458333,0,0,0.26458333,0,280.06665)" />
  </g>
</svg>
